<svg width="23" height="23" viewBox="0 0 23 23" fill="none" xmlns="http://www.w3.org/2000/svg">
<path d="M10.7812 7.90625C10.7812 7.71563 10.857 7.53281 10.9918 7.39802C11.1266 7.26323 11.3094 7.1875 11.5 7.1875C11.6906 7.1875 11.8734 7.26323 12.0082 7.39802C12.143 7.53281 12.2188 7.71563 12.2188 7.90625V10.7812H15.0938C15.2844 10.7812 15.4672 10.857 15.602 10.9918C15.7368 11.1266 15.8125 11.3094 15.8125 11.5C15.8125 11.6906 15.7368 11.8734 15.602 12.0082C15.4672 12.143 15.2844 12.2188 15.0938 12.2188H12.2188V15.0938C12.2188 15.2844 12.143 15.4672 12.0082 15.602C11.8734 15.7368 11.6906 15.8125 11.5 15.8125C11.3094 15.8125 11.1266 15.7368 10.9918 15.602C10.857 15.4672 10.7812 15.2844 10.7812 15.0938V12.2188H7.90625C7.71563 12.2188 7.53281 12.143 7.39802 12.0082C7.26323 11.8734 7.1875 11.6906 7.1875 11.5C7.1875 11.3094 7.26323 11.1266 7.39802 10.9918C7.53281 10.857 7.71563 10.7812 7.90625 10.7812H10.7812V7.90625ZM21.5625 11.5C21.5625 17.0574 17.0574 21.5625 11.5 21.5625C5.94263 21.5625 1.4375 17.0574 1.4375 11.5C1.4375 5.94263 5.94263 1.4375 11.5 1.4375C17.0574 1.4375 21.5625 5.94263 21.5625 11.5ZM20.125 11.5C20.125 6.73684 16.2632 2.875 11.5 2.875C6.73684 2.875 2.875 6.73684 2.875 11.5C2.875 16.2632 6.73684 20.125 11.5 20.125C16.2632 20.125 20.125 16.2632 20.125 11.5Z" fill="#4F4F4F"/>
</svg>
