<svg width="41" height="41" viewBox="0 0 41 41" fill="none" xmlns="http://www.w3.org/2000/svg">
<path d="M20.5 0.083252C9.43212 0.083252 0.0833282 9.43204 0.0833282 20.4999C0.0833282 31.5678 9.43212 40.9166 20.5 40.9166C31.5679 40.9166 40.9167 31.5678 40.9167 20.4999C40.9167 9.43204 31.5679 0.083252 20.5 0.083252ZM20.5 10.2916C24.026 10.2916 26.625 12.8886 26.625 16.4166C26.625 19.9446 24.026 22.5416 20.5 22.5416C16.9761 22.5416 14.375 19.9446 14.375 16.4166C14.375 12.8886 16.9761 10.2916 20.5 10.2916ZM10.0752 30.2428C11.9066 27.5478 14.961 25.7511 18.4583 25.7511H22.5417C26.0411 25.7511 29.0934 27.5478 30.9247 30.2428C28.3155 33.0358 24.614 34.7916 20.5 34.7916C16.386 34.7916 12.6845 33.0358 10.0752 30.2428Z" fill="#B8B8B8"/>
</svg>
