<svg width="41" height="40" viewBox="0 0 41 40" fill="none" xmlns="http://www.w3.org/2000/svg">
<path d="M20.082 -6.10352e-05C9.24003 -6.10352e-05 0.0820312 9.15794 0.0820312 19.9999C0.0820312 30.8419 9.24003 39.9999 20.082 39.9999C30.924 39.9999 40.082 30.8419 40.082 19.9999C40.082 9.15794 30.924 -6.10352e-05 20.082 -6.10352e-05ZM20.082 9.99994C23.536 9.99994 26.082 12.5439 26.082 15.9999C26.082 19.4559 23.536 21.9999 20.082 21.9999C16.63 21.9999 14.082 19.4559 14.082 15.9999C14.082 12.5439 16.63 9.99994 20.082 9.99994ZM9.87003 29.5439C11.664 26.9039 14.656 25.1439 18.082 25.1439H22.082C25.51 25.1439 28.5 26.9039 30.294 29.5439C27.738 32.2799 24.112 33.9999 20.082 33.9999C16.052 33.9999 12.426 32.2799 9.87003 29.5439Z" fill="#193661"/>
</svg>
