<svg width="17" height="16" viewBox="0 0 17 16" fill="none" xmlns="http://www.w3.org/2000/svg">
<path d="M16.9915 5.27217L16.2786 9.28063C16.1906 9.72343 15.8307 9.99267 15.4156 9.99772H5.02208L4.81573 11.1377H14.7214C15.243 11.1766 15.5968 11.5387 15.6032 12.0019C15.5653 12.5121 15.1958 12.8598 14.7214 12.8661H3.76512C3.17257 12.8139 2.81924 12.351 2.88336 11.8364L3.35237 9.33575L2.63946 2.31175L0.613302 1.68662C0.118163 1.49394 -0.0839249 1.05493 0.0317177 0.601764C0.224002 0.129476 0.684745 -0.0863067 1.1386 0.0317551L3.72759 0.840804C4.07637 0.968946 4.27702 1.24876 4.32793 1.5763L4.47801 2.97375L16.2223 4.26086C16.7619 4.37542 17.0548 4.79434 16.9915 5.27217ZM6.44969 14.6807C6.44969 15.4093 5.84704 16 5.1036 16C4.36017 16 3.75752 15.4093 3.75752 14.6807C3.75752 13.9521 4.36019 13.3614 5.1036 13.3614C5.84702 13.3614 6.44969 13.9521 6.44969 14.6807ZM14.4858 14.6807C14.4858 15.4093 13.8831 16 13.1397 16C12.3962 16 11.7936 15.4093 11.7936 14.6807C11.7936 13.9521 12.3962 13.3614 13.1397 13.3614C13.8831 13.3614 14.4858 13.9521 14.4858 14.6807Z" fill="white"/>
</svg>
