<svg width="17" height="17" viewBox="0 0 17 17" fill="none" xmlns="http://www.w3.org/2000/svg">
<path d="M9.78662 7.15539C9.10405 6.46296 8.17847 6.07397 7.21337 6.07397C6.24828 6.07397 5.32269 6.46296 4.64013 7.15539L2.06605 9.76693C1.38347 10.4597 1 11.3992 1 12.3789C1 13.3586 1.38347 14.2981 2.06605 14.9908C2.74862 15.6836 3.6744 16.0728 4.63971 16.0728C5.60502 16.0728 6.5308 15.6836 7.21337 14.9908L8.5 13.6851" stroke="white" stroke-width="1.5" stroke-linecap="round" stroke-linejoin="round"/>
<path d="M7.21289 9.76684C7.89546 10.4593 8.82104 10.8483 9.78614 10.8483C10.7512 10.8483 11.6768 10.4593 12.3594 9.76684L14.9335 7.15527C15.616 6.46253 15.9995 5.52296 15.9995 4.54328C15.9995 3.56359 15.616 2.62403 14.9335 1.93129C14.2509 1.23854 13.3251 0.849365 12.3598 0.849365C11.3945 0.849365 10.4687 1.23854 9.78614 1.93129L8.49951 3.23707" stroke="white" stroke-width="1.5" stroke-linecap="round" stroke-linejoin="round"/>
</svg>
