<svg width="22" height="17" viewBox="0 0 22 17" fill="none" xmlns="http://www.w3.org/2000/svg">
<path d="M20.3377 6.70309C20.7817 6.70309 21.1429 6.34188 21.1429 5.89788V5.40288C21.1429 4.95892 20.7817 4.59767 20.3377 4.59767H20.1151V0.708329C20.1151 0.317763 19.7974 0 19.4068 0H18.9277C18.5371 0 18.2194 0.317763 18.2194 0.708329V4.59772H16.8485V3.37576C17.219 3.25675 17.4879 2.90905 17.4879 2.49957C17.4879 1.99218 17.0751 1.5794 16.5677 1.5794H14.4169C13.9095 1.5794 13.4967 1.99218 13.4967 2.49957C13.4967 2.90905 13.7656 3.25675 14.1361 3.37576V4.59772H11.9276V3.37576C12.298 3.25675 12.5669 2.90905 12.5669 2.49957C12.5669 1.99218 12.1542 1.5794 11.6468 1.5794H9.49594C8.98855 1.5794 8.57576 1.99218 8.57576 2.49957C8.57576 2.90905 8.84468 3.25675 9.21513 3.37576V4.59772H7.0066V3.37576C7.37706 3.25675 7.64597 2.90905 7.64597 2.49957C7.64597 1.99218 7.23319 1.5794 6.7258 1.5794H4.57496C4.06757 1.5794 3.65479 1.99218 3.65479 2.49957C3.65479 2.90905 3.9237 3.25675 4.29416 3.37576V4.59772H2.9235V0.708329C2.9235 0.317763 2.60574 0 2.21517 0H1.73611C1.34555 0 1.02779 0.317763 1.02779 0.708329V1.96096C1.02779 2.13201 1.16645 2.27067 1.3375 2.27067C1.50854 2.27067 1.64721 2.13201 1.64721 1.96096V0.708329C1.64721 0.659271 1.6871 0.619421 1.73611 0.619421H2.21522C2.26423 0.619421 2.30412 0.659312 2.30412 0.708329V4.59772H1.64721V3.40892C1.64721 3.23788 1.50854 3.09921 1.3375 3.09921C1.16645 3.09921 1.02779 3.23788 1.02779 3.40892V4.59772H0.805165C0.361205 4.59767 0 4.95888 0 5.40288V5.89788C0 6.34184 0.361205 6.70309 0.805165 6.70309H1.02779V13.8577H0.826019C0.370538 13.8577 0 14.2283 0 14.6837V16.0255C0 16.481 0.370538 16.8516 0.826019 16.8516H20.3169C20.7724 16.8516 21.1429 16.481 21.1429 16.0255V14.6837C21.1429 14.2282 20.7724 13.8577 20.3169 13.8577H20.1151V6.70309H20.3377ZM18.8388 0.708329C18.8388 0.659271 18.8787 0.619421 18.9277 0.619421H19.4068C19.4559 0.619421 19.4957 0.659312 19.4957 0.708329V4.59772H18.8389V0.708329H18.8388ZM14.1162 2.49957C14.1162 2.33373 14.2511 2.19882 14.4169 2.19882H16.5678C16.7336 2.19882 16.8685 2.33373 16.8685 2.49957C16.8685 2.66541 16.7336 2.80032 16.5678 2.80032H14.4169C14.2511 2.80028 14.1162 2.66537 14.1162 2.49957ZM16.2292 3.4197V4.59767H14.7556V3.4197H16.2292ZM9.19531 2.49957C9.19531 2.33373 9.33022 2.19882 9.49606 2.19882H11.6469C11.8127 2.19882 11.9476 2.33373 11.9476 2.49957C11.9476 2.66541 11.8127 2.80032 11.6469 2.80032H9.49606C9.33022 2.80028 9.19531 2.66537 9.19531 2.49957ZM11.3082 3.4197V4.59767H9.83468V3.4197H11.3082ZM4.27438 2.49957C4.27438 2.33373 4.40929 2.19882 4.57513 2.19882H6.72597C6.89181 2.19882 7.02672 2.33373 7.02672 2.49957C7.02672 2.66541 6.89181 2.80032 6.72597 2.80032H4.57513C4.40929 2.80028 4.27438 2.66537 4.27438 2.49957ZM6.38731 3.4197V4.59767H4.91375V3.4197H6.38731ZM20.3169 14.4772C20.4308 14.4772 20.5235 14.5698 20.5235 14.6838V16.0256C20.5235 16.1395 20.4308 16.2322 20.3169 16.2322H0.826019C0.712087 16.2322 0.619421 16.1395 0.619421 16.0256V14.6838C0.619421 14.5698 0.712087 14.4772 0.826019 14.4772H20.3169ZM1.64721 13.8577V6.70309H2.30408V13.8577H1.64721ZM5.65053 13.0209C6.39833 13.0209 7.00673 12.4125 7.00673 11.6647V6.70309H9.21525V11.6647C9.21525 12.4125 9.82365 13.0209 10.5715 13.0209C11.3193 13.0209 11.9277 12.4125 11.9277 11.6647V6.70309H14.1362V11.6647C14.1362 12.4125 14.7446 13.0209 15.4924 13.0209C16.2402 13.0209 16.8486 12.4125 16.8486 11.6647V10.7899C16.8486 10.6189 16.7099 10.4802 16.5389 10.4802C16.3678 10.4802 16.2292 10.6189 16.2292 10.7899V11.6647C16.2292 12.0709 15.8986 12.4014 15.4924 12.4014C15.0861 12.4014 14.7556 12.0709 14.7556 11.6647V8.50276H16.2292V9.34806C16.2292 9.5191 16.3678 9.65777 16.5389 9.65777C16.7099 9.65777 16.8486 9.5191 16.8486 9.34806V6.70309H18.2194V13.8577H2.9235V6.70309H4.29432V11.6647C4.29432 12.4125 4.90272 13.0209 5.65053 13.0209ZM6.38731 8.50276V11.6647C6.38731 12.0709 6.05678 12.4014 5.65053 12.4014C5.24427 12.4014 4.91375 12.0709 4.91375 11.6647V8.50276H6.38731ZM4.91375 7.88333V6.70309H6.38731V7.88333H4.91375ZM11.3082 8.50276V11.6647C11.3082 12.0709 10.9777 12.4014 10.5715 12.4014C10.1652 12.4014 9.83468 12.0709 9.83468 11.6647V8.50276H11.3082ZM9.83468 7.88333V6.70309H11.3082V7.88333H9.83468ZM14.7556 7.88333V6.70309H16.2292V7.88333H14.7556ZM18.8388 13.8577V6.70309H19.4957V13.8577H18.8388ZM0.805165 6.08367C0.702754 6.08367 0.619421 6.00033 0.619421 5.89788V5.40288C0.619421 5.30047 0.702754 5.2171 0.805165 5.2171H20.3377C20.4402 5.2171 20.5235 5.30043 20.5235 5.40288V5.89788C20.5235 6.00029 20.4402 6.08367 20.3377 6.08367H0.805165Z" fill="white"/>
</svg>
