<svg width="20" height="20" viewBox="0 0 20 20" fill="none" xmlns="http://www.w3.org/2000/svg">
<path d="M17.0712 2.92998C17.5399 3.3988 17.8032 4.03457 17.8032 4.69748C17.8032 5.36039 17.5399 5.99616 17.0712 6.46498L7.83745 15.6987C7.43701 16.0989 6.9354 16.3827 6.3862 16.52L3.52245 17.2362C3.41769 17.2624 3.30794 17.2609 3.2039 17.2321C3.09986 17.2032 3.00508 17.1478 2.92879 17.0714C2.8525 16.995 2.79731 16.9001 2.7686 16.796C2.73988 16.6919 2.73863 16.5822 2.76495 16.4775L3.47995 13.615C3.61734 13.0652 3.90165 12.5631 4.30245 12.1625L13.5349 2.92998C13.7671 2.69773 14.0427 2.51349 14.3461 2.38779C14.6495 2.26209 14.9747 2.19739 15.3031 2.19739C15.6315 2.19739 15.9566 2.26209 16.26 2.38779C16.5634 2.51349 16.839 2.69773 17.0712 2.92998ZM12.6512 5.57998L5.18745 13.0475C4.94737 13.2879 4.77714 13.5891 4.69495 13.9187L4.2312 15.7725L6.0837 15.3087C6.41351 15.2262 6.71467 15.0555 6.95495 14.815L14.4199 7.34998L12.6524 5.58248L12.6512 5.57998ZM14.4199 3.81373L13.5349 4.69748L15.3024 6.46498L16.1874 5.58123C16.4151 5.34548 16.5411 5.02972 16.5383 4.70198C16.5354 4.37423 16.404 4.06072 16.1722 3.82896C15.9405 3.5972 15.6269 3.46573 15.2992 3.46289C14.9715 3.46004 14.6557 3.58603 14.4199 3.81373Z" fill="#4F4F4F"/>
</svg>
