<svg width="30" height="30" viewBox="0 0 30 30" fill="none" xmlns="http://www.w3.org/2000/svg">
<path d="M15 5C13.0222 5 11.0888 5.58649 9.4443 6.6853C7.79981 7.78412 6.51809 9.3459 5.76121 11.1732C5.00433 13.0004 4.8063 15.0111 5.19215 16.9509C5.578 18.8907 6.53041 20.6725 7.92894 22.0711C9.32746 23.4696 11.1093 24.422 13.0491 24.8078C14.9889 25.1937 16.9996 24.9957 18.8268 24.2388C20.6541 23.4819 22.2159 22.2002 23.3147 20.5557C24.4135 18.9112 25 16.9778 25 15C25 12.3478 23.9464 9.8043 22.0711 7.92893C20.1957 6.05357 17.6522 5 15 5ZM15 23.3333C13.3518 23.3333 11.7407 22.8446 10.3703 21.9289C8.99984 21.0132 7.93174 19.7117 7.30101 18.189C6.67028 16.6663 6.50525 14.9908 6.82679 13.3742C7.14834 11.7577 7.94201 10.2729 9.10745 9.10744C10.2729 7.94201 11.7577 7.14833 13.3743 6.82679C14.9908 6.50525 16.6663 6.67027 18.189 7.301C19.7118 7.93173 21.0132 8.99984 21.9289 10.3702C22.8446 11.7407 23.3333 13.3518 23.3333 15C23.3333 16.0943 23.1178 17.178 22.699 18.189C22.2802 19.2001 21.6664 20.1187 20.8926 20.8926C20.1187 21.6664 19.2001 22.2802 18.189 22.699C17.178 23.1178 16.0944 23.3333 15 23.3333Z" fill="#EB5757"/>
<path d="M15.0013 16.725C14.714 16.725 14.4384 16.6109 14.2353 16.4077C14.0321 16.2045 13.918 15.929 13.918 15.6417V10.6417C13.918 10.3543 14.0321 10.0788 14.2353 9.87562C14.4384 9.67246 14.714 9.55832 15.0013 9.55832C15.2886 9.55832 15.5642 9.67246 15.7673 9.87562C15.9705 10.0788 16.0846 10.3543 16.0846 10.6417V15.6417C16.0846 15.929 15.9705 16.2045 15.7673 16.4077C15.5642 16.6109 15.2886 16.725 15.0013 16.725Z" fill="#EB5757"/>
<path d="M14.9609 20.4333C15.6513 20.4333 16.2109 19.8737 16.2109 19.1833C16.2109 18.493 15.6513 17.9333 14.9609 17.9333C14.2706 17.9333 13.7109 18.493 13.7109 19.1833C13.7109 19.8737 14.2706 20.4333 14.9609 20.4333Z" fill="#EB5757"/>
</svg>
