<svg width="37" height="37" viewBox="0 0 37 37" fill="none" xmlns="http://www.w3.org/2000/svg">
<path d="M0 26.9792V10.0208C0 8.325 1.3875 6.9375 3.08333 6.9375H26.2083C27.9042 6.9375 29.2917 8.325 29.2917 10.0208V26.9792C29.2917 28.675 27.9042 30.0625 26.2083 30.0625H3.08333C1.3875 30.0625 0 28.675 0 26.9792Z" fill="white"/>
<path d="M29.2917 16.1875V14.6458H20.0417C19.1938 14.6458 18.5 13.9521 18.5 13.1041C18.5 12.2562 19.1938 11.5625 20.0417 11.5625H20.8125V10.0208H20.0417C18.3458 10.0208 16.9583 11.4083 16.9583 13.1041C16.9583 14.8 18.3458 16.1875 20.0417 16.1875H22.3542V20.8125H20.0417C17.8833 20.8125 16.1875 22.5083 16.1875 24.6666C16.1875 26.825 17.8833 28.5208 20.0417 28.5208H21.5833V26.9791H20.0417C18.7313 26.9791 17.7292 25.9771 17.7292 24.6666C17.7292 23.3562 18.7313 22.3541 20.0417 22.3541H29.2917V20.8125H23.8958V16.1875H29.2917Z" fill="#12699B"/>
<path d="M9.25 20.8125H6.9375V16.1875H9.25C10.9458 16.1875 12.3333 14.8 12.3333 13.1041C12.3333 11.4083 10.9458 10.0208 9.25 10.0208H6.9375V11.5625H9.25C10.0979 11.5625 10.7917 12.2562 10.7917 13.1041C10.7917 13.9521 10.0979 14.6458 9.25 14.6458H0V16.1875H5.39583V20.8125H0V22.3541H9.25C10.5604 22.3541 11.5625 23.3562 11.5625 24.6666C11.5625 25.9771 10.5604 26.9791 9.25 26.9791H7.70833V28.5208H9.25C11.4083 28.5208 13.1042 26.825 13.1042 24.6666C13.1042 22.5083 11.4083 20.8125 9.25 20.8125Z" fill="#12699B"/>
</svg>
