<svg width="16" height="18" viewBox="0 0 16 18" fill="none" xmlns="http://www.w3.org/2000/svg">
<path d="M12.6667 6.33333H14.2222C14.4285 6.33333 14.6263 6.41361 14.7722 6.55649C14.9181 6.69938 15 6.89317 15 7.09524V16.2381C15 16.4402 14.9181 16.634 14.7722 16.7768C14.6263 16.9197 14.4285 17 14.2222 17H1.77778C1.5715 17 1.37367 16.9197 1.22781 16.7768C1.08194 16.634 1 16.4402 1 16.2381V7.09524C1 6.89317 1.08194 6.69938 1.22781 6.55649C1.37367 6.41361 1.5715 6.33333 1.77778 6.33333H3.33333V5.57143C3.33333 4.35901 3.825 3.19625 4.70017 2.33894C5.57534 1.48163 6.76232 1 8 1C9.23768 1 10.4247 1.48163 11.2998 2.33894C12.175 3.19625 12.6667 4.35901 12.6667 5.57143V6.33333ZM2.55556 7.85714V15.4762H13.4444V7.85714H2.55556ZM7.22222 10.9048H8.77778V12.4286H7.22222V10.9048ZM4.11111 10.9048H5.66667V12.4286H4.11111V10.9048ZM10.3333 10.9048H11.8889V12.4286H10.3333V10.9048ZM11.1111 6.33333V5.57143C11.1111 4.76315 10.7833 3.98798 10.1999 3.41644C9.61644 2.8449 8.82512 2.52381 8 2.52381C7.17488 2.52381 6.38356 2.8449 5.80011 3.41644C5.21667 3.98798 4.88889 4.76315 4.88889 5.57143V6.33333H11.1111Z" fill="#BDBDBD" stroke="#F2F2F2" stroke-width="0.4"/>
</svg>
