<svg width="13" height="13" viewBox="0 0 13 13" fill="none" xmlns="http://www.w3.org/2000/svg">
<path d="M2.91025 13H0.214972V4.32064H2.91025V13ZM1.56098 3.13671C0.699239 3.13671 0 2.42264 0 1.56093C0 1.14694 0.16446 0.749916 0.457202 0.457185C0.749943 0.164455 1.14699 0 1.56098 0C1.97498 0 2.37203 0.164455 2.66477 0.457185C2.95751 0.749916 3.12197 1.14694 3.12197 1.56093C3.12197 2.42264 2.42273 3.13671 1.56098 3.13671ZM12.9977 13H10.3084V8.775C10.3084 7.76796 10.288 6.47679 8.90718 6.47679C7.50591 6.47679 7.29094 7.57064 7.29094 8.70257V13H4.59845V4.32064H7.18322V5.50457H7.22083C7.58066 4.82254 8.45959 4.10289 9.77078 4.10289C12.4986 4.10289 13 5.89921 13 8.23225V13H12.9977Z" fill="white"/>
</svg>
