<svg width="32" height="32" viewBox="0 0 32 32" fill="none" xmlns="http://www.w3.org/2000/svg">
<mask id="path-1-inside-1_761_1003" fill="white">
<path d="M1.39876e-06 16C1.12211e-06 19.1645 0.938384 22.2579 2.69649 24.8891C4.45459 27.5203 6.95345 29.5711 9.87707 30.7821C12.8007 31.9931 16.0177 32.3099 19.1214 31.6926C22.2251 31.0752 25.0761 29.5513 27.3137 27.3137C29.5513 25.0761 31.0752 22.2251 31.6926 19.1214C32.3099 16.0177 31.9931 12.8007 30.7821 9.87707C29.5711 6.95345 27.5203 4.45459 24.8891 2.69648C22.2579 0.938382 19.1645 -1.12211e-06 16 -1.39876e-06L16 16L1.39876e-06 16Z"/>
</mask>
<path d="M1.39876e-06 16C1.12211e-06 19.1645 0.938384 22.2579 2.69649 24.8891C4.45459 27.5203 6.95345 29.5711 9.87707 30.7821C12.8007 31.9931 16.0177 32.3099 19.1214 31.6926C22.2251 31.0752 25.0761 29.5513 27.3137 27.3137C29.5513 25.0761 31.0752 22.2251 31.6926 19.1214C32.3099 16.0177 31.9931 12.8007 30.7821 9.87707C29.5711 6.95345 27.5203 4.45459 24.8891 2.69648C22.2579 0.938382 19.1645 -1.12211e-06 16 -1.39876e-06L16 16L1.39876e-06 16Z" stroke="white" stroke-width="2" mask="url(#path-1-inside-1_761_1003)"/>
<circle cx="16" cy="16" r="15" fill="#07247C"/>
<circle cx="16" cy="16" r="9" fill="white"/>
</svg>
