<svg width="61" height="39" viewBox="0 0 61 39" fill="none" xmlns="http://www.w3.org/2000/svg">
<rect width="61" height="39" rx="5" fill="white"/>
<path d="M18.5446 33.8609V32.0077C18.5446 31.2971 18.1123 30.8339 17.3714 30.8339C17.001 30.8339 16.5996 30.9574 16.3217 31.359C16.1057 31.0192 15.7971 30.8339 15.334 30.8339C15.0252 30.8339 14.7166 30.9265 14.4696 31.2663V30.8957H13.8213V33.8609H14.4696V32.2238C14.4696 31.6988 14.7474 31.4516 15.1797 31.4516C15.6117 31.4516 15.828 31.7296 15.828 32.2238V33.8609H16.4763V32.2238C16.4763 31.6988 16.7848 31.4516 17.1862 31.4516C17.6184 31.4516 17.8344 31.7296 17.8344 32.2238V33.8609H18.5446ZM28.1452 30.8957H27.0957V30H26.4474V30.8957H25.8609V31.4824H26.4473V32.8416C26.4473 33.5212 26.7252 33.9226 27.4661 33.9226C27.744 33.9226 28.0525 33.83 28.2688 33.7065L28.0835 33.1504C27.8983 33.274 27.6823 33.3049 27.5279 33.3049C27.2192 33.3049 27.0957 33.1196 27.0957 32.8106V31.4824H28.1452V30.8957ZM33.6403 30.8338C33.2699 30.8338 33.0229 31.0192 32.8685 31.2663V30.8957H32.2202V33.8609H32.8685V32.193C32.8685 31.6988 33.0845 31.4208 33.4859 31.4208C33.6093 31.4208 33.7637 31.4517 33.8872 31.4825L34.0724 30.8649C33.9489 30.8339 33.7637 30.8339 33.6403 30.8339V30.8338ZM25.3361 31.1427C25.0273 30.9265 24.5951 30.8339 24.1321 30.8339C23.3912 30.8339 22.8974 31.2045 22.8974 31.7914C22.8974 32.2857 23.2678 32.5636 23.9161 32.6563L24.2247 32.6872C24.5643 32.7489 24.7495 32.8416 24.7495 32.9961C24.7495 33.2122 24.5026 33.3667 24.0703 33.3667C23.6382 33.3667 23.2986 33.2122 23.0824 33.0579L22.7738 33.552C23.1134 33.7991 23.5764 33.9226 24.0394 33.9226C24.9038 33.9226 25.3978 33.5212 25.3978 32.9651C25.3978 32.44 24.9965 32.162 24.379 32.0694L24.0703 32.0385C23.7924 32.0075 23.5764 31.9459 23.5764 31.7606C23.5764 31.5443 23.7924 31.4208 24.1321 31.4208C24.5026 31.4208 24.873 31.5751 25.0582 31.6679L25.3361 31.1427ZM42.5619 30.8339C42.1914 30.8339 41.9445 31.0192 41.7901 31.2663V30.8957H41.1418V33.8609H41.7901V32.193C41.7901 31.6988 42.0062 31.4208 42.4074 31.4208C42.531 31.4208 42.6854 31.4517 42.8089 31.4825L42.9941 30.8649C42.8706 30.8339 42.6854 30.8339 42.5619 30.8339ZM34.2886 32.3783C34.2886 33.274 34.9059 33.9226 35.863 33.9226C36.2951 33.9226 36.6038 33.83 36.9125 33.583L36.6038 33.0579C36.3569 33.2432 36.1099 33.3358 35.8321 33.3358C35.3072 33.3358 34.9368 32.9651 34.9368 32.3783C34.9368 31.8223 35.3072 31.4516 35.8321 31.4208C36.1099 31.4208 36.3569 31.5134 36.6038 31.6988L36.9125 31.1737C36.6038 30.9265 36.2951 30.8339 35.863 30.8339C34.9059 30.8339 34.2886 31.4825 34.2886 32.3783ZM40.2775 32.3783V30.8957H39.6292V31.2663C39.4131 30.9884 39.1044 30.8339 38.7031 30.8339C37.8696 30.8339 37.2213 31.4825 37.2213 32.3783C37.2213 33.274 37.8696 33.9226 38.7031 33.9226C39.1352 33.9226 39.444 33.7683 39.6292 33.4902V33.8609H40.2775V32.3783ZM37.9004 32.3783C37.9004 31.8532 38.24 31.4208 38.7956 31.4208C39.3204 31.4208 39.6909 31.8223 39.6909 32.3783C39.6909 32.9034 39.3204 33.3358 38.7956 33.3358C38.24 33.3048 37.9004 32.9034 37.9004 32.3783ZM30.1519 30.8339C29.2875 30.8339 28.67 31.4516 28.67 32.3783C28.67 33.3049 29.2874 33.9226 30.1827 33.9226C30.6149 33.9226 31.0472 33.7991 31.3868 33.5212L31.0779 33.0579C30.831 33.2432 30.5223 33.3667 30.2137 33.3667C29.8123 33.3667 29.411 33.1814 29.3183 32.6562H31.5102V32.4092C31.5412 31.4516 30.9854 30.8339 30.1518 30.8339H30.1519ZM30.1519 31.3898C30.5531 31.3898 30.8312 31.637 30.8927 32.1004H29.3492C29.411 31.6988 29.6889 31.3898 30.1519 31.3898ZM46.2355 32.3783V29.7219H45.5872V31.2663C45.3711 30.9884 45.0624 30.8339 44.6611 30.8339C43.8276 30.8339 43.1793 31.4825 43.1793 32.3783C43.1793 33.274 43.8276 33.9226 44.6611 33.9226C45.0933 33.9226 45.402 33.7683 45.5872 33.4902V33.8609H46.2355V32.3783ZM43.8585 32.3783C43.8585 31.8532 44.198 31.4208 44.7537 31.4208C45.2785 31.4208 45.6489 31.8223 45.6489 32.3783C45.6489 32.9034 45.2785 33.3358 44.7537 33.3358C44.198 33.3048 43.8585 32.9034 43.8585 32.3783ZM22.1872 32.3783V30.8957H21.5389V31.2663C21.3228 30.9884 21.0141 30.8339 20.6128 30.8339C19.7793 30.8339 19.131 31.4825 19.131 32.3783C19.131 33.274 19.7793 33.9226 20.6128 33.9226C21.0451 33.9226 21.3537 33.7683 21.5389 33.4902V33.8609H22.1872V32.3783ZM19.7793 32.3783C19.7793 31.8532 20.1189 31.4208 20.6745 31.4208C21.1993 31.4208 21.5699 31.8223 21.5699 32.3783C21.5699 32.9034 21.1993 33.3358 20.6745 33.3358C20.1189 33.3048 19.7793 32.9034 19.7793 32.3783Z" fill="black"/>
<path d="M25.1201 8.37842H34.8443V25.861H25.1201V8.37842Z" fill="#FF5F00"/>
<path d="M25.7375 17.1197C25.7375 13.5676 27.4045 10.417 29.9667 8.37831C28.0837 6.89572 25.7067 6 23.1136 6C16.9701 6 12 10.9729 12 17.1197C12 23.2663 16.9701 28.2393 23.1135 28.2393C25.7066 28.2393 28.0836 27.3436 29.9667 25.8609C27.4045 23.8532 25.7375 20.6717 25.7375 17.1197Z" fill="#EB001B"/>
<path d="M47.9642 17.1197C47.9642 23.2663 42.9941 28.2393 36.8508 28.2393C34.2577 28.2393 31.8807 27.3436 29.9976 25.8609C32.5907 23.8224 34.2269 20.6717 34.2269 17.1197C34.2269 13.5676 32.5597 10.417 29.9976 8.37831C31.8805 6.89572 34.2577 6 36.8508 6C42.9941 6 47.9644 11.0038 47.9644 17.1197H47.9642Z" fill="#F79E1B"/>
</svg>
