<svg width="18" height="13" viewBox="0 0 18 13" fill="none" xmlns="http://www.w3.org/2000/svg">
<path fill-rule="evenodd" clip-rule="evenodd" d="M0 1.26389C0 0.566222 0.588 0 1.3125 0H16.6875C17.412 0 18 0.566222 18 1.26389V11.7361C18 12.0713 17.8617 12.3928 17.6156 12.6298C17.3694 12.8668 17.0356 13 16.6875 13H1.3125C0.964403 13 0.630564 12.8668 0.384422 12.6298C0.138281 12.3928 0 12.0713 0 11.7361V1.26389ZM1.3125 1.08333C1.26277 1.08333 1.21508 1.10236 1.17992 1.13622C1.14475 1.17008 1.125 1.216 1.125 1.26389V11.7361C1.125 11.8358 1.209 11.9167 1.3125 11.9167H16.6875C16.7372 11.9167 16.7849 11.8976 16.8201 11.8638C16.8552 11.8299 16.875 11.784 16.875 11.7361V1.26389C16.875 1.216 16.8552 1.17008 16.8201 1.13622C16.7849 1.10236 16.7372 1.08333 16.6875 1.08333H1.3125Z" fill="#BDBDBD"/>
<path fill-rule="evenodd" clip-rule="evenodd" d="M3.75 4.15278C3.75 4.00912 3.80926 3.87134 3.91475 3.76976C4.02024 3.66818 4.16332 3.61111 4.3125 3.61111H12.9375C13.0867 3.61111 13.2298 3.66818 13.3352 3.76976C13.4407 3.87134 13.5 4.00912 13.5 4.15278C13.5 4.29644 13.4407 4.43421 13.3352 4.53579C13.2298 4.63738 13.0867 4.69444 12.9375 4.69444H4.3125C4.16332 4.69444 4.02024 4.63738 3.91475 4.53579C3.80926 4.43421 3.75 4.29644 3.75 4.15278ZM3.75 7.04167C3.75 6.89801 3.80926 6.76023 3.91475 6.65865C4.02024 6.55707 4.16332 6.5 4.3125 6.5H8.4375C8.58668 6.5 8.72976 6.55707 8.83525 6.65865C8.94074 6.76023 9 6.89801 9 7.04167C9 7.18533 8.94074 7.3231 8.83525 7.42468C8.72976 7.52626 8.58668 7.58333 8.4375 7.58333H4.3125C4.16332 7.58333 4.02024 7.52626 3.91475 7.42468C3.80926 7.3231 3.75 7.18533 3.75 7.04167Z" fill="#BDBDBD"/>
</svg>
