<svg width="16" height="17" viewBox="0 0 16 17" fill="none" xmlns="http://www.w3.org/2000/svg">
<path d="M7.71877 0.864258C6.3781 0.864623 5.06063 1.21928 3.89602 1.89332C2.73142 2.56736 1.75983 3.53756 1.07688 4.70842C0.393926 5.87927 0.0231521 7.21044 0.00104955 8.57089C-0.021053 9.93133 0.306278 11.2742 0.950825 12.4672L0.316476 14.7206C0.258296 14.9272 0.255628 15.1459 0.308749 15.354C0.36187 15.562 0.468847 15.7519 0.618595 15.9039C0.768342 16.0558 0.955411 16.1644 1.16041 16.2183C1.36542 16.2722 1.5809 16.2695 1.78452 16.2105L4.00478 15.5668C5.03659 16.1413 6.18419 16.4688 7.35984 16.5243C8.53549 16.5797 9.70806 16.3616 10.7879 15.8865C11.8678 15.4115 12.8263 14.6922 13.5902 13.7836C14.3541 12.8749 14.9032 11.8011 15.1955 10.644C15.4878 9.48701 15.5155 8.27747 15.2765 7.1079C15.0376 5.93834 14.5383 4.8397 13.8168 3.89601C13.0954 2.95231 12.1708 2.18853 11.1139 1.66307C10.057 1.1376 8.89569 0.864371 7.71877 0.864258ZM7.71877 15.3265C6.54585 15.3273 5.39442 15.0071 4.38575 14.3996C4.3162 14.3576 4.23894 14.3305 4.1587 14.3199C4.07846 14.3094 3.99694 14.3155 3.91913 14.3381L1.45826 15.0517L2.16133 12.5542C2.18357 12.4753 2.18966 12.3926 2.17925 12.3111C2.16883 12.2297 2.14213 12.1513 2.10077 12.0807C1.36516 10.8228 1.06012 9.35337 1.23315 7.90122C1.40619 6.44907 2.04759 5.09577 3.05745 4.05214C4.0673 3.00851 5.3889 2.33314 6.81637 2.13124C8.24384 1.92934 9.69703 2.21225 10.9496 2.9359C12.2021 3.65955 13.1836 4.7833 13.7413 6.1321C14.2989 7.4809 14.4014 8.97902 14.0327 10.3931C13.664 11.8071 12.8448 13.0577 11.7028 13.95C10.5608 14.8424 9.16003 15.3263 7.71877 15.3265ZM11.7011 7.06667C11.7563 7.12262 11.8 7.18905 11.8298 7.26217C11.8597 7.33528 11.875 7.41364 11.875 7.49277C11.875 7.57191 11.8597 7.65027 11.8298 7.72338C11.8 7.7965 11.7563 7.86293 11.7011 7.91888L9.32613 10.3293C9.27099 10.3852 9.20553 10.4296 9.1335 10.4599C9.06146 10.4902 8.98424 10.5058 8.90627 10.5058C8.82829 10.5058 8.75108 10.4902 8.67904 10.4599C8.607 10.4296 8.54155 10.3852 8.48641 10.3293L6.53127 8.34492L4.57612 10.3293C4.52098 10.3852 4.45553 10.4296 4.38349 10.4599C4.31145 10.4902 4.23424 10.5058 4.15626 10.5058C4.07829 10.5058 4.00108 10.4902 3.92904 10.4599C3.857 10.4296 3.79154 10.3852 3.73641 10.3293C3.68127 10.2733 3.63753 10.2069 3.60769 10.1338C3.57785 10.0606 3.5625 9.98228 3.5625 9.90314C3.5625 9.82401 3.57785 9.74565 3.60769 9.67253C3.63753 9.59942 3.68127 9.53299 3.73641 9.47704L6.11141 7.06667C6.16655 7.01071 6.232 6.96632 6.30404 6.93603C6.37608 6.90575 6.45329 6.89016 6.53127 6.89016C6.60924 6.89016 6.68645 6.90575 6.75849 6.93603C6.83053 6.96632 6.89599 7.01071 6.95112 7.06667L8.90627 9.051L10.8614 7.06667C10.9166 7.01071 10.982 6.96632 11.054 6.93603C11.1261 6.90575 11.2033 6.89016 11.2813 6.89016C11.3592 6.89016 11.4365 6.90575 11.5085 6.93603C11.5805 6.96632 11.646 7.01071 11.7011 7.06667Z" fill="#F2F2F2"/>
</svg>
