<svg width="17" height="17" viewBox="0 0 17 17" fill="none" xmlns="http://www.w3.org/2000/svg">
<path d="M8.50001 0.78125C7.15934 0.78161 5.84187 1.13106 4.67727 1.79521C3.51267 2.45937 2.54108 3.41532 1.85813 4.569C1.17518 5.72268 0.804402 7.0343 0.7823 8.37479C0.760197 9.71528 1.08753 11.0384 1.73207 12.214L1.09773 14.4342C1.03955 14.6379 1.03688 14.8533 1.09 15.0583C1.14312 15.2633 1.2501 15.4504 1.39984 15.6002C1.54959 15.7499 1.73666 15.8569 1.94166 15.91C2.14667 15.9631 2.36215 15.9605 2.56577 15.9023L4.78603 15.268C5.81783 15.8341 6.96543 16.1569 8.14108 16.2115C9.31673 16.2661 10.4893 16.0512 11.5691 15.5831C12.649 15.1151 13.6075 14.4063 14.3714 13.511C15.1354 12.6157 15.6845 11.5576 15.9767 10.4175C16.269 9.27747 16.2967 8.08568 16.0578 6.93328C15.8188 5.78087 15.3195 4.69836 14.5981 3.76851C13.8766 2.83866 12.9521 2.08609 11.8952 1.56834C10.8382 1.05058 9.67693 0.781361 8.50001 0.78125ZM8.50001 15.0312C7.32709 15.0321 6.17566 14.7166 5.16699 14.118C5.09745 14.0766 5.02019 14.0499 4.93995 14.0395C4.85971 14.0291 4.77818 14.0351 4.70038 14.0574L2.23951 14.7605L2.94258 12.2997C2.96481 12.2219 2.97091 12.1404 2.96049 12.0601C2.95008 11.9799 2.92338 11.9026 2.88202 11.8331C2.14641 10.5937 1.84137 9.14579 2.0144 7.71495C2.18744 6.28411 2.82884 4.95067 3.83869 3.92235C4.84855 2.89403 6.17015 2.22857 7.59761 2.02964C9.02508 1.83071 10.4783 2.10946 11.7308 2.82249C12.9833 3.53552 13.9649 4.64279 14.5225 5.97179C15.0802 7.3008 15.1826 8.77693 14.8139 10.1702C14.4452 11.5635 13.626 12.7958 12.484 13.675C11.342 14.5542 9.94127 15.0311 8.50001 15.0312ZM12.4824 6.89264C12.5375 6.94778 12.5812 7.01324 12.6111 7.08527C12.6409 7.15731 12.6563 7.23452 12.6563 7.3125C12.6563 7.39047 12.6409 7.46769 12.6111 7.53972C12.5812 7.61176 12.5375 7.67722 12.4824 7.73235L10.1074 10.1074C10.0522 10.1625 9.98677 10.2062 9.91473 10.2361C9.8427 10.2659 9.76548 10.2813 9.68751 10.2813C9.60953 10.2813 9.53232 10.2659 9.46028 10.2361C9.38824 10.2062 9.32279 10.1625 9.26765 10.1074L7.31251 8.15214L5.35736 10.1074C5.30223 10.1625 5.23677 10.2062 5.16473 10.2361C5.09269 10.2659 5.01548 10.2813 4.93751 10.2813C4.85953 10.2813 4.78232 10.2659 4.71028 10.2361C4.63824 10.2062 4.57279 10.1625 4.51765 10.1074C4.46252 10.0522 4.41878 9.98676 4.38894 9.91472C4.3591 9.84268 4.34374 9.76547 4.34374 9.6875C4.34374 9.60952 4.3591 9.53231 4.38894 9.46027C4.41878 9.38824 4.46252 9.32278 4.51765 9.26764L6.89265 6.89264C6.94779 6.83751 7.01324 6.79377 7.08528 6.76393C7.15732 6.73409 7.23453 6.71873 7.31251 6.71873C7.39048 6.71873 7.46769 6.73409 7.53973 6.76393C7.61177 6.79377 7.67723 6.83751 7.73236 6.89264L9.68751 8.84786L11.6427 6.89264C11.6978 6.83751 11.7632 6.79377 11.8353 6.76393C11.9073 6.73409 11.9845 6.71873 12.0625 6.71873C12.1405 6.71873 12.2177 6.73409 12.2897 6.76393C12.3618 6.79377 12.4272 6.83751 12.4824 6.89264Z" fill="#F2F2F2"/>
</svg>
