<svg width="43" height="43" viewBox="0 0 43 43" fill="none" xmlns="http://www.w3.org/2000/svg">
<path d="M21.5 0C9.62701 0 0 9.62701 0 21.5C0 33.373 9.62701 43 21.5 43C33.373 43 43 33.373 43 21.5C43 9.62701 33.373 0 21.5 0ZM29.4377 29.6681L26.2703 29.6537L21.5 23.9667L16.7345 29.6489L13.5623 29.6633C13.3511 29.6633 13.1783 29.4953 13.1783 29.2794C13.1783 29.1882 13.2119 29.1018 13.2695 29.0298L19.5132 21.5912L13.2695 14.1574C13.2115 14.087 13.1794 13.999 13.1783 13.9078C13.1783 13.6967 13.3511 13.5239 13.5623 13.5239L16.7345 13.5383L21.5 19.2252L26.2655 13.5431L29.4329 13.5287C29.6441 13.5287 29.8169 13.6967 29.8169 13.9126C29.8169 14.0038 29.7833 14.0902 29.7257 14.1622L23.4916 21.596L29.7305 29.0346C29.7881 29.1066 29.8217 29.193 29.8217 29.2842C29.8217 29.4953 29.6489 29.6681 29.4377 29.6681Z" fill="#828282"/>
</svg>
