<svg width="16" height="11" viewBox="0 0 16 11" fill="none" xmlns="http://www.w3.org/2000/svg">
<path d="M15.8706 4.97512C14.194 1.87562 11.2537 0 8 0C4.74627 0 1.80099 1.87562 0.139303 4.97512L0 5.20895L0.129353 5.44776C1.80597 8.54726 4.74627 10.4229 8 10.4229C11.2537 10.4229 14.199 8.57214 15.8706 5.44776L16 5.20895L15.8706 4.97512ZM8 9.40298C5.199 9.40298 2.62687 7.84079 1.13433 5.20895C2.62687 2.57711 5.199 1.01492 8 1.01492C10.801 1.01492 13.3433 2.58209 14.8607 5.20895C13.3433 7.84079 10.796 9.40298 8 9.40298Z" fill="#777777"/>
<path d="M8.14276 1.81097C7.46819 1.8159 6.81021 2.02062 6.25193 2.39927C5.69364 2.77793 5.26009 3.31354 5.00603 3.93846C4.75197 4.56337 4.6888 5.24956 4.8245 5.91036C4.9602 6.57116 5.28868 7.17692 5.76845 7.65114C6.24823 8.12536 6.85777 8.44676 7.5201 8.57476C8.18244 8.70275 8.86784 8.6316 9.48976 8.37028C10.1117 8.10896 10.6422 7.6692 11.0143 7.10654C11.3865 6.54388 11.5835 5.88356 11.5806 5.20898C11.5786 4.75995 11.4881 4.31571 11.3141 3.90173C11.1402 3.48775 10.8863 3.11216 10.5669 2.7965C10.2475 2.48083 9.86901 2.23129 9.45303 2.06218C9.03705 1.89306 8.59179 1.8077 8.14276 1.81097ZM8.14276 7.64182C7.66627 7.63691 7.20186 7.49131 6.80784 7.22332C6.41383 6.95532 6.10779 6.57688 5.92816 6.13552C5.74852 5.69416 5.70331 5.20956 5.79819 4.74259C5.89307 4.27562 6.12382 3.84709 6.46146 3.51083C6.79909 3.17457 7.22856 2.94557 7.69591 2.8526C8.16327 2.75962 8.64768 2.80682 9.0883 2.98825C9.52893 3.16968 9.90612 3.47726 10.1725 3.87237C10.4389 4.26747 10.5826 4.73248 10.5855 5.20898C10.5869 5.52968 10.5245 5.84745 10.4021 6.14386C10.2797 6.44028 10.0997 6.70944 9.87242 6.93575C9.64519 7.16205 9.3753 7.34099 9.07838 7.4622C8.78147 7.5834 8.46345 7.64446 8.14276 7.64182Z" fill="#777777"/>
</svg>
