<svg width="16" height="16" viewBox="0 0 16 16" fill="none" xmlns="http://www.w3.org/2000/svg">
<path d="M15.0712 0.93001C15.5399 1.39883 15.8032 2.0346 15.8032 2.69751C15.8032 3.36042 15.5399 3.99619 15.0712 4.46501L5.83745 13.6988C5.43701 14.0989 4.9354 14.3828 4.3862 14.52L1.52245 15.2363C1.41769 15.2624 1.30794 15.261 1.2039 15.2321C1.09986 15.2032 1.00508 15.1479 0.928788 15.0714C0.852501 14.995 0.797311 14.9002 0.768598 14.7961C0.739884 14.692 0.738627 14.5822 0.764947 14.4775L1.47995 11.615C1.61734 11.0652 1.90165 10.5631 2.30245 10.1625L11.5349 0.93001C11.7671 0.697756 12.0427 0.513516 12.3461 0.387816C12.6495 0.262116 12.9747 0.197418 13.3031 0.197418C13.6315 0.197418 13.9566 0.262116 14.26 0.387816C14.5634 0.513516 14.839 0.697756 15.0712 0.93001ZM10.6512 3.58001L3.18745 11.0475C2.94737 11.2879 2.77714 11.5891 2.69495 11.9188L2.2312 13.7725L4.0837 13.3088C4.41351 13.2262 4.71467 13.0555 4.95495 12.815L12.4199 5.35001L10.6524 3.58251L10.6512 3.58001ZM12.4199 1.81376L11.5349 2.69751L13.3024 4.46501L14.1874 3.58126C14.4151 3.34551 14.5411 3.02975 14.5383 2.70201C14.5354 2.37426 14.404 2.06075 14.1722 1.82899C13.9405 1.59723 13.6269 1.46576 13.2992 1.46292C12.9715 1.46007 12.6557 1.58606 12.4199 1.81376Z" fill="#F2F2F2"/>
</svg>
