<svg width="12" height="13" viewBox="0 0 12 13" fill="none" xmlns="http://www.w3.org/2000/svg">
<path fill-rule="evenodd" clip-rule="evenodd" d="M2.7651 9.32585C2.56728 9.44703 2.41865 9.63423 2.34548 9.85438C2.27231 10.0745 2.2793 10.3135 2.36521 10.5289C2.45113 10.7444 2.61044 10.9226 2.81501 11.032C3.01958 11.1415 3.25623 11.175 3.48317 11.1269C3.7101 11.0787 3.91271 10.9519 4.0552 10.7688C4.19769 10.5857 4.27089 10.3582 4.26186 10.1264C4.25284 9.89458 4.16218 9.67341 4.00589 9.50196C3.84961 9.33052 3.63776 9.21983 3.40776 9.18945C3.39548 9.14545 3.38422 9.10117 3.37399 9.05665C3.32915 8.85408 3.29414 8.64945 3.26907 8.44349C3.24198 8.23533 3.22665 8.0258 3.22316 7.81591C3.22248 7.75827 3.22412 7.70062 3.22808 7.64311C3.35399 7.60705 3.48056 7.57426 3.60679 7.54573C3.75139 7.51294 3.8373 7.68344 3.90649 7.82181L3.93468 7.87723H7.78707C7.86216 7.73492 8.03233 7.50802 8.19726 7.54573C8.37301 7.58573 8.54974 7.63328 8.72484 7.68771L8.72385 7.68804C8.7232 7.68738 8.7232 7.68738 8.72385 7.68869C8.72516 7.69328 8.73238 7.71492 8.73959 7.76083C8.74779 7.81395 8.75336 7.8828 8.75598 7.96576C8.76058 8.13102 8.75107 8.33201 8.73172 8.53465C8.71205 8.73696 8.68287 8.93271 8.65008 9.08714C8.64286 9.12157 8.63565 9.15272 8.62844 9.18092H8.19726C8.13638 9.18095 8.07672 9.19793 8.02495 9.22996C7.97317 9.26198 7.93134 9.30779 7.90413 9.36224L7.57624 10.018C7.55342 10.0635 7.54152 10.1137 7.54148 10.1646V10.8204C7.54148 10.9073 7.57602 10.9907 7.63752 11.0522C7.69901 11.1137 7.78241 11.1483 7.86937 11.1483H8.52515V10.4925H8.19726V10.242L8.3999 9.8367H9.30618L9.50882 10.242V10.4925H9.18093V11.1483H9.83671C9.92367 11.1483 10.0071 11.1137 10.0686 11.0522C10.1301 10.9907 10.1646 10.9073 10.1646 10.8204V10.1646C10.1646 10.1137 10.1527 10.0635 10.1298 10.018L9.80196 9.36224C9.77474 9.30779 9.73291 9.26198 9.68114 9.22996C9.62936 9.19793 9.5697 9.18095 9.50882 9.18092H9.30028C9.33537 9.00615 9.36455 8.80221 9.38422 8.5976C9.40586 8.37661 9.41701 8.14741 9.41144 7.9474L9.41111 7.93822C10.7187 8.49071 11.8041 9.39929 11.8041 10.3515V12.1319H0V10.3515C0 9.35732 1.18368 8.41038 2.56771 7.86706C2.57132 8.07101 2.59066 8.30152 2.61853 8.52481C2.6487 8.76581 2.68968 9.0055 2.73493 9.20289C2.74477 9.24519 2.75461 9.28617 2.7651 9.32585ZM3.2789 10.4974C3.45531 10.4974 3.60679 10.3531 3.60679 10.1646C3.60679 9.97638 3.45531 9.83178 3.2789 9.83178C3.1025 9.83178 2.95101 9.97605 2.95101 10.1646C2.95101 10.3528 3.1025 10.4974 3.2789 10.4974Z" fill="white"/>
<path d="M1.9668 4.41439C1.9668 5.8594 4.25875 6.22992 4.25875 6.22992C4.25875 6.22992 3.73019 3.44285 4.09808 2.95101C4.46598 2.45918 7.19763 1.63388 7.37699 1.96734C9.02792 4.33865 7.06779 6.22992 7.06779 6.22992C7.06779 6.22992 9.50828 6.55781 9.50828 4.41439C9.50828 2.2713 8.35968 0.983671 8.35968 0.983671C8.35968 0.983671 7.53438 0 5.91952 0C4.30433 0 3.73019 0.983671 3.73019 0.983671C3.73019 0.983671 1.9668 2.96938 1.9668 4.41439Z" fill="white"/>
<path fill-rule="evenodd" clip-rule="evenodd" d="M3.31031 4.26678C3.30258 4.34776 3.29875 4.42906 3.29883 4.51041C3.29883 5.97772 4.55629 7.13353 6.06524 7.13353C7.57419 7.13353 8.83198 5.97772 8.83198 4.51041C8.83198 4.42843 8.82772 4.34679 8.82018 4.26678C8.61984 4.3081 8.40244 4.34482 8.17095 4.37663C8.17423 4.42089 8.17587 4.46549 8.17587 4.51041C8.17587 5.57867 7.24991 6.47775 6.06524 6.47775C4.88057 6.47775 3.95428 5.57867 3.95428 4.51041C3.95428 4.46549 3.95592 4.42089 3.9592 4.37663C3.74175 4.34721 3.52533 4.31058 3.31031 4.26678Z" fill="white"/>
</svg>
