<svg width="9" height="13" viewBox="0 0 9 13" fill="none" xmlns="http://www.w3.org/2000/svg">
<path d="M4.5 0V3.15C4.5 3.50804 4.64223 3.85142 4.89541 4.10459C5.14858 4.35777 5.49196 4.5 5.85 4.5H9V11.25C9 11.608 8.85777 11.9514 8.60459 12.2046C8.35142 12.4578 8.00804 12.6 7.65 12.6H1.35C0.991958 12.6 0.64858 12.4578 0.395406 12.2046C0.142232 11.9514 0 11.608 0 11.25V1.35C0 0.991958 0.142232 0.64858 0.395406 0.395406C0.64858 0.142232 0.991958 0 1.35 0H4.5Z" fill="white"/>
<path d="M5.40039 0.224976V3.14998C5.40039 3.26932 5.4478 3.38378 5.53219 3.46817C5.61658 3.55256 5.73104 3.59998 5.85039 3.59998H8.77539L5.40039 0.224976Z" fill="white"/>
</svg>
