<svg width="12" height="13" viewBox="0 0 12 13" fill="none" xmlns="http://www.w3.org/2000/svg">
<path d="M7.12571 12.3683H4.87467C4.73363 12.3683 4.59682 12.3201 4.48693 12.2317C4.37703 12.1433 4.30066 12.02 4.27048 11.8822L4.01879 10.7171C3.68302 10.57 3.36465 10.386 3.06952 10.1686L1.93349 10.5304C1.79902 10.5733 1.65393 10.5689 1.52232 10.5179C1.3907 10.4669 1.28047 10.3725 1.20994 10.2502L0.0819531 8.30161C0.012162 8.17925 -0.0140358 8.03682 0.00764573 7.89763C0.0293273 7.75844 0.0976045 7.63073 0.201307 7.53539L1.08255 6.73145C1.04247 6.36727 1.04247 5.9998 1.08255 5.63562L0.201307 4.83354C0.0974576 4.73816 0.0290876 4.61033 0.00740245 4.47101C-0.0142827 4.33169 0.0120037 4.18913 0.0819531 4.0667L1.20747 2.11684C1.278 1.99459 1.38823 1.90014 1.51984 1.84918C1.65146 1.79822 1.79655 1.79381 1.93102 1.83669L3.06704 2.19847C3.21794 2.08715 3.37502 1.98326 3.53704 1.88926C3.6935 1.80144 3.85429 1.72167 4.01879 1.65055L4.2711 0.486693C4.30114 0.348909 4.37736 0.225529 4.48714 0.137009C4.59692 0.0484899 4.73365 0.000148399 4.87467 0H7.12571C7.26673 0.000148399 7.40346 0.0484899 7.51324 0.137009C7.62302 0.225529 7.69924 0.348909 7.72928 0.486693L7.98407 1.65117C8.15722 1.72785 8.32667 1.81381 8.49055 1.90967C8.6433 1.9981 8.7911 2.09519 8.93333 2.1997L10.07 1.83793C10.2044 1.79521 10.3493 1.79969 10.4808 1.85065C10.6123 1.9016 10.7224 1.99595 10.7929 2.11807L11.9184 4.06794C12.0619 4.31963 12.0124 4.63812 11.7991 4.83415L10.9178 5.63809C10.9579 6.00227 10.9579 6.36975 10.9178 6.73393L11.7991 7.53787C12.0124 7.73452 12.0619 8.05239 11.9184 8.30408L10.7929 10.2539C10.7224 10.3762 10.6122 10.4706 10.4805 10.5216C10.3489 10.5726 10.2038 10.577 10.0694 10.5341L8.93333 10.1723C8.63843 10.3896 8.32026 10.5734 7.98468 10.7202L7.72928 11.8822C7.69912 12.0199 7.62284 12.1431 7.51307 12.2315C7.40331 12.3199 7.26664 12.3682 7.12571 12.3683ZM5.99772 3.71049C5.34166 3.71049 4.71247 3.97111 4.24857 4.43501C3.78467 4.89891 3.52405 5.5281 3.52405 6.18416C3.52405 6.84021 3.78467 7.4694 4.24857 7.9333C4.71247 8.3972 5.34166 8.65782 5.99772 8.65782C6.65377 8.65782 7.28296 8.3972 7.74686 7.9333C8.21076 7.4694 8.47138 6.84021 8.47138 6.18416C8.47138 5.5281 8.21076 4.89891 7.74686 4.43501C7.28296 3.97111 6.65377 3.71049 5.99772 3.71049Z" fill="white"/>
</svg>
