<svg width="15" height="15" viewBox="0 0 15 15" fill="none" xmlns="http://www.w3.org/2000/svg">
<path d="M2.5 5C2.84518 5 3.125 4.72018 3.125 4.375C3.125 4.02982 2.84518 3.75 2.5 3.75C2.15482 3.75 1.875 4.02982 1.875 4.375C1.875 4.72018 2.15482 5 2.5 5Z" fill="white"/>
<path d="M2.5 8.125C2.84518 8.125 3.125 7.84518 3.125 7.5C3.125 7.15482 2.84518 6.875 2.5 6.875C2.15482 6.875 1.875 7.15482 1.875 7.5C1.875 7.84518 2.15482 8.125 2.5 8.125Z" fill="white"/>
<path d="M2.5 11.25C2.84518 11.25 3.125 10.9702 3.125 10.625C3.125 10.2798 2.84518 10 2.5 10C2.15482 10 1.875 10.2798 1.875 10.625C1.875 10.9702 2.15482 11.25 2.5 11.25Z" fill="white"/>
<path d="M12.5375 6.875H4.9625C4.63803 6.875 4.375 7.13803 4.375 7.4625V7.5375C4.375 7.86197 4.63803 8.125 4.9625 8.125H12.5375C12.862 8.125 13.125 7.86197 13.125 7.5375V7.4625C13.125 7.13803 12.862 6.875 12.5375 6.875Z" fill="white"/>
<path d="M12.5375 10H4.9625C4.63803 10 4.375 10.263 4.375 10.5875V10.6625C4.375 10.987 4.63803 11.25 4.9625 11.25H12.5375C12.862 11.25 13.125 10.987 13.125 10.6625V10.5875C13.125 10.263 12.862 10 12.5375 10Z" fill="white"/>
<path d="M12.5375 3.75H4.9625C4.63803 3.75 4.375 4.01303 4.375 4.3375V4.4125C4.375 4.73697 4.63803 5 4.9625 5H12.5375C12.862 5 13.125 4.73697 13.125 4.4125V4.3375C13.125 4.01303 12.862 3.75 12.5375 3.75Z" fill="white"/>
</svg>
