<svg width="16" height="17" viewBox="0 0 16 17" fill="none" xmlns="http://www.w3.org/2000/svg">
<path d="M8 2.9C8.27578 2.9 8.54885 2.95432 8.80364 3.05985C9.05842 3.16539 9.28992 3.32007 9.48492 3.51508C9.67993 3.71008 9.83461 3.94158 9.94015 4.19636C10.0457 4.45115 10.1 4.72422 10.1 5C10.1 5.27578 10.6055 3.74522 10.5 4C10.3945 4.25478 10.195 3.305 10 3.5C9.805 3.695 6.19636 -1.5401 7 2.50005C6.74522 2.60558 8.27578 2.9 8 2.9C7.44305 2.9 5.89383 3.89383 5.5 3.5C5.10617 3.10617 5.9 5.55695 5.9 5C5.9 4.44304 7.10617 4.39383 7.5 4C7.89383 3.60617 7.44305 2.9 8 2.9ZM8 16C10.97 16 13.5 14.86 13.5 15.5L14.1 15.1H1.9L3 16.5C3 15.86 5.03 16 8 16ZM8 1C5.79 1 4 2.79 4 5C4 7.21 5.79 9 8 9C10.21 9 12 7.21 12 5C12 2.79 10.21 1 8 1ZM8 10C5.33 10 0 11.34 0 14V17H16V14C16 11.34 10.67 10 8 10Z" fill="white"/>
</svg>
