<svg width="68" height="68" viewBox="0 0 68 68" fill="none" xmlns="http://www.w3.org/2000/svg">
<g clip-path="url(#clip0_4781_240)">
<path d="M61.1998 54.2459C60.9817 52.425 60.2155 50.7133 59.0026 49.3377C57.7898 47.962 56.1876 46.9874 54.4083 46.5428L41.4373 42.8942V37.8622C43.9969 35.7637 46.2239 32.912 46.6606 29.75H50.7873C51.6891 29.75 52.5539 29.3918 53.1915 28.7542C53.8291 28.1165 54.1873 27.2517 54.1873 26.35V22.525C54.1855 21.8857 54.003 21.2598 53.6609 20.7197C53.3187 20.1796 52.8309 19.7472 52.2536 19.4724C52.3332 18.8283 52.3758 18.1802 52.3811 17.5312C52.3811 10.9831 49.9915 0 33.9998 0C18.0082 0 15.6186 10.9831 15.6186 17.5312C15.6236 18.1802 15.6658 18.8283 15.745 19.4724C15.168 19.7474 14.6803 20.1798 14.3384 20.7199C13.9964 21.26 13.8141 21.8858 13.8123 22.525V26.35C13.8123 27.2517 14.1706 28.1165 14.8082 28.7542C15.4458 29.3918 16.3106 29.75 17.2123 29.75H21.3423C21.779 32.9035 23.9985 35.7499 26.5645 37.8462V42.8942L13.6243 46.5375C11.8391 46.9785 10.2303 47.952 9.01144 49.3288C7.79255 50.7056 7.02122 52.4205 6.79985 54.2459L5.31979 66.8132C5.28686 67.093 5.36641 67.3744 5.54095 67.5956C5.71549 67.8168 5.97073 67.9596 6.25054 67.9926C6.29178 67.9976 6.3333 68.0001 6.37485 68C6.63491 67.9997 6.88583 67.904 7.08008 67.7311C7.27433 67.5582 7.39842 67.3201 7.42885 67.0618L8.90891 54.4946C9.07977 53.0923 9.67441 51.7755 10.6134 50.7201C11.5524 49.6647 12.7911 48.9209 14.164 48.5881L20.6846 46.7553L26.7408 55.8397C26.8236 55.9635 26.9314 56.0685 27.0573 56.1479C27.1833 56.2274 27.3245 56.2795 27.4718 56.3008C27.5224 56.3089 27.5736 56.3128 27.6248 56.3125C27.8732 56.3127 28.1138 56.2258 28.3048 56.0671L32.9373 52.2059V59.4756C32.9373 59.7574 33.0493 60.0276 33.2485 60.2269C33.4478 60.4261 33.7181 60.5381 33.9998 60.5381C34.2816 60.5381 34.5519 60.4261 34.7511 60.2269C34.9504 60.0276 35.0623 59.7574 35.0623 59.4756V52.2059L39.6948 56.0671C39.8859 56.2258 40.1265 56.3127 40.3748 56.3125C40.4261 56.3128 40.4773 56.3089 40.5278 56.3008C40.6752 56.2795 40.8164 56.2274 40.9424 56.1479C41.0683 56.0685 41.1761 55.9635 41.2588 55.8397L47.3151 46.75L53.8686 48.5977C55.2344 48.9344 56.4653 49.6789 57.3976 50.7323C58.3299 51.7857 58.9194 53.098 59.0876 54.4946L60.5666 67.0618C60.5971 67.3208 60.7218 67.5595 60.917 67.7326C61.1121 67.9056 61.3641 68.0007 61.6248 68C61.6667 68.0001 61.7086 67.9977 61.7502 67.9926C62.03 67.9596 62.2853 67.8168 62.4598 67.5956C62.6343 67.3744 62.7139 67.093 62.681 66.8132L61.1998 54.2459ZM21.3274 19.125H20.9683C21.2498 9.71869 25.3065 5.3125 33.6907 5.3125C41.6148 5.3125 45.6703 9.25012 46.3344 17.6216C46.0717 16.5098 45.4397 15.5201 44.5418 14.8139C43.6438 14.1078 42.5329 13.7271 41.3906 13.7339C39.9205 13.7785 38.477 14.1379 37.1576 14.7879C36.1772 15.2884 35.1015 15.5746 34.002 15.6273C32.9025 15.5746 31.8267 15.2884 30.8463 14.7879C29.5269 14.1379 28.0835 13.7785 26.6133 13.7339C22.9764 13.7339 21.6366 16.8332 21.3274 19.125ZM52.0623 26.35C52.0623 26.6882 51.928 27.0125 51.6889 27.2516C51.4498 27.4907 51.1255 27.625 50.7873 27.625H46.7498V21.25H50.7873C51.1255 21.25 51.4498 21.3843 51.6889 21.6234C51.928 21.8625 52.0623 22.1868 52.0623 22.525V26.35ZM33.9998 2.125C47.4352 2.125 50.2561 10.5017 50.2561 17.5312C50.2527 18.0639 50.22 18.5959 50.1583 19.125H48.537C48.2373 8.415 43.3796 3.1875 33.6907 3.1875C24.0017 3.1875 19.1461 8.415 18.8443 19.125H17.8424C17.7808 18.5959 17.7481 18.0639 17.7447 17.5312C17.7436 10.5017 20.5645 2.125 33.9998 2.125ZM15.9373 26.35V22.525C15.9373 22.1868 16.0717 21.8625 16.3108 21.6234C16.5499 21.3843 16.8742 21.25 17.2123 21.25H21.2498V27.625H17.2123C16.8742 27.625 16.5499 27.4907 16.3108 27.2516C16.0717 27.0125 15.9373 26.6882 15.9373 26.35ZM23.3748 28.6397V20.1875C23.3748 20.0101 23.4354 15.8557 26.6112 15.8557C27.7947 15.9049 28.954 16.2067 30.0112 16.7407C31.2516 17.3589 32.6105 17.7028 33.9956 17.7491C35.3807 17.7028 36.7396 17.3589 37.98 16.7407C39.0372 16.2067 40.1965 15.9049 41.38 15.8557C44.5643 15.8589 44.6248 20.0133 44.6248 20.1875V27.9512L39.612 29.8307C39.1275 29.2655 38.4594 28.8888 37.725 28.7667C36.9906 28.6447 36.2366 28.7851 35.5953 29.1633C34.9541 29.5415 34.4664 30.1334 34.2179 30.8352C33.9693 31.537 33.9758 32.3039 34.2361 33.0014C34.4964 33.6989 34.9939 34.2826 35.6414 34.6499C36.289 35.0173 37.0452 35.145 37.7775 35.0107C38.5098 34.8763 39.1714 34.4884 39.6463 33.9151C40.1212 33.3417 40.3791 32.6195 40.3748 31.875C40.3748 31.8548 40.3695 31.8368 40.3685 31.8166L44.372 30.3153C43.0215 35.2293 36.2237 39.3125 34.0243 39.3125C31.5667 39.3125 23.3748 34.2677 23.3748 28.6418V28.6397ZM38.2498 31.875C38.2498 32.0851 38.1875 32.2906 38.0708 32.4653C37.954 32.64 37.7881 32.7762 37.5939 32.8566C37.3998 32.937 37.1862 32.9581 36.9801 32.9171C36.774 32.8761 36.5846 32.7749 36.436 32.6263C36.2875 32.4777 36.1863 32.2884 36.1453 32.0823C36.1043 31.8762 36.1253 31.6625 36.2057 31.4684C36.2861 31.2743 36.4223 31.1083 36.5971 30.9916C36.7718 30.8748 36.9772 30.8125 37.1873 30.8125C37.4691 30.8125 37.7394 30.9244 37.9386 31.1237C38.1379 31.323 38.2498 31.5932 38.2498 31.875ZM34.0243 41.4375C35.9287 41.2039 37.7456 40.5019 39.3123 39.3943V43.1226L33.9998 48.4351L28.6873 43.1226V39.3773C30.2689 40.4942 32.1025 41.202 34.0243 41.4375ZM27.8533 53.6775L22.8351 46.1497L27.4208 44.8609L32.4263 49.8663L27.8533 53.6775ZM40.1464 53.6775L35.5777 49.8663L40.5831 44.8609L45.1688 46.1497L40.1464 53.6775Z" fill="#BDBDBD"/>
<path d="M34 62.6875C33.7182 62.6875 33.448 62.7994 33.2487 62.9987C33.0494 63.198 32.9375 63.4682 32.9375 63.75V66.9375C32.9375 67.2193 33.0494 67.4895 33.2487 67.6888C33.448 67.8881 33.7182 68 34 68C34.2818 68 34.552 67.8881 34.7513 67.6888C34.9506 67.4895 35.0625 67.2193 35.0625 66.9375V63.75C35.0625 63.4682 34.9506 63.198 34.7513 62.9987C34.552 62.7994 34.2818 62.6875 34 62.6875Z" fill="#BDBDBD"/>
</g>
<defs>
<clipPath id="clip0_4781_240">
<rect width="68" height="68" fill="white"/>
</clipPath>
</defs>
</svg>
