<svg width="85" height="88" viewBox="0 0 85 88" fill="none" xmlns="http://www.w3.org/2000/svg">
<path d="M31.9334 3.53381C39.9333 -2.86628 48.9334 0.867144 52.4334 3.53381C57.4338 7.34368 57.0337 12.1337 63.4337 16.5337C69.8337 20.9337 69.9338 26.5339 67.9337 35.0337C65.4338 44.0339 59.8337 52.4337 65.4337 58.0337C71.0337 63.6337 71.4338 68.5339 67.9337 76.0339C60.4338 88.5339 48.6334 90.7337 33.4337 83.5337C18.234 76.3337 10.2435 70.7483 5.43337 63.5337C-1.56711 53.0339 -0.473024 41.3871 1.43337 35.0337C2.93359 30.0339 5.43382 25.5339 13.9337 23.5339C22.2574 21.5754 25.4338 8.03394 31.9334 3.53381Z" fill="#E9F1FB"/>
<path d="M80.5718 13H71.2428C70.6881 13 70.2385 13.4429 70.2385 13.9892C70.2385 14.5355 70.688 14.9784 71.2428 14.9784H80.5718C81.5729 14.9784 82.3874 15.7805 82.3874 16.7666V53.03H18.0086V16.7666C18.0086 15.7806 18.8229 14.9784 19.8241 14.9784H66.6456C67.2002 14.9784 67.6499 14.5355 67.6499 13.9892C67.6499 13.4429 67.2002 13 66.6456 13H19.824C17.7155 13 16 14.6897 16 16.7666V57.7128C16 59.7896 17.7155 61.4793 19.824 61.4793H40.1754V66.4838H34.7223C32.9571 66.4838 31.5211 67.8982 31.5211 69.6369V71.8468C31.5211 73.5855 32.9571 75 34.7223 75H65.4343C67.1994 75 68.6356 73.5856 68.6356 71.8468V69.6367C68.6356 67.8981 67.1996 66.4837 65.4343 66.4837H59.9812V61.4792H80.5718C82.6803 61.4792 84.3958 59.7896 84.3958 57.7127V16.7666C84.3959 14.6897 82.6803 13 80.5718 13ZM65.4343 68.4619C66.0919 68.4619 66.627 68.9891 66.627 69.6367V71.8467C66.627 72.4944 66.092 73.0215 65.4343 73.0215H34.7223C34.0647 73.0215 33.5295 72.4944 33.5295 71.8467V69.6367C33.5295 68.9891 34.0647 68.4619 34.7223 68.4619H65.4343ZM42.1839 66.4837V61.4792H57.9728V66.4837H42.1839ZM82.3874 57.7127C82.3874 58.6987 81.573 59.5008 80.5718 59.5008H19.824C18.8229 59.5008 18.0084 58.6987 18.0084 57.7127V55.0083H82.3874V57.7127Z" fill="url(#paint0_linear_5101_2)"/>
<path d="M48.6125 58.2436H51.5441C52.0988 58.2436 52.5484 57.8009 52.5484 57.2545C52.5484 56.7081 52.0988 56.2653 51.5441 56.2653H48.6125C48.0579 56.2653 47.6082 56.7081 47.6082 57.2545C47.6082 57.8008 48.0579 58.2436 48.6125 58.2436Z" fill="url(#paint1_linear_5101_2)"/>
<path d="M66.7175 25.0724L63.0919 18.887C62.7867 18.3658 62.2176 18.0419 61.6066 18.0419H54.3548C53.744 18.0419 53.1749 18.3657 52.8696 18.8866L49.244 25.0723C48.9384 25.5932 48.9384 26.2406 49.2438 26.7614L52.8696 32.9472C53.1749 33.4681 53.744 33.7919 54.3548 33.7919H61.6064C62.2175 33.7919 62.7866 33.468 63.0915 32.9472L66.7175 26.7611C67.0228 26.2405 67.0228 25.5933 66.7175 25.0724ZM61.437 31.8135H54.5244L51.0681 25.9169L54.5244 20.0202H61.437L64.8934 25.9169L61.437 31.8135Z" fill="url(#paint2_linear_5101_2)"/>
<path d="M54.5242 49.0742L54.1171 48.3798C53.8399 47.9066 53.2258 47.7449 52.7452 48.0178C52.2649 48.2908 52.1003 48.8957 52.3777 49.369L52.8697 50.2082C53.1749 50.7291 53.744 51.0526 54.3547 51.0526H61.6064C62.2172 51.0526 62.7864 50.729 63.0914 50.2081L66.7176 44.0219C67.0224 43.5013 67.0224 42.8542 66.7173 42.3332L63.0915 36.1477C62.7864 35.6265 62.2172 35.3029 61.6064 35.3029H54.3547C53.744 35.3029 53.1749 35.6264 52.8695 36.1474L49.2438 42.3332C48.9385 42.8542 48.9385 43.5014 49.2438 44.0223L50.0402 45.381C50.3175 45.8542 50.9321 46.0161 51.412 45.743C51.8924 45.4699 52.0569 44.8648 51.7796 44.3918L51.0679 43.1777L54.5242 37.2812H61.4368L64.8932 43.1777L61.4368 49.0742H54.5242Z" fill="url(#paint3_linear_5101_2)"/>
<path d="M50.9132 32.9548L47.2873 26.7689C46.982 26.2481 46.4129 25.9245 45.8023 25.9245H38.5507C37.9401 25.9245 37.371 26.2481 37.0656 26.769L33.4398 32.9548C33.1346 33.4757 33.1346 34.123 33.4398 34.6439L37.0657 40.8298C37.371 41.3506 37.9401 41.6742 38.5507 41.6742H45.8023C46.4129 41.6742 46.982 41.3506 47.2874 40.8297L50.9132 34.6439C51.2184 34.123 51.2184 33.4757 50.9132 32.9548ZM45.6327 39.696H38.72L35.2637 33.7994L38.72 27.9029H45.6327L49.0889 33.7994L45.6327 39.696Z" fill="url(#paint4_linear_5101_2)"/>
<defs>
<linearGradient id="paint0_linear_5101_2" x1="19.8062" y1="71.2603" x2="103.122" y2="45.7277" gradientUnits="userSpaceOnUse">
<stop stop-color="#00002D"/>
<stop offset="0.692708" stop-color="#005D96"/>
<stop offset="1" stop-color="#00ADEE"/>
</linearGradient>
<linearGradient id="paint1_linear_5101_2" x1="19.8062" y1="71.2603" x2="103.122" y2="45.7277" gradientUnits="userSpaceOnUse">
<stop stop-color="#00002D"/>
<stop offset="0.692708" stop-color="#005D96"/>
<stop offset="1" stop-color="#00ADEE"/>
</linearGradient>
<linearGradient id="paint2_linear_5101_2" x1="19.8062" y1="71.2603" x2="103.122" y2="45.7277" gradientUnits="userSpaceOnUse">
<stop stop-color="#00002D"/>
<stop offset="0.692708" stop-color="#005D96"/>
<stop offset="1" stop-color="#00ADEE"/>
</linearGradient>
<linearGradient id="paint3_linear_5101_2" x1="19.8062" y1="71.2603" x2="103.122" y2="45.7277" gradientUnits="userSpaceOnUse">
<stop stop-color="#00002D"/>
<stop offset="0.692708" stop-color="#005D96"/>
<stop offset="1" stop-color="#00ADEE"/>
</linearGradient>
<linearGradient id="paint4_linear_5101_2" x1="19.8062" y1="71.2603" x2="103.122" y2="45.7277" gradientUnits="userSpaceOnUse">
<stop stop-color="#00002D"/>
<stop offset="0.692708" stop-color="#005D96"/>
<stop offset="1" stop-color="#00ADEE"/>
</linearGradient>
</defs>
</svg>
