<svg width="41" height="41" viewBox="0 0 41 41" fill="none" xmlns="http://www.w3.org/2000/svg">
<circle cx="20.5" cy="20.5" r="20.5" fill="#C4C4C4"/>
<path d="M29 30.6L24.514 26.106L29 30.6ZM27 20.1C27 22.3543 26.1045 24.5163 24.5104 26.1104C22.9164 27.7044 20.7543 28.6 18.5 28.6C16.2457 28.6 14.0837 27.7044 12.4896 26.1104C10.8955 24.5163 10 22.3543 10 20.1C10 17.8456 10.8955 15.6836 12.4896 14.0896C14.0837 12.4955 16.2457 11.6 18.5 11.6C20.7543 11.6 22.9164 12.4955 24.5104 14.0896C26.1045 15.6836 27 17.8456 27 20.1V20.1Z" stroke="white" stroke-width="2" stroke-linecap="round"/>
</svg>
