<svg width="29" height="29" viewBox="0 0 29 29" fill="none" xmlns="http://www.w3.org/2000/svg">
<path d="M14.5006 5.41333C13.5877 5.41333 12.6953 5.68404 11.9362 6.19124C11.1771 6.69843 10.5855 7.41933 10.2361 8.26276C9.88677 9.10619 9.79536 10.0343 9.97346 10.9297C10.1516 11.8251 10.5912 12.6475 11.2367 13.2931C11.8823 13.9386 12.7047 14.3782 13.6001 14.5563C14.4955 14.7344 15.4236 14.643 16.267 14.2936C17.1104 13.9443 17.8313 13.3527 18.3385 12.5936C18.8457 11.8345 19.1164 10.9421 19.1164 10.0292C19.1164 8.80497 18.6301 7.63091 17.7645 6.76528C16.8989 5.89964 15.7248 5.41333 14.5006 5.41333ZM14.5006 13.0339C13.9063 13.0339 13.3254 12.8577 12.8313 12.5275C12.3371 12.1973 11.952 11.7281 11.7246 11.179C11.4972 10.63 11.4377 10.0258 11.5536 9.44297C11.6696 8.86011 11.9557 8.32472 12.3759 7.9045C12.7962 7.48429 13.3315 7.19811 13.9144 7.08218C14.4973 6.96624 15.1014 7.02574 15.6505 7.25316C16.1995 7.48058 16.6688 7.86571 16.9989 8.35983C17.3291 8.85395 17.5053 9.43489 17.5053 10.0292C17.5032 10.8247 17.1857 11.5869 16.6224 12.1486C16.0592 12.7104 15.2961 13.0258 14.5006 13.0258V13.0339Z" fill="#4F4F4F"/>
<path d="M14.4992 1.61108C11.9901 1.61318 9.5837 2.60811 7.80569 4.37857C6.02769 6.14902 5.02253 8.55114 5.00977 11.0603C5.00977 14.8222 7.12032 17.9719 8.66699 20.2678L8.94893 20.6866C10.4878 22.9169 12.1386 25.0678 13.895 27.1311L14.5073 27.848L15.1195 27.1311C16.8757 25.0676 18.5265 22.9168 20.0656 20.6866L20.3475 20.2597C21.8862 17.9639 23.9967 14.8222 23.9967 11.0603C23.9839 8.54974 22.9777 6.14641 21.1979 4.37573C19.4182 2.60504 17.0098 1.61105 14.4992 1.61108ZM19.0023 19.3333L18.7123 19.7603C17.3267 21.8386 15.49 24.1666 14.4992 25.3186C13.5487 24.1666 11.6717 21.8386 10.2862 19.7603L10.0042 19.3333C8.57838 17.2066 6.62088 14.2986 6.62088 11.028C6.62088 9.99343 6.82466 8.96896 7.22058 8.01312C7.6165 7.05728 8.19682 6.18878 8.92839 5.45721C9.65996 4.72563 10.5285 4.14532 11.4843 3.7494C12.4401 3.35347 13.4646 3.1497 14.4992 3.1497C15.5338 3.1497 16.5583 3.35347 17.5141 3.7494C18.47 4.14532 19.3385 4.72563 20.07 5.45721C20.8016 6.18878 21.3819 7.05728 21.7778 8.01312C22.1738 8.96896 22.3775 9.99343 22.3775 11.028C22.3775 14.3308 20.4281 17.2389 19.0023 19.3333Z" fill="#4F4F4F"/>
</svg>
