<svg width="20" height="20" viewBox="0 0 20 20" fill="none" xmlns="http://www.w3.org/2000/svg">
<path d="M10 0C8.02219 0 6.0888 0.58649 4.4443 1.6853C2.79981 2.78412 1.51809 4.3459 0.761209 6.17316C0.00433286 8.00043 -0.193701 10.0111 0.192152 11.9509C0.578004 13.8907 1.53041 15.6725 2.92894 17.0711C4.32746 18.4696 6.10929 19.422 8.0491 19.8078C9.98892 20.1937 11.9996 19.9957 13.8268 19.2388C15.6541 18.4819 17.2159 17.2002 18.3147 15.5557C19.4135 13.9112 20 11.9778 20 10C20 7.34783 18.9464 4.8043 17.0711 2.92893C15.1957 1.05357 12.6522 0 10 0ZM10 18.3333C8.35183 18.3333 6.74066 17.8446 5.37025 16.9289C3.99984 16.0132 2.93174 14.7117 2.30101 13.189C1.67028 11.6663 1.50525 9.99075 1.82679 8.37425C2.14834 6.75774 2.94201 5.27288 4.10745 4.10744C5.27289 2.94201 6.75775 2.14833 8.37426 1.82679C9.99076 1.50525 11.6663 1.67027 13.189 2.301C14.7118 2.93173 16.0132 3.99984 16.9289 5.37025C17.8446 6.74066 18.3333 8.35182 18.3333 10C18.3333 11.0943 18.1178 12.178 17.699 13.189C17.2802 14.2001 16.6664 15.1187 15.8926 15.8926C15.1187 16.6664 14.2001 17.2802 13.189 17.699C12.178 18.1178 11.0944 18.3333 10 18.3333Z" fill="#EB5757"/>
<path d="M9.99935 11.725C9.71203 11.725 9.43648 11.6109 9.23332 11.4077C9.03015 11.2045 8.91602 10.929 8.91602 10.6417V5.64167C8.91602 5.35435 9.03015 5.0788 9.23332 4.87564C9.43648 4.67247 9.71203 4.55833 9.99935 4.55833C10.2867 4.55833 10.5622 4.67247 10.7654 4.87564C10.9685 5.0788 11.0827 5.35435 11.0827 5.64167V10.6417C11.0827 10.929 10.9685 11.2045 10.7654 11.4077C10.5622 11.6109 10.2867 11.725 9.99935 11.725Z" fill="#EB5757"/>
<path d="M9.95898 15.4333C10.6493 15.4333 11.209 14.8737 11.209 14.1833C11.209 13.493 10.6493 12.9333 9.95898 12.9333C9.26863 12.9333 8.70898 13.493 8.70898 14.1833C8.70898 14.8737 9.26863 15.4333 9.95898 15.4333Z" fill="#EB5757"/>
</svg>
