<svg width="18" height="18" viewBox="0 0 18 18" fill="none" xmlns="http://www.w3.org/2000/svg">
<path d="M16.7798 13.7117L13.0535 10.3237C12.8774 10.1636 12.6459 10.0782 12.408 10.0855C12.1701 10.0929 11.9443 10.1924 11.7784 10.3631L9.58485 12.619C9.05685 12.5182 7.99535 12.1872 6.90268 11.0973C5.81001 10.0037 5.4791 8.9395 5.38101 8.41516L7.6351 6.22066C7.80598 6.05486 7.90564 5.82908 7.913 5.5911C7.92035 5.35312 7.83483 5.12162 7.67451 4.94558L4.28743 1.22025C4.12705 1.04366 3.90415 0.936541 3.66607 0.92165C3.42799 0.906759 3.19348 0.985265 3.01235 1.1405L1.02318 2.84641C0.8647 3.00547 0.770107 3.21716 0.757348 3.44133C0.743598 3.6705 0.481431 9.099 4.69076 13.3102C8.36293 16.9814 12.9628 17.25 14.2296 17.25C14.4148 17.25 14.5284 17.2445 14.5587 17.2427C14.7828 17.2301 14.9944 17.1351 15.1527 16.9759L16.8577 14.9858C17.0135 14.8053 17.0926 14.571 17.0781 14.3329C17.0635 14.0948 16.9564 13.8719 16.7798 13.7117Z" fill="#193661"/>
</svg>
