<svg width="22" height="22" viewBox="0 0 22 22" fill="none" xmlns="http://www.w3.org/2000/svg">
<path d="M18.7798 15.7117L15.0535 12.3237C14.8774 12.1636 14.6459 12.0782 14.408 12.0856C14.1701 12.093 13.9443 12.1925 13.7784 12.3631L11.5848 14.6191C11.0568 14.5182 9.99535 14.1873 8.90268 13.0974C7.81001 12.0038 7.4791 10.9396 7.38101 10.4152L9.6351 8.22072C9.80598 8.05492 9.90564 7.82914 9.913 7.59116C9.92035 7.35318 9.83483 7.12168 9.67451 6.94564L6.28743 3.22031C6.12705 3.04372 5.90415 2.9366 5.66607 2.92171C5.42799 2.90682 5.19348 2.98533 5.01235 3.14056L3.02318 4.84647C2.8647 5.00553 2.77011 5.21722 2.75735 5.44139C2.7436 5.67056 2.48143 11.0991 6.69076 15.3102C10.3629 18.9815 14.9628 19.2501 16.2296 19.2501C16.4148 19.2501 16.5284 19.2446 16.5587 19.2427C16.7828 19.2302 16.9944 19.1352 17.1527 18.976L18.8577 16.9859C19.0135 16.8053 19.0926 16.571 19.0781 16.3329C19.0635 16.0949 18.9564 15.8719 18.7798 15.7117Z" fill="white"/>
</svg>
