<svg width="12" height="12" viewBox="0 0 12 12" fill="none" xmlns="http://www.w3.org/2000/svg">
<path d="M11.658 9.42666L8.94797 6.96266C8.81987 6.84623 8.65154 6.78414 8.47851 6.78948C8.30548 6.79483 8.14131 6.86721 8.02064 6.99133L6.42531 8.632C6.04131 8.55866 5.26931 8.318 4.47464 7.52533C3.67997 6.73 3.43931 5.956 3.36797 5.57466L5.00731 3.97866C5.13158 3.85808 5.20406 3.69388 5.20941 3.5208C5.21477 3.34772 5.15256 3.17936 5.03597 3.05133L2.57264 0.341997C2.456 0.213568 2.29389 0.135666 2.12074 0.124836C1.94759 0.114007 1.77704 0.171102 1.64531 0.283997L0.198641 1.52466C0.0833818 1.64034 0.0145874 1.7943 0.00530768 1.95733C-0.00469231 2.124 -0.195359 6.072 2.86597 9.13466C5.53664 11.8047 8.88197 12 9.80331 12C9.93797 12 10.0206 11.996 10.0426 11.9947C10.2057 11.9855 10.3595 11.9164 10.4746 11.8007L11.7146 10.3533C11.828 10.222 11.8855 10.0516 11.8749 9.87846C11.8643 9.70533 11.7865 9.54319 11.658 9.42666Z" fill="white"/>
</svg>
