<svg width="22" height="18" viewBox="0 0 22 18" fill="none" xmlns="http://www.w3.org/2000/svg">
<path d="M19.7144 7.36283H10.7035C10.5255 7.36283 10.3813 7.50543 10.3813 7.68132C10.3813 7.85721 10.5255 7.99981 10.7035 7.99981H19.7144C19.8924 7.99981 20.0367 7.85721 20.0367 7.68132C20.0367 7.50543 19.8924 7.36283 19.7144 7.36283Z" fill="#333333"/>
<path d="M20.0367 9.4996C20.0367 9.32371 19.8924 9.18111 19.7144 9.18111H10.7035C10.5255 9.18111 10.3813 9.32371 10.3813 9.4996C10.3813 9.67549 10.5255 9.81809 10.7035 9.81809H19.7144C19.8924 9.81809 20.0367 9.67549 20.0367 9.4996Z" fill="#333333"/>
<path d="M14.8145 10.9994H10.7035C10.5255 10.9994 10.3813 11.142 10.3813 11.3179C10.3813 11.4938 10.5255 11.6364 10.7035 11.6364H14.8145C14.9925 11.6364 15.1367 11.4938 15.1367 11.3179C15.1367 11.142 14.9924 10.9994 14.8145 10.9994Z" fill="#333333"/>
<path d="M14.8145 12.8177H10.7035C10.5255 12.8177 10.3813 12.9603 10.3813 13.1361C10.3813 13.312 10.5255 13.4546 10.7035 13.4546H14.8145C14.9925 13.4546 15.1367 13.312 15.1367 13.1361C15.1367 12.9603 14.9924 12.8177 14.8145 12.8177Z" fill="#333333"/>
<path d="M14.8145 14.6529H10.7035C10.5255 14.6529 10.3813 14.7955 10.3813 14.9714C10.3813 15.1473 10.5255 15.2899 10.7035 15.2899H14.8145C14.9925 15.2899 15.1367 15.1473 15.1367 14.9714C15.1367 14.7955 14.9924 14.6529 14.8145 14.6529Z" fill="#333333"/>
<path d="M2.08774 11.6353C1.90972 11.6353 1.76548 11.7779 1.76548 11.9538V14.2564C1.76548 14.8191 2.2286 15.2767 2.79789 15.2767H7.96345C8.5327 15.2767 8.99582 14.819 8.99582 14.2564V8.16043C8.99582 7.59781 8.5327 7.14013 7.96345 7.14013H2.79789C2.2286 7.14013 1.76548 7.59781 1.76548 8.16043V10.4648C1.76548 10.6407 1.90972 10.7833 2.08774 10.7833C2.26576 10.7833 2.41001 10.6407 2.41001 10.4648V8.16043C2.41001 7.94904 2.58403 7.7771 2.79789 7.7771H7.96345C8.17735 7.7771 8.35129 7.94904 8.35129 8.16043V13.1963C7.95434 12.6987 7.44082 12.3046 6.85559 12.0549C7.0737 11.7498 7.20278 11.3751 7.20278 10.9701C7.20278 9.94953 6.38543 9.1193 5.38069 9.1193C4.37595 9.1193 3.55856 9.94953 3.55856 10.9701C3.55856 11.375 3.68764 11.7498 3.90575 12.0549C3.32051 12.3046 2.80695 12.6987 2.41001 13.1963V11.9538C2.41001 11.7779 2.26572 11.6353 2.08774 11.6353ZM5.38069 9.75627C6.02999 9.75627 6.55825 10.3008 6.55825 10.9701C6.55825 11.6393 6.02999 12.1838 5.38069 12.1838C4.73135 12.1838 4.20309 11.6393 4.20309 10.9701C4.20305 10.3008 4.73131 9.75627 5.38069 9.75627ZM4.42086 12.5423C4.69981 12.7186 5.02865 12.8208 5.38069 12.8208C5.73273 12.8208 6.06157 12.7186 6.34048 12.5423C7.23212 12.8317 7.96044 13.515 8.32121 14.4043C8.26256 14.5424 8.12428 14.6397 7.96345 14.6397H2.79789C2.63706 14.6397 2.49878 14.5424 2.44009 14.4043C2.80085 13.5151 3.52913 12.8317 4.42086 12.5423Z" fill="#333333"/>
<path d="M7.96529 5.20036H14.0348C14.5412 5.20036 14.9532 4.79321 14.9532 4.29272V3.19223C14.9532 2.69174 14.5412 2.28458 14.0348 2.28458H12.9308V1.90817C12.9308 0.856012 12.0647 0 11 0C9.93536 0 9.06924 0.856012 9.06924 1.90817V2.28458H7.96529C7.45886 2.28458 7.04688 2.69174 7.04688 3.19223V4.29272C7.04688 4.79321 7.45886 5.20036 7.96529 5.20036ZM7.69141 3.19223C7.69141 3.04297 7.81425 2.92156 7.96529 2.92156H9.2482C9.50494 2.92156 9.71377 2.71518 9.71377 2.46145V1.90817C9.71377 1.20724 10.2908 0.636977 11 0.636977C11.7093 0.636977 12.2863 1.20724 12.2863 1.90817V2.46145C12.2863 2.71518 12.4951 2.92156 12.7519 2.92156H14.0348C14.1858 2.92156 14.3087 3.04297 14.3087 3.19223V4.29272C14.3087 4.44198 14.1858 4.56339 14.0348 4.56339H7.96529C7.81425 4.56339 7.69141 4.44198 7.69141 4.29272V3.19223Z" fill="#333333"/>
<path d="M20.5292 3.36159H16.1451C15.9671 3.36159 15.8228 3.50419 15.8228 3.68008C15.8228 3.85597 15.9671 3.99857 16.1451 3.99857H20.5292C20.9848 3.99857 21.3554 4.36483 21.3554 4.81509V16.5465C21.3554 16.9968 20.9848 17.3631 20.5292 17.3631H1.47073C1.01513 17.3631 0.64453 16.9968 0.64453 16.5465V4.81505C0.64453 4.36483 1.01513 3.99853 1.47073 3.99853H5.85964C6.03766 3.99853 6.1819 3.85593 6.1819 3.68004C6.1819 3.50415 6.03766 3.36155 5.85964 3.36155H1.47073C0.659741 3.36159 0 4.0136 0 4.81505V16.5465C0 17.3479 0.659741 18 1.47073 18H20.5293C21.3402 18 22 17.348 22 16.5465V4.81505C22 4.0136 21.3402 3.36159 20.5292 3.36159Z" fill="#333333"/>
<path d="M16.7666 15.2899H19.4787C20.0788 15.2899 20.4392 14.6294 20.1096 14.1339L18.9915 12.4535C18.9876 12.4477 18.9856 12.441 18.9856 12.4341V11.875H19.0789C19.2569 11.875 19.4012 11.7324 19.4012 11.5565C19.4012 11.3806 19.2569 11.238 19.0789 11.238H17.1664C16.9884 11.238 16.8441 11.3806 16.8441 11.5565C16.8441 11.7324 16.9884 11.875 17.1664 11.875H17.2597V12.4341C17.2597 12.441 17.2577 12.4478 17.2539 12.4536L16.1358 14.1339C15.8062 14.6294 16.1666 15.2899 16.7666 15.2899ZM16.6744 14.4838L17.7925 12.8035C17.8656 12.6935 17.9043 12.5658 17.9043 12.4341V11.875H18.3411V12.4341C18.3411 12.5658 18.3798 12.6936 18.453 12.8035L19.571 14.4838C19.6191 14.5561 19.5676 14.6529 19.4788 14.6529H16.7667C16.6791 14.6529 16.6256 14.5573 16.6744 14.4838Z" fill="#333333"/>
</svg>
