<svg width="41" height="40" viewBox="0 0 41 40" fill="none" xmlns="http://www.w3.org/2000/svg">
<path d="M20.084 -6.10352e-05C9.24198 -6.10352e-05 0.0839844 9.15794 0.0839844 19.9999C0.0839844 30.8419 9.24198 39.9999 20.084 39.9999C30.926 39.9999 40.084 30.8419 40.084 19.9999C40.084 9.15794 30.926 -6.10352e-05 20.084 -6.10352e-05ZM20.084 9.99994C23.538 9.99994 26.084 12.5439 26.084 15.9999C26.084 19.4559 23.538 21.9999 20.084 21.9999C16.632 21.9999 14.084 19.4559 14.084 15.9999C14.084 12.5439 16.632 9.99994 20.084 9.99994ZM9.87198 29.5439C11.666 26.9039 14.658 25.1439 18.084 25.1439H22.084C25.512 25.1439 28.502 26.9039 30.296 29.5439C27.74 32.2799 24.114 33.9999 20.084 33.9999C16.054 33.9999 12.428 32.2799 9.87198 29.5439Z" fill="#193661"/>
</svg>
