<svg width="20" height="20" viewBox="0 0 20 20" fill="none" xmlns="http://www.w3.org/2000/svg">
<path d="M0.723 6.58407L0.72335 6.58384L9.72325 0.583908C9.72328 0.583886 9.72332 0.583864 9.72335 0.583841C9.80544 0.529171 9.90187 0.5 10.0005 0.5C10.0991 0.5 10.1956 0.529171 10.2776 0.583841C10.2777 0.583864 10.2777 0.583886 10.2778 0.583908L19.277 6.58338C19.277 6.58341 19.277 6.58344 19.2771 6.58346C19.4167 6.67695 19.5 6.83324 19.5 6.99982V17.9998C19.5 18.8267 18.8269 19.4998 18 19.4998H2C1.17314 19.4998 0.5 18.8267 0.5 17.9998V6.99998C0.500059 6.91767 0.520436 6.83665 0.559323 6.7641C0.598225 6.69153 0.654449 6.62969 0.723 6.58407ZM10.2774 1.78579L10 1.60089L9.72265 1.78579L2.52565 6.58379L1.90161 6.99982L2.52565 7.41584L9.72265 12.2138L10 12.3987L10.2774 12.2138L17.4743 7.41584L18.0984 6.99982L17.4743 6.58379L10.2774 1.78579ZM1.5 17.9998V18.4998H2H17.997H18.4968L18.497 18L18.5 8.86898L18.5003 7.93439L17.7227 8.45278L10.2777 13.4158L10.2775 13.4159C10.1953 13.4707 10.0988 13.5 10 13.5C9.90123 13.5 9.80466 13.4707 9.7225 13.4159L9.72234 13.4158L2.27734 8.45278L1.5 7.93459V8.86882V17.9998Z" fill="#000D19" stroke="#000D19"/>
</svg>
