<svg width="68" height="22" viewBox="0 0 68 22" fill="none" xmlns="http://www.w3.org/2000/svg">
<path d="M35.168 7.00501C35.1292 10.0574 37.8941 11.7607 39.9768 12.7735C42.1167 13.8126 42.8355 14.4789 42.827 15.4082C42.811 16.8303 41.1201 17.4579 39.5378 17.4823C36.7771 17.525 35.1719 16.7386 33.8959 16.1438L32.9014 20.7873C34.1817 21.376 36.5524 21.8895 39.0107 21.912C44.7815 21.912 48.5568 19.0695 48.5772 14.6623C48.5998 9.06903 40.8242 8.75944 40.8773 6.2594C40.8956 5.50132 41.6205 4.69236 43.209 4.48667C43.9952 4.38277 46.1656 4.30325 48.6264 5.434L49.5922 0.941229C48.2688 0.460409 46.568 0 44.4505 0C39.019 0 35.1988 2.8812 35.168 7.00501ZM58.8726 0.386988C57.8189 0.386988 56.9309 1.00034 56.5346 1.94156L48.2914 21.582H54.0579L55.2054 18.4174H62.2519L62.9175 21.582H68L63.5649 0.386988H58.8726ZM59.6793 6.11255L61.3434 14.0715H56.7858L59.6793 6.11255ZM28.1764 0.387251L23.6311 21.5817H29.126L33.6693 0.386723L28.1764 0.387251ZM20.0475 0.386723L14.3281 14.8132L12.0145 2.54696C11.743 1.17766 10.671 0.386988 9.48042 0.386988H0.130953L0 1.00246C1.91941 1.41807 4.10019 2.08841 5.42141 2.80566C6.22997 3.2438 6.46053 3.62682 6.72616 4.66797L11.1082 21.582H16.915L25.8177 0.386988L20.0475 0.386723Z" fill="url(#paint0_linear_5233_389)"/>
<defs>
<linearGradient id="paint0_linear_5233_389" x1="31.2623" y1="22.3515" x2="31.8952" y2="-0.152477" gradientUnits="userSpaceOnUse">
<stop stop-color="#222357"/>
<stop offset="1" stop-color="#254AA5"/>
</linearGradient>
</defs>
</svg>
