<svg width="61" height="39" viewBox="0 0 61 39" fill="none" xmlns="http://www.w3.org/2000/svg">
<rect width="61" height="39" rx="5" fill="white"/>
<path d="M30.3416 17.115C30.3137 19.3439 32.306 20.5876 33.8068 21.3271C35.3488 22.0858 35.8667 22.5724 35.8606 23.251C35.8491 24.2894 34.6306 24.7477 33.4904 24.7655C31.5012 24.7966 30.3445 24.2224 29.425 23.7881L28.7083 27.1788C29.6309 27.6087 31.3392 27.9835 33.1107 28C37.269 28 39.9894 25.9244 40.0042 22.7063C40.0205 18.6222 34.4174 18.3961 34.4557 16.5706C34.4689 16.017 34.9913 15.4263 36.1359 15.2761C36.7024 15.2003 38.2664 15.1422 40.0396 15.9679L40.7355 12.6873C39.782 12.3362 38.5564 12 37.0305 12C33.1166 12 30.3638 14.1038 30.3416 17.115ZM47.4229 12.2826C46.6636 12.2826 46.0237 12.7304 45.7381 13.4177L39.7982 27.759H43.9535L44.7803 25.4483H49.858L50.3376 27.759H54L50.8041 12.2826H47.4229ZM48.0042 16.4633L49.2034 22.2749H45.9192L48.0042 16.4633ZM25.3036 12.2828L22.0283 27.7588H25.9879L29.2617 12.2824H25.3036V12.2828ZM19.446 12.2824L15.3246 22.8165L13.6575 13.8598C13.4619 12.8599 12.6894 12.2826 11.8315 12.2826H5.09436L5 12.732C6.3831 13.0355 7.95455 13.5249 8.9066 14.0487C9.48924 14.3686 9.65538 14.6483 9.84679 15.4085L13.0044 27.759H17.1888L23.6039 12.2826H19.446" fill="url(#paint0_linear_3563_36)"/>
<defs>
<linearGradient id="paint0_linear_3563_36" x1="27.5273" y1="28.321" x2="27.9956" y2="11.889" gradientUnits="userSpaceOnUse">
<stop stop-color="#222357"/>
<stop offset="1" stop-color="#254AA5"/>
</linearGradient>
</defs>
</svg>
