<svg width="53" height="17" viewBox="0 0 53 17" fill="none" xmlns="http://www.w3.org/2000/svg">
<path d="M27.4103 5.4347C27.3801 7.80287 29.5351 9.12433 31.1584 9.91009C32.8263 10.7162 33.3865 11.2332 33.3799 11.9542C33.3674 13.0574 32.0495 13.5444 30.8162 13.5633C28.6645 13.5964 27.4134 12.9863 26.4188 12.5248L25.6437 16.1275C26.6416 16.5842 28.4894 16.9825 30.4054 17C34.9032 17 37.8457 14.7947 37.8617 11.3755C37.8793 7.03604 31.8188 6.79585 31.8602 4.85623C31.8745 4.2681 32.4395 3.64048 33.6776 3.4809C34.2904 3.40029 35.982 3.3386 37.9 4.21586L38.6527 0.730234C37.6213 0.357201 36.2957 0 34.6452 0C30.4119 0 27.4343 2.23533 27.4103 5.4347ZM45.886 0.300236C45.0647 0.300236 44.3726 0.776091 44.0637 1.50633L37.6389 16.744H42.1333L43.0277 14.2888H48.5198L49.0387 16.744H53L49.5432 0.300236H45.886ZM46.5147 4.74231L47.8118 10.9171H44.2596L46.5147 4.74231ZM21.961 0.300442L18.4183 16.7438H22.7012L26.2422 0.300032H21.961V0.300442ZM15.6253 0.300032L11.1675 11.4925L9.36423 1.97601C9.15264 0.913666 8.31707 0.300236 7.38915 0.300236H0.102066L0 0.777737C1.49601 1.10018 3.19573 1.62025 4.22551 2.17672C4.85571 2.51664 5.03541 2.8138 5.24245 3.62156L8.65784 16.744H13.1838L20.1226 0.300236H15.6253" fill="white" fill-opacity="0.8"/>
</svg>
