<svg width="18" height="18" viewBox="0 0 18 18" fill="none" xmlns="http://www.w3.org/2000/svg">
<path d="M1 8.91667C1 13.289 4.54429 16.8333 8.91667 16.8333C13.289 16.8333 16.8333 13.289 16.8333 8.91667C16.8333 4.54429 13.289 1 8.91667 1C4.54429 1 1 4.54429 1 8.91667Z" stroke="#BDBDBD" stroke-width="1.2" stroke-linecap="round" stroke-linejoin="round"/>
<path d="M9.70703 1.03955C9.70703 1.03955 12.082 4.16663 12.082 8.91663C12.082 13.6666 9.70703 16.7937 9.70703 16.7937" stroke="#BDBDBD" stroke-width="1.2" stroke-linecap="round" stroke-linejoin="round"/>
<path d="M8.125 16.7937C8.125 16.7937 5.75 13.6666 5.75 8.91663C5.75 4.16663 8.125 1.03955 8.125 1.03955" stroke="#BDBDBD" stroke-width="1.2" stroke-linecap="round" stroke-linejoin="round"/>
<path d="M1.5 11.6875H16.3358" stroke="#BDBDBD" stroke-width="1.2" stroke-linecap="round" stroke-linejoin="round"/>
<path d="M1.5 6.146H16.3358" stroke="#BDBDBD" stroke-width="1.2" stroke-linecap="round" stroke-linejoin="round"/>
</svg>
