<svg width="12" height="12" viewBox="0 0 12 12" fill="none" xmlns="http://www.w3.org/2000/svg">
<path d="M6.78408 5.99972L11.3896 1.39417C11.4806 1.28789 11.5282 1.15118 11.5228 1.01136C11.5174 0.87154 11.4594 0.738907 11.3605 0.639966C11.2616 0.541025 11.1289 0.483062 10.9891 0.477661C10.8493 0.472261 10.7126 0.51982 10.6063 0.610834L6.00074 5.21639L1.39519 0.605279C1.29058 0.500666 1.14869 0.441895 1.00074 0.441895C0.852799 0.441895 0.710913 0.500666 0.6063 0.605279C0.501687 0.709892 0.442916 0.851778 0.442916 0.999723C0.442916 1.14767 0.501687 1.28955 0.6063 1.39417L5.21741 5.99972L0.6063 10.6053C0.548144 10.6551 0.50091 10.7164 0.467564 10.7853C0.434218 10.8542 0.415479 10.9293 0.412523 11.0058C0.409568 11.0823 0.42246 11.1586 0.45039 11.2299C0.478321 11.3012 0.520686 11.3659 0.574828 11.4201C0.628969 11.4742 0.693718 11.5166 0.76501 11.5445C0.836301 11.5725 0.912597 11.5853 0.989108 11.5824C1.06562 11.5794 1.14069 11.5607 1.20962 11.5273C1.27854 11.494 1.33983 11.4468 1.38963 11.3886L6.00074 6.78306L10.6063 11.3886C10.7126 11.4796 10.8493 11.5272 10.9891 11.5218C11.1289 11.5164 11.2616 11.4584 11.3605 11.3595C11.4594 11.2605 11.5174 11.1279 11.5228 10.9881C11.5282 10.8483 11.4806 10.7116 11.3896 10.6053L6.78408 5.99972Z" fill="#777777"/>
</svg>
