<svg width="15" height="15" viewBox="0 0 15 15" fill="none" xmlns="http://www.w3.org/2000/svg">
<g clip-path="url(#clip0)">
<path d="M14.6876 4.0668C14.6027 3.76382 14.4373 3.48952 14.2089 3.27305C13.9741 3.04993 13.6863 2.89032 13.3726 2.8093C12.1989 2.49993 7.49639 2.49993 7.49639 2.49993C5.53597 2.47762 3.57604 2.57572 1.62764 2.79368C1.31401 2.88068 1.02674 3.04385 0.791392 3.26868C0.560142 3.49118 0.392642 3.76555 0.305142 4.06618C0.0949497 5.19852 -0.00717589 6.34827 0.000141599 7.49993C-0.0073584 8.65055 0.0945166 9.79993 0.305142 10.9337C0.390767 11.2331 0.557642 11.5062 0.789517 11.7268C1.02139 11.9474 1.31014 12.1068 1.62764 12.1912C2.81702 12.4999 7.49639 12.4999 7.49639 12.4999C9.45931 12.5223 11.4217 12.4242 13.3726 12.2062C13.6863 12.1252 13.9741 11.9655 14.2089 11.7424C14.4401 11.5218 14.6045 11.2474 14.687 10.9487C14.9027 9.81677 15.0076 8.66655 15.0001 7.5143C15.0164 6.35718 14.9116 5.20153 14.6876 4.06618V4.0668ZM6.00139 9.63993V5.36055L9.91389 7.50055L6.00139 9.63993Z" fill="white"/>
</g>
<defs>
<clipPath id="clip0">
<rect width="15" height="15" fill="white"/>
</clipPath>
</defs>
</svg>
