<svg width="77" height="88" viewBox="0 0 77 88" fill="none" xmlns="http://www.w3.org/2000/svg">
<path d="M31.9334 3.53381C39.9333 -2.86628 48.9334 0.867144 52.4334 3.53381C57.4338 7.34368 57.0337 12.1337 63.4337 16.5337C69.8337 20.9337 69.9338 26.5339 67.9337 35.0337C65.4338 44.0339 59.8337 52.4337 65.4337 58.0337C71.0337 63.6337 71.4338 68.5339 67.9337 76.0339C60.4338 88.5339 48.6334 90.7337 33.4337 83.5337C18.234 76.3337 10.2435 70.7483 5.43337 63.5337C-1.56711 53.0339 -0.473024 41.3871 1.43337 35.0337C2.93359 30.0339 5.43382 25.5339 13.9337 23.5339C22.2574 21.5754 25.4338 8.03394 31.9334 3.53381Z" fill="#E9F1FB"/>
<path d="M72.6157 64.7448H45.186C45.6584 57.9124 51.4162 52.4963 58.4265 52.4963C64.5655 52.4963 69.868 56.6192 71.3216 62.5225C71.4413 63.0097 71.9362 63.3087 72.4286 63.1895C72.9201 63.0708 73.2217 62.5793 73.1015 62.0921C72.3313 58.9625 70.5208 56.1244 67.9965 54.0714C68.374 52.7172 68.5658 51.3175 68.5658 49.9003C68.5658 49.3714 68.5391 48.8473 68.4875 48.328C69.7464 46.608 70.4101 44.583 70.4101 42.4454C70.4101 37.6617 67.0197 33.6504 62.4969 32.6419L64.2788 30.8752C65.1892 29.9726 65.1892 28.5044 64.2788 27.6018L61.9167 25.2604L64.1871 23.0097C65.2575 23.6719 66.6637 23.5329 67.5809 22.6242C68.6555 21.5594 68.6555 19.8357 67.5814 18.7709L62.5647 13.798C62.0455 13.2833 61.3555 13 60.6211 13C59.8867 13 59.1967 13.2833 58.6775 13.798C58.1584 14.3126 57.8725 14.9966 57.8725 15.7246C57.8725 16.0297 57.9255 16.3258 58.0224 16.6064L55.6045 19.0032L54.2459 17.656C53.805 17.2189 53.2185 16.9781 52.5944 16.9781C51.9707 16.9781 51.3842 17.2189 50.9433 17.656L34.8907 33.5691C34.5357 33.9205 34.3119 34.3666 34.2375 34.85C33.7607 34.9139 33.3193 35.1263 32.9739 35.4692C32.9433 35.4995 32.9161 35.5317 32.8908 35.5652L32.8842 35.5581C32.1703 36.2658 31.5881 37.0666 31.1434 37.9318C30.8065 37.7468 30.4195 37.6437 30.0105 37.6437H24.3349C23.0474 37.6437 22 38.682 22 39.9582V44.1781C22 45.4543 23.0474 46.4926 24.3349 46.4926H28.9111L25.7416 49.6344C25.3007 50.0715 25.0578 50.6529 25.0578 51.2716C25.0578 51.8894 25.3007 52.4707 25.7416 52.9083L28.7517 55.8916C29.1926 56.3287 29.7791 56.57 30.4028 56.57C31.0265 56.57 31.6129 56.3287 32.0543 55.8916L35.1885 52.7843V55.8415C35.1885 57.1177 36.2359 58.156 37.5234 58.156H41.7803C43.0678 58.156 44.1152 57.1177 44.1152 55.8415V51.6216C44.1152 51.2054 44.0036 50.8123 43.8074 50.4722C44.7108 50.0256 45.5582 49.4325 46.3093 48.6884C46.6548 48.3459 46.8681 47.9103 46.9325 47.4372C47.415 47.363 47.8678 47.143 48.2267 46.7878L50.3807 44.6521C50.7486 46.2665 51.5154 47.7783 52.6292 49.0446C53.3316 49.8426 54.1505 50.52 55.05 51.0573C49.8353 52.2422 45.6417 56.1106 44.0322 61.112H27.7458C26.2307 61.112 24.9972 62.3343 24.9972 63.8366C24.9972 65.3389 26.2307 66.5612 27.7458 66.5612H35.3388C35.0024 67.1189 34.8082 67.7703 34.8082 68.4661V71.2792C34.8082 73.3312 36.4922 75 38.5617 75H72.6157C74.6852 75 76.3692 73.3312 76.3692 71.2792V68.4661C76.3692 66.4141 74.6852 64.7448 72.6157 64.7448ZM66.3941 52.9305C64.4515 51.7276 62.2841 50.993 59.9993 50.7617C60.0337 50.4764 60.0523 50.1888 60.0523 49.9003C60.0523 47.967 59.2926 46.1492 57.9136 44.7826C57.2827 44.1568 56.9353 43.3252 56.9353 42.4407C56.9353 41.5566 57.2827 40.725 57.9136 40.0992C58.5444 39.4739 59.3833 39.1295 60.2756 39.1295C61.168 39.1295 62.0069 39.4739 62.6377 40.0992C65.2785 42.7174 66.7329 46.1979 66.7329 49.9003C66.7334 50.9253 66.6179 51.94 66.3941 52.9305ZM59.9731 15.0823C60.3315 14.7275 60.9108 14.7275 61.2687 15.0823L66.2853 20.0552C66.6442 20.4109 66.6427 20.9852 66.2853 21.3394C65.9274 21.6942 65.3476 21.6947 64.9898 21.3394L59.9731 16.3665C59.6157 16.0122 59.6143 15.438 59.9731 15.0823ZM59.1185 18.0883L62.8396 21.777L60.6211 23.9761L56.9 20.2874L59.1185 18.0883ZM23.8324 44.1781V39.9587C23.8324 39.6839 24.0576 39.4601 24.3349 39.4601H30.0105C30.1985 39.4601 30.3632 39.5628 30.4491 39.7198C30.2296 40.5273 30.1165 41.3688 30.1222 42.2288C30.127 42.9979 30.2262 43.7514 30.4114 44.478C30.3188 44.6005 30.1723 44.6767 30.0105 44.6767H24.3349C24.0576 44.6767 23.8324 44.4529 23.8324 44.1781ZM34.7714 50.6292L30.7583 54.6074C30.5626 54.8018 30.2434 54.8018 30.0473 54.6074L27.0377 51.6235C26.8415 51.4296 26.8415 51.1131 27.0377 50.9192L31.0508 46.9406C31.1343 46.8578 31.2441 46.8091 31.3586 46.7987C31.7914 47.5484 32.3306 48.2442 32.9729 48.8644C33.567 49.4381 34.2222 49.915 34.917 50.2995C34.9117 50.4216 34.8616 50.5398 34.7714 50.6292ZM42.2828 51.6216V55.8415C42.2828 56.1163 42.0576 56.3396 41.7803 56.3396H37.5234C37.2461 56.3396 37.0209 56.1163 37.0209 55.8415V51.6216C37.0209 51.4518 37.1106 51.2967 37.2495 51.2063C37.9901 51.3851 38.7502 51.4759 39.5113 51.4759C40.3354 51.4759 41.16 51.3686 41.9631 51.159C42.153 51.2323 42.2828 51.4135 42.2828 51.6216ZM46.891 45.5395C46.6787 45.7098 46.3747 45.6705 46.2191 45.503L39.7814 39.1214C39.4216 38.7667 38.8418 38.7681 38.4854 39.1214C38.1313 39.472 38.1227 40.0438 38.4844 40.4048C38.4844 40.4048 38.4844 40.4062 38.4854 40.4062L44.9231 46.7878C45.0639 46.9302 45.1187 46.9552 45.1226 47.1269C45.1245 47.2026 45.1068 47.3114 45.0133 47.4041C42.0399 50.3516 37.2122 50.423 34.2518 47.5635C32.7835 46.1454 31.968 44.2467 31.9546 42.2169C31.9412 40.1867 32.7315 38.278 34.1797 36.8429L34.1726 36.8358C34.2064 36.8107 34.2389 36.7842 34.2694 36.754C34.4154 36.6092 34.6536 36.6073 34.801 36.754C35.6533 37.5978 35.7716 37.7161 35.8938 37.8372C36.2483 38.1882 36.83 38.1938 37.1898 37.8372C37.5544 37.4758 37.5401 36.8996 37.1898 36.5529L36.1863 35.5581C36.0918 35.4645 36.0398 35.3391 36.0398 35.2057C36.0398 35.0723 36.0918 34.9475 36.1863 34.8538L52.2393 18.9407C52.3343 18.8466 52.4603 18.7946 52.5948 18.7946C52.7289 18.7946 52.8549 18.8466 52.9499 18.9407L62.9832 28.8866C63.1793 29.0805 63.1793 29.397 62.9832 29.5914L60.1516 32.3983C54.6558 32.4617 50.1994 36.8798 50.1349 42.3276C50.0815 42.3806 46.9478 45.4893 46.891 45.5395ZM51.9645 42.4454C51.9645 37.9053 55.6908 34.2114 60.2709 34.2114C64.8514 34.2114 68.5777 37.9048 68.5777 42.4454C68.5777 43.5362 68.3654 44.5901 67.9569 45.5716C67.2287 43.0428 65.8611 40.726 63.9333 38.8149C62.9565 37.8466 61.6576 37.3131 60.2756 37.3131C58.8942 37.3131 57.5948 37.8466 56.618 38.8149C55.6412 39.7837 55.1029 41.0713 55.1029 42.4407C55.1029 43.8106 55.6412 45.0981 56.618 46.0669C57.6511 47.0905 58.2199 48.4519 58.2199 49.9003C58.2199 50.0729 58.2085 50.2451 58.1918 50.4164C54.5866 49.4888 51.9645 46.2064 51.9645 42.4454ZM26.8296 63.8366C26.8296 63.3357 27.2409 62.9284 27.7458 62.9284H43.5727C43.4624 63.5225 43.3875 64.1289 43.3503 64.7448H27.7458C27.2409 64.7448 26.8296 64.3375 26.8296 63.8366ZM74.5368 71.2792C74.5368 72.3293 73.675 73.1841 72.6157 73.1841H38.5617C37.5024 73.1841 36.6406 72.3293 36.6406 71.2792V68.4661C36.6406 67.416 37.5024 66.5612 38.5617 66.5612H72.6157C73.675 66.5612 74.5368 67.416 74.5368 68.4661V71.2792Z" fill="url(#paint0_linear)"/>
<defs>
<linearGradient id="paint0_linear" x1="49.1911" y1="13" x2="49.514" y2="75.1274" gradientUnits="userSpaceOnUse">
<stop stop-color="#014982"/>
<stop offset="1" stop-color="#00A9CB"/>
</linearGradient>
</defs>
</svg>
