<svg width="84" height="88" viewBox="0 0 84 88" fill="none" xmlns="http://www.w3.org/2000/svg">
<path d="M31.9334 3.53381C39.9333 -2.86628 48.9334 0.867144 52.4334 3.53381C57.4338 7.34368 57.0337 12.1337 63.4337 16.5337C69.8337 20.9337 69.9338 26.5339 67.9337 35.0337C65.4338 44.0339 59.8337 52.4337 65.4337 58.0337C71.0337 63.6337 71.4338 68.5339 67.9337 76.0339C60.4338 88.5339 48.6334 90.7337 33.4337 83.5337C18.234 76.3337 10.2435 70.7483 5.43337 63.5337C-1.56711 53.0339 -0.473024 41.3871 1.43337 35.0337C2.93359 30.0339 5.43382 25.5339 13.9337 23.5339C22.2574 21.5754 25.4338 8.03394 31.9334 3.53381Z" fill="#E9F1FB"/>
<g clip-path="url(#clip0)">
<path d="M44.052 46.5895H49.0952C50.0633 46.5895 50.8511 45.8017 50.8511 44.8336V39.7904C50.8511 38.8223 50.0633 38.0345 49.0952 38.0345H44.052C43.0839 38.0345 42.2961 38.8223 42.2961 39.7904V44.8336C42.2961 45.8017 43.0839 46.5895 44.052 46.5895ZM44.1125 39.851H49.0346V44.7731H44.1125V39.851Z" fill="url(#paint0_linear)"/>
<path d="M56.9048 46.5895H61.948C62.9161 46.5895 63.7038 45.8017 63.7038 44.8336V39.7904C63.7038 38.8223 62.9161 38.0345 61.948 38.0345H56.9048C55.9366 38.0345 55.1489 38.8223 55.1489 39.7904V44.8336C55.1489 45.8017 55.9366 46.5895 56.9048 46.5895ZM56.9653 39.851H61.8874V44.7731H56.9653V39.851Z" fill="url(#paint1_linear)"/>
<path d="M69.7576 46.5895H74.8008C75.7689 46.5895 76.5566 45.8017 76.5566 44.8336V39.7904C76.5566 38.8223 75.7689 38.0345 74.8008 38.0345H69.7576C68.7894 38.0345 68.0017 38.8223 68.0017 39.7904V44.8336C68.0017 45.8017 68.7894 46.5895 69.7576 46.5895ZM69.8181 39.851H74.7402V44.7731H69.8181V39.851Z" fill="url(#paint2_linear)"/>
<path d="M29.4434 67.3224C29.4434 68.2906 30.2311 69.0783 31.1992 69.0783H36.2424C37.2106 69.0783 37.9983 68.2906 37.9983 67.3224V62.2791C37.9983 61.311 37.2106 60.5233 36.2424 60.5233H31.1992C30.2311 60.5233 29.4434 61.311 29.4434 62.2791V67.3224ZM31.2598 62.3397H36.1819V67.2619H31.2598V62.3397Z" fill="url(#paint3_linear)"/>
<path d="M42.2961 67.3224C42.2961 68.2906 43.0839 69.0783 44.052 69.0783H49.0952C50.0633 69.0783 50.8511 68.2906 50.8511 67.3224V62.2791C50.8511 61.311 50.0633 60.5233 49.0952 60.5233H44.052C43.0839 60.5233 42.2961 61.311 42.2961 62.2791V67.3224ZM44.1125 62.3397H49.0346V67.2619H44.1125V62.3397Z" fill="url(#paint4_linear)"/>
<path d="M55.1489 67.3224C55.1489 68.2906 55.9366 69.0783 56.9048 69.0783H61.948C62.9161 69.0783 63.7038 68.2906 63.7038 67.3224V62.2791C63.7038 61.311 62.9161 60.5233 61.948 60.5233H56.9048C55.9366 60.5233 55.1489 61.311 55.1489 62.2791V67.3224ZM56.9653 62.3397H61.8874V67.2619H56.9653V62.3397Z" fill="url(#paint5_linear)"/>
<path d="M68.0017 67.3224C68.0017 68.2906 68.7894 69.0783 69.7576 69.0783H74.8008C75.7689 69.0783 76.5566 68.2906 76.5566 67.3224V62.2791C76.5566 61.311 75.7689 60.5233 74.8008 60.5233H69.7576C68.7894 60.5233 68.0017 61.311 68.0017 62.2791V67.3224ZM69.8181 62.3397H74.7402V67.2619H69.8181V62.3397Z" fill="url(#paint6_linear)"/>
<path d="M31.1992 57.8338H36.2424C37.2106 57.8338 37.9983 57.0461 37.9983 56.078V51.0347C37.9983 50.0665 37.2106 49.2788 36.2424 49.2788H31.1992C30.2311 49.2788 29.4434 50.0665 29.4434 51.0347V56.078C29.4434 57.0461 30.2311 57.8338 31.1992 57.8338ZM31.2598 51.0952H36.1819V56.0174H31.2598V51.0952Z" fill="url(#paint7_linear)"/>
<path d="M42.2961 56.078C42.2961 57.0461 43.0839 57.8338 44.052 57.8338H49.0952C50.0633 57.8338 50.8511 57.0461 50.8511 56.078V51.0347C50.8511 50.0665 50.0633 49.2788 49.0952 49.2788H44.052C43.0839 49.2788 42.2961 50.0665 42.2961 51.0347V56.078ZM44.1125 51.0952H49.0346V56.0174H44.1125V51.0952Z" fill="url(#paint8_linear)"/>
<path d="M55.1489 56.078C55.1489 57.0461 55.9366 57.8338 56.9048 57.8338H61.948C62.9161 57.8338 63.7038 57.0461 63.7038 56.078V51.0347C63.7038 50.0665 62.9161 49.2788 61.948 49.2788H56.9048C55.9366 49.2788 55.1489 50.0665 55.1489 51.0347V56.078ZM56.9653 51.0952H61.8874V56.0174H56.9653V51.0952Z" fill="url(#paint9_linear)"/>
<path d="M68.0017 56.078C68.0017 57.0461 68.7894 57.8338 69.7576 57.8338H74.8008C75.7689 57.8338 76.5566 57.0461 76.5566 56.078V51.0347C76.5566 50.0665 75.7689 49.2788 74.8008 49.2788H69.7576C68.7894 49.2788 68.0017 50.0665 68.0017 51.0347V56.078ZM69.8181 51.0952H74.7402V56.0174H69.8181V51.0952Z" fill="url(#paint10_linear)"/>
<path d="M83.0918 27.2184C83.5935 27.2184 84 26.8117 84 26.3102V24.282C84 21.778 81.963 19.7409 79.459 19.7409H76.6899V14.9352C76.6899 14.124 76.03 13.4641 75.2188 13.4641H71.1377C70.3265 13.4641 69.6665 14.124 69.6665 14.9352V19.7409H63.2379V14.9352C63.2379 14.124 62.5779 13.4641 61.7668 13.4641H57.6856C56.8745 13.4641 56.2146 14.124 56.2146 14.9352V19.7409H49.7859V14.9352C49.7859 14.124 49.126 13.4641 48.3149 13.4641H44.2337C43.4226 13.4641 42.7626 14.124 42.7626 14.9352V19.7409H36.334V14.9352C36.334 14.124 35.674 13.4641 34.8628 13.4641H30.7814C29.9701 13.4641 29.3102 14.124 29.3102 14.9352V19.7409H26.541C24.037 19.7409 22 21.7781 22 24.282V58.3872C22 58.8887 22.4065 59.2954 22.9082 59.2954C23.4099 59.2954 23.8164 58.8887 23.8164 58.3872V34.3933H82.1836V69.9949C82.1836 71.4973 80.9613 72.7195 79.459 72.7195H26.541C25.0387 72.7195 23.8164 71.4973 23.8164 69.9949V62.6255C23.8164 62.1239 23.4099 61.7172 22.9082 61.7172C22.4065 61.7172 22 62.1239 22 62.6255V69.9949C22 72.4988 24.037 74.5359 26.541 74.5359H79.459C81.963 74.5359 84 72.4988 84 69.9949C84 68.5348 84 31.877 84 30.5483C84 30.0467 83.5935 29.6401 83.0918 29.6401C82.5901 29.6401 82.1836 30.0467 82.1836 30.5483V32.5769H23.8164V24.282C23.8164 22.7796 25.0387 21.5574 26.541 21.5574H29.3101V24.4836C29.3101 26.4199 30.8854 27.9953 32.8218 27.9953C34.7582 27.9953 32.8218 27.9953 32.8218 27.9953C34.7582 27.9953 36.3335 26.4199 36.3335 24.4836V21.5574H42.7621V24.4836C42.7621 26.42 44.3376 27.9953 46.2738 27.9953C48.2101 27.9953 49.7856 26.42 49.7856 24.4836V21.5574H56.2142V24.4836C56.2142 26.4194 57.7905 27.9953 59.7259 27.9953C61.6622 27.9953 63.2376 26.42 63.2376 24.4836V21.5574H69.6663V24.4836C69.6663 26.42 71.2417 27.9953 73.1781 27.9953C75.1144 27.9953 76.6898 26.42 76.6898 24.4836V21.5574H79.459C80.9613 21.5574 82.1836 22.7796 82.1836 24.282V26.31C82.1836 26.8117 82.5901 27.2184 83.0918 27.2184ZM31.1265 15.2806H34.5172V24.4837C34.5172 25.4185 33.7566 26.179 32.8218 26.179C31.8869 26.179 31.1265 25.4185 31.1265 24.4837C31.1265 22.7942 31.1265 17.0089 31.1265 15.2806ZM47.9693 24.4837C47.9693 25.4185 47.2088 26.179 46.274 26.179C45.3391 26.179 44.5787 25.4185 44.5787 24.4837C44.5787 22.7942 44.5787 17.0091 44.5787 15.2806H47.9693V24.4837ZM61.4213 24.4837C61.4213 25.4185 60.6609 26.179 59.726 26.179C58.789 26.179 58.0307 25.4158 58.0307 24.4837C58.0307 18.2567 58.0307 21.6887 58.0307 15.2806H61.4213V24.4837ZM74.8735 24.4837C74.8735 25.4185 74.1131 26.179 73.1782 26.179C72.2434 26.179 71.4829 25.4185 71.4829 24.4837C71.4829 23.6 71.4828 19.0442 71.4828 15.2806H74.8735V24.4837Z" fill="url(#paint11_linear)"/>
</g>
<defs>
<linearGradient id="paint0_linear" x1="46.5746" y1="38.0345" x2="46.6137" y2="46.6071" gradientUnits="userSpaceOnUse">
<stop stop-color="#014982"/>
<stop offset="1" stop-color="#00A9CB"/>
</linearGradient>
<linearGradient id="paint1_linear" x1="59.4274" y1="38.0345" x2="59.4665" y2="46.6071" gradientUnits="userSpaceOnUse">
<stop stop-color="#014982"/>
<stop offset="1" stop-color="#00A9CB"/>
</linearGradient>
<linearGradient id="paint2_linear" x1="72.2802" y1="38.0345" x2="72.3193" y2="46.6071" gradientUnits="userSpaceOnUse">
<stop stop-color="#014982"/>
<stop offset="1" stop-color="#00A9CB"/>
</linearGradient>
<linearGradient id="paint3_linear" x1="33.7218" y1="60.5232" x2="33.7609" y2="69.0959" gradientUnits="userSpaceOnUse">
<stop stop-color="#014982"/>
<stop offset="1" stop-color="#00A9CB"/>
</linearGradient>
<linearGradient id="paint4_linear" x1="46.5746" y1="60.5232" x2="46.6137" y2="69.0959" gradientUnits="userSpaceOnUse">
<stop stop-color="#014982"/>
<stop offset="1" stop-color="#00A9CB"/>
</linearGradient>
<linearGradient id="paint5_linear" x1="59.4274" y1="60.5232" x2="59.4665" y2="69.0959" gradientUnits="userSpaceOnUse">
<stop stop-color="#014982"/>
<stop offset="1" stop-color="#00A9CB"/>
</linearGradient>
<linearGradient id="paint6_linear" x1="72.2802" y1="60.5232" x2="72.3193" y2="69.0959" gradientUnits="userSpaceOnUse">
<stop stop-color="#014982"/>
<stop offset="1" stop-color="#00A9CB"/>
</linearGradient>
<linearGradient id="paint7_linear" x1="33.7218" y1="49.2788" x2="33.7609" y2="57.8515" gradientUnits="userSpaceOnUse">
<stop stop-color="#014982"/>
<stop offset="1" stop-color="#00A9CB"/>
</linearGradient>
<linearGradient id="paint8_linear" x1="46.5746" y1="49.2788" x2="46.6137" y2="57.8515" gradientUnits="userSpaceOnUse">
<stop stop-color="#014982"/>
<stop offset="1" stop-color="#00A9CB"/>
</linearGradient>
<linearGradient id="paint9_linear" x1="59.4274" y1="49.2788" x2="59.4665" y2="57.8515" gradientUnits="userSpaceOnUse">
<stop stop-color="#014982"/>
<stop offset="1" stop-color="#00A9CB"/>
</linearGradient>
<linearGradient id="paint10_linear" x1="72.2802" y1="49.2788" x2="72.3193" y2="57.8515" gradientUnits="userSpaceOnUse">
<stop stop-color="#014982"/>
<stop offset="1" stop-color="#00A9CB"/>
</linearGradient>
<linearGradient id="paint11_linear" x1="53.0074" y1="13.464" x2="53.2821" y2="74.6618" gradientUnits="userSpaceOnUse">
<stop stop-color="#014982"/>
<stop offset="1" stop-color="#00A9CB"/>
</linearGradient>
<clipPath id="clip0">
<rect width="62" height="62" fill="white" transform="translate(22 13)"/>
</clipPath>
</defs>
</svg>
