<svg width="71" height="88" viewBox="0 0 71 88" fill="none" xmlns="http://www.w3.org/2000/svg">
<path d="M31.9334 3.53381C39.9333 -2.86628 48.9334 0.867144 52.4334 3.53381C57.4338 7.34368 57.0337 12.1337 63.4337 16.5337C69.8337 20.9337 69.9338 26.5339 67.9337 35.0337C65.4338 44.0339 59.8337 52.4337 65.4337 58.0337C71.0337 63.6337 71.4338 68.5339 67.9337 76.0339C60.4338 88.5339 48.6334 90.7337 33.4337 83.5337C18.234 76.3337 10.2435 70.7483 5.43337 63.5337C-1.56711 53.0339 -0.473024 41.3871 1.43337 35.0337C2.93359 30.0339 5.43382 25.5339 13.9337 23.5339C22.2574 21.5754 25.4338 8.03394 31.9334 3.53381Z" fill="#E9F1FB"/>
<path d="M67.991 37.8725C69.7639 35.0567 70.701 31.8096 70.701 28.4822V18.2779C70.701 15.3676 68.3334 13 65.4232 13C62.5611 13 60.2256 15.2902 60.1489 18.134H38.5522C38.4755 15.2902 36.1399 13 33.2779 13C30.3676 13 28 15.3676 28 18.2779V28.4821C28 31.8095 28.9371 35.0566 30.7101 37.8724C32.3362 40.4551 34.595 42.5584 37.2749 43.9999C34.596 45.4404 32.3367 47.5442 30.7101 50.1275C28.9371 52.9433 28 56.1903 28 59.5178V69.722C28 72.6323 30.3676 74.9999 33.2779 74.9999C36.1397 74.9999 38.4751 72.7099 38.5521 69.8663H60.1488C60.2258 72.71 62.5612 75 65.4232 75C68.3334 75 70.701 72.6324 70.701 69.7221V62.1696C70.701 61.6671 70.2937 61.2596 69.791 61.2596C69.2884 61.2596 68.881 61.6671 68.881 62.1696V69.7221C68.881 71.6289 67.3298 73.1801 65.4231 73.1801C63.5163 73.1801 61.9651 71.6289 61.9651 69.7221V59.0889C61.9651 55.8414 60.0685 52.8454 57.1347 51.4571L38.7933 42.7336C36.1026 41.4441 33.84 39.4279 32.25 36.9028C30.6602 34.3779 29.8198 31.4661 29.8198 28.4822V18.2779C29.8198 16.3711 31.371 14.8199 33.2778 14.8199C35.1845 14.8199 36.7357 16.3711 36.7357 18.2779V28.9111C36.7357 32.1586 38.6324 35.1546 41.5663 36.5429L59.9075 45.2664C64.898 47.6581 68.3113 52.5657 68.8151 58.074C68.861 58.5744 69.3027 58.9433 69.8042 58.8972C70.3047 58.8514 70.6732 58.4086 70.6274 57.9081C70.0905 52.0395 66.5914 46.7844 61.4256 44.0001C64.1048 42.5597 66.3643 40.4558 67.991 37.8725ZM60.1452 68.0464H38.5559V65.094H60.1452V68.0464ZM60.1452 63.2741H38.5559V60.7262H60.1452V63.2741ZM60.1419 58.9062H38.5591C38.5884 57.8592 38.8674 56.8502 39.3506 55.9538H59.3504C59.8335 56.8502 60.1126 57.8593 60.1419 58.9062ZM56.3547 53.1013C56.9283 53.3728 57.4512 53.7225 57.9133 54.1339H40.7882C41.2506 53.7221 41.7739 53.3722 42.3482 53.1006L49.3505 49.77L56.3547 53.1013ZM39.3378 45.0076L47.2319 48.7623L41.568 51.4561C38.6325 52.8453 36.7358 55.8413 36.7358 59.0888V69.722C36.7358 71.6287 35.1846 73.18 33.2779 73.18C31.3711 73.18 29.8199 71.6287 29.8199 69.722V59.5178C29.8199 56.5339 30.6603 53.6221 32.2501 51.0972C33.84 48.5723 36.1026 46.5559 38.7934 45.2664L39.3378 45.0076ZM38.5559 19.9539H60.1452V22.9063H38.5559V19.9539ZM38.5591 29.0942H43.3446C43.8472 29.0942 44.2547 28.6867 44.2547 28.1842C44.2547 27.6816 43.8472 27.2742 43.3446 27.2742H38.5559V24.7262H60.1452V27.2742H47.5306C47.0281 27.2742 46.6206 27.6816 46.6206 28.1842C46.6206 28.6867 47.0281 29.0942 47.5306 29.0942H60.1418C60.1125 30.1412 59.8334 31.1501 59.3501 32.0466H39.3508C38.8677 31.1503 38.5884 30.1412 38.5591 29.0942ZM42.3465 34.8987C41.7731 34.6273 41.2503 34.2777 40.7885 33.8666H57.9125C57.4502 34.2781 56.927 34.628 56.3531 34.8996L49.3505 38.23L42.3465 34.8987ZM59.91 42.7323L59.3634 42.9923L51.4692 39.2376L57.1331 36.5438C60.0685 35.1546 61.9651 32.1586 61.9651 28.9111V18.2779C61.9651 16.3711 63.5163 14.8199 65.4231 14.8199C67.3298 14.8199 68.881 16.3711 68.881 18.2779V28.4821C68.881 31.4659 68.0407 34.3776 66.4508 36.9027C64.8609 39.4277 62.5984 41.444 59.91 42.7323Z" fill="url(#paint0_linear)"/>
<defs>
<linearGradient id="paint0_linear" x1="49.3556" y1="13" x2="49.7667" y2="75.1264" gradientUnits="userSpaceOnUse">
<stop stop-color="#014982"/>
<stop offset="1" stop-color="#00A9CB"/>
</linearGradient>
</defs>
</svg>
