<svg width="91" height="88" viewBox="0 0 91 88" fill="none" xmlns="http://www.w3.org/2000/svg">
<path d="M31.9334 3.53381C39.9333 -2.86628 48.9334 0.867144 52.4334 3.53381C57.4338 7.34368 57.0337 12.1337 63.4337 16.5337C69.8337 20.9337 69.9338 26.5339 67.9337 35.0337C65.4338 44.0339 59.8337 52.4337 65.4337 58.0337C71.0337 63.6337 71.4338 68.5339 67.9337 76.0339C60.4338 88.5339 48.6334 90.7337 33.4337 83.5337C18.234 76.3337 10.2435 70.7483 5.43337 63.5337C-1.56711 53.0339 -0.473024 41.3871 1.43337 35.0337C2.93359 30.0339 5.43382 25.5339 13.9337 23.5339C22.2574 21.5754 25.4338 8.03394 31.9334 3.53381Z" fill="#E9F1FB"/>
<path d="M57.2399 24.844H27.9606C27.3925 24.844 26.9319 25.3082 26.9319 25.8811C26.9319 26.4538 27.3925 26.9181 27.9606 26.9181H57.2399C57.8081 26.9181 58.2686 26.454 58.2686 25.8811C58.2686 25.3082 57.8081 24.844 57.2399 24.844Z" fill="url(#paint0_linear)"/>
<path d="M58.2686 33.0035C58.2686 32.4308 57.8081 31.9664 57.2399 31.9664H27.9606C27.3925 31.9664 26.9319 32.4306 26.9319 33.0035C26.9319 33.5764 27.3925 34.0406 27.9606 34.0406H57.2399C57.8081 34.0404 58.2686 33.5762 58.2686 33.0035Z" fill="url(#paint1_linear)"/>
<path d="M27.9606 39.0891C27.3925 39.0891 26.9319 39.5533 26.9319 40.1262C26.9319 40.6991 27.3925 41.1633 27.9606 41.1633H42.6003C43.1684 41.1633 43.629 40.6991 43.629 40.1262C43.629 39.5533 43.1684 39.0891 42.6003 39.0891H27.9606Z" fill="url(#paint2_linear)"/>
<path d="M89.4366 64.5859L88.3291 62.8878C88.0171 62.4094 87.3791 62.2765 86.9044 62.5912C86.4297 62.9058 86.2979 63.5488 86.6101 64.0274L87.7175 65.7254C88.8952 67.5309 87.6128 69.9261 85.4705 69.9261C82.6003 69.9261 65.0937 69.9261 62.1648 69.9261C60.0216 69.9261 58.7407 67.5299 59.9177 65.7254L64.8756 58.1243C64.876 58.1238 64.8763 58.1232 64.8767 58.1227L65.738 56.8021C66.2416 56.9424 66.7122 57.4597 68.0566 57.4597C69.6669 57.4597 69.922 56.7431 70.9369 56.7431C71.9792 56.7431 72.1722 57.4597 73.8173 57.4597C75.4686 57.4597 75.6517 56.7431 76.6975 56.7431C77.7398 56.7431 77.9331 57.4597 79.5782 57.4597C80.927 57.4597 81.3878 56.9444 81.8981 56.8034L83.9142 59.8941C84.2269 60.3734 84.8648 60.5051 85.3389 60.1908C85.8136 59.8762 85.9454 59.233 85.6332 58.7545L79.8293 49.8566C79.6089 49.5187 79.4925 49.1264 79.4925 48.7222V45.4688C80.6673 45.4287 81.6115 44.4551 81.6115 43.2613V41.3006C81.6115 40.0812 80.6275 39.0892 79.4179 39.0892H68.2178C67.0083 39.0892 66.0242 40.0812 66.0242 41.3006V43.2613C66.0242 44.4551 66.9682 45.4286 68.143 45.4688V48.7222C68.143 49.1265 68.0266 49.5187 67.8063 49.8565L63.4686 56.5068H24.7596C23.2695 56.5068 22.0573 55.2848 22.0573 53.7826V51.1502H64.0311C64.5992 51.1502 65.0598 50.686 65.0598 50.1131C65.0598 49.5404 64.5992 49.0761 64.0311 49.0761H22.0573V20.7983C22.0573 19.2961 23.2695 18.074 24.7596 18.074H74.7254C76.2155 18.074 77.4278 19.2961 77.4278 20.7983V35.2534C77.4278 35.8261 77.8884 36.2904 78.4565 36.2904C79.0246 36.2904 79.4852 35.8263 79.4852 35.2534V20.7983C79.4852 18.1524 77.35 16 74.7256 16H24.7596C22.1352 16 20 18.1524 20 20.7983V53.7826C20 56.4284 22.1352 58.5808 24.7596 58.5808H44.426C43.9176 61.1396 43.0588 63.6008 41.8649 65.919H38.4913C36.8284 65.919 35.4754 67.283 35.4754 68.9594C35.4754 70.6359 36.8284 72 38.4913 72H85.4707C89.2536 72.0001 91.514 67.7707 89.4366 64.5859ZM68.0814 43.2613V41.3006C68.0814 41.2249 68.1426 41.1632 68.2178 41.1632H79.4179C79.493 41.1632 79.5542 41.2249 79.5542 41.3006V43.2613C79.5542 43.337 79.493 43.3986 79.4179 43.3986H68.2178C68.1425 43.3987 68.0814 43.337 68.0814 43.2613ZM69.5252 50.9962C69.9669 50.319 70.2003 49.5328 70.2003 48.7222V45.4727H77.435V48.7224C77.435 49.5327 77.6685 50.3188 78.1102 50.9963L80.7438 55.034C80.2906 55.2514 80.1558 55.3858 79.5781 55.3858C78.5358 55.3858 78.3425 54.6692 76.6974 54.6692C75.0871 54.6692 74.832 55.3858 73.8171 55.3858C72.7748 55.3858 72.5817 54.6692 70.9367 54.6692C69.2855 54.6692 69.1023 55.3858 68.0565 55.3858C67.4818 55.3858 67.3434 55.2503 66.8918 55.0332L69.5252 50.9962ZM58.1988 64.5857C57.9311 64.9963 57.7334 65.4327 57.6013 65.8817C56.4174 63.5744 55.5646 61.1261 55.0591 58.5809H62.1155L58.1988 64.5857ZM46.5196 58.5809H52.9654C53.4351 61.127 54.2258 63.5856 55.325 65.9191H44.1601C45.2593 63.5857 46.05 61.127 46.5196 58.5809ZM37.5325 68.9596C37.5325 68.4268 37.9625 67.9932 38.4912 67.9932H57.4745C57.5908 68.6814 57.8488 69.3245 58.2551 69.9261H38.4912C37.9625 69.9261 37.5325 69.4925 37.5325 68.9596Z" fill="url(#paint3_linear)"/>
<defs>
<linearGradient id="paint0_linear" x1="42.604" y1="24.844" x2="42.6046" y2="26.9225" gradientUnits="userSpaceOnUse">
<stop stop-color="#014982"/>
<stop offset="1" stop-color="#00A9CB"/>
</linearGradient>
<linearGradient id="paint1_linear" x1="42.604" y1="31.9664" x2="42.6046" y2="34.0449" gradientUnits="userSpaceOnUse">
<stop stop-color="#014982"/>
<stop offset="1" stop-color="#00A9CB"/>
</linearGradient>
<linearGradient id="paint2_linear" x1="35.2824" y1="39.0891" x2="35.2836" y2="41.1676" gradientUnits="userSpaceOnUse">
<stop stop-color="#014982"/>
<stop offset="1" stop-color="#00A9CB"/>
</linearGradient>
<linearGradient id="paint3_linear" x1="55.1217" y1="16" x2="55.3257" y2="72.1159" gradientUnits="userSpaceOnUse">
<stop stop-color="#014982"/>
<stop offset="1" stop-color="#00A9CB"/>
</linearGradient>
</defs>
</svg>
