<svg width="89" height="88" viewBox="0 0 89 88" fill="none" xmlns="http://www.w3.org/2000/svg">
<path d="M31.9334 3.53381C39.9333 -2.86628 48.9334 0.867144 52.4334 3.53381C57.4338 7.34368 57.0337 12.1337 63.4337 16.5337C69.8337 20.9337 69.9338 26.5339 67.9337 35.0337C65.4338 44.0339 59.8337 52.4337 65.4337 58.0337C71.0337 63.6337 71.4338 68.5339 67.9337 76.0339C60.4338 88.5339 48.6334 90.7337 33.4337 83.5337C18.234 76.3337 10.2435 70.7483 5.43337 63.5337C-1.56711 53.0339 -0.473024 41.3871 1.43337 35.0337C2.93359 30.0339 5.43382 25.5339 13.9337 23.5339C22.2574 21.5754 25.4338 8.03394 31.9334 3.53381Z" fill="#E9F1FB"/>
<path d="M46.4787 49.1112C47.0067 49.2263 47.5372 48.8826 47.6636 48.3436C47.7899 47.8046 47.4644 47.2744 46.9364 47.1593C46.4085 47.0442 45.878 47.3879 45.7516 47.9269C45.6252 48.4659 45.9508 48.9961 46.4787 49.1112Z" fill="url(#paint0_linear)"/>
<path d="M52.8437 28.6292C53.3717 28.7442 53.9021 28.4006 54.0285 27.8616C54.1549 27.3226 53.8294 26.7924 53.3014 26.6773C52.7735 26.5623 52.243 26.9059 52.1166 27.4449C51.9902 27.9839 52.3157 28.5141 52.8437 28.6292Z" fill="url(#paint1_linear)"/>
<path d="M51.3696 24.9817C51.8976 25.0967 52.4281 24.7531 52.5545 24.2141C52.6808 23.6751 52.3553 23.1449 51.8273 23.0298C51.2993 22.9147 50.7689 23.2584 50.6425 23.7974C50.5161 24.3364 50.8416 24.8666 51.3696 24.9817Z" fill="url(#paint2_linear)"/>
<path d="M46.9025 42.7437C47.4305 42.8587 47.961 42.5151 48.0874 41.9761C48.2138 41.4371 47.8882 40.9069 47.3603 40.7918C46.8323 40.6768 46.3018 41.0204 46.1754 41.5594C46.049 42.0984 46.3746 42.6286 46.9025 42.7437Z" fill="url(#paint3_linear)"/>
<path d="M58.9597 38.7716C59.4877 38.8867 60.0181 38.543 60.1445 38.004C60.2709 37.465 59.9454 36.9348 59.4174 36.8197C58.8894 36.7046 58.359 37.0483 58.2326 37.5873C58.1062 38.1263 58.4317 38.6565 58.9597 38.7716Z" fill="url(#paint4_linear)"/>
<path d="M41.2443 30.7001C41.7723 30.8151 42.3028 30.4715 42.4292 29.9325C42.5556 29.3935 42.23 28.8633 41.7021 28.7483C41.1741 28.6332 40.6436 28.9768 40.5172 29.5158C40.3908 30.0548 40.7164 30.585 41.2443 30.7001Z" fill="url(#paint5_linear)"/>
<path d="M35.2558 43.8774C35.7838 43.9925 36.3143 43.6488 36.4406 43.1098C36.567 42.5708 36.2415 42.0406 35.7135 41.9255C35.1856 41.8104 34.6551 42.1541 34.5287 42.6931C34.4023 43.2321 34.7279 43.7623 35.2558 43.8774Z" fill="url(#paint6_linear)"/>
<path d="M35.2988 27.5215C35.8268 27.6365 36.3572 27.2929 36.4836 26.7539C36.61 26.2149 36.2845 25.6846 35.7565 25.5696C35.2285 25.4545 34.6981 25.7982 34.5717 26.3372C34.4453 26.8762 34.7708 27.4064 35.2988 27.5215Z" fill="url(#paint7_linear)"/>
<path d="M73.9601 67.7826L64.6974 56.9265C65.759 55.6753 65.9644 53.8366 65.0817 52.3976L63.6732 50.1016C64.3523 49.2177 64.9741 48.2898 65.5277 47.3217C65.7845 46.8727 65.6393 46.3062 65.2036 46.0564C64.7682 45.8067 64.2066 45.9683 63.9496 46.4173C62.1486 49.5674 59.5868 52.276 56.5412 54.2506C46.251 60.9223 32.7435 57.978 26.4307 47.6879C20.1178 37.3977 23.3537 23.5983 33.644 16.9268C38.6288 13.6949 44.5061 12.5977 50.1932 13.8372C55.8803 15.0767 60.6964 18.5046 63.7544 23.4894C67.2478 29.1838 67.9543 36.149 65.6926 42.599C65.5216 43.0867 65.7688 43.6131 66.2447 43.7748C66.7234 43.9376 67.2453 43.672 67.4164 43.1843C69.8671 36.1954 69.1013 28.648 65.3156 22.4773C58.4748 11.3264 43.8372 8.13594 32.686 15.3656C27.2843 18.8678 23.4964 24.264 22.02 30.56C20.5436 36.8562 21.5555 43.2984 24.8694 48.7002C28.1835 54.102 33.4024 57.8167 39.5653 59.1599C42.9912 59.9066 46.4805 59.8696 49.8322 59.089L51.2348 61.3752C51.7597 62.2307 52.5863 62.8191 53.5623 63.0318C54.1839 63.1673 54.8186 63.1395 55.4186 62.9586L60.9473 76.2056C61.3239 77.1081 61.859 77.9151 62.5377 78.6042C62.8909 78.9629 63.4709 78.9556 63.8327 78.5875C64.1947 78.2196 64.2018 77.6307 63.8485 77.2721C63.3313 76.7468 62.9234 76.1317 62.6362 75.4435L57.0576 62.0769L63.226 58.0777L72.5631 69.0212C74.1241 70.8508 74.396 73.545 73.2397 75.7255C72.2458 77.5998 70.3403 78.8384 68.2663 78.9579L68.2435 78.9591C67.8804 78.9801 67.515 78.9668 67.1576 78.9197C66.6578 78.8538 66.1899 79.2136 66.1127 79.7231C66.0392 80.2069 66.3445 80.6519 66.8034 80.7519C66.8277 80.7573 66.8525 80.7616 66.8777 80.765C67.3465 80.8267 67.8256 80.8441 68.302 80.8167L68.3248 80.8155C71.0444 80.6589 73.5439 79.0345 74.8473 76.576C76.3639 73.7159 76.0074 70.1821 73.9601 67.7826ZM62.8862 56.1157L56.5071 60.2515L55.4448 60.9403C55.0064 61.2246 54.4893 61.3211 53.9889 61.212C53.4886 61.1029 53.0649 60.8014 52.7959 60.3629L51.6979 58.5731C53.7125 57.9257 55.6617 57.0029 57.4989 55.8119C59.3137 54.6354 60.9688 53.2166 62.4169 51.6112L63.5203 53.4098C64.0756 54.315 63.7911 55.5286 62.8862 56.1157Z" fill="url(#paint8_linear)"/>
<path d="M49.1882 17.4372C44.4425 16.4029 39.5379 17.3185 35.3781 20.0154C31.2184 22.7123 28.3015 26.8677 27.1645 31.7161C26.0277 36.5644 26.8069 41.5254 29.3587 45.6852C31.9107 49.8449 35.9298 52.7055 40.6755 53.7399C45.4214 54.7742 50.326 53.8587 54.4858 51.1617C58.6454 48.4648 61.5624 44.3094 62.6993 39.461C63.8362 34.6127 63.057 29.6517 60.5051 25.4919C57.9532 21.3322 53.9341 18.4716 49.1882 17.4372ZM53.5278 49.6004C45.8018 54.6097 35.6597 52.3991 30.92 44.673C28.6239 40.9302 27.9227 36.4666 28.9456 32.1043C29.9685 27.742 32.5932 24.0032 36.3359 21.5767C40.199 19.0721 44.6659 18.3724 48.7597 19.2647C52.8534 20.1569 56.5739 22.641 58.9436 26.5041C63.6837 34.2303 61.2541 44.5913 53.5278 49.6004Z" fill="url(#paint9_linear)"/>
<path d="M38.4811 36.3939L38.4767 36.3703C38.4039 36.0053 38.2665 35.6959 38.1452 35.423C38.0271 35.1574 37.9251 34.9279 37.9239 34.7384C37.9217 34.4026 38.0347 34.0373 38.1545 33.6507C38.3595 32.9887 38.6147 32.1649 38.3267 31.2455C37.9781 30.1334 37.1349 29.3944 36.0682 29.2665C34.911 29.1285 33.7173 29.7291 33.0272 30.7968C32.5642 31.5129 32.258 32.3854 32.1168 33.3903C32.0578 33.8093 31.8882 35.2911 32.1793 36.7698C32.5709 38.7603 33.5601 39.533 34.3208 39.8308C34.467 39.8879 34.617 39.933 34.7693 39.9662C35.6918 40.1675 36.6944 39.932 37.428 39.3174C38.2447 38.633 38.6778 37.4309 38.4811 36.3939ZM36.2886 37.8977C35.9434 38.1869 35.4425 38.2655 35.0127 38.0972C34.3835 37.8509 34.0977 37.0179 33.9687 36.3625C33.7342 35.1713 33.8743 33.9531 33.9228 33.608C34.0251 32.8806 34.2341 32.2686 34.5443 31.7888C34.8424 31.3277 35.3515 31.0546 35.8109 31.1095C35.84 31.1129 35.8684 31.1177 35.8961 31.1237C36.2221 31.1948 36.4598 31.4437 36.5867 31.8487C36.6952 32.1948 36.5923 32.5626 36.4152 33.1341C36.2651 33.6188 36.095 34.1682 36.0994 34.7976C36.1031 35.3758 36.3117 35.8449 36.4792 36.2219C36.5693 36.4246 36.6545 36.6161 36.6883 36.7833C36.6886 36.7851 36.689 36.787 36.6893 36.789C36.7579 37.1505 36.5743 37.6582 36.2886 37.8977Z" fill="url(#paint10_linear)"/>
<path d="M48.3978 31.6333C47.5631 31.5966 46.6691 31.7801 45.7406 32.1784C45.2404 32.3929 40.8668 34.3644 41.2752 37.4835C41.4226 38.6083 42.1781 39.5828 43.1999 39.9661C43.3156 40.0096 43.4348 40.0444 43.5567 40.0709C44.4628 40.2684 45.5067 40.0055 46.2072 39.3768L46.2073 39.3767C46.2077 39.3764 46.208 39.3761 46.2083 39.3758L46.2263 39.3593L46.2264 39.3593C46.5044 39.1048 46.7036 38.822 46.8796 38.5726C47.0508 38.3298 47.1988 38.12 47.3603 38.0202C47.647 37.8433 48.0141 37.7532 48.4025 37.6578C49.0678 37.4944 49.8957 37.2911 50.5458 36.5573C51.3321 35.6697 51.5627 34.5371 51.1624 33.5278C50.7276 32.4317 49.6422 31.6881 48.3978 31.6333ZM49.1977 35.3316C48.9529 35.608 48.5884 35.7084 48.0141 35.8494C47.5272 35.969 46.9751 36.1046 46.4378 36.4362C45.9443 36.7408 45.6421 37.1697 45.3991 37.5143C45.2678 37.7007 45.1435 37.8766 45.0167 37.9929L45.0148 37.9945C45.0145 37.9948 45.014 37.9952 45.0137 37.9956C44.7366 38.2446 44.2135 38.3468 43.872 38.2184C43.4591 38.0635 43.1526 37.6611 43.0913 37.1931C43.0016 36.508 43.5788 35.8211 44.0788 35.3656C44.9875 34.5377 46.0984 34.0272 46.417 33.8905C47.0893 33.602 47.7136 33.4683 48.273 33.4929C48.8098 33.5168 49.2877 33.8249 49.4604 34.2602C49.5994 34.6102 49.5084 34.9808 49.1977 35.3316Z" fill="url(#paint11_linear)"/>
<path d="M41.1775 27.1937L41.2001 27.2011C41.5506 27.313 41.8881 27.3409 42.186 27.3656C42.4758 27.3896 42.7259 27.4103 42.8889 27.5007C43.1777 27.661 43.4308 27.9377 43.6988 28.2305C44.1508 28.7243 44.7117 29.3372 45.6258 29.5365C45.6396 29.5395 45.6537 29.5425 45.6678 29.5453C46.8037 29.7743 47.8821 29.3848 48.5526 28.5033C49.2807 27.5459 49.3954 26.1992 48.8448 25.0724C48.4756 24.3167 47.8897 23.6239 47.1035 23.0132C46.7758 22.7586 45.5961 21.8923 44.1768 21.4351C42.2654 20.819 41.0829 21.3214 40.4269 21.8508C39.5366 22.5695 39.0665 23.7462 39.2291 24.8485C39.3847 25.9022 40.186 26.8665 41.1775 27.1937ZM41.5468 23.3011C42.0892 22.8632 42.9533 23.0133 43.5825 23.2156C44.7262 23.5839 45.6955 24.2967 45.9654 24.5063C46.5344 24.9484 46.9484 25.4292 47.1959 25.9356C47.4337 26.4223 47.3993 27.0047 47.1101 27.3849C46.8775 27.6908 46.5173 27.8046 46.0684 27.7141C45.7127 27.6393 45.454 27.3738 45.0579 26.941C44.7219 26.5739 44.3411 26.1579 43.7998 25.8575C43.5656 25.7274 43.3283 25.6493 43.0996 25.5994C42.8429 25.5435 42.5974 25.5232 42.3799 25.5053C42.1578 25.4869 41.948 25.4696 41.7868 25.4182C41.7858 25.4178 41.7847 25.4176 41.7838 25.4172C41.4379 25.3031 41.0998 24.8952 41.0452 24.5268C40.9795 24.0812 41.1763 23.6001 41.5468 23.3011Z" fill="url(#paint12_linear)"/>
<path d="M56.23 38.1849C55.4134 37.433 54.2134 37.186 53.1737 37.5557C52.1797 37.909 51.3617 38.8889 51.1843 39.9385C51.184 39.9404 51.1829 39.9472 51.1826 39.9491C51.1824 39.9502 51.1805 39.9615 51.1804 39.9625C51.1213 40.3332 51.1415 40.6745 51.1593 40.9758C51.1766 41.2689 51.1914 41.5222 51.1271 41.7014C51.0127 42.0193 50.7813 42.3235 50.5364 42.6457C50.117 43.1973 49.5951 43.8839 49.5431 44.8553C49.4805 46.0302 50.0063 47.0315 50.9494 47.5334C51.1762 47.6542 51.4171 47.7414 51.666 47.7957C52.5405 47.9865 53.5111 47.7708 54.2969 47.1786C54.9739 46.6685 55.5601 45.9545 56.0396 45.0561C56.2394 44.6816 56.9102 43.3431 57.1531 41.8428C57.4801 39.8229 56.8317 38.7387 56.23 38.1849ZM54.4417 44.2033C54.0946 44.8535 53.6887 45.3566 53.2351 45.6984C52.7992 46.0269 52.233 46.1021 51.8263 45.8858C51.499 45.7115 51.3391 45.374 51.3639 44.9096C51.3835 44.5439 51.6063 44.2334 51.9684 43.7572C52.2754 43.3534 52.6234 42.8956 52.8377 42.2997C53.0345 41.7524 53.004 41.2349 52.9795 40.8188C52.9662 40.5939 52.9537 40.3814 52.9814 40.2078C52.9814 40.2078 52.9816 40.2069 52.9817 40.2059C53.0445 39.8404 53.39 39.4281 53.737 39.3047C54.1569 39.1553 54.6481 39.2607 54.9881 39.5738C55.4857 40.0318 55.4617 40.9208 55.354 41.586C55.1582 42.7949 54.6061 43.895 54.4417 44.2033Z" fill="url(#paint13_linear)"/>
<path d="M41.3583 42.2228C39.4757 41.8125 37.5775 43.0434 37.1265 44.9664C36.6756 46.8895 37.8402 48.7879 39.7226 49.1982C41.605 49.6085 43.5034 48.3777 43.9543 46.4546C44.4053 44.5315 43.2407 42.6331 41.3583 42.2228ZM40.1492 47.3787C39.2489 47.1824 38.6918 46.2745 38.9075 45.3547C39.1232 44.435 40.0312 43.8464 40.9315 44.0426C41.8318 44.2388 42.3888 45.1467 42.1732 46.0665C41.9575 46.9863 41.0496 47.5749 40.1492 47.3787Z" fill="url(#paint14_linear)"/>
<path d="M52.4558 31.416C52.0049 33.3391 53.1695 35.2375 55.0519 35.6478C56.9343 36.0581 58.8327 34.8273 59.2837 32.9042C59.7347 30.981 58.57 29.0827 56.6876 28.6724C54.8052 28.2621 52.9068 29.4929 52.4558 31.416ZM57.5026 32.516C57.287 33.4357 56.379 34.0244 55.4787 33.8282C54.5784 33.6319 54.0214 32.724 54.2371 31.8043C54.4528 30.8845 55.3607 30.2959 56.261 30.4921C57.1613 30.6883 57.7183 31.5962 57.5026 32.516Z" fill="url(#paint15_linear)"/>
<defs>
<linearGradient id="paint0_linear" x1="46.9367" y1="47.1593" x2="46.5181" y2="49.1239" gradientUnits="userSpaceOnUse">
<stop stop-color="#014982"/>
<stop offset="1" stop-color="#00A9CB"/>
</linearGradient>
<linearGradient id="paint1_linear" x1="53.3016" y1="26.6774" x2="52.8831" y2="28.6418" gradientUnits="userSpaceOnUse">
<stop stop-color="#014982"/>
<stop offset="1" stop-color="#00A9CB"/>
</linearGradient>
<linearGradient id="paint2_linear" x1="51.8275" y1="23.0298" x2="51.409" y2="24.9943" gradientUnits="userSpaceOnUse">
<stop stop-color="#014982"/>
<stop offset="1" stop-color="#00A9CB"/>
</linearGradient>
<linearGradient id="paint3_linear" x1="47.3605" y1="40.7919" x2="46.942" y2="42.7563" gradientUnits="userSpaceOnUse">
<stop stop-color="#014982"/>
<stop offset="1" stop-color="#00A9CB"/>
</linearGradient>
<linearGradient id="paint4_linear" x1="59.4176" y1="36.8197" x2="58.9991" y2="38.7843" gradientUnits="userSpaceOnUse">
<stop stop-color="#014982"/>
<stop offset="1" stop-color="#00A9CB"/>
</linearGradient>
<linearGradient id="paint5_linear" x1="41.7023" y1="28.7483" x2="41.2838" y2="30.7127" gradientUnits="userSpaceOnUse">
<stop stop-color="#014982"/>
<stop offset="1" stop-color="#00A9CB"/>
</linearGradient>
<linearGradient id="paint6_linear" x1="35.7138" y1="41.9256" x2="35.2952" y2="43.8901" gradientUnits="userSpaceOnUse">
<stop stop-color="#014982"/>
<stop offset="1" stop-color="#00A9CB"/>
</linearGradient>
<linearGradient id="paint7_linear" x1="35.7567" y1="25.5696" x2="35.3382" y2="27.5341" gradientUnits="userSpaceOnUse">
<stop stop-color="#014982"/>
<stop offset="1" stop-color="#00A9CB"/>
</linearGradient>
<linearGradient id="paint8_linear" x1="57.9425" y1="13.6253" x2="44.6415" y2="76.0513" gradientUnits="userSpaceOnUse">
<stop stop-color="#014982"/>
<stop offset="1" stop-color="#00A9CB"/>
</linearGradient>
<linearGradient id="paint9_linear" x1="49.1925" y1="17.4382" x2="41.4078" y2="53.9753" gradientUnits="userSpaceOnUse">
<stop stop-color="#014982"/>
<stop offset="1" stop-color="#00A9CB"/>
</linearGradient>
<linearGradient id="paint10_linear" x1="36.6965" y1="29.391" x2="34.4743" y2="39.9231" gradientUnits="userSpaceOnUse">
<stop stop-color="#014982"/>
<stop offset="1" stop-color="#00A9CB"/>
</linearGradient>
<linearGradient id="paint11_linear" x1="47.3418" y1="31.3538" x2="45.3937" y2="40.4903" gradientUnits="userSpaceOnUse">
<stop stop-color="#014982"/>
<stop offset="1" stop-color="#00A9CB"/>
</linearGradient>
<linearGradient id="paint12_linear" x1="45.1078" y1="21.6058" x2="43.5022" y2="29.0892" gradientUnits="userSpaceOnUse">
<stop stop-color="#014982"/>
<stop offset="1" stop-color="#00A9CB"/>
</linearGradient>
<linearGradient id="paint13_linear" x1="54.7211" y1="37.4354" x2="52.4961" y2="47.998" gradientUnits="userSpaceOnUse">
<stop stop-color="#014982"/>
<stop offset="1" stop-color="#00A9CB"/>
</linearGradient>
<linearGradient id="paint14_linear" x1="41.3591" y1="42.223" x2="39.8633" y2="49.2434" gradientUnits="userSpaceOnUse">
<stop stop-color="#014982"/>
<stop offset="1" stop-color="#00A9CB"/>
</linearGradient>
<linearGradient id="paint15_linear" x1="56.6884" y1="28.6726" x2="55.1926" y2="35.693" gradientUnits="userSpaceOnUse">
<stop stop-color="#014982"/>
<stop offset="1" stop-color="#00A9CB"/>
</linearGradient>
</defs>
</svg>
