<svg width="76" height="88" viewBox="0 0 76 88" fill="none" xmlns="http://www.w3.org/2000/svg">
<path d="M31.9334 3.53381C39.9333 -2.86628 48.9334 0.867144 52.4334 3.53381C57.4338 7.34368 57.0337 12.1337 63.4337 16.5337C69.8337 20.9337 69.9338 26.5339 67.9337 35.0337C65.4338 44.0339 59.8337 52.4337 65.4337 58.0337C71.0337 63.6337 71.4338 68.5339 67.9337 76.0339C60.4338 88.5339 48.6334 90.7337 33.4337 83.5337C18.234 76.3337 10.2435 70.7483 5.43337 63.5337C-1.56711 53.0339 -0.473024 41.3871 1.43337 35.0337C2.93359 30.0339 5.43382 25.5339 13.9337 23.5339C22.2574 21.5754 25.4338 8.03394 31.9334 3.53381Z" fill="#E9F1FB"/>
<g clip-path="url(#clip0)">
<path d="M66.33 45.9114V68.7641C66.33 69.7559 65.5232 70.5629 64.5312 70.5629H63.1454C62.6517 70.5629 62.2517 70.9629 62.2517 71.4565C62.2517 71.9502 62.6517 72.3502 63.1454 72.3502H64.5312C66.5086 72.3502 68.1174 70.7415 68.1174 68.7641V47.772L69.9365 49.6655C70.7579 50.5206 72.1215 50.5351 72.9608 49.6958L75.3842 47.2722C76.1936 46.4631 76.2069 45.1333 75.414 44.3079L47.9097 15.6767C46.5948 14.308 44.4062 14.3068 43.0904 15.6767L15.5859 44.3079C14.7932 45.1332 14.8065 46.463 15.6157 47.2722L18.0393 49.6958C18.8779 50.5342 20.2412 50.5215 21.0638 49.6655L22.8826 47.7722V52.1134C22.8826 52.607 23.2827 53.0071 23.7763 53.0071C24.2698 53.0071 24.67 52.607 24.67 52.1134V45.9116L44.8205 24.9352C45.1911 24.5495 45.8074 24.5484 46.1794 24.9352C62.2391 41.6527 59.0597 38.3432 66.33 45.9114ZM74.1203 46.0082L71.6968 48.4319C71.5383 48.5623 71.3811 48.5608 71.2253 48.4271L47.4685 23.6972C47.4684 23.697 47.4684 23.697 47.4682 23.6969C47.4671 23.6956 47.4657 23.6945 47.4646 23.6932C46.3894 22.5781 44.6059 22.5786 43.5316 23.697L23.1318 44.9326C23.1313 44.933 23.1309 44.9336 23.1304 44.9341L19.7748 48.4271C19.619 48.5608 19.4617 48.5623 19.3032 48.4318L16.8796 46.0082C16.7535 45.882 16.7514 45.6747 16.875 45.5461L44.3793 16.9149C44.9917 16.2775 46.0087 16.2777 46.6208 16.915L74.125 45.546C74.2487 45.6747 74.2466 45.8821 74.1203 46.0082Z" fill="url(#paint0_linear)"/>
<path d="M58.9571 70.5628H53.6554V60.444C53.6554 55.9472 49.9969 52.2888 45.5 52.2888C41.0032 52.2888 37.3447 55.9472 37.3447 60.444V70.5628H26.4687C25.4769 70.5628 24.6699 69.756 24.6699 68.764V56.2838C24.6699 55.7902 24.2698 55.3901 23.7763 55.3901C23.2827 55.3901 22.8826 55.7902 22.8826 56.2838V68.764C22.8826 70.7414 24.4913 72.3502 26.4687 72.3502H58.9571C59.4507 72.3502 59.8508 71.9502 59.8508 71.4565C59.8508 70.9628 59.4507 70.5628 58.9571 70.5628ZM39.132 60.4441C39.132 56.9329 41.9887 54.0763 45.5 54.0763C49.0112 54.0763 51.8679 56.933 51.8679 60.4441V70.5629H39.132V60.4441Z" fill="url(#paint1_linear)"/>
<path d="M41.9686 48H49.0315C50.5942 48 51.5326 46.3699 50.6742 45.147L47.7625 40.9997C47.7524 40.9855 47.7472 40.969 47.7472 40.9519V39.5721H47.9902C48.4538 39.5721 48.8295 39.2201 48.8295 38.786C48.8295 38.3519 48.4538 38 47.9902 38H43.0097C42.5461 38 42.1705 38.3519 42.1705 38.786C42.1705 39.2201 42.5461 39.5721 43.0097 39.5721H43.2528V40.9519C43.2528 40.969 43.2474 40.9857 43.2374 40.9999L40.3257 45.1471C39.4673 46.3701 40.4061 48 41.9686 48ZM41.7284 46.0107L44.6401 41.8635C44.8305 41.5921 44.9314 41.2768 44.9314 40.9519V39.5721H46.0688V40.9519C46.0688 41.2771 46.1696 41.5923 46.3602 41.8636L49.2718 46.0107C49.3969 46.1891 49.263 46.4279 49.0316 46.4279H41.9687C41.7408 46.4279 41.6012 46.1919 41.7284 46.0107Z" fill="url(#paint2_linear)"/>
</g>
<defs>
<linearGradient id="paint0_linear" x1="45.5073" y1="14.6497" x2="45.7565" y2="72.4693" gradientUnits="userSpaceOnUse">
<stop stop-color="#014982"/>
<stop offset="1" stop-color="#00A9CB"/>
</linearGradient>
<linearGradient id="paint1_linear" x1="41.3711" y1="52.2888" x2="41.4208" y2="72.3918" gradientUnits="userSpaceOnUse">
<stop stop-color="#014982"/>
<stop offset="1" stop-color="#00A9CB"/>
</linearGradient>
<linearGradient id="paint2_linear" x1="45.5013" y1="38" x2="45.5428" y2="48.0207" gradientUnits="userSpaceOnUse">
<stop stop-color="#014982"/>
<stop offset="1" stop-color="#00A9CB"/>
</linearGradient>
<clipPath id="clip0">
<rect width="61" height="61" fill="white" transform="translate(15 13)"/>
</clipPath>
</defs>
</svg>
