<svg width="81" height="88" viewBox="0 0 81 88" fill="none" xmlns="http://www.w3.org/2000/svg">
<path d="M31.9334 3.53381C39.9333 -2.86628 48.9334 0.867144 52.4334 3.53381C57.4338 7.34368 57.0337 12.1337 63.4337 16.5337C69.8337 20.9337 69.9338 26.5339 67.9337 35.0337C65.4338 44.0339 59.8337 52.4337 65.4337 58.0337C71.0337 63.6337 71.4338 68.5339 67.9337 76.0339C60.4338 88.5339 48.6334 90.7337 33.4337 83.5337C18.234 76.3337 10.2435 70.7483 5.43337 63.5337C-1.56711 53.0339 -0.473024 41.3871 1.43337 35.0337C2.93359 30.0339 5.43382 25.5339 13.9337 23.5339C22.2574 21.5754 25.4338 8.03394 31.9334 3.53381Z" fill="#E9F1FB"/>
<path d="M49.9999 13C38.511 13 29.1643 22.3467 29.1643 33.8356C29.1643 38.3125 30.5621 42.5776 33.2067 46.1717L48.9927 69.606C49.2184 69.9411 49.596 70.142 49.9999 70.142C50.404 70.142 50.7815 69.9411 51.0072 69.606L66.7932 46.1718C69.4378 42.5776 70.8356 38.3126 70.8356 33.8358C70.8356 22.3467 61.4888 13 49.9999 13ZM64.8182 44.7577C64.8029 44.7784 64.788 44.7999 64.7739 44.8221L49.9999 66.7536L35.2286 44.8256C35.2138 44.8024 35.1982 44.7798 35.1818 44.7576C32.8342 41.5781 31.5933 37.8015 31.5933 33.8355C31.5933 23.6862 39.8506 15.429 49.9999 15.429C60.1493 15.429 68.4066 23.6863 68.4066 33.8356C68.4066 37.8015 67.1657 41.5782 64.8182 44.7577Z" fill="url(#paint0_linear)"/>
<path d="M58.5017 32.4927C57.8309 32.4927 57.2872 33.0364 57.2872 33.7072C57.2872 37.7252 54.0183 40.9941 50.0003 40.9941C45.9822 40.9941 42.7133 37.7252 42.7133 33.7072C42.7133 29.6892 45.9822 26.4202 50.0003 26.4202C51.4607 26.4202 52.8692 26.8504 54.0737 27.664C54.6296 28.0395 55.3845 27.8933 55.76 27.3375C56.1355 26.7818 55.9893 26.0268 55.4335 25.6513C53.8259 24.5653 51.9471 23.9912 50.0001 23.9912C44.6427 23.9912 40.2842 28.3497 40.2842 33.7072C40.2842 39.0646 44.6427 43.4231 50.0001 43.4231C55.3576 43.4231 59.7161 39.0646 59.7161 33.7072C59.7161 33.0364 59.1724 32.4927 58.5017 32.4927Z" fill="url(#paint1_linear)"/>
<path d="M64.5537 72.5709H35.4059C34.7351 72.5709 34.1914 73.1146 34.1914 73.7854C34.1914 74.4561 34.7351 74.9998 35.4059 74.9998H64.5537C65.2245 74.9998 65.7682 74.4561 65.7682 73.7854C65.7683 73.1146 65.2245 72.5709 64.5537 72.5709Z" fill="url(#paint2_linear)"/>
<path d="M57.5298 28.4976H57.5055C56.8347 28.4976 56.291 29.0413 56.291 29.712C56.291 30.3828 56.8347 30.9265 57.5055 30.9265H57.5298C58.2005 30.9265 58.7443 30.3828 58.7443 29.712C58.7444 29.0413 58.2005 28.4976 57.5298 28.4976Z" fill="url(#paint3_linear)"/>
<defs>
<linearGradient id="paint0_linear" x1="50.0049" y1="13" x2="50.3627" y2="70.2587" gradientUnits="userSpaceOnUse">
<stop stop-color="#014982"/>
<stop offset="1" stop-color="#00A9CB"/>
</linearGradient>
<linearGradient id="paint1_linear" x1="50.0024" y1="23.9912" x2="50.0912" y2="43.4632" gradientUnits="userSpaceOnUse">
<stop stop-color="#014982"/>
<stop offset="1" stop-color="#00A9CB"/>
</linearGradient>
<linearGradient id="paint2_linear" x1="49.9835" y1="72.5709" x2="49.9844" y2="75.0049" gradientUnits="userSpaceOnUse">
<stop stop-color="#014982"/>
<stop offset="1" stop-color="#00A9CB"/>
</linearGradient>
<linearGradient id="paint3_linear" x1="57.5179" y1="28.4976" x2="57.5289" y2="30.9315" gradientUnits="userSpaceOnUse">
<stop stop-color="#014982"/>
<stop offset="1" stop-color="#00A9CB"/>
</linearGradient>
</defs>
</svg>
