<svg width="88" height="88" viewBox="0 0 88 88" fill="none" xmlns="http://www.w3.org/2000/svg">
<path d="M31.9334 3.53381C39.9333 -2.86628 48.9334 0.867144 52.4334 3.53381C57.4338 7.34368 57.0337 12.1337 63.4337 16.5337C69.8337 20.9337 69.9338 26.5339 67.9337 35.0337C65.4338 44.0339 59.8337 52.4337 65.4337 58.0337C71.0337 63.6337 71.4338 68.5339 67.9337 76.0339C60.4338 88.5339 48.6334 90.7337 33.4337 83.5337C18.234 76.3337 10.2435 70.7483 5.43337 63.5337C-1.56711 53.0339 -0.473024 41.3871 1.43337 35.0337C2.93359 30.0339 5.43382 25.5339 13.9337 23.5339C22.2574 21.5754 25.4338 8.03394 31.9334 3.53381Z" fill="#E9F1FB"/>
<path d="M80.6228 38.5455H51.5423C50.9678 38.5455 50.5023 39.0015 50.5023 39.5639C50.5023 40.1264 50.9678 40.5824 51.5423 40.5824H80.6228C81.1974 40.5824 81.6629 40.1264 81.6629 39.5639C81.6629 39.0015 81.1972 38.5455 80.6228 38.5455Z" fill="url(#paint0_linear)"/>
<path d="M81.6629 45.3785C81.6629 44.816 81.1974 44.36 80.6228 44.36H51.5423C50.9678 44.36 50.5023 44.816 50.5023 45.3785C50.5023 45.941 50.9678 46.397 51.5423 46.397H80.6228C81.1972 46.397 81.6629 45.941 81.6629 45.3785Z" fill="url(#paint1_linear)"/>
<path d="M64.8094 50.1747H51.5423C50.9678 50.1747 50.5023 50.6307 50.5023 51.1932C50.5023 51.7557 50.9678 52.2117 51.5423 52.2117H64.8094C65.3839 52.2117 65.8495 51.7557 65.8495 51.1932C65.8495 50.6307 65.3838 50.1747 64.8094 50.1747Z" fill="url(#paint2_linear)"/>
<path d="M64.8094 55.9895H51.5423C50.9678 55.9895 50.5023 56.4454 50.5023 57.0079C50.5023 57.5703 50.9678 58.0263 51.5423 58.0263H64.8094C65.3839 58.0263 65.8495 57.5703 65.8495 57.0079C65.8495 56.4454 65.3838 55.9895 64.8094 55.9895Z" fill="url(#paint3_linear)"/>
<path d="M64.8094 61.8581H51.5423C50.9678 61.8581 50.5023 62.3141 50.5023 62.8766C50.5023 63.439 50.9678 63.8951 51.5423 63.8951H64.8094C65.3839 63.8951 65.8495 63.439 65.8495 62.8766C65.8495 62.3141 65.3838 61.8581 64.8094 61.8581Z" fill="url(#paint4_linear)"/>
<path d="M23.7386 52.2085C23.1641 52.2085 22.6985 52.6645 22.6985 53.2269V60.5904C22.6985 62.3896 24.1932 63.8532 26.0304 63.8532H42.7011C44.5382 63.8532 46.0328 62.3895 46.0328 60.5904V41.0963C46.0328 39.2971 44.5382 37.8335 42.7011 37.8335H26.0304C24.1932 37.8335 22.6985 39.2971 22.6985 41.0963V48.4655C22.6985 49.0279 23.1641 49.4839 23.7386 49.4839C24.3131 49.4839 24.7786 49.0279 24.7786 48.4655V41.0963C24.7786 40.4203 25.3402 39.8704 26.0304 39.8704H42.7011C43.3914 39.8704 43.9527 40.4203 43.9527 41.0963V57.2002C42.6717 55.609 41.0144 54.3486 39.1257 53.5503C39.8296 52.5747 40.2462 51.3763 40.2462 50.0811C40.2462 46.8176 37.6084 44.1626 34.3658 44.1626C31.1233 44.1626 28.4853 46.8176 28.4853 50.0811C28.4853 51.3762 28.9019 52.5747 29.6058 53.5503C27.7171 54.3486 26.0597 55.6091 24.7786 57.2004V53.2269C24.7786 52.6645 24.313 52.2085 23.7386 52.2085ZM34.3658 46.1995C36.4613 46.1995 38.1661 47.9407 38.1661 50.0811C38.1661 52.2214 36.4613 53.9626 34.3658 53.9626C32.2702 53.9626 30.5654 52.2214 30.5654 50.0811C30.5652 47.9407 32.2701 46.1995 34.3658 46.1995ZM31.2682 55.1088C32.1684 55.6726 33.2297 55.9995 34.3658 55.9995C35.502 55.9995 36.5632 55.6726 37.4633 55.1088C40.3409 56.0343 42.6914 58.2195 43.8557 61.0631C43.6664 61.5049 43.2201 61.8161 42.7011 61.8161H26.0304C25.5114 61.8161 25.0651 61.505 24.8757 61.0633C26.04 58.2197 28.3903 56.0343 31.2682 55.1088Z" fill="url(#paint5_linear)"/>
<path d="M42.7062 31.6301H62.2941C63.9284 31.6301 65.258 30.3281 65.258 28.7276V25.2084C65.258 23.6079 63.9284 22.3058 62.2941 22.3058H58.7313V21.1021C58.7313 17.7374 55.9361 15 52.5001 15C49.0641 15 46.2689 17.7374 46.2689 21.1021V22.3058H42.7062C41.0718 22.3058 39.7422 23.6079 39.7422 25.2084V28.7276C39.7422 30.3281 41.0718 31.6301 42.7062 31.6301ZM41.8223 25.2084C41.8223 24.731 42.2187 24.3428 42.7062 24.3428H46.8465C47.675 24.3428 48.349 23.6828 48.349 22.8714V21.1021C48.349 18.8606 50.2112 17.037 52.5001 17.037C54.789 17.037 56.6512 18.8606 56.6512 21.1021V22.8714C56.6512 23.6828 57.3252 24.3428 58.1537 24.3428H62.2941C62.7815 24.3428 63.178 24.731 63.178 25.2084V28.7276C63.178 29.2049 62.7815 29.5932 62.2941 29.5932H42.7062C42.2187 29.5932 41.8223 29.2049 41.8223 28.7276V25.2084Z" fill="url(#paint6_linear)"/>
<path d="M83.2534 25.7502H69.1046C68.5301 25.7502 68.0646 26.2062 68.0646 26.7687C68.0646 27.3311 68.5301 27.7872 69.1046 27.7872H83.2534C84.7237 27.7872 85.9198 28.9584 85.9198 30.3983V67.914C85.9198 69.3537 84.7237 70.5251 83.2534 70.5251H21.7465C20.2761 70.5251 19.0801 69.3538 19.0801 67.914V30.3981C19.0801 28.9584 20.2761 27.787 21.7465 27.787H35.9106C36.4852 27.787 36.9507 27.331 36.9507 26.7685C36.9507 26.2061 36.4852 25.75 35.9106 25.75H21.7465C19.1292 25.7502 17 27.8352 17 30.3981V67.9138C17 70.4767 19.1292 72.5619 21.7465 72.5619H83.2535C85.8707 72.5619 88 70.4769 88 67.9138V30.3981C87.9999 27.8352 85.8707 25.7502 83.2534 25.7502Z" fill="url(#paint7_linear)"/>
<path d="M71.1101 63.8949H79.8627C81.7994 63.8949 82.9623 61.7827 81.8986 60.1982L78.2902 54.8245C78.2777 54.806 78.2712 54.7847 78.2712 54.7626V52.9747H78.5724C79.1469 52.9747 79.6124 52.5186 79.6124 51.9562C79.6124 51.3937 79.1469 50.9377 78.5724 50.9377H72.4003C71.8257 50.9377 71.3602 51.3937 71.3602 51.9562C71.3602 52.5186 71.8257 52.9747 72.4003 52.9747H72.7014V54.7626C72.7014 54.7847 72.6948 54.8063 72.6824 54.8248L69.0741 60.1983C68.0103 61.7829 69.1736 63.8949 71.1101 63.8949ZM70.8123 61.3173L74.4207 55.9437C74.6567 55.592 74.7817 55.1835 74.7817 54.7626V52.9747H76.1912V54.7626C76.1912 55.1838 76.3162 55.5923 76.5523 55.9439L80.1606 61.3173C80.3156 61.5484 80.1496 61.8579 79.8629 61.8579H71.1102C70.8277 61.8579 70.6548 61.5521 70.8123 61.3173Z" fill="url(#paint8_linear)"/>
<defs>
<linearGradient id="paint0_linear" x1="52.5084" y1="15" x2="52.7216" y2="72.681" gradientUnits="userSpaceOnUse">
<stop stop-color="#014982"/>
<stop offset="1" stop-color="#00A9CB"/>
</linearGradient>
<linearGradient id="paint1_linear" x1="52.5084" y1="15" x2="52.7216" y2="72.681" gradientUnits="userSpaceOnUse">
<stop stop-color="#014982"/>
<stop offset="1" stop-color="#00A9CB"/>
</linearGradient>
<linearGradient id="paint2_linear" x1="52.5084" y1="15" x2="52.7216" y2="72.681" gradientUnits="userSpaceOnUse">
<stop stop-color="#014982"/>
<stop offset="1" stop-color="#00A9CB"/>
</linearGradient>
<linearGradient id="paint3_linear" x1="52.5084" y1="15" x2="52.7216" y2="72.681" gradientUnits="userSpaceOnUse">
<stop stop-color="#014982"/>
<stop offset="1" stop-color="#00A9CB"/>
</linearGradient>
<linearGradient id="paint4_linear" x1="52.5084" y1="15" x2="52.7216" y2="72.681" gradientUnits="userSpaceOnUse">
<stop stop-color="#014982"/>
<stop offset="1" stop-color="#00A9CB"/>
</linearGradient>
<linearGradient id="paint5_linear" x1="52.5084" y1="15" x2="52.7216" y2="72.681" gradientUnits="userSpaceOnUse">
<stop stop-color="#014982"/>
<stop offset="1" stop-color="#00A9CB"/>
</linearGradient>
<linearGradient id="paint6_linear" x1="52.5084" y1="15" x2="52.7216" y2="72.681" gradientUnits="userSpaceOnUse">
<stop stop-color="#014982"/>
<stop offset="1" stop-color="#00A9CB"/>
</linearGradient>
<linearGradient id="paint7_linear" x1="52.5084" y1="15" x2="52.7216" y2="72.681" gradientUnits="userSpaceOnUse">
<stop stop-color="#014982"/>
<stop offset="1" stop-color="#00A9CB"/>
</linearGradient>
<linearGradient id="paint8_linear" x1="52.5084" y1="15" x2="52.7216" y2="72.681" gradientUnits="userSpaceOnUse">
<stop stop-color="#014982"/>
<stop offset="1" stop-color="#00A9CB"/>
</linearGradient>
</defs>
</svg>
