<svg width="425" height="265" viewBox="0 0 425 265" fill="none" xmlns="http://www.w3.org/2000/svg">
<rect width="425" height="265" rx="15" fill="url(#paint0_linear_330:1882)"/>
<path d="M44.7334 172H40.5V155.682L35.4463 157.249V153.807L44.2793 150.643H44.7334V172ZM66.2959 172H51.6768V169.1L58.5762 161.746C59.5234 160.711 60.2217 159.808 60.6709 159.036C61.1299 158.265 61.3594 157.532 61.3594 156.839C61.3594 155.892 61.1201 155.149 60.6416 154.612C60.1631 154.065 59.4795 153.792 58.5908 153.792C57.6338 153.792 56.877 154.124 56.3203 154.788C55.7734 155.442 55.5 156.307 55.5 157.381H51.252C51.252 156.082 51.5596 154.896 52.1748 153.821C52.7998 152.747 53.6787 151.907 54.8115 151.302C55.9443 150.687 57.2285 150.379 58.6641 150.379C60.8613 150.379 62.5654 150.906 63.7764 151.961C64.9971 153.016 65.6074 154.505 65.6074 156.429C65.6074 157.483 65.334 158.558 64.7871 159.651C64.2402 160.745 63.3027 162.02 61.9746 163.475L57.126 168.587H66.2959V172ZM73.21 159.461H75.4658C76.54 159.461 77.3359 159.192 77.8535 158.655C78.3711 158.118 78.6299 157.405 78.6299 156.517C78.6299 155.657 78.3711 154.988 77.8535 154.51C77.3457 154.031 76.6426 153.792 75.7441 153.792C74.9336 153.792 74.2549 154.017 73.708 154.466C73.1611 154.905 72.8877 155.481 72.8877 156.194H68.6543C68.6543 155.081 68.9521 154.085 69.5479 153.206C70.1533 152.317 70.9932 151.624 72.0674 151.126C73.1514 150.628 74.3428 150.379 75.6416 150.379C77.8975 150.379 79.665 150.921 80.9443 152.005C82.2236 153.079 82.8633 154.563 82.8633 156.458C82.8633 157.435 82.5654 158.333 81.9697 159.153C81.374 159.974 80.5928 160.604 79.626 161.043C80.8271 161.473 81.7207 162.117 82.3066 162.977C82.9023 163.836 83.2002 164.852 83.2002 166.023C83.2002 167.918 82.5068 169.437 81.1201 170.579C79.7432 171.722 77.917 172.293 75.6416 172.293C73.5127 172.293 71.7695 171.731 70.4121 170.608C69.0645 169.485 68.3906 168.001 68.3906 166.155H72.624C72.624 166.956 72.9219 167.61 73.5176 168.118C74.123 168.626 74.8652 168.88 75.7441 168.88C76.75 168.88 77.5361 168.616 78.1025 168.089C78.6787 167.552 78.9668 166.844 78.9668 165.965C78.9668 163.836 77.7949 162.771 75.4512 162.771H73.21V159.461ZM98.6543 163.973H101.071V167.386H98.6543V172H94.4209V167.386H85.6758L85.4854 164.72L94.377 150.672H98.6543V163.973ZM89.7041 163.973H94.4209V156.443L94.1426 156.927L89.7041 163.973ZM126.398 161.512L127.629 150.672H139.582V154.202H131.101L130.573 158.787C131.579 158.25 132.648 157.981 133.781 157.981C135.812 157.981 137.404 158.611 138.557 159.871C139.709 161.131 140.285 162.894 140.285 165.159C140.285 166.536 139.992 167.771 139.406 168.865C138.83 169.949 138 170.794 136.916 171.399C135.832 171.995 134.553 172.293 133.078 172.293C131.789 172.293 130.593 172.034 129.489 171.517C128.386 170.989 127.512 170.252 126.867 169.305C126.232 168.357 125.896 167.278 125.856 166.067H130.046C130.134 166.956 130.441 167.649 130.969 168.147C131.506 168.636 132.204 168.88 133.063 168.88C134.021 168.88 134.758 168.538 135.275 167.854C135.793 167.161 136.052 166.185 136.052 164.925C136.052 163.714 135.754 162.786 135.158 162.142C134.562 161.497 133.718 161.175 132.624 161.175C131.618 161.175 130.803 161.438 130.178 161.966L129.768 162.347L126.398 161.512ZM154.479 150.452V153.938H154.069C152.155 153.968 150.612 154.466 149.44 155.433C148.278 156.399 147.58 157.742 147.346 159.461C148.479 158.309 149.909 157.732 151.638 157.732C153.493 157.732 154.968 158.396 156.062 159.725C157.155 161.053 157.702 162.801 157.702 164.969C157.702 166.355 157.399 167.61 156.794 168.733C156.198 169.856 155.349 170.73 154.245 171.355C153.151 171.98 151.911 172.293 150.524 172.293C148.278 172.293 146.462 171.512 145.075 169.949C143.698 168.387 143.01 166.302 143.01 163.694V162.171C143.01 159.856 143.444 157.815 144.313 156.048C145.192 154.271 146.447 152.898 148.078 151.932C149.719 150.955 151.618 150.462 153.776 150.452H154.479ZM150.349 161.131C149.665 161.131 149.045 161.312 148.488 161.673C147.932 162.024 147.521 162.493 147.258 163.079V164.368C147.258 165.784 147.536 166.893 148.093 167.693C148.649 168.484 149.431 168.88 150.437 168.88C151.345 168.88 152.077 168.523 152.634 167.811C153.2 167.088 153.483 166.155 153.483 165.013C153.483 163.851 153.2 162.913 152.634 162.2C152.067 161.487 151.306 161.131 150.349 161.131ZM174.724 153.045L166.477 172H162.009L170.271 154.1H159.665V150.672H174.724V153.045ZM191.35 156.341C191.35 157.376 191.091 158.294 190.573 159.095C190.056 159.896 189.343 160.535 188.435 161.014C189.47 161.512 190.29 162.2 190.896 163.079C191.501 163.948 191.804 164.974 191.804 166.155C191.804 168.05 191.159 169.549 189.87 170.652C188.581 171.746 186.828 172.293 184.611 172.293C182.395 172.293 180.637 171.741 179.338 170.638C178.039 169.534 177.39 168.04 177.39 166.155C177.39 164.974 177.692 163.943 178.298 163.064C178.903 162.186 179.719 161.502 180.744 161.014C179.836 160.535 179.123 159.896 178.605 159.095C178.098 158.294 177.844 157.376 177.844 156.341C177.844 154.524 178.449 153.079 179.66 152.005C180.871 150.921 182.517 150.379 184.597 150.379C186.667 150.379 188.308 150.916 189.519 151.99C190.739 153.055 191.35 154.505 191.35 156.341ZM187.556 165.848C187.556 164.92 187.287 164.178 186.75 163.621C186.213 163.064 185.49 162.786 184.582 162.786C183.684 162.786 182.966 163.064 182.429 163.621C181.892 164.168 181.623 164.91 181.623 165.848C181.623 166.756 181.887 167.488 182.414 168.045C182.941 168.602 183.674 168.88 184.611 168.88C185.529 168.88 186.247 168.611 186.765 168.074C187.292 167.537 187.556 166.795 187.556 165.848ZM187.116 156.546C187.116 155.716 186.896 155.052 186.457 154.554C186.018 154.046 185.397 153.792 184.597 153.792C183.806 153.792 183.19 154.036 182.751 154.524C182.312 155.013 182.092 155.687 182.092 156.546C182.092 157.396 182.312 158.079 182.751 158.597C183.19 159.114 183.811 159.373 184.611 159.373C185.412 159.373 186.027 159.114 186.457 158.597C186.896 158.079 187.116 157.396 187.116 156.546ZM219.519 163.475C218.415 164.559 217.126 165.101 215.651 165.101C213.767 165.101 212.258 164.456 211.125 163.167C209.992 161.868 209.426 160.12 209.426 157.923C209.426 156.526 209.729 155.247 210.334 154.085C210.949 152.913 211.804 152.005 212.897 151.36C213.991 150.706 215.222 150.379 216.589 150.379C217.995 150.379 219.245 150.73 220.339 151.434C221.433 152.137 222.282 153.147 222.888 154.466C223.493 155.784 223.801 157.293 223.811 158.992V160.56C223.811 164.114 222.927 166.907 221.159 168.938C219.392 170.97 216.887 172.054 213.645 172.19L212.604 172.205V168.675L213.542 168.66C217.224 168.494 219.216 166.766 219.519 163.475ZM216.691 161.863C217.375 161.863 217.961 161.688 218.449 161.336C218.947 160.984 219.323 160.56 219.577 160.062V158.318C219.577 156.883 219.304 155.77 218.757 154.979C218.21 154.188 217.478 153.792 216.56 153.792C215.71 153.792 215.012 154.183 214.465 154.964C213.918 155.735 213.645 156.707 213.645 157.879C213.645 159.041 213.908 159.998 214.436 160.75C214.973 161.492 215.725 161.863 216.691 161.863ZM241.198 163.182C241.198 166.131 240.588 168.387 239.367 169.949C238.146 171.512 236.359 172.293 234.006 172.293C231.682 172.293 229.904 171.526 228.674 169.993C227.443 168.46 226.813 166.263 226.784 163.401V159.476C226.784 156.497 227.399 154.236 228.63 152.693C229.87 151.15 231.652 150.379 233.977 150.379C236.301 150.379 238.078 151.146 239.309 152.679C240.539 154.202 241.169 156.395 241.198 159.256V163.182ZM236.965 158.875C236.965 157.107 236.721 155.823 236.232 155.022C235.754 154.212 235.002 153.807 233.977 153.807C232.98 153.807 232.243 154.192 231.765 154.964C231.296 155.726 231.047 156.922 231.018 158.553V163.738C231.018 165.477 231.252 166.771 231.721 167.62C232.199 168.46 232.961 168.88 234.006 168.88C235.041 168.88 235.788 168.475 236.247 167.664C236.706 166.854 236.945 165.613 236.965 163.943V158.875ZM254.353 172H250.119V155.682L245.065 157.249V153.807L253.898 150.643H254.353V172ZM275.915 172H261.296V169.1L268.195 161.746C269.143 160.711 269.841 159.808 270.29 159.036C270.749 158.265 270.979 157.532 270.979 156.839C270.979 155.892 270.739 155.149 270.261 154.612C269.782 154.065 269.099 153.792 268.21 153.792C267.253 153.792 266.496 154.124 265.939 154.788C265.393 155.442 265.119 156.307 265.119 157.381H260.871C260.871 156.082 261.179 154.896 261.794 153.821C262.419 152.747 263.298 151.907 264.431 151.302C265.563 150.687 266.848 150.379 268.283 150.379C270.48 150.379 272.185 150.906 273.396 151.961C274.616 153.016 275.227 154.505 275.227 156.429C275.227 157.483 274.953 158.558 274.406 159.651C273.859 160.745 272.922 162.02 271.594 163.475L266.745 168.587H275.915V172ZM297.771 159.461H300.026C301.101 159.461 301.896 159.192 302.414 158.655C302.932 158.118 303.19 157.405 303.19 156.517C303.19 155.657 302.932 154.988 302.414 154.51C301.906 154.031 301.203 153.792 300.305 153.792C299.494 153.792 298.815 154.017 298.269 154.466C297.722 154.905 297.448 155.481 297.448 156.194H293.215C293.215 155.081 293.513 154.085 294.108 153.206C294.714 152.317 295.554 151.624 296.628 151.126C297.712 150.628 298.903 150.379 300.202 150.379C302.458 150.379 304.226 150.921 305.505 152.005C306.784 153.079 307.424 154.563 307.424 156.458C307.424 157.435 307.126 158.333 306.53 159.153C305.935 159.974 305.153 160.604 304.187 161.043C305.388 161.473 306.281 162.117 306.867 162.977C307.463 163.836 307.761 164.852 307.761 166.023C307.761 167.918 307.067 169.437 305.681 170.579C304.304 171.722 302.478 172.293 300.202 172.293C298.073 172.293 296.33 171.731 294.973 170.608C293.625 169.485 292.951 168.001 292.951 166.155H297.185C297.185 166.956 297.482 167.61 298.078 168.118C298.684 168.626 299.426 168.88 300.305 168.88C301.311 168.88 302.097 168.616 302.663 168.089C303.239 167.552 303.527 166.844 303.527 165.965C303.527 163.836 302.355 162.771 300.012 162.771H297.771V159.461ZM323.215 163.973H325.632V167.386H323.215V172H318.981V167.386H310.236L310.046 164.72L318.938 150.672H323.215V163.973ZM314.265 163.973H318.981V156.443L318.703 156.927L314.265 163.973ZM328.547 161.512L329.777 150.672H341.73V154.202H333.249L332.722 158.787C333.728 158.25 334.797 157.981 335.93 157.981C337.961 157.981 339.553 158.611 340.705 159.871C341.857 161.131 342.434 162.894 342.434 165.159C342.434 166.536 342.141 167.771 341.555 168.865C340.979 169.949 340.148 170.794 339.064 171.399C337.98 171.995 336.701 172.293 335.227 172.293C333.938 172.293 332.741 172.034 331.638 171.517C330.534 170.989 329.66 170.252 329.016 169.305C328.381 168.357 328.044 167.278 328.005 166.067H332.194C332.282 166.956 332.59 167.649 333.117 168.147C333.654 168.636 334.353 168.88 335.212 168.88C336.169 168.88 336.906 168.538 337.424 167.854C337.941 167.161 338.2 166.185 338.2 164.925C338.2 163.714 337.902 162.786 337.307 162.142C336.711 161.497 335.866 161.175 334.772 161.175C333.767 161.175 332.951 161.438 332.326 161.966L331.916 162.347L328.547 161.512ZM356.628 150.452V153.938H356.218C354.304 153.968 352.761 154.466 351.589 155.433C350.427 156.399 349.729 157.742 349.494 159.461C350.627 158.309 352.058 157.732 353.786 157.732C355.642 157.732 357.116 158.396 358.21 159.725C359.304 161.053 359.851 162.801 359.851 164.969C359.851 166.355 359.548 167.61 358.942 168.733C358.347 169.856 357.497 170.73 356.394 171.355C355.3 171.98 354.06 172.293 352.673 172.293C350.427 172.293 348.61 171.512 347.224 169.949C345.847 168.387 345.158 166.302 345.158 163.694V162.171C345.158 159.856 345.593 157.815 346.462 156.048C347.341 154.271 348.596 152.898 350.227 151.932C351.867 150.955 353.767 150.462 355.925 150.452H356.628ZM352.497 161.131C351.813 161.131 351.193 161.312 350.637 161.673C350.08 162.024 349.67 162.493 349.406 163.079V164.368C349.406 165.784 349.685 166.893 350.241 167.693C350.798 168.484 351.579 168.88 352.585 168.88C353.493 168.88 354.226 168.523 354.782 167.811C355.349 167.088 355.632 166.155 355.632 165.013C355.632 163.851 355.349 162.913 354.782 162.2C354.216 161.487 353.454 161.131 352.497 161.131Z" fill="white"/>
<path d="M292.27 37V22.7812H297.25C298.975 22.7812 300.284 23.1133 301.176 23.7773C302.068 24.4349 302.514 25.4017 302.514 26.6777C302.514 27.3743 302.335 27.9896 301.977 28.5234C301.618 29.0508 301.12 29.4382 300.482 29.6855C301.212 29.8678 301.785 30.2357 302.201 30.7891C302.624 31.3424 302.836 32.0195 302.836 32.8203C302.836 34.1875 302.4 35.2227 301.527 35.9258C300.655 36.6289 299.411 36.987 297.797 37H292.27ZM295.199 30.8086V34.6465H297.709C298.399 34.6465 298.936 34.4837 299.32 34.1582C299.711 33.8262 299.906 33.3704 299.906 32.791C299.906 31.4889 299.232 30.8281 297.885 30.8086H295.199ZM295.199 28.7383H297.367C298.845 28.7122 299.584 28.123 299.584 26.9707C299.584 26.3262 299.395 25.8639 299.018 25.584C298.646 25.2975 298.057 25.1543 297.25 25.1543H295.199V28.7383ZM313.07 34.0703H307.934L306.957 37H303.842L309.135 22.7812H311.85L317.172 37H314.057L313.07 34.0703ZM308.725 31.6973H312.279L310.492 26.375L308.725 31.6973ZM330.062 37H327.133L321.43 27.6445V37H318.5V22.7812H321.43L327.143 32.1562V22.7812H330.062V37ZM337.074 31.2969L335.551 32.9375V37H332.621V22.7812H335.551V29.2266L336.84 27.459L340.463 22.7812H344.066L339.018 29.0996L344.213 37H340.727L337.074 31.2969ZM361.859 37H358.93L353.227 27.6445V37H350.297V22.7812H353.227L358.939 32.1562V22.7812H361.859V37ZM372.621 34.0703H367.484L366.508 37H363.393L368.686 22.7812H371.4L376.723 37H373.607L372.621 34.0703ZM368.275 31.6973H371.83L370.043 26.375L368.275 31.6973ZM381.879 22.7812L385.531 33.0938L389.164 22.7812H393.012V37H390.072V33.1133L390.365 26.4043L386.527 37H384.516L380.688 26.4141L380.98 33.1133V37H378.051V22.7812H381.879ZM404.125 30.8379H398.5V34.6465H405.102V37H395.57V22.7812H405.082V25.1543H398.5V28.543H404.125V30.8379Z" fill="white"/>
<path d="M51.832 241H48.9023L43.1992 231.645V241H40.2695V226.781H43.1992L48.9121 236.156V226.781H51.832V241ZM65.1523 226.781V236.146C65.1523 237.702 64.6641 238.933 63.6875 239.838C62.7174 240.743 61.3893 241.195 59.7031 241.195C58.043 241.195 56.7246 240.756 55.748 239.877C54.7715 238.998 54.2734 237.79 54.2539 236.254V226.781H57.1836V236.166C57.1836 237.097 57.4049 237.777 57.8477 238.207C58.2969 238.63 58.9154 238.842 59.7031 238.842C61.3503 238.842 62.1868 237.976 62.2129 236.244V226.781H65.1523ZM71.3828 226.781L75.0352 237.094L78.668 226.781H82.5156V241H79.5762V237.113L79.8691 230.404L76.0312 241H74.0195L70.1914 230.414L70.4844 237.113V241H67.5547V226.781H71.3828ZM93.6289 234.838H88.0039V238.646H94.6055V241H85.0742V226.781H94.5859V229.154H88.0039V232.543H93.6289V234.838ZM104.234 235.99V241H101.305V226.781H106.852C107.919 226.781 108.857 226.977 109.664 227.367C110.478 227.758 111.103 228.314 111.539 229.037C111.975 229.753 112.193 230.57 112.193 231.488C112.193 232.882 111.715 233.982 110.758 234.789C109.807 235.59 108.489 235.99 106.803 235.99H104.234ZM104.234 233.617H106.852C107.626 233.617 108.215 233.435 108.619 233.07C109.029 232.706 109.234 232.185 109.234 231.508C109.234 230.811 109.029 230.248 108.619 229.818C108.209 229.389 107.643 229.167 106.92 229.154H104.234V233.617ZM119.479 235.795H117.145V241H114.215V226.781H119.498C121.178 226.781 122.473 227.156 123.385 227.904C124.296 228.653 124.752 229.711 124.752 231.078C124.752 232.048 124.54 232.859 124.117 233.51C123.701 234.154 123.066 234.669 122.213 235.053L125.289 240.863V241H122.145L119.479 235.795ZM117.145 233.422H119.508C120.243 233.422 120.813 233.236 121.217 232.865C121.62 232.488 121.822 231.97 121.822 231.312C121.822 230.642 121.63 230.115 121.246 229.73C120.868 229.346 120.286 229.154 119.498 229.154H117.145V233.422ZM135.543 234.838H129.918V238.646H136.52V241H126.988V226.781H136.5V229.154H129.918V232.543H135.543V234.838ZM149.801 241H146.871L141.168 231.645V241H138.238V226.781H141.168L146.881 236.156V226.781H149.801V241ZM163.121 226.781V236.146C163.121 237.702 162.633 238.933 161.656 239.838C160.686 240.743 159.358 241.195 157.672 241.195C156.012 241.195 154.693 240.756 153.717 239.877C152.74 238.998 152.242 237.79 152.223 236.254V226.781H155.152V236.166C155.152 237.097 155.374 237.777 155.816 238.207C156.266 238.63 156.884 238.842 157.672 238.842C159.319 238.842 160.156 237.976 160.182 236.244V226.781H163.121ZM169.352 226.781L173.004 237.094L176.637 226.781H180.484V241H177.545V237.113L177.838 230.404L174 241H171.988L168.16 230.414L168.453 237.113V241H165.523V226.781H169.352ZM191.598 234.838H185.973V238.646H192.574V241H183.043V226.781H192.555V229.154H185.973V232.543H191.598V234.838Z" fill="white"/>
<path d="M233.332 206.014C233.332 208.058 232.948 209.601 232.18 210.643C231.418 211.678 230.256 212.195 228.693 212.195C227.157 212.195 225.998 211.691 225.217 210.682C224.442 209.666 224.045 208.165 224.025 206.18V203.719C224.025 201.674 224.406 200.141 225.168 199.119C225.936 198.097 227.105 197.586 228.674 197.586C230.23 197.586 231.389 198.084 232.15 199.08C232.919 200.076 233.312 201.567 233.332 203.553V206.014ZM230.959 203.357C230.959 202.023 230.777 201.046 230.412 200.428C230.048 199.803 229.468 199.49 228.674 199.49C227.899 199.49 227.329 199.786 226.965 200.379C226.6 200.965 226.408 201.883 226.389 203.133V206.355C226.389 207.684 226.574 208.673 226.945 209.324C227.316 209.975 227.899 210.301 228.693 210.301C229.455 210.301 230.018 210.001 230.383 209.402C230.747 208.797 230.939 207.853 230.959 206.57V203.357ZM242.814 197.713V199.676H242.521C241.193 199.695 240.132 200.06 239.338 200.77C238.544 201.479 238.072 202.485 237.922 203.787C238.684 202.986 239.657 202.586 240.842 202.586C242.098 202.586 243.088 203.029 243.811 203.914C244.54 204.799 244.904 205.942 244.904 207.342C244.904 208.787 244.478 209.959 243.625 210.857C242.779 211.749 241.665 212.195 240.285 212.195C238.866 212.195 237.714 211.671 236.828 210.623C235.949 209.575 235.51 208.201 235.51 206.502V205.691C235.51 203.198 236.115 201.245 237.326 199.832C238.544 198.419 240.292 197.713 242.57 197.713H242.814ZM240.266 204.5C239.745 204.5 239.266 204.646 238.83 204.939C238.4 205.232 238.085 205.623 237.883 206.111V206.834C237.883 207.889 238.104 208.729 238.547 209.354C238.99 209.972 239.562 210.281 240.266 210.281C240.969 210.281 241.525 210.018 241.936 209.49C242.346 208.963 242.551 208.27 242.551 207.41C242.551 206.551 242.342 205.851 241.926 205.311C241.509 204.77 240.956 204.5 240.266 204.5ZM247.619 213.221H245.754L251.35 197.781H253.215L247.619 213.221ZM264.27 212H254.709V210.369L259.445 205.203C260.129 204.441 260.614 203.807 260.9 203.299C261.193 202.785 261.34 202.27 261.34 201.756C261.34 201.079 261.148 200.532 260.764 200.115C260.386 199.699 259.875 199.49 259.23 199.49C258.462 199.49 257.867 199.725 257.443 200.193C257.02 200.662 256.809 201.303 256.809 202.117H254.436C254.436 201.251 254.631 200.473 255.021 199.783C255.419 199.087 255.982 198.546 256.711 198.162C257.447 197.778 258.293 197.586 259.25 197.586C260.63 197.586 261.717 197.934 262.512 198.631C263.312 199.321 263.713 200.278 263.713 201.502C263.713 202.212 263.511 202.957 263.107 203.738C262.71 204.513 262.056 205.395 261.145 206.385L257.668 210.105H264.27V212ZM266.711 204.949L267.482 197.781H275.119V199.832H269.455L269.064 203.23C269.722 202.853 270.464 202.664 271.291 202.664C272.645 202.664 273.697 203.097 274.445 203.963C275.201 204.829 275.578 205.994 275.578 207.459C275.578 208.904 275.161 210.057 274.328 210.916C273.495 211.769 272.352 212.195 270.9 212.195C269.598 212.195 268.518 211.827 267.658 211.092C266.805 210.35 266.343 209.373 266.271 208.162H268.566C268.658 208.852 268.905 209.383 269.309 209.754C269.712 210.118 270.24 210.301 270.891 210.301C271.62 210.301 272.186 210.04 272.59 209.52C273 208.999 273.205 208.289 273.205 207.391C273.205 206.525 272.98 205.841 272.531 205.34C272.082 204.832 271.464 204.578 270.676 204.578C270.246 204.578 269.882 204.637 269.582 204.754C269.283 204.865 268.957 205.086 268.605 205.418L266.711 204.949Z" fill="white"/>
<path d="M197.609 202.59L198.898 198.312H200.203L198.223 204H197L195.027 198.312H196.328L197.609 202.59ZM203.656 202.828H201.602L201.211 204H199.965L202.082 198.312H203.168L205.297 204H204.051L203.656 202.828ZM201.918 201.879H203.34L202.625 199.75L201.918 201.879ZM207 203.059H209.488V204H205.828V198.312H207V203.059ZM211.41 204H210.238V198.312H211.41V204ZM212.5 204V198.312H214.25C214.75 198.312 215.197 198.426 215.59 198.652C215.986 198.876 216.294 199.197 216.516 199.613C216.737 200.027 216.848 200.499 216.848 201.027V201.289C216.848 201.818 216.738 202.288 216.52 202.699C216.303 203.111 215.997 203.43 215.602 203.656C215.206 203.883 214.759 203.997 214.262 204H212.5ZM213.672 199.262V203.059H214.238C214.697 203.059 215.047 202.909 215.289 202.609C215.531 202.31 215.655 201.882 215.66 201.324V201.023C215.66 200.445 215.54 200.008 215.301 199.711C215.061 199.411 214.711 199.262 214.25 199.262H213.672ZM199.789 208.262H198.047V213H196.875V208.262H195.156V207.312H199.789V208.262ZM205.09 213H203.918V210.562H201.633V213H200.461V207.312H201.633V209.617H203.918V207.312H205.09V213ZM208.223 210.918H207.289V213H206.117V207.312H208.23C208.902 207.312 209.421 207.462 209.785 207.762C210.15 208.061 210.332 208.484 210.332 209.031C210.332 209.419 210.247 209.743 210.078 210.004C209.911 210.262 209.658 210.467 209.316 210.621L210.547 212.945V213H209.289L208.223 210.918ZM207.289 209.969H208.234C208.529 209.969 208.757 209.895 208.918 209.746C209.079 209.595 209.16 209.388 209.16 209.125C209.16 208.857 209.083 208.646 208.93 208.492C208.779 208.339 208.546 208.262 208.23 208.262H207.289V209.969ZM215.531 207.312V211.059C215.531 211.681 215.336 212.173 214.945 212.535C214.557 212.897 214.026 213.078 213.352 213.078C212.688 213.078 212.16 212.902 211.77 212.551C211.379 212.199 211.18 211.716 211.172 211.102V207.312H212.344V211.066C212.344 211.439 212.432 211.711 212.609 211.883C212.789 212.052 213.036 212.137 213.352 212.137C214.01 212.137 214.345 211.79 214.355 211.098V207.312H215.531Z" fill="white"/>
<rect x="13" y="127" width="372" height="65" rx="8" stroke="#FF002E" stroke-width="4"/>
<defs>
<linearGradient id="paint0_linear_330:1882" x1="-1.63862e-08" y1="34.5652" x2="436.496" y2="58.9145" gradientUnits="userSpaceOnUse">
<stop stop-color="#014781"/>
<stop offset="0.286458" stop-color="#016497"/>
<stop offset="1" stop-color="#1282CA"/>
</linearGradient>
</defs>
</svg>
