<svg width="360" height="209" viewBox="0 0 360 209" fill="none" xmlns="http://www.w3.org/2000/svg">
<rect width="360" height="209" rx="10" fill="url(#paint0_linear_801:2)"/>
<path d="M30.9922 127.48L27.4531 126.426L27.9922 124.656L31.5312 125.969L31.4258 121.938H33.2188L33.1016 126.027L36.582 124.738L37.1211 126.52L33.5234 127.586L35.8438 130.762L34.3906 131.863L32.2109 128.488L30.1016 131.781L28.6367 130.715L30.9922 127.48ZM41.3281 127.48L37.7891 126.426L38.3281 124.656L41.8672 125.969L41.7617 121.938H43.5547L43.4375 126.027L46.918 124.738L47.457 126.52L43.8594 127.586L46.1797 130.762L44.7266 131.863L42.5469 128.488L40.4375 131.781L38.9727 130.715L41.3281 127.48ZM51.6641 127.48L48.125 126.426L48.6641 124.656L52.2031 125.969L52.0977 121.938H53.8906L53.7734 126.027L57.2539 124.738L57.793 126.52L54.1953 127.586L56.5156 130.762L55.0625 131.863L52.8828 128.488L50.7734 131.781L49.3086 130.715L51.6641 127.48ZM62 127.48L58.4609 126.426L59 124.656L62.5391 125.969L62.4336 121.938H64.2266L64.1094 126.027L67.5898 124.738L68.1289 126.52L64.5312 127.586L66.8516 130.762L65.3984 131.863L63.2188 128.488L61.1094 131.781L59.6445 130.715L62 127.48ZM78.2891 127.48L74.75 126.426L75.2891 124.656L78.8281 125.969L78.7227 121.938H80.5156L80.3984 126.027L83.8789 124.738L84.418 126.52L80.8203 127.586L83.1406 130.762L81.6875 131.863L79.5078 128.488L77.3984 131.781L75.9336 130.715L78.2891 127.48ZM88.625 127.48L85.0859 126.426L85.625 124.656L89.1641 125.969L89.0586 121.938H90.8516L90.7344 126.027L94.2148 124.738L94.7539 126.52L91.1562 127.586L93.4766 130.762L92.0234 131.863L89.8438 128.488L87.7344 131.781L86.2695 130.715L88.625 127.48ZM98.9609 127.48L95.4219 126.426L95.9609 124.656L99.5 125.969L99.3945 121.938H101.188L101.07 126.027L104.551 124.738L105.09 126.52L101.492 127.586L103.812 130.762L102.359 131.863L100.18 128.488L98.0703 131.781L96.6055 130.715L98.9609 127.48ZM109.297 127.48L105.758 126.426L106.297 124.656L109.836 125.969L109.73 121.938H111.523L111.406 126.027L114.887 124.738L115.426 126.52L111.828 127.586L114.148 130.762L112.695 131.863L110.516 128.488L108.406 131.781L106.941 130.715L109.297 127.48ZM125.586 127.48L122.047 126.426L122.586 124.656L126.125 125.969L126.02 121.938H127.812L127.695 126.027L131.176 124.738L131.715 126.52L128.117 127.586L130.438 130.762L128.984 131.863L126.805 128.488L124.695 131.781L123.23 130.715L125.586 127.48ZM135.922 127.48L132.383 126.426L132.922 124.656L136.461 125.969L136.355 121.938H138.148L138.031 126.027L141.512 124.738L142.051 126.52L138.453 127.586L140.773 130.762L139.32 131.863L137.141 128.488L135.031 131.781L133.566 130.715L135.922 127.48ZM146.258 127.48L142.719 126.426L143.258 124.656L146.797 125.969L146.691 121.938H148.484L148.367 126.027L151.848 124.738L152.387 126.52L148.789 127.586L151.109 130.762L149.656 131.863L147.477 128.488L145.367 131.781L143.902 130.715L146.258 127.48ZM156.594 127.48L153.055 126.426L153.594 124.656L157.133 125.969L157.027 121.938H158.82L158.703 126.027L162.184 124.738L162.723 126.52L159.125 127.586L161.445 130.762L159.992 131.863L157.812 128.488L155.703 131.781L154.238 130.715L156.594 127.48ZM179.539 129.414H181.168C182.191 129.398 182.996 129.129 183.582 128.605C184.168 128.082 184.461 127.375 184.461 126.484C184.461 124.484 183.465 123.484 181.473 123.484C180.535 123.484 179.785 123.754 179.223 124.293C178.668 124.824 178.391 125.531 178.391 126.414H176.223C176.223 125.062 176.715 123.941 177.699 123.051C178.691 122.152 179.949 121.703 181.473 121.703C183.082 121.703 184.344 122.129 185.258 122.98C186.172 123.832 186.629 125.016 186.629 126.531C186.629 127.273 186.387 127.992 185.902 128.688C185.426 129.383 184.773 129.902 183.945 130.246C184.883 130.543 185.605 131.035 186.113 131.723C186.629 132.41 186.887 133.25 186.887 134.242C186.887 135.773 186.387 136.988 185.387 137.887C184.387 138.785 183.086 139.234 181.484 139.234C179.883 139.234 178.578 138.801 177.57 137.934C176.57 137.066 176.07 135.922 176.07 134.5H178.25C178.25 135.398 178.543 136.117 179.129 136.656C179.715 137.195 180.5 137.465 181.484 137.465C182.531 137.465 183.332 137.191 183.887 136.645C184.441 136.098 184.719 135.312 184.719 134.289C184.719 133.297 184.414 132.535 183.805 132.004C183.195 131.473 182.316 131.199 181.168 131.184H179.539V129.414ZM199.016 133.27H201.383V135.039H199.016V139H196.836V135.039H189.066V133.762L196.707 121.938H199.016V133.27ZM191.527 133.27H196.836V124.902L196.578 125.371L191.527 133.27ZM204.336 130.445L205.203 121.938H213.945V123.941H207.043L206.527 128.594C207.363 128.102 208.312 127.855 209.375 127.855C210.93 127.855 212.164 128.371 213.078 129.402C213.992 130.426 214.449 131.812 214.449 133.562C214.449 135.32 213.973 136.707 213.02 137.723C212.074 138.73 210.75 139.234 209.047 139.234C207.539 139.234 206.309 138.816 205.355 137.98C204.402 137.145 203.859 135.988 203.727 134.512H205.777C205.91 135.488 206.258 136.227 206.82 136.727C207.383 137.219 208.125 137.465 209.047 137.465C210.055 137.465 210.844 137.121 211.414 136.434C211.992 135.746 212.281 134.797 212.281 133.586C212.281 132.445 211.969 131.531 211.344 130.844C210.727 130.148 209.902 129.801 208.871 129.801C207.926 129.801 207.184 130.008 206.645 130.422L206.07 130.891L204.336 130.445ZM225.324 121.926V123.766H224.926C223.238 123.797 221.895 124.297 220.895 125.266C219.895 126.234 219.316 127.598 219.16 129.355C220.059 128.324 221.285 127.809 222.84 127.809C224.324 127.809 225.508 128.332 226.391 129.379C227.281 130.426 227.727 131.777 227.727 133.434C227.727 135.191 227.246 136.598 226.285 137.652C225.332 138.707 224.051 139.234 222.441 139.234C220.809 139.234 219.484 138.609 218.469 137.359C217.453 136.102 216.945 134.484 216.945 132.508V131.676C216.945 128.535 217.613 126.137 218.949 124.48C220.293 122.816 222.289 121.965 224.938 121.926H225.324ZM222.477 129.613C221.734 129.613 221.051 129.836 220.426 130.281C219.801 130.727 219.367 131.285 219.125 131.957V132.754C219.125 134.16 219.441 135.293 220.074 136.152C220.707 137.012 221.496 137.441 222.441 137.441C223.418 137.441 224.184 137.082 224.738 136.363C225.301 135.645 225.582 134.703 225.582 133.539C225.582 132.367 225.297 131.422 224.727 130.703C224.164 129.977 223.414 129.613 222.477 129.613Z" fill="white"/>
<path d="M31.4238 188H30.2988V179.469H31.4238V188ZM40.0488 184.01C40.0488 184.846 39.9082 185.576 39.627 186.201C39.3457 186.822 38.9473 187.297 38.4316 187.625C37.916 187.953 37.3145 188.117 36.627 188.117C35.9551 188.117 35.3594 187.953 34.8398 187.625C34.3203 187.293 33.916 186.822 33.627 186.213C33.3418 185.6 33.1953 184.891 33.1875 184.086V183.471C33.1875 182.65 33.3301 181.926 33.6152 181.297C33.9004 180.668 34.3027 180.188 34.8223 179.855C35.3457 179.52 35.9434 179.352 36.6152 179.352C37.2988 179.352 37.9004 179.518 38.4199 179.85C38.9434 180.178 39.3457 180.656 39.627 181.285C39.9082 181.91 40.0488 182.639 40.0488 183.471V184.01ZM38.9297 183.459C38.9297 182.447 38.7266 181.672 38.3203 181.133C37.9141 180.59 37.3457 180.318 36.6152 180.318C35.9043 180.318 35.3438 180.59 34.9336 181.133C34.5273 181.672 34.3184 182.422 34.3066 183.383V184.01C34.3066 184.99 34.5117 185.762 34.9219 186.324C35.3359 186.883 35.9043 187.162 36.627 187.162C37.3535 187.162 37.916 186.898 38.3145 186.371C38.7129 185.84 38.918 185.08 38.9297 184.092V183.459ZM48.293 188H47.1621L42.8672 181.426V188H41.7363V179.469H42.8672L47.1738 186.072V179.469H48.293V188ZM59.543 185.293C59.4375 186.195 59.1035 186.893 58.541 187.385C57.9824 187.873 57.2383 188.117 56.3086 188.117C55.3008 188.117 54.4922 187.756 53.8828 187.033C53.2773 186.311 52.9746 185.344 52.9746 184.133V183.312C52.9746 182.52 53.1152 181.822 53.3965 181.221C53.6816 180.619 54.084 180.158 54.6035 179.838C55.123 179.514 55.7246 179.352 56.4082 179.352C57.3145 179.352 58.041 179.605 58.5879 180.113C59.1348 180.617 59.4531 181.316 59.543 182.211H58.4121C58.3145 181.531 58.1016 181.039 57.7734 180.734C57.4492 180.43 56.9941 180.277 56.4082 180.277C55.6895 180.277 55.125 180.543 54.7148 181.074C54.3086 181.605 54.1055 182.361 54.1055 183.342V184.168C54.1055 185.094 54.2988 185.83 54.6855 186.377C55.0723 186.924 55.6133 187.197 56.3086 187.197C56.9336 187.197 57.4121 187.057 57.7441 186.775C58.0801 186.49 58.3027 185.996 58.4121 185.293H59.543ZM65.9062 184.057H62.209V187.08H66.5039V188H61.084V179.469H66.4453V180.395H62.209V183.137H65.9062V184.057ZM67.9043 188V179.469H70.6934C71.6191 179.469 72.3145 179.66 72.7793 180.043C73.248 180.426 73.4824 180.992 73.4824 181.742C73.4824 182.141 73.3691 182.494 73.1426 182.803C72.916 183.107 72.6074 183.344 72.2168 183.512C72.6777 183.641 73.041 183.887 73.3066 184.25C73.5762 184.609 73.7109 185.039 73.7109 185.539C73.7109 186.305 73.4629 186.906 72.9668 187.344C72.4707 187.781 71.7695 188 70.8633 188H67.9043ZM69.0293 184.01V187.08H70.8867C71.4102 187.08 71.8223 186.945 72.123 186.676C72.4277 186.402 72.5801 186.027 72.5801 185.551C72.5801 184.523 72.0215 184.01 70.9043 184.01H69.0293ZM69.0293 183.107H70.7285C71.2207 183.107 71.6133 182.984 71.9062 182.738C72.2031 182.492 72.3516 182.158 72.3516 181.736C72.3516 181.268 72.2148 180.928 71.9414 180.717C71.668 180.502 71.252 180.395 70.6934 180.395H69.0293V183.107ZM80.0918 185.773H76.5176L75.7148 188H74.5547L77.8125 179.469H78.7969L82.0605 188H80.9062L80.0918 185.773ZM76.8574 184.848H79.7578L78.3047 180.857L76.8574 184.848ZM89.7656 188H88.6348L84.3398 181.426V188H83.209V179.469H84.3398L88.6465 186.072V179.469H89.7656V188Z" fill="white"/>
<path d="M308.322 188H307.232V180.775L305.047 181.578V180.594L308.152 179.428H308.322V188ZM316.848 184.361C316.848 185.631 316.631 186.574 316.197 187.191C315.764 187.809 315.086 188.117 314.164 188.117C313.254 188.117 312.58 187.816 312.143 187.215C311.705 186.609 311.479 185.707 311.463 184.508V183.061C311.463 181.807 311.68 180.875 312.113 180.266C312.547 179.656 313.227 179.352 314.152 179.352C315.07 179.352 315.746 179.646 316.18 180.236C316.613 180.822 316.836 181.729 316.848 182.955V184.361ZM315.764 182.879C315.764 181.961 315.635 181.293 315.377 180.875C315.119 180.453 314.711 180.242 314.152 180.242C313.598 180.242 313.193 180.451 312.939 180.869C312.686 181.287 312.555 181.93 312.547 182.797V184.531C312.547 185.453 312.68 186.135 312.945 186.576C313.215 187.014 313.621 187.232 314.164 187.232C314.699 187.232 315.096 187.025 315.354 186.611C315.615 186.197 315.752 185.545 315.764 184.654V182.879ZM318.564 188.732H317.633L321.195 179.469H322.121L318.564 188.732ZM328.771 188H323.182V187.221L326.135 183.939C326.572 183.443 326.873 183.041 327.037 182.732C327.205 182.42 327.289 182.098 327.289 181.766C327.289 181.32 327.154 180.955 326.885 180.67C326.615 180.385 326.256 180.242 325.807 180.242C325.268 180.242 324.848 180.396 324.547 180.705C324.25 181.01 324.102 181.436 324.102 181.982H323.018C323.018 181.197 323.27 180.562 323.773 180.078C324.281 179.594 324.959 179.352 325.807 179.352C326.6 179.352 327.227 179.561 327.688 179.979C328.148 180.393 328.379 180.945 328.379 181.637C328.379 182.477 327.844 183.477 326.773 184.637L324.488 187.115H328.771V188ZM334.496 185.135H335.68V186.02H334.496V188H333.406V186.02H329.521V185.381L333.342 179.469H334.496V185.135ZM330.752 185.135H333.406V180.951L333.277 181.186L330.752 185.135Z" fill="white"/>
<path d="M310.41 39.4347C310.38 41.8029 312.535 43.1243 314.158 43.9101C315.826 44.7162 316.386 45.2332 316.38 45.9542C316.367 47.0574 315.049 47.5444 313.816 47.5633C311.665 47.5964 310.413 46.9863 309.419 46.5248L308.644 50.1275C309.642 50.5842 311.489 50.9825 313.405 51C317.903 51 320.846 48.7947 320.862 45.3755C320.879 41.036 314.819 40.7958 314.86 38.8562C314.875 38.2681 315.44 37.6405 316.678 37.4809C317.29 37.4003 318.982 37.3386 320.9 38.2159L321.653 34.7302C320.621 34.3572 319.296 34 317.645 34C313.412 34 310.434 36.2353 310.41 39.4347ZM328.886 34.3002C328.065 34.3002 327.373 34.7761 327.064 35.5063L320.639 50.744H325.133L326.028 48.2888H331.52L332.039 50.744H336L332.543 34.3002H328.886ZM329.515 38.7423L330.812 44.9171H327.26L329.515 38.7423ZM304.961 34.3004L301.418 50.7438H305.701L309.242 34.3H304.961V34.3004ZM298.625 34.3L294.167 45.4925L292.364 35.976C292.153 34.9137 291.317 34.3002 290.389 34.3002H283.102L283 34.7777C284.496 35.1002 286.196 35.6203 287.226 36.1767C287.856 36.5166 288.035 36.8138 288.242 37.6216L291.658 50.744H296.184L303.123 34.3002H298.625" fill="white" fill-opacity="0.8"/>
<path d="M27 93.9792V77.0208C27 75.325 28.3875 73.9375 30.0833 73.9375H53.2083C54.9042 73.9375 56.2917 75.325 56.2917 77.0208V93.9792C56.2917 95.675 54.9042 97.0625 53.2083 97.0625H30.0833C28.3875 97.0625 27 95.675 27 93.9792Z" fill="white"/>
<path d="M56.2917 83.1875V81.6458H47.0417C46.1938 81.6458 45.5 80.9521 45.5 80.1041C45.5 79.2562 46.1938 78.5625 47.0417 78.5625H47.8125V77.0208H47.0417C45.3458 77.0208 43.9583 78.4083 43.9583 80.1041C43.9583 81.8 45.3458 83.1875 47.0417 83.1875H49.3542V87.8125H47.0417C44.8833 87.8125 43.1875 89.5083 43.1875 91.6666C43.1875 93.825 44.8833 95.5208 47.0417 95.5208H48.5833V93.9791H47.0417C45.7313 93.9791 44.7292 92.9771 44.7292 91.6666C44.7292 90.3562 45.7313 89.3541 47.0417 89.3541H56.2917V87.8125H50.8958V83.1875H56.2917Z" fill="#12699B"/>
<path d="M36.25 87.8125H33.9375V83.1875H36.25C37.9458 83.1875 39.3333 81.8 39.3333 80.1041C39.3333 78.4083 37.9458 77.0208 36.25 77.0208H33.9375V78.5625H36.25C37.0979 78.5625 37.7917 79.2562 37.7917 80.1041C37.7917 80.9521 37.0979 81.6458 36.25 81.6458H27V83.1875H32.3958V87.8125H27V89.3541H36.25C37.5604 89.3541 38.5625 90.3562 38.5625 91.6666C38.5625 92.9771 37.5604 93.9791 36.25 93.9791H34.7083V95.5208H36.25C38.4083 95.5208 40.1042 93.825 40.1042 91.6666C40.1042 89.5083 38.4083 87.8125 36.25 87.8125Z" fill="#12699B"/>
<defs>
<linearGradient id="paint0_linear_801:2" x1="-1.38801e-08" y1="27.2609" x2="369.562" y2="49.4023" gradientUnits="userSpaceOnUse">
<stop stop-color="#014781"/>
<stop offset="0.286458" stop-color="#016497"/>
<stop offset="1" stop-color="#1282CA"/>
</linearGradient>
</defs>
</svg>
