<svg width="27" height="35" viewBox="0 0 27 35" fill="none" xmlns="http://www.w3.org/2000/svg">
<path d="M14.7188 0.4375V8.96875C14.7188 9.93845 15.104 10.8684 15.7896 11.5541C16.4753 12.2398 17.4053 12.625 18.375 12.625H26.9062V30.9062C26.9062 31.8759 26.521 32.8059 25.8354 33.4916C25.1497 34.1773 24.2197 34.5625 23.25 34.5625H3.75C2.7803 34.5625 1.85032 34.1773 1.16464 33.4916C0.478961 32.8059 0.09375 31.8759 0.09375 30.9062V4.09375C0.09375 3.12405 0.478961 2.19407 1.16464 1.50839C1.85032 0.822711 2.7803 0.4375 3.75 0.4375H14.7188ZM17.1562 0.580094V8.96875C17.1562 9.29198 17.2847 9.60198 17.5132 9.83054C17.7418 10.0591 18.0518 10.1875 18.375 10.1875H26.7637C26.5926 9.59202 26.273 9.04977 25.835 8.61166L18.7321 1.51C18.2941 1.07148 17.7519 0.751491 17.1562 0.580094V0.580094Z" fill="url(#paint0_linear_828:172)"/>
<defs>
<linearGradient id="paint0_linear_828:172" x1="0.09375" y1="4.88859" x2="27.6966" y2="5.64295" gradientUnits="userSpaceOnUse">
<stop stop-color="#014781"/>
<stop offset="0.286458" stop-color="#016497"/>
<stop offset="1" stop-color="#1282CA"/>
</linearGradient>
</defs>
</svg>
