<svg width="16" height="16" viewBox="0 0 16 16" fill="none" xmlns="http://www.w3.org/2000/svg">
<path d="M8 16C12.4183 16 16 12.4183 16 8C16 3.58172 12.4183 0 8 0C3.58172 0 0 3.58172 0 8C0 12.4183 3.58172 16 8 16Z" fill="#00A9C3"/>
<path d="M7.2381 7.2381H8.7619V11.4286H7.2381V7.2381Z" fill="white"/>
<path d="M8 6.09524C8.52599 6.09524 8.95238 5.66884 8.95238 5.14286C8.95238 4.61687 8.52599 4.19048 8 4.19048C7.47401 4.19048 7.04762 4.61687 7.04762 5.14286C7.04762 5.66884 7.47401 6.09524 8 6.09524Z" fill="white"/>
</svg>
