<svg width="17" height="17" viewBox="0 0 17 17" fill="none" xmlns="http://www.w3.org/2000/svg">
<path d="M7.47526 4.41994L5.07897 1.6539C4.80272 1.33515 4.29626 1.33656 3.97539 1.65815L2.00481 3.63227C1.41831 4.21948 1.25043 5.09144 1.58972 5.79057C3.6167 9.98742 7.00142 13.3769 11.1954 15.4097C11.8938 15.749 12.7651 15.5811 13.3516 14.9939L15.3406 13.0014C15.6629 12.6791 15.6636 12.1698 15.342 11.8936L12.5653 9.51002C12.2749 9.26069 11.8237 9.29327 11.5326 9.58511L10.5664 10.5527C10.517 10.6045 10.4519 10.6387 10.3811 10.65C10.3103 10.6612 10.2378 10.6489 10.1747 10.615C8.59545 9.70559 7.28542 8.39385 6.37806 6.8134C6.34407 6.75018 6.33177 6.67756 6.34303 6.60668C6.35429 6.53579 6.38849 6.47056 6.44039 6.42098L7.40372 5.45694C7.69556 5.16369 7.72743 4.71036 7.47526 4.41923V4.41994Z" stroke="#BDBDBD" stroke-width="1.2" stroke-linecap="round" stroke-linejoin="round"/>
</svg>
