<svg width="18" height="18" viewBox="0 0 18 18" fill="none" xmlns="http://www.w3.org/2000/svg">
<path d="M9 2.9C9.27578 2.9 9.54885 2.95432 9.80364 3.05985C10.0584 3.16539 10.2899 3.32007 10.4849 3.51508C10.6799 3.71008 10.8346 3.94158 10.9401 4.19636C11.0457 4.45115 11.1 4.72422 11.1 5C11.1 5.27578 11.0457 5.54885 10.9401 5.80364C10.8346 6.05842 10.6799 6.28992 10.4849 6.48492C10.2899 6.67993 10.0584 6.83461 9.80364 6.94015C9.54885 7.04568 9.27578 7.1 9 7.1C8.44305 7.1 7.9089 6.87875 7.51508 6.48492C7.12125 6.0911 6.9 5.55695 6.9 5C6.9 4.44305 7.12125 3.9089 7.51508 3.51508C7.9089 3.12125 8.44305 2.9 9 2.9ZM9 11.9C11.97 11.9 15.1 13.36 15.1 14V15.1H2.9V14C2.9 13.36 6.03 11.9 9 11.9ZM9 1C6.79 1 5 2.79 5 5C5 7.21 6.79 9 9 9C11.21 9 13 7.21 13 5C13 2.79 11.21 1 9 1ZM9 10C6.33 10 1 11.34 1 14V17H17V14C17 11.34 11.67 10 9 10Z" fill="#BDBDBD" stroke="#F2F2F2" stroke-width="0.5"/>
</svg>
