<svg width="18" height="18" viewBox="0 0 18 18" fill="none" xmlns="http://www.w3.org/2000/svg">
<path d="M8.92578 4.48569C8.48077 4.48569 8.04576 4.61765 7.67575 4.86488C7.30574 5.11211 7.01735 5.46352 6.84705 5.87465C6.67676 6.28578 6.6322 6.73818 6.71902 7.17464C6.80583 7.6111 7.02012 8.01201 7.33479 8.32668C7.64946 8.64135 8.05037 8.85564 8.48683 8.94245C8.92329 9.02927 9.37569 8.98471 9.78682 8.81442C10.198 8.64412 10.5494 8.35573 10.7966 7.98572C11.0438 7.61571 11.1758 7.18069 11.1758 6.73569C11.1751 6.13916 10.9378 5.56726 10.516 5.14545C10.0942 4.72364 9.52231 4.48637 8.92578 4.48569ZM8.92578 7.86069C8.70328 7.86069 8.48577 7.79471 8.30077 7.67109C8.11576 7.54747 7.97157 7.37177 7.88642 7.16621C7.80127 6.96064 7.77899 6.73444 7.8224 6.51621C7.86581 6.29798 7.97295 6.09753 8.13029 5.94019C8.28762 5.78286 8.48808 5.67571 8.70631 5.6323C8.92453 5.5889 9.15073 5.61117 9.3563 5.69632C9.56187 5.78147 9.73757 5.92567 9.86119 6.11067C9.9848 6.29568 10.0508 6.51318 10.0508 6.73569C10.0504 7.03395 9.9318 7.3199 9.7209 7.5308C9.50999 7.74171 9.22405 7.86034 8.92578 7.86069Z" fill="#BDBDBD"/>
<path d="M13.25 2.40875C12.181 1.34001 10.754 0.705138 9.24441 0.62666C7.73483 0.548182 6.2497 1.03166 5.07563 1.98379C3.90157 2.93591 3.1218 4.28918 2.88684 5.78242C2.65187 7.27566 2.97836 8.803 3.80328 10.0697L8.05392 16.5951C8.14851 16.7403 8.27785 16.8596 8.4302 16.9422C8.58256 17.0248 8.75312 17.0681 8.92641 17.0681C9.09971 17.0681 9.27026 17.0248 9.42262 16.9422C9.57497 16.8596 9.70431 16.7403 9.7989 16.5951L14.0497 10.0697C14.8151 8.89465 15.1534 7.49223 15.0078 6.09746C14.8622 4.70269 14.2416 3.40036 13.25 2.40875ZM13.1071 9.45561L8.92643 15.8734L4.74575 9.45561C3.46607 7.49111 3.74053 4.86212 5.39836 3.20423C5.86167 2.7409 6.4117 2.37338 7.01705 2.12263C7.62239 1.87188 8.2712 1.74282 8.92643 1.74282C9.58166 1.74282 10.2305 1.87188 10.8358 2.12263C11.4412 2.37338 11.9912 2.7409 12.4545 3.20423C14.1123 4.86212 14.3868 7.49111 13.1071 9.45561Z" fill="#BDBDBD"/>
</svg>
