<svg width="79" height="88" viewBox="0 0 79 88" fill="none" xmlns="http://www.w3.org/2000/svg">
<path d="M31.9334 3.53381C39.9333 -2.86628 48.9334 0.867144 52.4334 3.53381C57.4338 7.34368 57.0337 12.1337 63.4337 16.5337C69.8337 20.9337 69.9338 26.5339 67.9337 35.0337C65.4338 44.0339 59.8337 52.4337 65.4337 58.0337C71.0337 63.6337 71.4338 68.5339 67.9337 76.0339C60.4338 88.5339 48.6334 90.7337 33.4337 83.5337C18.234 76.3337 10.2435 70.7483 5.43337 63.5337C-1.56711 53.0339 -0.473024 41.3871 1.43337 35.0337C2.93359 30.0339 5.43382 25.5339 13.9337 23.5339C22.2574 21.5754 25.4338 8.03394 31.9334 3.53381Z" fill="#E9F1FB"/>
<path d="M44.8949 68.4818L40.692 72.6848C40.0257 73.351 38.9417 73.3513 38.2755 72.6848C37.6081 72.0177 37.6073 70.9361 38.2755 70.2684L44.85 63.6936C47.6209 60.9229 48.8218 56.9736 48.0621 53.1291C46.2239 43.8263 46.4079 44.7572 44.5853 35.5333C43.6584 30.8419 44.9482 26.1045 48.1239 22.5361C48.4574 22.1613 48.424 21.5873 48.0493 21.2538C47.6744 20.9202 47.1004 20.9536 46.767 21.3284C45.0375 23.272 43.7616 25.6231 43.0777 28.1277C42.3918 30.6393 42.2969 33.322 42.8034 35.8856L43.522 39.5219L39.8859 38.8036C34.3254 37.7047 28.6134 39.4413 24.6056 43.449L18.0307 50.0238C16.6564 51.3982 16.6564 53.6347 18.0307 55.0092C19.4086 56.3869 21.6384 56.3872 23.0163 55.0092L23.8947 54.1308L37.8693 68.1054L36.9909 68.9839C35.6133 70.3612 35.6128 72.5914 36.9909 73.9694C38.3657 75.3439 40.6017 75.3437 41.9763 73.9694L46.1794 69.7664C46.5341 69.4116 46.5341 68.8366 46.1794 68.4818C45.8247 68.1272 45.2497 68.1272 44.8949 68.4818ZM43.3523 62.6223L29.3777 48.6478C29.5155 48.533 30.6882 47.1552 32.8317 46.2739L45.7261 59.1685C44.8607 61.2736 43.4388 62.5186 43.3523 62.6223ZM46.2801 53.4813C46.5252 54.7219 46.528 55.9753 46.3083 57.1814L34.8187 45.6918C36.0248 45.4721 37.2782 45.4749 38.5188 45.72L44.9996 47.0006L46.2801 53.4813ZM21.7317 53.7248C21.0641 54.3926 19.9831 54.3926 19.3153 53.7248C18.6491 53.0585 18.6491 51.9744 19.3153 51.3083L25.8901 44.7336C29.4684 41.1551 34.5692 39.6048 39.5335 40.5855L43.9024 41.4487L44.6187 45.0738L38.8707 43.9381C35.0266 43.178 31.077 44.3795 28.3064 47.1501L21.7317 53.7248ZM25.1793 52.8463L28.0931 49.9324L42.0678 63.9069L39.1539 66.8209L25.1793 52.8463Z" fill="url(#paint0_linear)"/>
<path d="M77.9692 32.9907C76.5913 31.613 74.3616 31.6128 72.9836 32.9907L72.1052 33.8691L58.1306 19.8945L59.009 19.0161C60.3868 17.6385 60.3871 15.4086 59.009 14.0305C57.6346 12.6564 55.3982 12.6566 54.0236 14.0305L49.8191 18.2352C49.4644 18.59 49.4644 19.1649 49.8191 19.5197C50.1739 19.8743 50.7488 19.8743 51.1036 19.5197L55.308 15.3151C55.9744 14.6491 57.0584 14.649 57.7246 15.3151C58.3924 15.9827 58.3927 17.0637 57.7246 17.7315L51.1499 24.3063C48.3791 27.0772 47.1784 31.0264 47.938 34.8708C48.0825 35.602 51.1822 51.2896 51.4148 52.4666C52.3376 57.136 51.0615 61.8577 47.914 65.4211C47.582 65.7971 47.6176 66.371 47.9935 66.7031C48.3705 67.0364 48.9445 66.9984 49.2755 66.6237C50.9904 64.6823 52.2543 62.3373 52.9307 59.8423C53.6093 57.3397 53.7013 54.6674 53.1967 52.1145L52.4783 48.4781L56.1145 49.1967C61.5784 50.2763 67.3178 48.6277 71.3946 44.5511L77.9693 37.9763C79.3435 36.6017 79.3435 34.3652 77.9692 32.9907ZM70.8206 35.1537L67.9066 38.0676L53.9322 24.0931L56.846 21.1792L70.8206 35.1537ZM52.6476 25.3777L66.622 39.3521C66.4842 39.4669 65.3115 40.8446 63.168 41.7259L50.2738 28.8316C51.1394 26.7264 52.5612 25.4813 52.6476 25.3777ZM49.7199 34.5187C49.4748 33.2781 49.472 32.0247 49.6917 30.8186L61.181 42.308C59.9749 42.5277 58.7215 42.5249 57.4811 42.2798L51.0003 40.9994L49.7199 34.5187ZM76.6846 36.6917L70.1099 43.2664C66.5317 46.8447 61.4317 48.3954 56.4667 47.4147L52.0975 46.5513L51.3812 42.9261L57.1289 44.0618C60.974 44.8219 64.9226 43.6206 67.6934 40.8499L74.2682 34.2752C74.9358 33.6073 76.0168 33.6073 76.6846 34.2752C77.3508 34.9414 77.3508 36.0256 76.6846 36.6917Z" fill="url(#paint1_linear)"/>
<defs>
<linearGradient id="paint0_linear" x1="32.6806" y1="21.0239" x2="33.1049" y2="75.1093" gradientUnits="userSpaceOnUse">
<stop stop-color="#014982"/>
<stop offset="1" stop-color="#00A9CB"/>
</linearGradient>
<linearGradient id="paint1_linear" x1="63.3469" y1="13" x2="63.7711" y2="67.0397" gradientUnits="userSpaceOnUse">
<stop stop-color="#014982"/>
<stop offset="1" stop-color="#00A9CB"/>
</linearGradient>
</defs>
</svg>
