<svg width="78" height="88" viewBox="0 0 78 88" fill="none" xmlns="http://www.w3.org/2000/svg">
<path d="M31.9334 3.53381C39.9333 -2.86628 48.9334 0.867144 52.4334 3.53381C57.4338 7.34368 57.0337 12.1337 63.4337 16.5337C69.8337 20.9337 69.9338 26.5339 67.9337 35.0337C65.4338 44.0339 59.8337 52.4337 65.4337 58.0337C71.0337 63.6337 71.4338 68.5339 67.9337 76.0339C60.4338 88.5339 48.6334 90.7337 33.4337 83.5337C18.234 76.3337 10.2435 70.7483 5.43337 63.5337C-1.56711 53.0339 -0.473024 41.3871 1.43337 35.0337C2.93359 30.0339 5.43382 25.5339 13.9337 23.5339C22.2574 21.5754 25.4338 8.03394 31.9334 3.53381Z" fill="#E9F1FB"/>
<path d="M33.9292 36.677C35.1425 36.677 36.2834 36.204 37.1405 35.3464C37.9981 34.4893 38.4702 33.3498 38.4702 32.136C38.4716 31.8758 38.6835 31.663 38.9451 31.6616C40.157 31.6616 41.2979 31.1895 42.1551 30.3319C43.0126 29.4748 43.4847 28.3338 43.4847 27.1205C43.4847 25.9082 43.0126 24.7677 42.1551 23.9101C41.2979 23.053 40.157 22.5809 38.9451 22.5809C38.4437 22.5809 38.0369 22.9877 38.0369 23.4877C38.0369 23.9891 38.4437 24.3973 38.9451 24.3973L38.9461 24.3959C40.4456 24.4007 41.666 25.6225 41.6697 27.1205C41.666 28.621 40.4441 29.8428 38.9451 29.8466C38.3321 29.8466 37.7569 30.085 37.326 30.5173C36.8936 30.9497 36.6552 31.5234 36.6552 32.136C36.6514 33.6355 35.4296 34.8573 33.9292 34.8606C32.4302 34.8573 31.2084 33.6355 31.2046 32.136C31.2036 29.093 33.003 26.3188 35.7905 25.0681C36.011 24.9697 36.1803 24.7895 36.2673 24.5629C36.3534 24.3368 36.3463 24.0894 36.247 23.868C36.1004 23.5421 35.7759 23.3316 35.4173 23.3316C35.2901 23.3316 35.1657 23.3581 35.0469 23.4116C33.3866 24.1552 31.9761 25.3538 30.9685 26.8769C29.9355 28.4393 29.3891 30.2581 29.3882 32.136C29.3891 33.3498 29.8617 34.4893 30.7188 35.3464C31.5764 36.204 32.7173 36.677 33.9292 36.677Z" fill="url(#paint0_linear)"/>
<path d="M36.2191 56.3564C36.2191 55.0679 35.966 53.8172 35.4675 52.6404C34.9855 51.5018 34.2963 50.4801 33.4183 49.6021C32.5404 48.7242 31.5182 48.035 30.3801 47.553C29.2028 47.054 27.9521 46.8009 26.6636 46.8009C26.1622 46.8009 25.7554 47.2077 25.7554 47.7091C25.7554 48.2096 26.1622 48.6173 26.6636 48.6173C28.7259 48.6173 30.6682 49.4238 32.1336 50.8869C33.5962 52.3518 34.4027 54.2945 34.4027 56.3564C34.4003 57.8569 33.1785 59.0787 31.6781 59.081C30.1791 59.0787 28.9558 57.8569 28.9535 56.3564C28.9535 55.7448 28.7151 55.1696 28.2827 54.7377C27.8504 54.3054 27.2752 54.0665 26.6636 54.0665C25.1646 54.0642 23.9413 52.8414 23.939 51.3419C23.939 50.8164 24.0894 50.3079 24.3713 49.8694C24.5019 49.6651 24.5459 49.4229 24.4948 49.1854C24.4427 48.9479 24.3022 48.7445 24.0988 48.614C23.9522 48.5194 23.7819 48.4683 23.6083 48.4683C23.2975 48.4683 23.0114 48.6249 22.8434 48.8865C22.3709 49.6177 22.1226 50.4678 22.1226 51.3419C22.1226 52.5552 22.5946 53.6947 23.4522 54.5523C24.3108 55.4094 25.4503 55.8829 26.6636 55.8829C26.9237 55.8829 27.1371 56.0963 27.1371 56.3564C27.1385 57.5697 27.6106 58.7107 28.4677 59.5678C29.3253 60.4254 30.4648 60.8974 31.6781 60.8974C32.8914 60.8974 34.0323 60.4254 34.8894 59.5678C35.747 58.7092 36.2191 57.5697 36.2191 56.3564Z" fill="url(#paint1_linear)"/>
<path d="M68.492 50.7193C67.9906 50.7193 67.5838 51.1261 67.5838 51.6275C67.5838 52.128 67.9906 52.5357 68.492 52.5357H68.4929C69.9924 52.5395 71.2142 53.7613 71.2166 55.2603C71.2152 57.3227 70.4101 59.2649 68.947 60.7303C67.4821 62.1929 65.5399 62.9994 63.4761 62.9994C61.9771 62.9971 60.7552 61.7752 60.7515 60.2748C60.7552 58.7758 61.9771 57.553 63.4761 57.5502C64.0891 57.5493 64.6643 57.3109 65.0966 56.8795C65.5276 56.4471 65.766 55.8719 65.7674 55.2603C65.7674 54.7362 65.9159 54.2277 66.1983 53.7878C66.4698 53.3668 66.3473 52.8034 65.9273 52.5324C65.7792 52.4378 65.6099 52.3872 65.4353 52.3872C65.1255 52.3872 64.8398 52.5433 64.6714 52.8048C64.1993 53.5361 63.9496 54.3852 63.951 55.2603C63.9496 55.5209 63.7376 55.7338 63.4761 55.7338C62.2642 55.7338 61.1232 56.2064 60.2661 57.0635C59.4085 57.922 58.9365 59.0615 58.935 60.2748C58.9365 61.4886 59.4085 62.629 60.2661 63.4866C61.1232 64.3438 62.2642 64.8158 63.4761 64.8158C64.7655 64.8158 66.0157 64.5628 67.194 64.0637C68.3307 63.5822 69.3529 62.8916 70.2308 62.0136C71.1088 61.1357 71.7989 60.114 72.28 58.9768C72.7785 57.7985 73.0316 56.5488 73.033 55.2603C73.0316 54.047 72.5595 52.9065 71.7019 52.049C70.8448 51.1914 69.7053 50.7193 68.492 50.7193Z" fill="url(#paint2_linear)"/>
<path d="M48.8493 67.0831C48.8507 66.4947 48.7381 65.9204 48.5177 65.3745C48.2887 64.8102 47.9519 64.3041 47.5196 63.8727C47.3479 63.701 47.1199 63.6064 46.8777 63.6064C46.6346 63.6064 46.4071 63.701 46.2363 63.8727C45.8815 64.2265 45.8815 64.8027 46.2363 65.1565C46.7495 65.6711 47.0329 66.3551 47.0343 67.0831C47.0329 67.812 46.7495 68.496 46.2363 69.0107C45.7216 69.5244 45.0372 69.8077 44.3097 69.8077C43.5807 69.8077 42.8963 69.5229 42.3816 69.0097C40.9238 67.5504 40.1211 65.6011 40.1196 63.5203C40.1196 61.4607 40.9238 59.5233 42.3816 58.0649C42.8963 57.5503 43.5807 57.2669 44.3083 57.266C45.0362 57.2669 45.7202 57.5503 46.2349 58.0649C46.7481 58.5786 47.0319 59.2626 47.0329 59.9915C47.0329 60.343 46.9676 60.6869 46.8366 61.01C46.6492 61.4749 46.8753 62.0057 47.3394 62.192C47.4482 62.2356 47.5622 62.2573 47.6785 62.2573C48.0513 62.2573 48.3819 62.0345 48.521 61.6883C48.7391 61.1471 48.8493 60.5767 48.8493 59.9915C48.8507 59.4031 48.7381 58.8279 48.5163 58.283C48.2873 57.7177 47.9519 57.2125 47.5196 56.7802C47.0877 56.3483 46.5825 56.0125 46.0182 55.784C45.4733 55.5622 44.8995 55.4496 44.3106 55.4496H44.3059C43.7174 55.4496 43.1432 55.5622 42.5983 55.784C42.034 56.013 41.5292 56.3483 41.0969 56.7802C40.1887 57.6884 39.4839 58.7494 39.0047 59.9315C38.5383 61.0767 38.3018 62.2843 38.3032 63.5208C38.3018 64.7643 38.5369 65.9762 38.9995 67.1242C39.4806 68.3158 40.1863 69.3825 41.0983 70.2944C41.5302 70.7268 42.0354 71.0622 42.5987 71.2911C43.1446 71.5129 43.7189 71.6241 44.3059 71.6241H44.312C44.8995 71.6241 45.4733 71.5129 46.0196 71.2911C46.5825 71.0622 47.0877 70.7268 47.5201 70.2944C47.9524 69.8621 48.2892 69.356 48.5177 68.7916C48.7381 68.2453 48.8507 67.6715 48.8493 67.0831Z" fill="url(#paint3_linear)"/>
<path d="M41.7118 41.9318C41.2799 42.3637 40.9431 42.8703 40.7142 43.4342C40.4928 43.9791 40.3812 44.5543 40.3826 45.1427C40.3812 45.7302 40.4928 46.3054 40.7142 46.8517C40.9431 47.4161 41.2785 47.9208 41.7118 48.3545C42.1442 48.7864 42.6479 49.1208 43.2122 49.3507C43.7572 49.5711 44.3309 49.6837 44.9184 49.6837H44.9269C45.5144 49.6837 46.0882 49.5711 46.6331 49.3507C47.1974 49.1208 47.7026 48.7864 48.1336 48.3545L54.394 42.0936C54.8264 41.6613 55.1617 41.1566 55.3907 40.5922C55.612 40.0459 55.7237 39.4707 55.7237 38.8837C55.7237 38.2952 55.612 37.72 55.3907 37.1751C55.1617 36.6094 54.8264 36.1047 54.394 35.6723C54.2223 35.5001 53.9948 35.406 53.7512 35.406C53.509 35.406 53.281 35.5001 53.1093 35.6723C52.7545 36.0257 52.7545 36.6023 53.1093 36.9571C53.6225 37.4703 53.9058 38.1547 53.9073 38.8837C53.9058 39.6117 53.6225 40.2957 53.1093 40.8103L46.8503 47.0693C46.3356 47.583 45.6511 47.8664 44.9236 47.8673C44.1942 47.8664 43.5102 47.583 42.997 47.0693C42.4833 46.5547 42.199 45.8707 42.1976 45.1427C42.199 44.4138 42.4824 43.7307 42.9956 43.2161L49.256 36.9571C49.6269 36.5862 50.0914 36.3322 50.6027 36.221C51.0918 36.1141 51.4031 35.6298 51.2976 35.1406C51.2068 34.7253 50.834 34.425 50.4102 34.425C50.3459 34.425 50.2806 34.4311 50.2177 34.4458C49.3663 34.6298 48.59 35.0536 47.9713 35.6723L41.7118 41.9318Z" fill="url(#paint4_linear)"/>
<path d="M52.6117 28.7739L58.8707 35.0329C59.3031 35.4653 59.8083 35.8006 60.3712 36.0296C60.9175 36.2509 61.4913 36.3626 62.0788 36.3626H62.0849C62.6719 36.3626 63.2471 36.2509 63.7921 36.0296C64.3554 35.8006 64.8601 35.4653 65.293 35.0329C65.7262 34.6006 66.0607 34.0944 66.2906 33.5301C66.511 32.9852 66.6236 32.41 66.6221 31.8216C66.6236 31.2331 66.511 30.6589 66.2906 30.113C66.0616 29.5487 65.7262 29.0449 65.2939 28.6126C65.2939 28.6116 65.2939 28.6116 65.293 28.6116C65.1208 28.4395 64.8932 28.3449 64.6511 28.3449C64.4075 28.3449 64.1799 28.4395 64.0078 28.6116C63.6544 28.965 63.6544 29.5416 64.0078 29.8949C64.5224 30.4096 64.8057 31.0941 64.8057 31.8216C64.8057 32.5505 64.5224 33.235 64.0078 33.7482C63.4945 34.2614 62.8101 34.5452 62.0826 34.5462C61.3536 34.5452 60.6692 34.2614 60.1559 33.7482L53.8955 27.4887C53.3818 26.974 53.0984 26.29 53.0975 25.5621C53.0984 24.8331 53.3818 24.1491 53.8955 23.6359C54.4087 23.1222 55.0941 22.8389 55.8245 22.8375C56.551 22.8389 57.235 23.1222 57.7487 23.6359L61.4397 27.3264C61.6114 27.4986 61.8389 27.5932 62.0826 27.5932C62.3247 27.5932 62.5527 27.4986 62.7244 27.3264C63.0783 26.9717 63.0783 26.3955 62.7244 26.0417H62.723L59.0334 22.3512C58.6011 21.9198 58.0973 21.5844 57.5344 21.3555C56.9895 21.1341 56.4153 21.021 55.8282 21.021H55.8197C55.2313 21.021 54.657 21.1327 54.1121 21.3541C53.5478 21.5835 53.0431 21.9184 52.6107 22.3521C52.1784 22.7845 51.843 23.2892 51.6141 23.8535C51.3927 24.3998 51.2811 24.975 51.2811 25.5621C51.2811 26.1505 51.3927 26.7248 51.6141 27.2706C51.8426 27.8354 52.1784 28.3401 52.6117 28.7739Z" fill="url(#paint5_linear)"/>
<path d="M24.7246 41.2012C26.2269 41.2012 27.4492 39.9789 27.4492 38.4766C27.4492 36.9743 26.2269 35.752 24.7246 35.752C23.2223 35.752 22 36.9743 22 38.4766C22 39.9789 23.2223 41.2012 24.7246 41.2012ZM24.7246 37.5684C25.2255 37.5684 25.6328 37.9761 25.6328 38.4766C25.6328 38.9775 25.2255 39.3848 24.7246 39.3848C24.2237 39.3848 23.8164 38.9775 23.8164 38.4766C23.8164 37.9761 24.2237 37.5684 24.7246 37.5684Z" fill="url(#paint6_linear)"/>
<path d="M46.5229 21.8253C48.0253 21.8253 49.2476 20.6025 49.2476 19.1007C49.2476 17.5984 48.0253 16.3761 46.5229 16.3761C45.0206 16.3761 43.7983 17.5984 43.7983 19.1007C43.7983 20.6025 45.0206 21.8253 46.5229 21.8253ZM46.5229 18.1925C47.0239 18.1925 47.4312 18.5998 47.4312 19.1007C47.4312 19.6012 47.0239 20.0089 46.5229 20.0089C46.022 20.0089 45.6147 19.6012 45.6147 19.1007C45.6147 18.5998 46.022 18.1925 46.5229 18.1925Z" fill="url(#paint7_linear)"/>
<path d="M73.5343 39.9959C75.0366 39.9959 76.2589 38.7736 76.2589 37.2713C76.2589 35.769 75.0366 34.5467 73.5343 34.5467C72.032 34.5467 70.8097 35.769 70.8097 37.2713C70.8097 38.7736 72.032 39.9959 73.5343 39.9959ZM73.5343 36.3631C74.0352 36.3631 74.4425 36.7704 74.4425 37.2713C74.4425 37.7722 74.0352 38.1795 73.5343 38.1795C73.0334 38.1795 72.6261 37.7722 72.6261 37.2713C72.6261 36.7704 73.0338 36.3631 73.5343 36.3631Z" fill="url(#paint8_linear)"/>
<path d="M58.6332 64.8162C57.1309 64.8162 55.9086 66.0385 55.9086 67.5408C55.9086 69.0431 57.1309 70.2654 58.6332 70.2654C60.1355 70.2654 61.3578 69.0431 61.3578 67.5408C61.3578 66.0385 60.1355 64.8162 58.6332 64.8162ZM58.6332 68.449C58.1323 68.449 57.725 68.0417 57.725 67.5408C57.725 67.0399 58.1323 66.6326 58.6332 66.6326C59.1337 66.6326 59.5414 67.0399 59.5414 67.5408C59.5414 68.0417 59.1337 68.449 58.6332 68.449Z" fill="url(#paint9_linear)"/>
<path d="M60.4695 45.1371C60.4695 43.6347 59.2472 42.4124 57.7449 42.4124C56.2426 42.4124 55.0203 43.6347 55.0203 45.1371C55.0203 46.6394 56.2426 47.8617 57.7449 47.8617C59.2472 47.8617 60.4695 46.6394 60.4695 45.1371ZM57.7449 46.0453C57.2444 46.0453 56.8367 45.638 56.8367 45.1371C56.8367 44.6361 57.2444 44.2289 57.7449 44.2289C58.2458 44.2289 58.6531 44.6361 58.6531 45.1371C58.6531 45.638 58.2458 46.0453 57.7449 46.0453Z" fill="url(#paint10_linear)"/>
<path d="M34.4126 62.3943C32.9102 62.3943 31.6879 63.6166 31.6879 65.1189C31.6879 66.6212 32.9102 67.8435 34.4126 67.8435C35.9149 67.8435 37.1372 66.6212 37.1372 65.1189C37.1372 63.6166 35.9149 62.3943 34.4126 62.3943ZM34.4126 66.0271C33.9116 66.0271 33.5044 65.6199 33.5044 65.1189C33.5044 64.618 33.9116 64.2107 34.4126 64.2107C34.9135 64.2107 35.3208 64.618 35.3208 65.1189C35.3208 65.6199 34.9135 66.0271 34.4126 66.0271Z" fill="url(#paint11_linear)"/>
<path d="M74.7884 42.4124C71.9034 42.4124 69.5563 44.7596 69.5563 47.6446C69.5563 49.1469 70.7786 50.3692 72.2809 50.3692C73.7127 50.3692 74.8906 49.2585 74.9975 47.8536C76.4023 47.7463 77.513 46.5689 77.513 45.1371C77.513 43.6347 76.2907 42.4124 74.7884 42.4124ZM74.7884 46.0453C73.9062 46.0453 73.1891 46.7628 73.1891 47.6446C73.1891 48.1455 72.7818 48.5528 72.2809 48.5528C71.78 48.5528 71.3727 48.1455 71.3727 47.6446C71.3727 45.761 72.9048 44.2289 74.7884 44.2289C75.2888 44.2289 75.6966 44.6361 75.6966 45.1371C75.6966 45.638 75.2888 46.0453 74.7884 46.0453Z" fill="url(#paint12_linear)"/>
<path d="M57.5827 60.2655C57.5827 58.7631 56.3604 57.5409 54.858 57.5409C53.4262 57.5409 52.2489 58.651 52.1415 60.0559C50.7366 60.1633 49.6264 61.3406 49.6264 62.773C49.6264 64.2753 50.8487 65.4976 52.351 65.4976C55.236 65.4976 57.5827 63.1504 57.5827 60.2655ZM51.4428 62.773C51.4428 62.272 51.8501 61.8647 52.351 61.8647C53.2327 61.8647 53.9498 61.1472 53.9498 60.2655C53.9498 59.7645 54.3576 59.3573 54.858 59.3573C55.359 59.3573 55.7663 59.7645 55.7663 60.2655C55.7663 62.1486 54.2341 63.6812 52.351 63.6812C51.8501 63.6812 51.4428 63.2734 51.4428 62.773Z" fill="url(#paint13_linear)"/>
<path d="M37.0941 39.4136C36.0317 38.3512 34.3033 38.3512 33.2409 39.4136C31.2012 41.4538 31.2012 44.773 33.2409 46.8126C33.7725 47.3438 34.4698 47.6097 35.1675 47.6097C35.8657 47.6097 36.5629 47.3438 37.0941 46.8126C38.1068 45.7999 38.1541 44.1822 37.2365 43.1131C38.1541 42.0441 38.1068 40.4259 37.0941 39.4136ZM35.8098 45.5284C35.6381 45.7001 35.4101 45.7942 35.1675 45.7942C34.9248 45.7942 34.6968 45.7001 34.5256 45.5284C33.1936 44.1963 33.1936 42.0294 34.5251 40.6979C34.6968 40.5262 34.9248 40.432 35.1675 40.432C35.4101 40.432 35.6381 40.5262 35.8094 40.6979C36.1637 41.0522 36.1637 41.6283 35.8094 41.9821C35.5081 42.2839 35.3415 42.686 35.3415 43.1131C35.3415 43.5403 35.5081 43.9419 35.8098 44.2436C36.1637 44.5979 36.1637 45.1741 35.8098 45.5284Z" fill="url(#paint14_linear)"/>
<path d="M62.2229 40.3733C61.7083 40.8874 61.4249 41.5719 61.4249 42.2999C61.4249 43.0274 61.7083 43.7114 62.2229 44.226C62.7376 44.7407 63.4216 45.0245 64.1495 45.0245C64.8775 45.0245 65.5615 44.7407 66.0762 44.226L69.2061 41.0965C69.7208 40.5819 70.0041 39.8974 70.0041 39.1699C70.0041 38.4419 69.7208 37.7579 69.2061 37.2433C68.6915 36.7286 68.0075 36.4453 67.2795 36.4453C66.5515 36.4453 65.8676 36.7286 65.3529 37.2433L62.2229 40.3733ZM67.2795 38.2617C67.5222 38.2617 67.7502 38.3558 67.9214 38.5275C68.0927 38.6992 68.1877 38.9272 68.1877 39.1699C68.1877 39.4121 68.0931 39.6405 67.9214 39.8118L64.7919 42.9418C64.6202 43.1135 64.3922 43.2081 64.1495 43.2081C63.9069 43.2081 63.6789 43.1135 63.5072 42.9418C63.3359 42.7705 63.2413 42.5421 63.2413 42.2999C63.2413 42.0572 63.3359 41.8287 63.5072 41.6575L66.6372 38.5275C66.8089 38.3563 67.0369 38.2617 67.2795 38.2617Z" fill="url(#paint15_linear)"/>
<path d="M54.0052 48.8098C53.4905 48.2952 52.8061 48.0118 52.0786 48.0118C51.3506 48.0118 50.6661 48.2952 50.1519 48.8098C49.6373 49.3245 49.354 50.0085 49.354 50.7364C49.354 51.4644 49.6373 52.1484 50.1519 52.6631L53.2815 55.7931C53.7961 56.3072 54.4806 56.5906 55.2081 56.5906C55.9361 56.5906 56.6205 56.3072 57.1347 55.7926C57.6494 55.2784 57.9327 54.5939 57.9327 53.866C57.9327 53.1385 57.6494 52.454 57.1347 51.9393L54.0052 48.8098ZM55.8504 54.5083C55.6787 54.6796 55.4507 54.7742 55.2081 54.7742C54.9654 54.7742 54.7374 54.6796 54.5662 54.5083L51.4362 51.3783C51.2645 51.2071 51.1699 50.9786 51.1699 50.7364C51.1699 50.4938 51.2645 50.2653 51.4362 50.0941C51.6074 49.9224 51.8359 49.8282 52.0781 49.8282C52.3208 49.8282 52.5487 49.9224 52.7205 50.0941L55.8504 53.2241C56.0217 53.3953 56.1163 53.6233 56.1163 53.866C56.1163 54.1086 56.0217 54.3366 55.8504 54.5083Z" fill="url(#paint16_linear)"/>
<path d="M25.7388 31.7936C25.7388 32.2955 25.332 32.7018 24.8306 32.7018C24.3292 32.7018 23.9224 32.2955 23.9224 31.7936C23.9224 31.2922 24.3292 30.8854 24.8306 30.8854C25.332 30.8854 25.7388 31.2922 25.7388 31.7936Z" fill="url(#paint17_linear)"/>
<path d="M39.0601 19.6838C39.0601 20.1852 38.6533 20.592 38.1519 20.592C37.65 20.592 37.2437 20.1852 37.2437 19.6838C37.2437 19.1824 37.65 18.7756 38.1519 18.7756C38.6533 18.7756 39.0601 19.1824 39.0601 19.6838Z" fill="url(#paint18_linear)"/>
<path d="M70.4645 28.692C70.4645 29.1939 70.0577 29.6003 69.5563 29.6003C69.0544 29.6003 68.6481 29.1939 68.6481 28.692C68.6481 28.1906 69.0544 27.7838 69.5563 27.7838C70.0577 27.7838 70.4645 28.1906 70.4645 28.692Z" fill="url(#paint19_linear)"/>
<path d="M62.4737 21.1975C62.4737 21.6994 62.0673 22.1057 61.5655 22.1057C61.0641 22.1057 60.6573 21.6994 60.6573 21.1975C60.6573 20.6961 61.0641 20.2893 61.5655 20.2893C62.0673 20.2893 62.4737 20.6961 62.4737 21.1975Z" fill="url(#paint20_linear)"/>
<path d="M46.9316 32.0968C46.9316 32.5982 46.5248 33.005 46.0234 33.005C45.5216 33.005 45.1152 32.5982 45.1152 32.0968C45.1152 31.595 45.5216 31.1886 46.0234 31.1886C46.5248 31.1886 46.9316 31.595 46.9316 32.0968Z" fill="url(#paint21_linear)"/>
<path d="M49.853 13.9082C49.853 14.4096 49.4467 14.8164 48.9448 14.8164C48.4434 14.8164 48.0366 14.4096 48.0366 13.9082C48.0366 13.4068 48.4434 13 48.9448 13C49.4467 13 49.853 13.4068 49.853 13.9082Z" fill="url(#paint22_linear)"/>
<path d="M49.853 74.0918C49.853 74.5932 49.4467 75 48.9448 75C48.4434 75 48.0366 74.5932 48.0366 74.0918C48.0366 73.5904 48.4434 73.1836 48.9448 73.1836C49.4467 73.1836 49.853 73.5904 49.853 74.0918Z" fill="url(#paint23_linear)"/>
<path d="M52.9863 69.6383C52.9863 70.1397 52.58 70.5465 52.0781 70.5465C51.5767 70.5465 51.1699 70.1397 51.1699 69.6383C51.1699 69.1364 51.5767 68.7301 52.0781 68.7301C52.58 68.7301 52.9863 69.1364 52.9863 69.6383Z" fill="url(#paint24_linear)"/>
<path d="M39.9683 55.3795C39.9683 55.8809 39.5615 56.2877 39.0601 56.2877C38.5582 56.2877 38.1519 55.8809 38.1519 55.3795C38.1519 54.8781 38.5582 54.4713 39.0601 54.4713C39.5615 54.4713 39.9683 54.8781 39.9683 55.3795Z" fill="url(#paint25_linear)"/>
<defs>
<linearGradient id="paint0_linear" x1="49.7631" y1="13" x2="50.0793" y2="75.1275" gradientUnits="userSpaceOnUse">
<stop stop-color="#014982"/>
<stop offset="1" stop-color="#00A9CB"/>
</linearGradient>
<linearGradient id="paint1_linear" x1="49.7631" y1="13" x2="50.0793" y2="75.1275" gradientUnits="userSpaceOnUse">
<stop stop-color="#014982"/>
<stop offset="1" stop-color="#00A9CB"/>
</linearGradient>
<linearGradient id="paint2_linear" x1="49.7631" y1="13" x2="50.0793" y2="75.1275" gradientUnits="userSpaceOnUse">
<stop stop-color="#014982"/>
<stop offset="1" stop-color="#00A9CB"/>
</linearGradient>
<linearGradient id="paint3_linear" x1="49.7631" y1="13" x2="50.0793" y2="75.1275" gradientUnits="userSpaceOnUse">
<stop stop-color="#014982"/>
<stop offset="1" stop-color="#00A9CB"/>
</linearGradient>
<linearGradient id="paint4_linear" x1="49.7631" y1="13" x2="50.0793" y2="75.1275" gradientUnits="userSpaceOnUse">
<stop stop-color="#014982"/>
<stop offset="1" stop-color="#00A9CB"/>
</linearGradient>
<linearGradient id="paint5_linear" x1="49.7631" y1="13" x2="50.0793" y2="75.1275" gradientUnits="userSpaceOnUse">
<stop stop-color="#014982"/>
<stop offset="1" stop-color="#00A9CB"/>
</linearGradient>
<linearGradient id="paint6_linear" x1="49.7631" y1="13" x2="50.0793" y2="75.1275" gradientUnits="userSpaceOnUse">
<stop stop-color="#014982"/>
<stop offset="1" stop-color="#00A9CB"/>
</linearGradient>
<linearGradient id="paint7_linear" x1="49.7631" y1="13" x2="50.0793" y2="75.1275" gradientUnits="userSpaceOnUse">
<stop stop-color="#014982"/>
<stop offset="1" stop-color="#00A9CB"/>
</linearGradient>
<linearGradient id="paint8_linear" x1="49.7631" y1="13" x2="50.0793" y2="75.1275" gradientUnits="userSpaceOnUse">
<stop stop-color="#014982"/>
<stop offset="1" stop-color="#00A9CB"/>
</linearGradient>
<linearGradient id="paint9_linear" x1="49.7631" y1="13" x2="50.0793" y2="75.1275" gradientUnits="userSpaceOnUse">
<stop stop-color="#014982"/>
<stop offset="1" stop-color="#00A9CB"/>
</linearGradient>
<linearGradient id="paint10_linear" x1="49.7631" y1="13" x2="50.0793" y2="75.1275" gradientUnits="userSpaceOnUse">
<stop stop-color="#014982"/>
<stop offset="1" stop-color="#00A9CB"/>
</linearGradient>
<linearGradient id="paint11_linear" x1="49.7631" y1="13" x2="50.0793" y2="75.1275" gradientUnits="userSpaceOnUse">
<stop stop-color="#014982"/>
<stop offset="1" stop-color="#00A9CB"/>
</linearGradient>
<linearGradient id="paint12_linear" x1="49.7631" y1="13" x2="50.0793" y2="75.1275" gradientUnits="userSpaceOnUse">
<stop stop-color="#014982"/>
<stop offset="1" stop-color="#00A9CB"/>
</linearGradient>
<linearGradient id="paint13_linear" x1="49.7631" y1="13" x2="50.0793" y2="75.1275" gradientUnits="userSpaceOnUse">
<stop stop-color="#014982"/>
<stop offset="1" stop-color="#00A9CB"/>
</linearGradient>
<linearGradient id="paint14_linear" x1="49.7631" y1="13" x2="50.0793" y2="75.1275" gradientUnits="userSpaceOnUse">
<stop stop-color="#014982"/>
<stop offset="1" stop-color="#00A9CB"/>
</linearGradient>
<linearGradient id="paint15_linear" x1="49.7631" y1="13" x2="50.0793" y2="75.1275" gradientUnits="userSpaceOnUse">
<stop stop-color="#014982"/>
<stop offset="1" stop-color="#00A9CB"/>
</linearGradient>
<linearGradient id="paint16_linear" x1="49.7631" y1="13" x2="50.0793" y2="75.1275" gradientUnits="userSpaceOnUse">
<stop stop-color="#014982"/>
<stop offset="1" stop-color="#00A9CB"/>
</linearGradient>
<linearGradient id="paint17_linear" x1="49.7631" y1="13" x2="50.0793" y2="75.1275" gradientUnits="userSpaceOnUse">
<stop stop-color="#014982"/>
<stop offset="1" stop-color="#00A9CB"/>
</linearGradient>
<linearGradient id="paint18_linear" x1="49.7631" y1="13" x2="50.0793" y2="75.1275" gradientUnits="userSpaceOnUse">
<stop stop-color="#014982"/>
<stop offset="1" stop-color="#00A9CB"/>
</linearGradient>
<linearGradient id="paint19_linear" x1="49.7631" y1="13" x2="50.0793" y2="75.1275" gradientUnits="userSpaceOnUse">
<stop stop-color="#014982"/>
<stop offset="1" stop-color="#00A9CB"/>
</linearGradient>
<linearGradient id="paint20_linear" x1="49.7631" y1="13" x2="50.0793" y2="75.1275" gradientUnits="userSpaceOnUse">
<stop stop-color="#014982"/>
<stop offset="1" stop-color="#00A9CB"/>
</linearGradient>
<linearGradient id="paint21_linear" x1="49.7631" y1="13" x2="50.0793" y2="75.1275" gradientUnits="userSpaceOnUse">
<stop stop-color="#014982"/>
<stop offset="1" stop-color="#00A9CB"/>
</linearGradient>
<linearGradient id="paint22_linear" x1="49.7631" y1="13" x2="50.0793" y2="75.1275" gradientUnits="userSpaceOnUse">
<stop stop-color="#014982"/>
<stop offset="1" stop-color="#00A9CB"/>
</linearGradient>
<linearGradient id="paint23_linear" x1="49.7631" y1="13" x2="50.0793" y2="75.1275" gradientUnits="userSpaceOnUse">
<stop stop-color="#014982"/>
<stop offset="1" stop-color="#00A9CB"/>
</linearGradient>
<linearGradient id="paint24_linear" x1="49.7631" y1="13" x2="50.0793" y2="75.1275" gradientUnits="userSpaceOnUse">
<stop stop-color="#014982"/>
<stop offset="1" stop-color="#00A9CB"/>
</linearGradient>
<linearGradient id="paint25_linear" x1="49.7631" y1="13" x2="50.0793" y2="75.1275" gradientUnits="userSpaceOnUse">
<stop stop-color="#014982"/>
<stop offset="1" stop-color="#00A9CB"/>
</linearGradient>
</defs>
</svg>
