<svg width="71" height="88" viewBox="0 0 71 88" fill="none" xmlns="http://www.w3.org/2000/svg">
<path d="M31.9334 3.53381C39.9333 -2.86628 48.9334 0.867144 52.4334 3.53381C57.4338 7.34368 57.0337 12.1337 63.4337 16.5337C69.8337 20.9337 69.9338 26.5339 67.9337 35.0337C65.4338 44.0339 59.8337 52.4337 65.4337 58.0337C71.0337 63.6337 71.4338 68.5339 67.9337 76.0339C60.4338 88.5339 48.6334 90.7337 33.4337 83.5337C18.234 76.3337 10.2435 70.7483 5.43337 63.5337C-1.56711 53.0339 -0.473024 41.3871 1.43337 35.0337C2.93359 30.0339 5.43382 25.5339 13.9337 23.5339C22.2574 21.5754 25.4338 8.03394 31.9334 3.53381Z" fill="#E9F1FB"/>
<path d="M40.293 23.5957C41.7953 23.5957 43.0176 22.3734 43.0176 20.8711C43.0176 19.3688 41.7953 18.1465 40.293 18.1465C38.7906 18.1465 37.5684 19.3688 37.5684 20.8711C37.5684 22.3734 38.7906 23.5957 40.293 23.5957ZM40.293 19.9629C40.7939 19.9629 41.2012 20.3702 41.2012 20.8711C41.2012 21.372 40.7939 21.7793 40.293 21.7793C39.792 21.7793 39.3848 21.372 39.3848 20.8711C39.3848 20.3702 39.792 19.9629 40.293 19.9629Z" fill="url(#paint0_linear)"/>
<path d="M60.8789 24.2012C60.8789 24.7026 60.4721 25.1094 59.9707 25.1094C59.4693 25.1094 59.0625 24.7026 59.0625 24.2012C59.0625 23.6998 59.4693 23.293 59.9707 23.293C60.4721 23.293 60.8789 23.6998 60.8789 24.2012Z" fill="url(#paint1_linear)"/>
<path d="M43.9258 13.9082C43.9258 14.4096 43.519 14.8164 43.0176 14.8164C42.5162 14.8164 42.1094 14.4096 42.1094 13.9082C42.1094 13.4068 42.5162 13 43.0176 13C43.519 13 43.9258 13.4068 43.9258 13.9082Z" fill="url(#paint2_linear)"/>
<path d="M31.8164 26.0176C31.8164 26.519 31.4096 26.9258 30.9082 26.9258C30.4068 26.9258 30 26.519 30 26.0176C30 25.5162 30.4068 25.1094 30.9082 25.1094C31.4096 25.1094 31.8164 25.5162 31.8164 26.0176Z" fill="url(#paint3_linear)"/>
<path d="M68.1445 27.834C68.1445 28.3354 67.7377 28.7422 67.2363 28.7422C66.7349 28.7422 66.3281 28.3354 66.3281 27.834C66.3281 27.3326 66.7349 26.9258 67.2363 26.9258C67.7377 26.9258 68.1445 27.3326 68.1445 27.834Z" fill="url(#paint4_linear)"/>
<path d="M55.7372 43.7966V39.5124C56.9278 39.2471 57.9008 38.1851 57.8625 36.7268C57.7953 35.286 56.5744 34.1309 55.0891 34.1309H45.799C45.3397 34.1309 44.8983 34.2439 44.5057 34.4568C43.3823 32.7435 45.7971 31.157 46.947 32.673C47.2824 33.121 47.8032 33.3887 48.3419 33.3887H48.359C48.8263 33.3887 49.2837 33.1862 49.6158 32.8338C50.8277 31.5623 52.4624 30.8613 54.2183 30.8613H54.2211C57.6865 30.8613 60.4754 33.5751 60.571 37.0385V43.764C60.571 44.0662 60.7181 44.3368 60.9523 44.5052C61.4598 44.8671 61.8113 45.377 61.9674 45.9801C62.0705 46.3821 62.4323 46.6631 62.8462 46.6631C62.9229 46.6631 62.999 46.6532 63.0728 46.6338C63.5586 46.5094 63.8514 46.0127 63.7265 45.5283V45.5269C63.5075 44.6731 63.0449 43.9139 62.3874 43.3278V36.9997C62.2687 32.5916 58.6685 29.0449 54.2183 29.0449C51.9478 29.0449 49.8566 29.9754 48.3552 31.525C47.7157 30.7119 46.71 30.2076 45.571 30.2596L45.57 30.2606C44.721 30.3069 43.9301 30.6702 43.3416 31.2852C42.7522 31.9006 42.4225 32.708 42.4117 33.5594V33.5656C42.4117 33.5656 42.3005 34.6384 43.2688 35.8437C43.142 36.1615 43.0744 36.5031 43.0744 36.8555C43.0744 38.1605 43.9854 39.2414 45.2011 39.5124L45.1963 43.7985C38.7533 46.0397 34.4247 52.1303 34.4242 58.9546C34.4242 67.8039 41.6175 75 50.4691 75H50.5216C59.3397 74.9721 66.5145 67.7741 66.5145 58.9551C66.5145 52.1322 62.1769 46.0373 55.7372 43.7966ZM50.5155 73.1836C50.4999 73.1836 50.4852 73.1836 50.4696 73.1836C42.6245 73.1831 36.2406 66.8025 36.2411 58.9546C36.2411 52.9028 40.0797 47.5013 45.7933 45.5137C46.526 45.2587 47.0184 44.569 47.0184 43.7971V39.5801H48.6314C48.64 39.5801 48.648 39.5815 48.6541 39.5801C49.1546 39.5787 49.5614 39.1719 49.5614 38.6719C49.5614 38.1705 49.1546 37.7637 48.6532 37.7637H45.799C45.299 37.7623 44.8917 37.3555 44.8908 36.8555C44.8917 36.3555 45.299 35.9487 45.799 35.9473H55.0891C55.5887 35.9473 56.0484 36.3314 56.0484 36.8555C56.047 37.3555 55.6402 37.7623 55.1402 37.7637H52.287C51.787 37.7637 51.3788 38.1705 51.3788 38.6719C51.3788 39.1733 51.787 39.5801 52.287 39.5801H53.9208V43.7966C53.9208 44.569 54.4137 45.2592 55.1478 45.5146C60.8439 47.4966 64.6981 52.8971 64.6981 58.9551C64.6981 66.776 58.336 73.159 50.5155 73.1836Z" fill="url(#paint5_linear)"/>
<path d="M39.887 34.4303C40.3823 34.3518 40.7205 33.8868 40.642 33.3911C40.5635 32.8958 40.0985 32.5571 39.6028 32.6361C37.7892 32.9233 36.0802 31.6816 35.793 29.8685C35.5059 28.0544 36.7476 26.3454 38.5612 26.0583C40.3747 25.7716 42.0838 27.0128 42.3709 28.8259C42.4494 29.3217 42.9144 29.6603 43.4101 29.5809C43.9058 29.5028 44.2436 29.0374 44.1651 28.5421C43.7214 25.739 41.0791 23.8195 38.2769 24.2641C35.4742 24.7078 33.5552 27.3492 33.9989 30.1523C34.4435 32.9592 37.0886 34.874 39.887 34.4303Z" fill="url(#paint6_linear)"/>
<path d="M49.9805 27.2285C53.486 27.2285 56.3379 24.3767 56.3379 20.8711C56.3379 17.3655 53.486 14.5137 49.9805 14.5137C46.4749 14.5137 43.623 17.3655 43.623 20.8711C43.623 24.3767 46.4749 27.2285 49.9805 27.2285ZM49.9805 16.3301C52.4842 16.3301 54.5215 18.3669 54.5215 20.8711C54.5215 23.3753 52.4846 25.4121 49.9805 25.4121C47.4763 25.4121 45.4395 23.3753 45.4395 20.8711C45.4395 18.3669 47.4763 16.3301 49.9805 16.3301Z" fill="url(#paint7_linear)"/>
<path d="M52.3148 55.6179C51.944 55.9556 51.9175 56.5299 52.2552 56.9007C52.593 57.2716 53.1677 57.2981 53.5386 56.9603C54.9567 55.668 55.9973 55.1406 57.1297 55.1406C59.2844 55.1406 61.0402 56.8813 61.0648 59.0303C61.0473 61.3826 59.1983 63.0117 57.1297 63.0117C52.2704 63.0117 49.8324 53.3242 43.8094 53.3242C42.2981 53.3242 40.8705 53.906 39.7902 54.9623C38.6738 56.0536 37.9988 57.5672 38.0646 59.3619C38.2817 66.0523 43.7952 71.3885 50.5098 71.3672C57.3223 71.3454 62.8817 65.7874 62.8817 58.9551C62.8817 56.0517 60.4054 53.3242 57.1297 53.3242C55.1052 53.3242 53.5594 54.4836 52.3148 55.6179ZM50.4696 69.5508C44.5587 69.5503 39.9463 64.8409 39.8739 59.0842C39.9496 56.6964 41.8076 55.1406 43.8094 55.1406C48.6811 55.1406 51.0973 64.8281 57.1297 64.8281C58.0304 64.8281 58.8828 64.62 59.6424 64.2496C57.8289 67.3768 54.4463 69.5371 50.4696 69.5508Z" fill="url(#paint8_linear)"/>
<path d="M44.1122 59.5605C44.1122 60.062 43.7054 60.4688 43.204 60.4688C42.7021 60.4688 42.2958 60.062 42.2958 59.5605C42.2958 59.0591 42.7021 58.6523 43.204 58.6523C43.7054 58.6523 44.1122 59.0591 44.1122 59.5605Z" fill="url(#paint9_linear)"/>
<path d="M49.5614 62.5879C49.5614 63.0893 49.1546 63.4961 48.6532 63.4961C48.1513 63.4961 47.745 63.0893 47.745 62.5879C47.745 62.0865 48.1513 61.6797 48.6532 61.6797C49.1546 61.6797 49.5614 62.0865 49.5614 62.5879Z" fill="url(#paint10_linear)"/>
<path d="M45.3231 64.4043C45.3231 64.9057 44.9163 65.3125 44.4149 65.3125C43.913 65.3125 43.5067 64.9057 43.5067 64.4043C43.5067 63.9029 43.913 63.4961 44.4149 63.4961C44.9163 63.4961 45.3231 63.9029 45.3231 64.4043Z" fill="url(#paint11_linear)"/>
<defs>
<linearGradient id="paint0_linear" x1="49.0768" y1="13" x2="49.537" y2="75.1257" gradientUnits="userSpaceOnUse">
<stop stop-color="#014982"/>
<stop offset="1" stop-color="#00A9CB"/>
</linearGradient>
<linearGradient id="paint1_linear" x1="49.0768" y1="13" x2="49.537" y2="75.1257" gradientUnits="userSpaceOnUse">
<stop stop-color="#014982"/>
<stop offset="1" stop-color="#00A9CB"/>
</linearGradient>
<linearGradient id="paint2_linear" x1="49.0768" y1="13" x2="49.537" y2="75.1257" gradientUnits="userSpaceOnUse">
<stop stop-color="#014982"/>
<stop offset="1" stop-color="#00A9CB"/>
</linearGradient>
<linearGradient id="paint3_linear" x1="49.0768" y1="13" x2="49.537" y2="75.1257" gradientUnits="userSpaceOnUse">
<stop stop-color="#014982"/>
<stop offset="1" stop-color="#00A9CB"/>
</linearGradient>
<linearGradient id="paint4_linear" x1="49.0768" y1="13" x2="49.537" y2="75.1257" gradientUnits="userSpaceOnUse">
<stop stop-color="#014982"/>
<stop offset="1" stop-color="#00A9CB"/>
</linearGradient>
<linearGradient id="paint5_linear" x1="49.0768" y1="13" x2="49.537" y2="75.1257" gradientUnits="userSpaceOnUse">
<stop stop-color="#014982"/>
<stop offset="1" stop-color="#00A9CB"/>
</linearGradient>
<linearGradient id="paint6_linear" x1="49.0768" y1="13" x2="49.537" y2="75.1257" gradientUnits="userSpaceOnUse">
<stop stop-color="#014982"/>
<stop offset="1" stop-color="#00A9CB"/>
</linearGradient>
<linearGradient id="paint7_linear" x1="49.0768" y1="13" x2="49.537" y2="75.1257" gradientUnits="userSpaceOnUse">
<stop stop-color="#014982"/>
<stop offset="1" stop-color="#00A9CB"/>
</linearGradient>
<linearGradient id="paint8_linear" x1="49.0768" y1="13" x2="49.537" y2="75.1257" gradientUnits="userSpaceOnUse">
<stop stop-color="#014982"/>
<stop offset="1" stop-color="#00A9CB"/>
</linearGradient>
<linearGradient id="paint9_linear" x1="49.0768" y1="13" x2="49.537" y2="75.1257" gradientUnits="userSpaceOnUse">
<stop stop-color="#014982"/>
<stop offset="1" stop-color="#00A9CB"/>
</linearGradient>
<linearGradient id="paint10_linear" x1="49.0768" y1="13" x2="49.537" y2="75.1257" gradientUnits="userSpaceOnUse">
<stop stop-color="#014982"/>
<stop offset="1" stop-color="#00A9CB"/>
</linearGradient>
<linearGradient id="paint11_linear" x1="49.0768" y1="13" x2="49.537" y2="75.1257" gradientUnits="userSpaceOnUse">
<stop stop-color="#014982"/>
<stop offset="1" stop-color="#00A9CB"/>
</linearGradient>
</defs>
</svg>
