<svg width="80" height="88" viewBox="0 0 80 88" fill="none" xmlns="http://www.w3.org/2000/svg">
<path d="M31.9334 3.53381C39.9333 -2.86628 48.9334 0.867144 52.4334 3.53381C57.4338 7.34368 57.0337 12.1337 63.4337 16.5337C69.8337 20.9337 69.9338 26.5339 67.9337 35.0337C65.4338 44.0339 59.8337 52.4337 65.4337 58.0337C71.0337 63.6337 71.4338 68.5339 67.9337 76.0339C60.4338 88.5339 48.6334 90.7337 33.4337 83.5337C18.234 76.3337 10.2435 70.7483 5.43337 63.5337C-1.56711 53.0339 -0.473024 41.3871 1.43337 35.0337C2.93359 30.0339 5.43382 25.5339 13.9337 23.5339C22.2574 21.5754 25.4338 8.03394 31.9334 3.53381Z" fill="#E9F1FB"/>
<g clip-path="url(#clip0)">
<path d="M67.8371 75C67.6793 75 67.5197 74.9589 67.3743 74.8726C62.9619 72.2529 60.9242 68.0517 60.4242 66.8836C57.464 65.0446 55.6122 62.5056 54.5995 60.755C53.9006 61.5132 53.2336 62.209 52.5771 62.8656C50.0534 65.3893 46.5556 66.5483 44.0659 67.0762C42.6341 67.3798 41.3996 67.5077 40.6161 67.5614C40.1211 67.5955 39.7647 67.6096 39.4996 67.6073L32.373 74.7339C32.0183 75.0886 31.4432 75.0886 31.0887 74.7339C30.734 74.3792 30.734 73.8041 31.0887 73.4496L38.5014 66.0368C38.7167 65.8215 39.0185 65.7334 39.305 65.7852C40.3595 65.8591 47.397 65.4772 51.2928 61.5812C51.9125 60.9613 52.5428 60.3046 53.2027 59.5904C51.4446 59.7488 48.6842 59.4744 46.381 57.1713L41.6441 52.4343C41.0326 53.5034 40.325 54.4423 39.5328 55.2345C39.178 55.5892 38.603 55.5893 38.2483 55.2345C37.8937 54.8798 37.8937 54.3048 38.2483 53.9501C39.0305 53.168 39.7215 52.2095 40.3064 51.0967L39.7211 50.5115C38.5606 49.3511 38.0637 48.1862 38.2437 47.0493C38.3884 46.1358 38.9656 45.3185 39.9638 44.6098C38.928 43.3978 39.1036 41.7913 40.4449 40.4499C40.9539 39.941 41.5012 39.5998 42.0505 39.4291C41.982 39.1573 41.9596 38.8776 41.9831 38.595C41.7274 37.0377 41.3148 35.4935 40.7539 33.9924C38.3921 35.0686 35.9066 34.6467 35.7733 34.623C35.2794 34.5348 34.9508 34.063 35.0389 33.5693C35.1271 33.0764 35.5972 32.748 36.0903 32.8345C36.1231 32.8402 39.4006 33.3796 41.4076 31.3726L45.9664 26.8138C47.4832 25.2969 47.2757 23.6204 46.4408 22.7047C45.909 22.1212 45.0085 21.7736 44.0763 22.5476C40.8535 25.2238 38.1496 26.4272 36.8249 26.9063C36.2639 27.1092 35.7863 27.4665 35.4438 27.9399L31.8613 32.8875C31.567 33.2938 30.9993 33.3846 30.593 33.0905C30.1868 32.7963 30.0959 32.2285 30.3901 31.8222L33.9726 26.8746C34.5296 26.1052 35.3023 25.5254 36.2073 25.1982C37.4207 24.7593 39.9057 23.6498 42.916 21.1502C44.4463 19.8798 46.4477 20.0156 47.7833 21.4809C48.3729 22.1277 48.7683 22.975 48.8756 23.9047L52.1512 20.6291C52.5061 20.2744 53.0811 20.2744 53.4357 20.6291C53.7902 20.9838 53.7904 21.5589 53.4357 21.9134L42.6921 32.6569C42.5706 32.7784 42.4464 32.8929 42.3198 33.001C42.7265 34.044 43.0664 35.1082 43.3365 36.1842C44.2829 35.3407 45.3399 35.0567 46.2884 35.3476C46.4683 34.8136 46.808 34.2894 47.2883 33.809C47.9144 33.1828 48.6152 32.7958 49.3148 32.6899C49.9128 32.5993 50.8022 32.6675 51.6418 33.5071L53.8538 35.7192C54.1847 35.1345 54.6541 34.6262 55.2244 34.2548C55.9611 33.775 56.7363 33.6097 57.3514 33.8014C57.589 33.8755 57.8353 33.9799 58.0882 34.1104L69.1113 23.0872C71.222 20.9767 71.8146 19.0492 70.6969 17.9315C70.2107 17.4453 69.587 17.2717 68.844 17.417C67.8666 17.6075 66.7246 18.3337 65.5414 19.5171L63.238 21.8203L53.3607 31.6977C53.0059 32.0523 52.4308 32.0525 52.0764 31.6977C51.7216 31.343 51.7216 30.7681 52.0763 30.4134L61.9631 20.5265C64.0662 18.4196 64.6554 16.4962 63.5393 15.3801C63.0531 14.8939 62.4297 14.7204 61.6863 14.8657C60.7089 15.0562 59.5669 15.7824 58.3836 16.9657L55.9789 19.3706C55.6241 19.7254 55.049 19.7254 54.6946 19.3707C54.3398 19.016 54.3398 18.4409 54.6945 18.0862L57.0992 15.6814C58.5598 14.2207 59.9862 13.3465 61.3389 13.0829C62.6731 12.8229 63.9106 13.1827 64.8239 14.0959C65.2021 14.4742 65.9373 15.3949 65.924 16.8098C66.8033 16.1903 67.664 15.7965 68.4967 15.6343C69.8303 15.3743 71.0683 15.7339 71.9816 16.6472C72.5856 17.2513 74.1 19.2387 72.0219 22.4135C73.4904 22.3691 74.44 23.1255 74.8263 23.5118C75.5463 24.2319 77.5599 26.9171 73.2404 31.2364L71.7992 32.6776C72.7421 32.718 73.5993 33.0909 74.2778 33.7693C75.191 34.6825 75.5508 35.9202 75.2907 37.2542C75.0269 38.6068 74.1527 40.0332 72.6922 41.4938L68.0919 46.0942C67.7371 46.4489 67.1621 46.4488 66.8074 46.0942C66.4527 45.7395 66.4527 45.1644 66.8074 44.8098L71.4077 40.2094C72.5911 39.0261 73.3174 37.884 73.5079 36.9068C73.6527 36.1634 73.4797 35.54 72.9935 35.0538C72.507 34.5675 71.8835 34.3943 71.1403 34.5394C70.1631 34.7298 69.0209 35.4561 67.8377 36.6394C67.8359 36.6411 67.8343 36.6428 67.8325 36.6445L64.092 40.3849C65.1899 42.565 65.2459 45.2952 64.294 49.1697C65.7842 49.9163 69.2216 51.942 71.6043 55.7047C72.7776 56.1933 76.998 58.1901 79.6603 62.5764C79.9205 63.0052 79.7839 63.5638 79.3551 63.824C78.9265 64.0842 78.3678 63.9477 78.1075 63.5189C75.3994 59.0572 70.7269 57.3091 70.6801 57.292C70.4863 57.2212 70.3211 57.086 70.2141 56.9097C67.4833 52.4108 62.932 50.5361 62.8863 50.5177C62.4604 50.3461 62.2299 49.8836 62.3488 49.4402C63.8085 43.9966 62.9965 41.8351 62.0097 40.4388C60.0643 37.6858 57.9324 35.8941 56.8236 35.5397C56.7261 35.532 56.4157 35.6091 56.0528 35.8939C55.852 36.0515 55.4209 36.4504 55.2267 37.0923L55.2292 37.0948L56.997 38.8625C57.65 39.5155 59.6788 40.8521 60.4055 41.312C60.8293 41.5802 60.9555 42.1413 60.6872 42.5651C60.4189 42.9889 59.858 43.1151 59.434 42.8469C59.1492 42.6667 56.6257 41.0601 55.7124 40.1468L53.6047 38.039C53.6013 38.0356 53.5977 38.0321 53.5944 38.0287L50.3574 34.7917C50.0288 34.463 49.7599 34.46 49.5869 34.4861C49.278 34.5328 48.9178 34.7486 48.5728 35.0937C48.2278 35.4387 48.012 35.7989 47.9652 36.1079C47.939 36.2812 47.942 36.5497 48.2708 36.8784L51.9922 40.5998C52.3469 40.9545 52.3469 41.5296 51.9922 41.8842C51.6374 42.2387 51.0624 42.2389 50.7077 41.8842L46.9865 38.1628L46.1923 37.3688C45.4507 36.6272 44.6656 37.4125 44.4075 37.6705C43.3643 38.7139 43.9223 39.2719 44.1056 39.4552L44.7867 40.1363C44.7907 40.1402 44.7946 40.1443 44.7988 40.1483C44.8008 40.1505 44.8029 40.1525 44.8049 40.1546L48.6213 43.9708C48.976 44.3255 48.976 44.9005 48.6213 45.2551C48.2666 45.6098 47.6915 45.6098 47.3369 45.2551L43.5078 41.426C42.7682 40.6959 41.9868 41.4772 41.7297 41.7345C40.6865 42.7779 41.2445 43.3359 41.4278 43.5192L42.0464 44.1378C42.0567 44.1476 42.0667 44.1576 42.0767 44.168L45.9326 48.024C46.2873 48.3787 46.2873 48.9537 45.9326 49.3083C45.5779 49.663 45.0028 49.663 44.6482 49.3083L41.2643 45.9245C40.6756 46.2942 40.1262 46.7794 40.0383 47.3337C39.9336 47.9943 40.5067 48.728 41.0059 49.2273L47.6657 55.8873C50.4168 58.6384 53.9 57.661 54.1293 57.5919C54.3302 57.5113 54.5547 57.5048 54.7624 57.5764C55.0191 57.6648 55.2229 57.8634 55.3177 58.1178C55.3348 58.1631 57.1285 62.8182 61.6163 65.4827C61.7945 65.5885 61.9311 65.7521 62.0036 65.9464C62.0206 65.9917 63.8143 70.6468 68.3021 73.3113C68.7334 73.5673 68.8754 74.1246 68.6194 74.5559C68.4491 74.8412 68.1471 75 67.8371 75ZM39.617 65.9037C39.6174 65.904 39.6179 65.9044 39.6184 65.9047C39.6179 65.9044 39.6174 65.904 39.617 65.9037ZM39.6153 65.9028C39.6158 65.903 39.6161 65.9033 39.6166 65.9036C39.6161 65.9033 39.6156 65.903 39.6153 65.9028ZM39.6136 65.9017C39.6139 65.9018 39.6143 65.9022 39.6147 65.9023C39.6144 65.9022 39.6139 65.9019 39.6136 65.9017ZM39.6125 65.901C39.6125 65.901 39.6126 65.9011 39.6127 65.9011C39.6126 65.9011 39.6125 65.9011 39.6125 65.901ZM53.9923 57.6598C53.9919 57.66 53.9915 57.6604 53.991 57.6606C53.9914 57.6604 53.9919 57.66 53.9923 57.6598ZM53.9939 57.6588C53.9937 57.6589 53.9934 57.6591 53.9933 57.6592C53.9934 57.6591 53.9937 57.6589 53.9939 57.6588ZM59.6226 35.1445C60.8422 36.1344 62.0817 37.4968 63.0815 38.8258L71.9558 29.9514C74.0665 27.8408 74.6593 25.9135 73.5415 24.7956C72.4238 23.6778 70.4965 24.2707 68.3859 26.3813C68.3838 26.3833 68.3819 26.3853 68.3798 26.3872L59.6226 35.1445ZM56.8295 35.5397H56.8297C56.8296 35.5397 56.8296 35.5397 56.8295 35.5397ZM19.1162 62.3852C18.8838 62.3852 18.6513 62.2965 18.474 62.1191C18.1193 61.7645 18.1193 61.1894 18.474 60.8348L25.5199 53.7888C23.687 46.4142 25.0092 39.2531 27.2386 36.1743L28.4403 34.5147C28.7345 34.1085 29.3023 34.0176 29.7086 34.3117C30.1148 34.6058 30.2057 35.1737 29.9115 35.5801L28.7098 37.2397C26.9668 39.6467 25.41 46.3849 27.406 53.8291C27.4901 54.1424 27.4005 54.477 27.171 54.7065L19.7584 62.1191C19.5811 62.2965 19.3486 62.3852 19.1162 62.3852Z" fill="url(#paint0_linear)"/>
</g>
<defs>
<linearGradient id="paint0_linear" x1="49.0074" y1="13.0005" x2="49.2925" y2="75.1278" gradientUnits="userSpaceOnUse">
<stop stop-color="#014982"/>
<stop offset="1" stop-color="#00A9CB"/>
</linearGradient>
<clipPath id="clip0">
<rect width="62" height="62" fill="white" transform="translate(18 13)"/>
</clipPath>
</defs>
</svg>
