<svg width="82" height="88" viewBox="0 0 82 88" fill="none" xmlns="http://www.w3.org/2000/svg">
<path d="M31.9334 3.53381C39.9333 -2.86628 48.9334 0.867144 52.4334 3.53381C57.4338 7.34368 57.0337 12.1337 63.4337 16.5337C69.8337 20.9337 69.9338 26.5339 67.9337 35.0337C65.4338 44.0339 59.8337 52.4337 65.4337 58.0337C71.0337 63.6337 71.4338 68.5339 67.9337 76.0339C60.4338 88.5339 48.6334 90.7337 33.4337 83.5337C18.234 76.3337 10.2435 70.7483 5.43337 63.5337C-1.56711 53.0339 -0.473024 41.3871 1.43337 35.0337C2.93359 30.0339 5.43382 25.5339 13.9337 23.5339C22.2574 21.5754 25.4338 8.03394 31.9334 3.53381Z" fill="#E9F1FB"/>
<path d="M42.199 57.8946C44.1779 57.8946 45.7876 56.2848 45.7876 54.3061V35.8977C45.7876 35.1036 45.1416 34.4576 44.3475 34.4576H40.0507C39.2566 34.4576 38.6105 35.1036 38.6105 35.8977V54.3061C38.6105 56.2848 40.2202 57.8946 42.199 57.8946ZM40.3935 36.2406H44.0046V54.3061C44.0046 55.3017 43.1946 56.1117 42.199 56.1117C41.2035 56.1117 40.3935 55.3016 40.3935 54.3061V36.2406Z" fill="url(#paint0_linear)"/>
<path d="M60.8002 57.8946C62.779 57.8946 64.3888 56.2848 64.3888 54.3061V35.8977C64.3888 35.1036 63.7428 34.4576 62.9487 34.4576H58.6518C57.8577 34.4576 57.2117 35.1036 57.2117 35.8977V48.9663C57.2117 49.4586 57.6108 49.8579 58.1033 49.8579C58.5957 49.8579 58.9947 49.4587 58.9947 48.9663V36.2406H62.6058V54.3061C62.6058 55.3017 61.7958 56.1117 60.8002 56.1117C59.8047 56.1117 58.9947 55.3016 58.9947 54.3061V53.1166C58.9947 52.6243 58.5955 52.2251 58.1033 52.2251C57.6108 52.2251 57.2117 52.6242 57.2117 53.1166V54.3061C57.2117 56.2848 58.8214 57.8946 60.8002 57.8946Z" fill="url(#paint1_linear)"/>
<path d="M78.9203 30.8127C80.6184 30.8127 82 29.4312 82 27.733V26.1101C82 24.412 80.6184 23.0304 78.9203 23.0304H67.5251V20.7082C68.4784 20.3923 69.1687 19.4941 69.1687 18.4364V15.394C69.1687 14.0739 68.0947 13 66.7745 13H54.8272C53.5068 13 52.4325 14.0743 52.4325 15.3946V18.4364C52.4325 19.4942 53.1228 20.3924 54.0762 20.7082V23.0304H48.9238V20.7082C49.8771 20.3924 50.5674 19.4941 50.5674 18.4364V15.394C50.5674 14.0739 49.4934 13 48.1734 13H36.2259C34.9055 13 33.8313 14.0743 33.8313 15.3946V18.4364C33.8313 19.4942 34.5216 20.3924 35.4749 20.7082V23.0304H24.0797C22.3816 23.0304 21 24.412 21 26.1101V27.733C21 29.4312 22.3816 30.8127 24.0797 30.8127H25.5283V63.153H24.0797C22.3816 63.153 21 64.5345 21 66.2326V70.6597C21 72.3578 22.3816 73.7393 24.0797 73.7393H78.9203C80.6184 73.7393 82 72.3578 82 70.6597V66.2326C82 64.5345 80.6184 63.153 78.9203 63.153H77.4717V30.8127H78.9203ZM54.2155 15.3946C54.2155 15.0573 54.4898 14.7829 54.8272 14.7829H66.7745C67.1115 14.7829 67.3857 15.0571 67.3857 15.394V18.4364C67.3857 18.7733 67.1116 19.0475 66.7745 19.0475H54.8266C54.4897 19.0475 54.2155 18.7733 54.2155 18.4364V15.3946ZM65.7422 20.8304V23.0304H55.8592V20.8304H65.7422ZM35.6144 15.3946C35.6144 15.0573 35.8888 14.7829 36.2261 14.7829H48.1735C48.5104 14.7829 48.7845 15.0571 48.7845 15.394V18.4364C48.7845 18.7733 48.5105 19.0475 48.1735 19.0475H36.2255C35.8885 19.0475 35.6144 18.7733 35.6144 18.4364V15.3946ZM47.1409 20.8304V23.0304H37.2579V20.8304H47.1409ZM78.9203 64.9359C79.6354 64.9359 80.2171 65.5177 80.2171 66.2326V70.6597C80.2171 71.3746 79.6354 71.9564 78.9203 71.9564H24.0797C23.3646 71.9564 22.7829 71.3746 22.7829 70.6597V66.2326C22.7829 65.5177 23.3646 64.9359 24.0797 64.9359H78.9203ZM31.0555 34.7522C31.5479 34.7522 31.947 34.3531 31.947 33.8607V30.8127H35.4751V54.8272C35.4751 58.3902 38.3739 61.2889 41.9369 61.2889H42.4622C46.0252 61.2889 48.9241 58.3901 48.9241 54.8272V30.8127H54.0764V54.8272C54.0764 58.3902 56.9751 61.2889 60.5381 61.2889H61.0635C64.6266 61.2889 67.5254 58.3901 67.5254 54.8272V30.8127H71.0534V63.153H31.947V37.9022C31.947 37.4099 31.5479 37.0107 31.0555 37.0107C30.5631 37.0107 30.1641 37.4098 30.1641 37.9022V63.153H27.3112V30.8127H30.1639V33.8607C30.1639 34.3531 30.5631 34.7522 31.0555 34.7522ZM37.2579 54.8272V30.8127H47.1409V54.8272C47.1409 57.407 45.042 59.5059 42.462 59.5059H41.9367C39.3568 59.5059 37.2579 57.407 37.2579 54.8272ZM55.8591 54.8272V30.8127H65.7421V54.8272C65.7421 57.407 63.6432 59.5059 61.0633 59.5059H60.5379C57.9581 59.5059 55.8591 57.407 55.8591 54.8272ZM72.8361 63.153V30.8127H75.6888V63.153H72.8361ZM24.0797 29.0298C23.3646 29.0298 22.7829 28.448 22.7829 27.733V26.1101C22.7829 25.3952 23.3646 24.8134 24.0797 24.8134H78.9203C79.6354 24.8134 80.2171 25.3952 80.2171 26.1101V27.733C80.2171 28.448 79.6354 29.0298 78.9203 29.0298H24.0797Z" fill="url(#paint2_linear)"/>
<defs>
<linearGradient id="paint0_linear" x1="51.5072" y1="13" x2="51.7835" y2="73.8646" gradientUnits="userSpaceOnUse">
<stop stop-color="#014982"/>
<stop offset="1" stop-color="#00A9CB"/>
</linearGradient>
<linearGradient id="paint1_linear" x1="51.5072" y1="13" x2="51.7835" y2="73.8646" gradientUnits="userSpaceOnUse">
<stop stop-color="#014982"/>
<stop offset="1" stop-color="#00A9CB"/>
</linearGradient>
<linearGradient id="paint2_linear" x1="51.5072" y1="13" x2="51.7835" y2="73.8646" gradientUnits="userSpaceOnUse">
<stop stop-color="#014982"/>
<stop offset="1" stop-color="#00A9CB"/>
</linearGradient>
</defs>
</svg>
