<svg width="78" height="88" viewBox="0 0 78 88" fill="none" xmlns="http://www.w3.org/2000/svg">
<path d="M31.9334 3.53381C39.9333 -2.86628 48.9334 0.867144 52.4334 3.53381C57.4338 7.34368 57.0337 12.1337 63.4337 16.5337C69.8337 20.9337 69.9338 26.5339 67.9337 35.0337C65.4338 44.0339 59.8337 52.4337 65.4337 58.0337C71.0337 63.6337 71.4338 68.5339 67.9337 76.0339C60.4338 88.5339 48.6334 90.7337 33.4337 83.5337C18.234 76.3337 10.2435 70.7483 5.43337 63.5337C-1.56711 53.0339 -0.473024 41.3871 1.43337 35.0337C2.93359 30.0339 5.43382 25.5339 13.9337 23.5339C22.2574 21.5754 25.4338 8.03394 31.9334 3.53381Z" fill="#E9F1FB"/>
<path d="M34.0213 43.1937H24.6127C23.96 43.1937 23.3517 42.8425 23.0252 42.2772L18.3209 34.1291C17.9944 33.5637 17.9944 32.8613 18.3209 32.2958L23.0252 24.1477C23.3518 23.5824 23.9601 23.2312 24.6128 23.2312H34.0214C34.674 23.2312 35.2825 23.5824 35.6089 24.1476L40.3132 32.2958C40.6396 32.8611 40.6396 33.5636 40.3134 34.1289L35.6091 42.277C35.2822 42.8425 34.6739 43.1937 34.0213 43.1937ZM24.6127 25.0535L19.899 33.207L24.6031 41.366L34.0212 41.3715L38.7349 33.218L34.0307 25.059L34.0213 25.0535H24.6127Z" fill="url(#paint0_linear)"/>
<path d="M70.6093 43.1937H61.2008C60.548 43.1937 59.9395 42.8425 59.6132 42.277L54.9089 34.1291C54.5826 33.5637 54.5826 32.8613 54.9088 32.296L59.6132 24.1479C59.9395 23.5825 60.5479 23.2313 61.2008 23.2313H70.6093C71.2621 23.2313 71.8706 23.5825 72.1969 24.148L76.9012 32.2959C77.2276 32.8613 77.2276 33.5637 76.9013 34.129L72.1969 42.2771C71.8706 42.8425 71.2622 43.1937 70.6093 43.1937ZM61.2009 25.0535L56.4871 33.207L61.1914 41.366L70.6093 41.3715L75.3232 33.218L70.6189 25.059L70.6094 25.0535H61.2009Z" fill="url(#paint1_linear)"/>
<path d="M52.3255 53.8342H42.9169C42.2642 53.8342 41.6559 53.4831 41.3294 52.9177L36.6251 44.7695C36.2988 44.2043 36.2988 43.5018 36.625 42.9364L41.3293 34.7883C41.6559 34.2229 42.2642 33.8718 42.9169 33.8718H52.3255C52.9781 33.8718 53.5866 34.2229 53.913 34.7882L54.8425 36.3981C55.0942 36.8339 54.9449 37.3912 54.5091 37.6427C54.0735 37.8943 53.5161 37.745 53.2645 37.3092L52.3351 35.6994L42.9171 35.6939L38.2033 43.8474L42.9075 52.0063L52.3255 52.0119L57.0393 43.8583L55.3816 40.9755C55.1301 40.5397 55.2794 39.9824 55.7154 39.7309C56.1509 39.4794 56.7083 39.6286 56.96 40.0645L58.6175 42.9363C58.9438 43.5016 58.9438 44.2042 58.6172 44.7695L53.9132 52.9173C53.5865 53.4831 52.9782 53.8342 52.3255 53.8342Z" fill="url(#paint2_linear)"/>
<path d="M52.3255 75H42.9169C42.2642 75 41.6558 74.6488 41.3294 74.0836L36.6251 65.9354C36.2988 65.3701 36.2988 64.6677 36.625 64.1023L41.3293 55.9542C41.6559 55.3888 42.2642 55.0377 42.9169 55.0377H52.3255C52.9781 55.0377 53.5866 55.3888 53.913 55.9541L58.6173 64.1022C58.9438 64.6676 58.9438 65.3702 58.6172 65.9356L53.9132 74.0835C53.5866 74.6488 52.9782 75 52.3255 75ZM42.9169 56.8598L38.2032 65.0133L42.9074 73.1722L52.3254 73.1777L57.0391 65.0242L52.335 56.8653L52.3255 56.8598H42.9169Z" fill="url(#paint3_linear)"/>
<path d="M52.3255 32.9625H42.917C42.2643 32.9625 41.6559 32.6113 41.3294 32.046L36.6251 23.8979C36.2988 23.3324 36.2988 22.6301 36.6251 22.0648L41.3293 13.9168C41.6559 13.3512 42.2643 13 42.917 13H52.3255C52.9782 13 53.5867 13.3512 53.9132 13.9164L58.6174 22.0646C58.9438 22.6298 58.9438 23.3324 58.6174 23.8979L53.9132 32.0458C53.5865 32.6113 52.9781 32.9625 52.3255 32.9625ZM42.917 14.8223L38.2032 22.9758L42.9074 31.1347L52.3254 31.1402L57.0392 22.9867L52.335 14.8278L52.3255 14.8223H42.917Z" fill="url(#paint4_linear)"/>
<path d="M33.9453 64.217H24.5367C23.8839 64.217 23.2754 63.8659 22.949 63.3004L22.1755 61.9606C21.9239 61.5248 22.0732 60.9675 22.509 60.716C22.9447 60.4643 23.502 60.6136 23.7536 61.0495L24.5271 62.3893L33.9451 62.3947L38.6589 54.2412L33.9546 46.0823L24.5367 46.0769L19.8229 54.2303L21.645 57.3971C21.8966 57.8329 21.7473 58.3902 21.3115 58.6417C20.8759 58.8935 20.3184 58.744 20.0669 58.3082L18.2448 55.1523C17.9184 54.587 17.9184 53.8845 18.2448 53.319L22.949 45.1711C23.2754 44.6057 23.8837 44.2546 24.5367 44.2546H33.9453C34.5981 44.2546 35.2064 44.6057 35.5328 45.1712L40.2371 53.3192C40.5634 53.8846 40.5634 54.5871 40.2372 55.1523L35.5328 63.3005C35.2063 63.8659 34.5981 64.217 33.9453 64.217Z" fill="url(#paint5_linear)"/>
<path d="M24.7824 54.2497C25.3195 54.2497 25.755 53.8143 25.755 53.2771C25.755 52.7399 25.3195 52.3045 24.7824 52.3045C24.2452 52.3045 23.8097 52.7399 23.8097 53.2771C23.8097 53.8143 24.2452 54.2497 24.7824 54.2497Z" fill="url(#paint6_linear)"/>
<path d="M27.6292 50.7424C28.1664 50.7424 28.6019 50.307 28.6019 49.7698C28.6019 49.2326 28.1664 48.7972 27.6292 48.7972C27.0921 48.7972 26.6566 49.2326 26.6566 49.7698C26.6566 50.307 27.0921 50.7424 27.6292 50.7424Z" fill="url(#paint7_linear)"/>
<path d="M68.5521 29.8795C69.0892 29.8795 69.5247 29.444 69.5247 28.9069C69.5247 28.3697 69.0892 27.9342 68.5521 27.9342C68.0149 27.9342 67.5794 28.3697 67.5794 28.9069C67.5794 29.444 68.0149 29.8795 68.5521 29.8795Z" fill="url(#paint8_linear)"/>
<path d="M51.7301 46.1384C52.2673 46.1384 52.7028 45.7029 52.7028 45.1658C52.7028 44.6286 52.2673 44.1932 51.7301 44.1932C51.193 44.1932 50.7575 44.6286 50.7575 45.1658C50.7575 45.7029 51.193 46.1384 51.7301 46.1384Z" fill="url(#paint9_linear)"/>
<path d="M51.0822 42.2824C51.6194 42.2824 52.0548 41.8469 52.0548 41.3098C52.0548 40.7726 51.6194 40.3372 51.0822 40.3372C50.545 40.3372 50.1096 40.7726 50.1096 41.3098C50.1096 41.8469 50.545 42.2824 51.0822 42.2824Z" fill="url(#paint10_linear)"/>
<defs>
<linearGradient id="paint0_linear" x1="47.58" y1="13" x2="47.8768" y2="75.1277" gradientUnits="userSpaceOnUse">
<stop stop-color="#014982"/>
<stop offset="1" stop-color="#00A9CB"/>
</linearGradient>
<linearGradient id="paint1_linear" x1="47.58" y1="13" x2="47.8768" y2="75.1277" gradientUnits="userSpaceOnUse">
<stop stop-color="#014982"/>
<stop offset="1" stop-color="#00A9CB"/>
</linearGradient>
<linearGradient id="paint2_linear" x1="47.58" y1="13" x2="47.8768" y2="75.1277" gradientUnits="userSpaceOnUse">
<stop stop-color="#014982"/>
<stop offset="1" stop-color="#00A9CB"/>
</linearGradient>
<linearGradient id="paint3_linear" x1="47.58" y1="13" x2="47.8768" y2="75.1277" gradientUnits="userSpaceOnUse">
<stop stop-color="#014982"/>
<stop offset="1" stop-color="#00A9CB"/>
</linearGradient>
<linearGradient id="paint4_linear" x1="47.58" y1="13" x2="47.8768" y2="75.1277" gradientUnits="userSpaceOnUse">
<stop stop-color="#014982"/>
<stop offset="1" stop-color="#00A9CB"/>
</linearGradient>
<linearGradient id="paint5_linear" x1="47.58" y1="13" x2="47.8768" y2="75.1277" gradientUnits="userSpaceOnUse">
<stop stop-color="#014982"/>
<stop offset="1" stop-color="#00A9CB"/>
</linearGradient>
<linearGradient id="paint6_linear" x1="47.58" y1="13" x2="47.8768" y2="75.1277" gradientUnits="userSpaceOnUse">
<stop stop-color="#014982"/>
<stop offset="1" stop-color="#00A9CB"/>
</linearGradient>
<linearGradient id="paint7_linear" x1="47.58" y1="13" x2="47.8768" y2="75.1277" gradientUnits="userSpaceOnUse">
<stop stop-color="#014982"/>
<stop offset="1" stop-color="#00A9CB"/>
</linearGradient>
<linearGradient id="paint8_linear" x1="47.58" y1="13" x2="47.8768" y2="75.1277" gradientUnits="userSpaceOnUse">
<stop stop-color="#014982"/>
<stop offset="1" stop-color="#00A9CB"/>
</linearGradient>
<linearGradient id="paint9_linear" x1="47.58" y1="13" x2="47.8768" y2="75.1277" gradientUnits="userSpaceOnUse">
<stop stop-color="#014982"/>
<stop offset="1" stop-color="#00A9CB"/>
</linearGradient>
<linearGradient id="paint10_linear" x1="47.58" y1="13" x2="47.8768" y2="75.1277" gradientUnits="userSpaceOnUse">
<stop stop-color="#014982"/>
<stop offset="1" stop-color="#00A9CB"/>
</linearGradient>
</defs>
</svg>
