<svg width="664" height="729" viewBox="0 0 664 729" fill="none" xmlns="http://www.w3.org/2000/svg">
<rect width="664" height="729" fill="url(#paint0_linear_325:123)"/>
<circle cx="531" cy="375" r="96" fill="url(#paint1_radial_325:123)"/>
<circle cx="149" cy="169" r="87" fill="url(#paint2_radial_325:123)"/>
<g filter="url(#filter0_b_325:123)">
<rect x="117" y="128" width="427" height="257" rx="25" fill="white" fill-opacity="0.05"/>
<rect x="117.5" y="128.5" width="426" height="256" rx="24.5" stroke="white" stroke-opacity="0.2"/>
</g>
<mask id="mask0_325:123" style="mask-type:alpha" maskUnits="userSpaceOnUse" x="117" y="128" width="427" height="257">
<rect x="117" y="128" width="427" height="257" rx="25" fill="white"/>
</mask>
<g mask="url(#mask0_325:123)">
<path d="M679.87 508.545C644.26 549.045 594.621 574.54 540.959 579.893C487.296 585.245 433.599 570.056 390.692 537.387C347.784 504.719 318.855 457 309.735 403.847C300.616 350.695 311.984 296.062 341.548 250.959C371.113 205.856 416.675 173.637 469.053 160.796C521.431 147.955 576.729 155.445 623.802 181.759C670.876 208.072 706.225 251.252 722.724 302.595C739.224 353.938 735.647 409.626 712.716 458.437L670.727 438.71C688.667 400.523 691.465 356.956 678.557 316.789C665.649 276.621 637.994 242.84 601.166 222.254C564.339 201.668 521.077 195.808 480.1 205.854C439.123 215.9 403.477 241.106 380.348 276.392C357.218 311.678 348.325 354.419 355.459 396.002C362.594 437.585 385.226 474.918 418.795 500.476C452.363 526.034 494.372 537.916 536.354 533.729C578.337 529.542 617.171 509.596 645.03 477.911L679.87 508.545Z" fill="white" fill-opacity="0.08"/>
<path d="M810.359 591.024C758.548 649.949 686.239 686.967 608.006 694.616C529.773 702.265 451.432 679.978 388.774 632.245C326.116 584.512 283.799 514.884 270.352 437.393C256.904 359.902 273.327 280.31 316.31 214.659C359.292 149.009 425.639 102.18 501.977 83.6121C578.315 65.0441 658.97 76.1172 727.684 114.6C796.399 153.082 848.064 216.112 872.267 290.987C896.471 365.862 891.412 447.014 858.112 518.087L840.786 509.925C872.038 443.226 876.785 367.068 854.071 296.8C831.357 226.533 782.871 167.381 718.385 131.267C653.899 95.1526 578.208 84.7609 506.567 102.186C434.926 119.612 372.662 163.559 332.325 225.169C291.987 286.78 276.575 361.474 289.195 434.197C301.814 506.919 341.528 572.263 400.33 617.059C459.132 661.854 532.652 682.77 606.071 675.591C679.49 668.413 747.349 633.673 795.972 578.374L810.359 591.024Z" fill="white" fill-opacity="0.08"/>
</g>
<path d="M162.871 316H160.691V301.551L156.32 303.156V301.188L162.531 298.855H162.871V316ZM180.402 316H169.223V314.441L175.129 307.879C176.004 306.887 176.605 306.082 176.934 305.465C177.27 304.84 177.438 304.195 177.438 303.531C177.438 302.641 177.168 301.91 176.629 301.34C176.09 300.77 175.371 300.484 174.473 300.484C173.395 300.484 172.555 300.793 171.953 301.41C171.359 302.02 171.062 302.871 171.062 303.965H168.895C168.895 302.395 169.398 301.125 170.406 300.156C171.422 299.188 172.777 298.703 174.473 298.703C176.059 298.703 177.312 299.121 178.234 299.957C179.156 300.785 179.617 301.891 179.617 303.273C179.617 304.953 178.547 306.953 176.406 309.273L171.836 314.23H180.402V316ZM185.852 306.414H187.48C188.504 306.398 189.309 306.129 189.895 305.605C190.48 305.082 190.773 304.375 190.773 303.484C190.773 301.484 189.777 300.484 187.785 300.484C186.848 300.484 186.098 300.754 185.535 301.293C184.98 301.824 184.703 302.531 184.703 303.414H182.535C182.535 302.062 183.027 300.941 184.012 300.051C185.004 299.152 186.262 298.703 187.785 298.703C189.395 298.703 190.656 299.129 191.57 299.98C192.484 300.832 192.941 302.016 192.941 303.531C192.941 304.273 192.699 304.992 192.215 305.688C191.738 306.383 191.086 306.902 190.258 307.246C191.195 307.543 191.918 308.035 192.426 308.723C192.941 309.41 193.199 310.25 193.199 311.242C193.199 312.773 192.699 313.988 191.699 314.887C190.699 315.785 189.398 316.234 187.797 316.234C186.195 316.234 184.891 315.801 183.883 314.934C182.883 314.066 182.383 312.922 182.383 311.5H184.562C184.562 312.398 184.855 313.117 185.441 313.656C186.027 314.195 186.812 314.465 187.797 314.465C188.844 314.465 189.645 314.191 190.199 313.645C190.754 313.098 191.031 312.312 191.031 311.289C191.031 310.297 190.727 309.535 190.117 309.004C189.508 308.473 188.629 308.199 187.48 308.184H185.852V306.414ZM205.328 310.27H207.695V312.039H205.328V316H203.148V312.039H195.379V310.762L203.02 298.938H205.328V310.27ZM197.84 310.27H203.148V301.902L202.891 302.371L197.84 310.27ZM222.555 307.445L223.422 298.938H232.164V300.941H225.262L224.746 305.594C225.582 305.102 226.531 304.855 227.594 304.855C229.148 304.855 230.383 305.371 231.297 306.402C232.211 307.426 232.668 308.812 232.668 310.562C232.668 312.32 232.191 313.707 231.238 314.723C230.293 315.73 228.969 316.234 227.266 316.234C225.758 316.234 224.527 315.816 223.574 314.98C222.621 314.145 222.078 312.988 221.945 311.512H223.996C224.129 312.488 224.477 313.227 225.039 313.727C225.602 314.219 226.344 314.465 227.266 314.465C228.273 314.465 229.062 314.121 229.633 313.434C230.211 312.746 230.5 311.797 230.5 310.586C230.5 309.445 230.188 308.531 229.562 307.844C228.945 307.148 228.121 306.801 227.09 306.801C226.145 306.801 225.402 307.008 224.863 307.422L224.289 307.891L222.555 307.445ZM243.543 298.926V300.766H243.145C241.457 300.797 240.113 301.297 239.113 302.266C238.113 303.234 237.535 304.598 237.379 306.355C238.277 305.324 239.504 304.809 241.059 304.809C242.543 304.809 243.727 305.332 244.609 306.379C245.5 307.426 245.945 308.777 245.945 310.434C245.945 312.191 245.465 313.598 244.504 314.652C243.551 315.707 242.27 316.234 240.66 316.234C239.027 316.234 237.703 315.609 236.688 314.359C235.672 313.102 235.164 311.484 235.164 309.508V308.676C235.164 305.535 235.832 303.137 237.168 301.48C238.512 299.816 240.508 298.965 243.156 298.926H243.543ZM240.695 306.613C239.953 306.613 239.27 306.836 238.645 307.281C238.02 307.727 237.586 308.285 237.344 308.957V309.754C237.344 311.16 237.66 312.293 238.293 313.152C238.926 314.012 239.715 314.441 240.66 314.441C241.637 314.441 242.402 314.082 242.957 313.363C243.52 312.645 243.801 311.703 243.801 310.539C243.801 309.367 243.516 308.422 242.945 307.703C242.383 306.977 241.633 306.613 240.695 306.613ZM259.527 300.156L252.461 316H250.188L257.23 300.719H247.996V298.938H259.527V300.156ZM272.336 303.391C272.336 304.242 272.109 305 271.656 305.664C271.211 306.328 270.605 306.848 269.84 307.223C270.73 307.605 271.434 308.164 271.949 308.898C272.473 309.633 272.734 310.465 272.734 311.395C272.734 312.871 272.234 314.047 271.234 314.922C270.242 315.797 268.934 316.234 267.309 316.234C265.668 316.234 264.352 315.797 263.359 314.922C262.375 314.039 261.883 312.863 261.883 311.395C261.883 310.473 262.133 309.641 262.633 308.898C263.141 308.156 263.84 307.594 264.73 307.211C263.973 306.836 263.375 306.316 262.938 305.652C262.5 304.988 262.281 304.234 262.281 303.391C262.281 301.953 262.742 300.812 263.664 299.969C264.586 299.125 265.801 298.703 267.309 298.703C268.809 298.703 270.02 299.125 270.941 299.969C271.871 300.812 272.336 301.953 272.336 303.391ZM270.566 311.348C270.566 310.395 270.262 309.617 269.652 309.016C269.051 308.414 268.262 308.113 267.285 308.113C266.309 308.113 265.523 308.41 264.93 309.004C264.344 309.598 264.051 310.379 264.051 311.348C264.051 312.316 264.336 313.078 264.906 313.633C265.484 314.188 266.285 314.465 267.309 314.465C268.324 314.465 269.121 314.188 269.699 313.633C270.277 313.07 270.566 312.309 270.566 311.348ZM267.309 300.484C266.457 300.484 265.766 300.75 265.234 301.281C264.711 301.805 264.449 302.52 264.449 303.426C264.449 304.293 264.707 304.996 265.223 305.535C265.746 306.066 266.441 306.332 267.309 306.332C268.176 306.332 268.867 306.066 269.383 305.535C269.906 304.996 270.168 304.293 270.168 303.426C270.168 302.559 269.898 301.852 269.359 301.305C268.82 300.758 268.137 300.484 267.309 300.484ZM295.68 308.5C295.227 309.039 294.684 309.473 294.051 309.801C293.426 310.129 292.738 310.293 291.988 310.293C291.004 310.293 290.145 310.051 289.41 309.566C288.684 309.082 288.121 308.402 287.723 307.527C287.324 306.645 287.125 305.672 287.125 304.609C287.125 303.469 287.34 302.441 287.77 301.527C288.207 300.613 288.824 299.914 289.621 299.43C290.418 298.945 291.348 298.703 292.41 298.703C294.098 298.703 295.426 299.336 296.395 300.602C297.371 301.859 297.859 303.578 297.859 305.758V306.391C297.859 309.711 297.203 312.137 295.891 313.668C294.578 315.191 292.598 315.973 289.949 316.012H289.527V314.184H289.984C291.773 314.152 293.148 313.688 294.109 312.789C295.07 311.883 295.594 310.453 295.68 308.5ZM292.34 308.5C293.066 308.5 293.734 308.277 294.344 307.832C294.961 307.387 295.41 306.836 295.691 306.18V305.312C295.691 303.891 295.383 302.734 294.766 301.844C294.148 300.953 293.367 300.508 292.422 300.508C291.469 300.508 290.703 300.875 290.125 301.609C289.547 302.336 289.258 303.297 289.258 304.492C289.258 305.656 289.535 306.617 290.09 307.375C290.652 308.125 291.402 308.5 292.34 308.5ZM311.547 308.723C311.547 311.262 311.113 313.148 310.246 314.383C309.379 315.617 308.023 316.234 306.18 316.234C304.359 316.234 303.012 315.633 302.137 314.43C301.262 313.219 300.809 311.414 300.777 309.016V306.121C300.777 303.613 301.211 301.75 302.078 300.531C302.945 299.312 304.305 298.703 306.156 298.703C307.992 298.703 309.344 299.293 310.211 300.473C311.078 301.645 311.523 303.457 311.547 305.91V308.723ZM309.379 305.758C309.379 303.922 309.121 302.586 308.605 301.75C308.09 300.906 307.273 300.484 306.156 300.484C305.047 300.484 304.238 300.902 303.73 301.738C303.223 302.574 302.961 303.859 302.945 305.594V309.062C302.945 310.906 303.211 312.27 303.742 313.152C304.281 314.027 305.094 314.465 306.18 314.465C307.25 314.465 308.043 314.051 308.559 313.223C309.082 312.395 309.355 311.09 309.379 309.309V305.758ZM321.449 316H319.27V301.551L314.898 303.156V301.188L321.109 298.855H321.449V316ZM338.98 316H327.801V314.441L333.707 307.879C334.582 306.887 335.184 306.082 335.512 305.465C335.848 304.84 336.016 304.195 336.016 303.531C336.016 302.641 335.746 301.91 335.207 301.34C334.668 300.77 333.949 300.484 333.051 300.484C331.973 300.484 331.133 300.793 330.531 301.41C329.938 302.02 329.641 302.871 329.641 303.965H327.473C327.473 302.395 327.977 301.125 328.984 300.156C330 299.188 331.355 298.703 333.051 298.703C334.637 298.703 335.891 299.121 336.812 299.957C337.734 300.785 338.195 301.891 338.195 303.273C338.195 304.953 337.125 306.953 334.984 309.273L330.414 314.23H338.98V316ZM356.336 306.414H357.965C358.988 306.398 359.793 306.129 360.379 305.605C360.965 305.082 361.258 304.375 361.258 303.484C361.258 301.484 360.262 300.484 358.27 300.484C357.332 300.484 356.582 300.754 356.02 301.293C355.465 301.824 355.188 302.531 355.188 303.414H353.02C353.02 302.062 353.512 300.941 354.496 300.051C355.488 299.152 356.746 298.703 358.27 298.703C359.879 298.703 361.141 299.129 362.055 299.98C362.969 300.832 363.426 302.016 363.426 303.531C363.426 304.273 363.184 304.992 362.699 305.688C362.223 306.383 361.57 306.902 360.742 307.246C361.68 307.543 362.402 308.035 362.91 308.723C363.426 309.41 363.684 310.25 363.684 311.242C363.684 312.773 363.184 313.988 362.184 314.887C361.184 315.785 359.883 316.234 358.281 316.234C356.68 316.234 355.375 315.801 354.367 314.934C353.367 314.066 352.867 312.922 352.867 311.5H355.047C355.047 312.398 355.34 313.117 355.926 313.656C356.512 314.195 357.297 314.465 358.281 314.465C359.328 314.465 360.129 314.191 360.684 313.645C361.238 313.098 361.516 312.312 361.516 311.289C361.516 310.297 361.211 309.535 360.602 309.004C359.992 308.473 359.113 308.199 357.965 308.184H356.336V306.414ZM375.812 310.27H378.18V312.039H375.812V316H373.633V312.039H365.863V310.762L373.504 298.938H375.812V310.27ZM368.324 310.27H373.633V301.902L373.375 302.371L368.324 310.27ZM381.133 307.445L382 298.938H390.742V300.941H383.84L383.324 305.594C384.16 305.102 385.109 304.855 386.172 304.855C387.727 304.855 388.961 305.371 389.875 306.402C390.789 307.426 391.246 308.812 391.246 310.562C391.246 312.32 390.77 313.707 389.816 314.723C388.871 315.73 387.547 316.234 385.844 316.234C384.336 316.234 383.105 315.816 382.152 314.98C381.199 314.145 380.656 312.988 380.523 311.512H382.574C382.707 312.488 383.055 313.227 383.617 313.727C384.18 314.219 384.922 314.465 385.844 314.465C386.852 314.465 387.641 314.121 388.211 313.434C388.789 312.746 389.078 311.797 389.078 310.586C389.078 309.445 388.766 308.531 388.141 307.844C387.523 307.148 386.699 306.801 385.668 306.801C384.723 306.801 383.98 307.008 383.441 307.422L382.867 307.891L381.133 307.445ZM402.121 298.926V300.766H401.723C400.035 300.797 398.691 301.297 397.691 302.266C396.691 303.234 396.113 304.598 395.957 306.355C396.855 305.324 398.082 304.809 399.637 304.809C401.121 304.809 402.305 305.332 403.188 306.379C404.078 307.426 404.523 308.777 404.523 310.434C404.523 312.191 404.043 313.598 403.082 314.652C402.129 315.707 400.848 316.234 399.238 316.234C397.605 316.234 396.281 315.609 395.266 314.359C394.25 313.102 393.742 311.484 393.742 309.508V308.676C393.742 305.535 394.41 303.137 395.746 301.48C397.09 299.816 399.086 298.965 401.734 298.926H402.121ZM399.273 306.613C398.531 306.613 397.848 306.836 397.223 307.281C396.598 307.727 396.164 308.285 395.922 308.957V309.754C395.922 311.16 396.238 312.293 396.871 313.152C397.504 314.012 398.293 314.441 399.238 314.441C400.215 314.441 400.98 314.082 401.535 313.363C402.098 312.645 402.379 311.703 402.379 310.539C402.379 309.367 402.094 308.422 401.523 307.703C400.961 306.977 400.211 306.613 399.273 306.613Z" fill="white"/>
<path d="M156.424 349H155.299V340.469H156.424V349ZM165.049 345.01C165.049 345.846 164.908 346.576 164.627 347.201C164.346 347.822 163.947 348.297 163.432 348.625C162.916 348.953 162.314 349.117 161.627 349.117C160.955 349.117 160.359 348.953 159.84 348.625C159.32 348.293 158.916 347.822 158.627 347.213C158.342 346.6 158.195 345.891 158.188 345.086V344.471C158.188 343.65 158.33 342.926 158.615 342.297C158.9 341.668 159.303 341.188 159.822 340.855C160.346 340.52 160.943 340.352 161.615 340.352C162.299 340.352 162.9 340.518 163.42 340.85C163.943 341.178 164.346 341.656 164.627 342.285C164.908 342.91 165.049 343.639 165.049 344.471V345.01ZM163.93 344.459C163.93 343.447 163.727 342.672 163.32 342.133C162.914 341.59 162.346 341.318 161.615 341.318C160.904 341.318 160.344 341.59 159.934 342.133C159.527 342.672 159.318 343.422 159.307 344.383V345.01C159.307 345.99 159.512 346.762 159.922 347.324C160.336 347.883 160.904 348.162 161.627 348.162C162.354 348.162 162.916 347.898 163.314 347.371C163.713 346.84 163.918 346.08 163.93 345.092V344.459ZM173.293 349H172.162L167.867 342.426V349H166.736V340.469H167.867L172.174 347.072V340.469H173.293V349ZM184.543 346.293C184.438 347.195 184.104 347.893 183.541 348.385C182.982 348.873 182.238 349.117 181.309 349.117C180.301 349.117 179.492 348.756 178.883 348.033C178.277 347.311 177.975 346.344 177.975 345.133V344.312C177.975 343.52 178.115 342.822 178.396 342.221C178.682 341.619 179.084 341.158 179.604 340.838C180.123 340.514 180.725 340.352 181.408 340.352C182.314 340.352 183.041 340.605 183.588 341.113C184.135 341.617 184.453 342.316 184.543 343.211H183.412C183.314 342.531 183.102 342.039 182.773 341.734C182.449 341.43 181.994 341.277 181.408 341.277C180.689 341.277 180.125 341.543 179.715 342.074C179.309 342.605 179.105 343.361 179.105 344.342V345.168C179.105 346.094 179.299 346.83 179.686 347.377C180.072 347.924 180.613 348.197 181.309 348.197C181.934 348.197 182.412 348.057 182.744 347.775C183.08 347.49 183.303 346.996 183.412 346.293H184.543ZM190.906 345.057H187.209V348.08H191.504V349H186.084V340.469H191.445V341.395H187.209V344.137H190.906V345.057ZM192.904 349V340.469H195.693C196.619 340.469 197.314 340.66 197.779 341.043C198.248 341.426 198.482 341.992 198.482 342.742C198.482 343.141 198.369 343.494 198.143 343.803C197.916 344.107 197.607 344.344 197.217 344.512C197.678 344.641 198.041 344.887 198.307 345.25C198.576 345.609 198.711 346.039 198.711 346.539C198.711 347.305 198.463 347.906 197.967 348.344C197.471 348.781 196.77 349 195.863 349H192.904ZM194.029 345.01V348.08H195.887C196.41 348.08 196.822 347.945 197.123 347.676C197.428 347.402 197.58 347.027 197.58 346.551C197.58 345.523 197.021 345.01 195.904 345.01H194.029ZM194.029 344.107H195.729C196.221 344.107 196.613 343.984 196.906 343.738C197.203 343.492 197.352 343.158 197.352 342.736C197.352 342.268 197.215 341.928 196.941 341.717C196.668 341.502 196.252 341.395 195.693 341.395H194.029V344.107ZM205.092 346.773H201.518L200.715 349H199.555L202.812 340.469H203.797L207.061 349H205.906L205.092 346.773ZM201.857 345.848H204.758L203.305 341.857L201.857 345.848ZM214.766 349H213.635L209.34 342.426V349H208.209V340.469H209.34L213.646 347.072V340.469H214.766V349Z" fill="white"/>
<path d="M407.322 349H406.232V341.775L404.047 342.578V341.594L407.152 340.428H407.322V349ZM415.848 345.361C415.848 346.631 415.631 347.574 415.197 348.191C414.764 348.809 414.086 349.117 413.164 349.117C412.254 349.117 411.58 348.816 411.143 348.215C410.705 347.609 410.479 346.707 410.463 345.508V344.061C410.463 342.807 410.68 341.875 411.113 341.266C411.547 340.656 412.227 340.352 413.152 340.352C414.07 340.352 414.746 340.646 415.18 341.236C415.613 341.822 415.836 342.729 415.848 343.955V345.361ZM414.764 343.879C414.764 342.961 414.635 342.293 414.377 341.875C414.119 341.453 413.711 341.242 413.152 341.242C412.598 341.242 412.193 341.451 411.939 341.869C411.686 342.287 411.555 342.93 411.547 343.797V345.531C411.547 346.453 411.68 347.135 411.945 347.576C412.215 348.014 412.621 348.232 413.164 348.232C413.699 348.232 414.096 348.025 414.354 347.611C414.615 347.197 414.752 346.545 414.764 345.654V343.879ZM417.564 349.732H416.633L420.195 340.469H421.121L417.564 349.732ZM427.771 349H422.182V348.221L425.135 344.939C425.572 344.443 425.873 344.041 426.037 343.732C426.205 343.42 426.289 343.098 426.289 342.766C426.289 342.32 426.154 341.955 425.885 341.67C425.615 341.385 425.256 341.242 424.807 341.242C424.268 341.242 423.848 341.396 423.547 341.705C423.25 342.01 423.102 342.436 423.102 342.982H422.018C422.018 342.197 422.27 341.562 422.773 341.078C423.281 340.594 423.959 340.352 424.807 340.352C425.6 340.352 426.227 340.561 426.688 340.979C427.148 341.393 427.379 341.945 427.379 342.637C427.379 343.477 426.844 344.477 425.773 345.637L423.488 348.115H427.771V349ZM433.496 346.135H434.68V347.02H433.496V349H432.406V347.02H428.521V346.381L432.342 340.469H433.496V346.135ZM429.752 346.135H432.406V341.951L432.277 342.186L429.752 346.135Z" fill="white"/>
<path d="M475.322 349H474.232V341.775L472.047 342.578V341.594L475.152 340.428H475.322V349ZM483.848 345.361C483.848 346.631 483.631 347.574 483.197 348.191C482.764 348.809 482.086 349.117 481.164 349.117C480.254 349.117 479.58 348.816 479.143 348.215C478.705 347.609 478.479 346.707 478.463 345.508V344.061C478.463 342.807 478.68 341.875 479.113 341.266C479.547 340.656 480.227 340.352 481.152 340.352C482.07 340.352 482.746 340.646 483.18 341.236C483.613 341.822 483.836 342.729 483.848 343.955V345.361ZM482.764 343.879C482.764 342.961 482.635 342.293 482.377 341.875C482.119 341.453 481.711 341.242 481.152 341.242C480.598 341.242 480.193 341.451 479.939 341.869C479.686 342.287 479.555 342.93 479.547 343.797V345.531C479.547 346.453 479.68 347.135 479.945 347.576C480.215 348.014 480.621 348.232 481.164 348.232C481.699 348.232 482.096 348.025 482.354 347.611C482.615 347.197 482.752 346.545 482.764 345.654V343.879ZM485.564 349.732H484.633L488.195 340.469H489.121L485.564 349.732ZM495.771 349H490.182V348.221L493.135 344.939C493.572 344.443 493.873 344.041 494.037 343.732C494.205 343.42 494.289 343.098 494.289 342.766C494.289 342.32 494.154 341.955 493.885 341.67C493.615 341.385 493.256 341.242 492.807 341.242C492.268 341.242 491.848 341.396 491.547 341.705C491.25 342.01 491.102 342.436 491.102 342.982H490.018C490.018 342.197 490.27 341.562 490.773 341.078C491.281 340.594 491.959 340.352 492.807 340.352C493.6 340.352 494.227 340.561 494.688 340.979C495.148 341.393 495.379 341.945 495.379 342.637C495.379 343.477 494.844 344.477 493.773 345.637L491.488 348.115H495.771V349ZM501.496 346.135H502.68V347.02H501.496V349H500.406V347.02H496.521V346.381L500.342 340.469H501.496V346.135ZM497.752 346.135H500.406V341.951L500.277 342.186L497.752 346.135Z" fill="white"/>
<path d="M470.168 176.005C470.129 179.057 472.894 180.761 474.977 181.774C477.117 182.813 477.835 183.479 477.827 184.408C477.811 185.83 476.12 186.458 474.538 186.482C471.777 186.525 470.172 185.739 468.896 185.144L467.901 189.787C469.182 190.376 471.552 190.889 474.011 190.912C479.781 190.912 483.557 188.069 483.577 183.662C483.6 178.069 475.824 177.759 475.877 175.259C475.896 174.501 476.621 173.692 478.209 173.487C478.995 173.383 481.166 173.303 483.626 174.434L484.592 169.941C483.269 169.46 481.568 169 479.45 169C474.019 169 470.199 171.881 470.168 176.005ZM493.873 169.387C492.819 169.387 491.931 170 491.535 170.942L483.291 190.582H489.058L490.205 187.417H497.252L497.918 190.582H503L498.565 169.387H493.873ZM494.679 175.113L496.343 183.072H491.786L494.679 175.113ZM463.176 169.387L458.631 190.582H464.126L468.669 169.387H463.176V169.387ZM455.048 169.387L449.328 183.813L447.014 171.547C446.743 170.178 445.671 169.387 444.48 169.387H435.131L435 170.002C436.919 170.418 439.1 171.088 440.421 171.806C441.23 172.244 441.461 172.627 441.726 173.668L446.108 190.582H451.915L460.818 169.387H455.048" fill="white" fill-opacity="0.8"/>
<path d="M154 270V248C154 245.8 155.8 244 158 244H188C190.2 244 192 245.8 192 248V270C192 272.2 190.2 274 188 274H158C155.8 274 154 272.2 154 270Z" fill="white"/>
<path d="M192 256V254H180C178.9 254 178 253.1 178 252C178 250.9 178.9 250 180 250H181V248H180C177.8 248 176 249.8 176 252C176 254.2 177.8 256 180 256H183V262H180C177.2 262 175 264.2 175 267C175 269.8 177.2 272 180 272H182V270H180C178.3 270 177 268.7 177 267C177 265.3 178.3 264 180 264H192V262H185V256H192Z" fill="#12699B"/>
<path d="M166 262H163V256H166C168.2 256 170 254.2 170 252C170 249.8 168.2 248 166 248H163V250H166C167.1 250 168 250.9 168 252C168 253.1 167.1 254 166 254H154V256H161V262H154V264H166C167.7 264 169 265.3 169 267C169 268.7 167.7 270 166 270H164V272H166C168.8 272 171 269.8 171 267C171 264.2 168.8 262 166 262Z" fill="#12699B"/>
<defs>
<filter id="filter0_b_325:123" x="17" y="28" width="627" height="457" filterUnits="userSpaceOnUse" color-interpolation-filters="sRGB">
<feFlood flood-opacity="0" result="BackgroundImageFix"/>
<feGaussianBlur in="BackgroundImage" stdDeviation="50"/>
<feComposite in2="SourceAlpha" operator="in" result="effect1_backgroundBlur_325:123"/>
<feBlend mode="normal" in="SourceGraphic" in2="effect1_backgroundBlur_325:123" result="shape"/>
</filter>
<linearGradient id="paint0_linear_325:123" x1="-2.5601e-08" y1="95.087" x2="683.397" y2="116.738" gradientUnits="userSpaceOnUse">
<stop stop-color="#014781"/>
<stop offset="0.286458" stop-color="#016497"/>
<stop offset="1" stop-color="#1282CA"/>
</linearGradient>
<radialGradient id="paint1_radial_325:123" cx="0" cy="0" r="1" gradientUnits="userSpaceOnUse" gradientTransform="translate(531 375) rotate(90) scale(96)">
<stop stop-color="#015087"/>
<stop offset="1" stop-color="#1181C9"/>
</radialGradient>
<radialGradient id="paint2_radial_325:123" cx="0" cy="0" r="1" gradientUnits="userSpaceOnUse" gradientTransform="translate(149 169) rotate(90) scale(87)">
<stop stop-color="#015087"/>
<stop offset="1" stop-color="#136AA2"/>
</radialGradient>
</defs>
</svg>
