<svg xmlns="http://www.w3.org/2000/svg" viewBox="0 0 738.46 263.04"><defs><style>.cls-1{fill:#1c355e;}.cls-2{fill:#fff;}.cls-3{fill:#00abc8;}.cls-4{fill:#cfd2d3;}</style></defs><g id="Layer_2" data-name="Layer 2"><g id="Layer_1-2" data-name="Layer 1"><path class="cls-1" d="M735.32,171a10,10,0,0,0-3.65-2.49,13.24,13.24,0,0,0-5.15-.95c-2.88,0-5,.53-6.27,1.61a5.37,5.37,0,0,0-2,4.38,4.93,4.93,0,0,0,.52,2.38,4.45,4.45,0,0,0,1.64,1.61,11.81,11.81,0,0,0,2.81,1.18c1.14.33,2.47.67,4,1a44.46,44.46,0,0,1,4.62,1.2,12.94,12.94,0,0,1,3.5,1.68,7.08,7.08,0,0,1,2.23,2.5,7.86,7.86,0,0,1,.77,3.65,8.14,8.14,0,0,1-.87,3.86,7.72,7.72,0,0,1-2.4,2.72,10.94,10.94,0,0,1-3.68,1.61,19.31,19.31,0,0,1-4.63.52,18.93,18.93,0,0,1-12.92-4.68l1.54-2.58a14.1,14.1,0,0,0,4.76,3.15,16.54,16.54,0,0,0,6.67,1.3,11.18,11.18,0,0,0,6-1.39,4.63,4.63,0,0,0,2.18-4.19,4.8,4.8,0,0,0-.62-2.52,5.31,5.31,0,0,0-1.84-1.77,13.33,13.33,0,0,0-3.06-1.3c-1.22-.36-2.64-.72-4.25-1.08s-3.17-.8-4.44-1.23a11.66,11.66,0,0,1-3.2-1.59,6.35,6.35,0,0,1-2-2.29,7.39,7.39,0,0,1-.66-3.29,9,9,0,0,1,.84-4,7.78,7.78,0,0,1,2.36-2.9,10.6,10.6,0,0,1,3.63-1.77,16.56,16.56,0,0,1,4.65-.61,15.49,15.49,0,0,1,5.7,1,15.3,15.3,0,0,1,4.56,2.75l-1.5,2.53Zm-64.39,9.85a17.23,17.23,0,0,1,1-5.78,16,16,0,0,1,3-5.15,15.16,15.16,0,0,1,4.81-3.7,14.34,14.34,0,0,1,6.49-1.43,13.32,13.32,0,0,1,7.35,1.95,12.26,12.26,0,0,1,4.54,5.08l-2.55,1.55a9.17,9.17,0,0,0-1.85-2.68,9.85,9.85,0,0,0-2.36-1.77,10.34,10.34,0,0,0-2.63-1,13.08,13.08,0,0,0-2.68-.29,10.78,10.78,0,0,0-5.13,1.18,11.68,11.68,0,0,0-3.74,3.08,13.24,13.24,0,0,0-2.29,4.29,15.45,15.45,0,0,0-.78,4.83,14.64,14.64,0,0,0,3.48,9.47,12.3,12.3,0,0,0,3.81,3,10.45,10.45,0,0,0,4.79,1.11,11.8,11.8,0,0,0,2.78-.34,10.93,10.93,0,0,0,2.78-1.09,11.52,11.52,0,0,0,2.47-1.86,9.42,9.42,0,0,0,1.9-2.7l2.63,1.36a9.86,9.86,0,0,1-2.17,3.2,14.29,14.29,0,0,1-3.13,2.34,15.69,15.69,0,0,1-3.66,1.45,14.66,14.66,0,0,1-3.78.5,12.84,12.84,0,0,1-6.08-1.45,15.9,15.9,0,0,1-4.77-3.79A17.63,17.63,0,0,1,672,186.9a17.18,17.18,0,0,1-1.11-6.06ZM649.38,165h3.13v32.17h-3.13V165Zm-17.29,2.76H620.61v29.41h-3.18V167.77H606V165h26.14v2.81ZM588.35,171a10,10,0,0,0-3.65-2.49,13.24,13.24,0,0,0-5.15-.95c-2.88,0-5,.53-6.27,1.61a5.37,5.37,0,0,0-1.95,4.38,4.82,4.82,0,0,0,.52,2.38,4.52,4.52,0,0,0,1.64,1.61,11.81,11.81,0,0,0,2.81,1.18c1.13.33,2.47.67,4,1a45.14,45.14,0,0,1,4.62,1.2,12.94,12.94,0,0,1,3.5,1.68,7.05,7.05,0,0,1,2.22,2.5,7.73,7.73,0,0,1,.77,3.65,8,8,0,0,1-.86,3.86,7.72,7.72,0,0,1-2.4,2.72,10.94,10.94,0,0,1-3.68,1.61,19.37,19.37,0,0,1-4.63.52,19,19,0,0,1-12.93-4.68l1.54-2.58a14.36,14.36,0,0,0,4.77,3.15,16.5,16.5,0,0,0,6.67,1.3,11.12,11.12,0,0,0,6-1.39,4.61,4.61,0,0,0,2.18-4.19,4.8,4.8,0,0,0-.61-2.52,5.31,5.31,0,0,0-1.84-1.77,13.14,13.14,0,0,0-3.06-1.3c-1.23-.36-2.64-.72-4.24-1.08s-3.18-.8-4.45-1.23a11.38,11.38,0,0,1-3.2-1.59,6.25,6.25,0,0,1-2-2.29,7.39,7.39,0,0,1-.66-3.29,9,9,0,0,1,.84-4,7.78,7.78,0,0,1,2.36-2.9,10.6,10.6,0,0,1,3.63-1.77,16.61,16.61,0,0,1,4.65-.61,15.49,15.49,0,0,1,5.7,1,15.25,15.25,0,0,1,4.55,2.75L588.35,171ZM535.89,197.4a13.64,13.64,0,0,1-6.14-1.38,15.27,15.27,0,0,1-4.8-3.68,16.85,16.85,0,0,1-3.08-5.24,17.13,17.13,0,0,1-1.08-6,16.77,16.77,0,0,1,1.15-6.17,17,17,0,0,1,3.2-5.22,15.41,15.41,0,0,1,4.81-3.61,13.61,13.61,0,0,1,6-1.33,13.2,13.2,0,0,1,6.15,1.42,15.38,15.38,0,0,1,4.76,3.75,17.07,17.07,0,0,1,3.06,5.24,16.9,16.9,0,0,1,1.09,6,16.61,16.61,0,0,1-1.16,6.17,17.11,17.11,0,0,1-3.17,5.19,15.58,15.58,0,0,1-4.79,3.59,13.44,13.44,0,0,1-6,1.33ZM524,181.07a14.9,14.9,0,0,0,.86,5.06,14.08,14.08,0,0,0,2.45,4.31,12.14,12.14,0,0,0,3.77,3,11,11,0,0,0,9.8-.07,12,12,0,0,0,3.77-3.08A14.26,14.26,0,0,0,547,186a14.76,14.76,0,0,0,.84-4.9A14.92,14.92,0,0,0,547,176a14.14,14.14,0,0,0-2.48-4.29,12.31,12.31,0,0,0-3.76-3,11.1,11.1,0,0,0-9.76,0,11.88,11.88,0,0,0-3.77,3.07,14.35,14.35,0,0,0-2.38,4.31,14.72,14.72,0,0,0-.84,4.9Zm-45.42-10.21v26.32h-3.13V165h2.45l21.33,26.82V165h3.12v32.17h-2.72l-21-26.32ZM453.63,192.5q-4.5,4.91-10.3,4.91a13.07,13.07,0,0,1-6-1.41,15.77,15.77,0,0,1-4.77-3.72A17.64,17.64,0,0,1,429.4,187a16.49,16.49,0,0,1-1.14-6,17.38,17.38,0,0,1,1.11-6.17,16.91,16.91,0,0,1,3.09-5.19,14.91,14.91,0,0,1,4.72-3.59,13.45,13.45,0,0,1,6-1.33,15.86,15.86,0,0,1,4.29.52,12.79,12.79,0,0,1,3.45,1.45,11.68,11.68,0,0,1,2.66,2.22,13.72,13.72,0,0,1,1.91,2.84L453,173.4a10.45,10.45,0,0,0-4.13-4.4,11.65,11.65,0,0,0-5.76-1.41,10.13,10.13,0,0,0-4.83,1.14,11.51,11.51,0,0,0-3.67,3,13.67,13.67,0,0,0-2.34,4.32,15.43,15.43,0,0,0-.82,5,14.54,14.54,0,0,0,.93,5.18,13.85,13.85,0,0,0,2.56,4.28,12.74,12.74,0,0,0,3.83,2.93,10.79,10.79,0,0,0,4.79,1.09,11.35,11.35,0,0,0,5.27-1.3,16.07,16.07,0,0,0,4.81-4.06v-5.4h-7.12v-2.45h9.84v15.84h-2.72V192.5Zm-69.88,4.68L397.23,165h2.58l13.48,32.22h-3.41l-4.17-10.08H391.24l-4.13,10.08Zm14.79-28.5-6.62,15.93H405l-6.44-15.93Zm-35-3.67h3.13v32.17h-3.13V165Zm-44.92,32.17V165h10.89a16.84,16.84,0,0,1,6.76,1.27,13.76,13.76,0,0,1,4.84,3.45,14.43,14.43,0,0,1,2.88,5.11,19.87,19.87,0,0,1,1,6.23,19.13,19.13,0,0,1-1.09,6.65,14.47,14.47,0,0,1-3.09,5.08,13.5,13.5,0,0,1-4.85,3.27,17,17,0,0,1-6.4,1.16ZM341.74,181a16.78,16.78,0,0,0-.82-5.33,12.14,12.14,0,0,0-2.39-4.2,10.62,10.62,0,0,0-3.83-2.74,13.13,13.13,0,0,0-5.22-1h-7.76v26.59h7.76a12.9,12.9,0,0,0,5.29-1,10.65,10.65,0,0,0,3.83-2.81,12.22,12.22,0,0,0,2.34-4.22,16.91,16.91,0,0,0,.8-5.29ZM702.05,143.9a32.78,32.78,0,0,1-14.82-3.33,36.63,36.63,0,0,1-11.54-8.86,40.21,40.21,0,0,1-7.44-12.63,41.87,41.87,0,0,1-2.62-14.54,40.32,40.32,0,0,1,2.79-14.87,41.09,41.09,0,0,1,7.71-12.58,37.47,37.47,0,0,1,11.59-8.7,32.85,32.85,0,0,1,14.44-3.22A32,32,0,0,1,717,68.62a37.1,37.1,0,0,1,11.48,9,41.6,41.6,0,0,1,7.39,12.63,40.93,40.93,0,0,1,2.62,14.38,40.36,40.36,0,0,1-2.79,14.87A40.94,40.94,0,0,1,728,132a37,37,0,0,1-11.54,8.64,32.73,32.73,0,0,1-14.43,3.22Zm-28.77-39.36a36,36,0,0,0,2.08,12.19,32.87,32.87,0,0,0,5.91,10.39,29,29,0,0,0,9.07,7.22A25.48,25.48,0,0,0,702.05,137,25.06,25.06,0,0,0,714,134.17a29.05,29.05,0,0,0,9.08-7.43,34.51,34.51,0,0,0,5.74-10.39,35.74,35.74,0,0,0-.11-24,33.38,33.38,0,0,0-6-10.34,29.37,29.37,0,0,0-9.07-7.16,25.09,25.09,0,0,0-11.59-2.68A25.58,25.58,0,0,0,690.12,75a28.49,28.49,0,0,0-9.07,7.39,34.27,34.27,0,0,0-5.74,10.39,35.56,35.56,0,0,0-2,11.81Zm-74.46,38.82V65.72h32.69a20.53,20.53,0,0,1,9.3,2.13,24.05,24.05,0,0,1,7.32,5.58,25.3,25.3,0,0,1,4.76,7.82,24.35,24.35,0,0,1,1.7,8.85,26.23,26.23,0,0,1-1.27,8.15,23.93,23.93,0,0,1-3.55,7,22,22,0,0,1-5.46,5.25,19,19,0,0,1-7.11,2.89l19.14,30H647.7l-18.37-28.65h-23v28.65Zm7.54-35.43h25.48a12.94,12.94,0,0,0,6.18-1.48,14.72,14.72,0,0,0,4.76-4,19.42,19.42,0,0,0,3.06-5.68,20.61,20.61,0,0,0,1.1-6.68,18.31,18.31,0,0,0-1.27-6.72,18.5,18.5,0,0,0-3.39-5.63,16.09,16.09,0,0,0-5-3.83,13.63,13.63,0,0,0-6.08-1.42H606.36v35.43ZM586.9,72.5H559.23v70.86h-7.66V72.5H523.91V65.72h63V72.5Zm-82.45-6.68H512v77.54h-7.54V65.82Zm-74.58-.1,27.78,68.13L485.2,65.72h8.09l-32.36,77.64h-6.68L421.88,65.72ZM353.43,79.93v63.43h-7.55V65.72h5.91l51.39,64.63V65.82h7.55v77.54h-6.56L353.43,79.93ZM318.66,65.82h7.54v77.54h-7.54V65.82Z"/><path class="cls-2" d="M100.42,166.85a3.29,3.29,0,0,1,0-6L95.35,163a3.31,3.31,0,0,0-2,3v17.57a3.31,3.31,0,0,0,2,3l67.74,29a3.29,3.29,0,0,1,0,6.05h0l5.06-2.17a3.3,3.3,0,0,0,2-3V198.87a3.3,3.3,0,0,0-2-3l-67.74-29Zm62.68-11a3.29,3.29,0,0,0,0-6l-18.54-7.94L100.42,160.8a3.29,3.29,0,0,0,0,6L119,174.79l44.14-18.9Zm-62.68-54.8a3.29,3.29,0,0,1,0-6l-5.07,2.17a3.31,3.31,0,0,0-2,3v17.58a3.3,3.3,0,0,0,2,3l67.74,29a3.28,3.28,0,0,1,0,6h0l5.06-2.17a3.3,3.3,0,0,0,2-3V133.11a3.3,3.3,0,0,0-2-3l-67.74-29Zm31.34-19.47L100.42,95a3.29,3.29,0,0,0,0,6L119,109l12.8-5.47V81.62ZM168.16,66a3.3,3.3,0,0,0,2-3V41.1a3.3,3.3,0,0,1-2,3L137.24,57.36V79.27L168.16,66Zm95.14,65.47C263.3,58.92,204.32,0,131.65,0S0,58.92,0,131.52,59,263,131.65,263,263.3,204.12,263.3,131.52Z"/><path class="cls-1" d="M263.3,131.51C263.3,58.92,204.32,0,131.65,0S0,58.92,0,131.52,59,263,131.65,263,263.3,204.12,263.3,131.51"/><path class="cls-3" d="M168.16,66a3.3,3.3,0,0,0,2-3V41.1a3.3,3.3,0,0,1-2,3L137.24,57.36V79.27L168.16,66Z"/><path class="cls-2" d="M100.42,101.09a3.29,3.29,0,0,1,0-6l-5.07,2.17a3.31,3.31,0,0,0-2,3v17.58a3.3,3.3,0,0,0,2,3l67.74,29a3.28,3.28,0,0,1,0,6h0l5.06-2.17a3.3,3.3,0,0,0,2-3V133.11a3.3,3.3,0,0,0-2-3l-67.74-29Zm0,65.76a3.29,3.29,0,0,1,0-6L95.35,163a3.31,3.31,0,0,0-2,3v17.57a3.31,3.31,0,0,0,2,3l67.74,29a3.29,3.29,0,0,1,0,6.05h0l5.06-2.17a3.3,3.3,0,0,0,2-3V198.87a3.3,3.3,0,0,0-2-3l-67.74-29Z"/><path class="cls-4" d="M131.76,81.62,100.42,95a3.29,3.29,0,0,0,0,6L119,109l12.8-5.47V81.62Zm31.34,74.27a3.29,3.29,0,0,0,0-6l-18.54-7.94L100.42,160.8a3.29,3.29,0,0,0,0,6L119,174.79l44.14-18.9Z"/></g></g></svg>