<?xml version="1.0" encoding="utf-8"?>
<!-- Generator: Adobe Illustrator 25.2.1, SVG Export Plug-In . SVG Version: 6.00 Build 0)  -->
<svg version="1.1" id="Layer_1" xmlns="http://www.w3.org/2000/svg" xmlns:xlink="http://www.w3.org/1999/xlink" x="0px" y="0px"
	 viewBox="0 0 740.5 267" style="enable-background:new 0 0 740.5 267;" xml:space="preserve">
<style type="text/css">
	.st0{fill:#1C355E;}
	.st1{fill:#00ABC8;}
	.st2{fill:#FFFFFF;}
	.st3{fill:#CFD2D3;}
</style>
<g>
	<g>
		<path class="st2" d="M737.3,173c-0.9-1-2.1-1.9-3.7-2.5c-1.5-0.6-3.2-1-5.1-1c-2.9,0-5,0.5-6.3,1.6c-1.3,1.1-2,2.5-2,4.4
			c0,1,0.2,1.8,0.5,2.4c0.4,0.6,0.9,1.2,1.6,1.6c0.7,0.5,1.7,0.8,2.8,1.2c1.1,0.3,2.5,0.7,4,1c1.7,0.4,3.3,0.8,4.6,1.2
			c1.4,0.4,2.5,1,3.5,1.7c1,0.7,1.7,1.5,2.2,2.5c0.5,1,0.8,2.2,0.8,3.7c0,1.5-0.3,2.8-0.9,3.9c-0.6,1.1-1.4,2-2.4,2.7
			c-1,0.7-2.3,1.3-3.7,1.6c-1.4,0.3-3,0.5-4.6,0.5c-5.1,0-9.4-1.6-12.9-4.7l1.5-2.6c1.2,1.2,2.8,2.3,4.8,3.2c2,0.9,4.2,1.3,6.7,1.3
			c2.6,0,4.6-0.5,6-1.4c1.4-0.9,2.2-2.3,2.2-4.2c0-1-0.2-1.8-0.6-2.5c-0.4-0.7-1-1.3-1.8-1.8c-0.8-0.5-1.8-0.9-3.1-1.3
			c-1.2-0.4-2.6-0.7-4.2-1.1c-1.7-0.4-3.2-0.8-4.4-1.2c-1.3-0.4-2.3-1-3.2-1.6c-0.9-0.6-1.5-1.4-1.9-2.3c-0.4-0.9-0.7-2-0.7-3.3
			c0-1.5,0.3-2.8,0.8-4c0.6-1.2,1.3-2.1,2.4-2.9c1-0.8,2.2-1.4,3.6-1.8c1.4-0.4,3-0.6,4.6-0.6c2.1,0,4,0.3,5.7,1
			c1.7,0.7,3.2,1.6,4.6,2.7L737.3,173L737.3,173z M672.9,182.8c0-1.9,0.3-3.9,1-5.8c0.7-1.9,1.7-3.6,3-5.2c1.3-1.5,2.9-2.7,4.8-3.7
			c1.9-1,4.1-1.4,6.5-1.4c2.9,0,5.3,0.7,7.3,2c2,1.3,3.5,3,4.5,5.1l-2.5,1.5c-0.5-1.1-1.1-2-1.9-2.7c-0.7-0.7-1.5-1.3-2.4-1.8
			c-0.8-0.5-1.7-0.8-2.6-1c-0.9-0.2-1.8-0.3-2.7-0.3c-1.9,0-3.6,0.4-5.1,1.2c-1.5,0.8-2.7,1.8-3.7,3.1c-1,1.3-1.8,2.7-2.3,4.3
			s-0.8,3.2-0.8,4.8c0,1.8,0.3,3.5,0.9,5.1c0.6,1.6,1.5,3.1,2.5,4.3c1.1,1.3,2.3,2.3,3.8,3c1.5,0.7,3.1,1.1,4.8,1.1
			c0.9,0,1.8-0.1,2.8-0.3c1-0.2,1.9-0.6,2.8-1.1c0.9-0.5,1.7-1.1,2.5-1.9c0.8-0.7,1.4-1.6,1.9-2.7l2.6,1.4c-0.5,1.2-1.2,2.3-2.2,3.2
			c-0.9,0.9-2,1.7-3.1,2.3c-1.2,0.6-2.4,1.1-3.7,1.5c-1.3,0.3-2.5,0.5-3.8,0.5c-2.2,0-4.2-0.5-6.1-1.5c-1.8-1-3.4-2.2-4.8-3.8
			c-1.3-1.6-2.4-3.3-3.1-5.3C673.3,186.9,672.9,184.9,672.9,182.8L672.9,182.8z M651.4,167h3.1v32.2h-3.1V167L651.4,167z
			 M634.1,169.8h-11.5v29.4h-3.2v-29.4H608V167h26.1V169.8L634.1,169.8z M590.3,173c-0.9-1-2.1-1.9-3.7-2.5c-1.5-0.6-3.2-1-5.2-1
			c-2.9,0-5,0.5-6.3,1.6c-1.3,1.1-2,2.5-2,4.4c0,1,0.2,1.8,0.5,2.4c0.3,0.6,0.9,1.2,1.6,1.6c0.7,0.5,1.7,0.8,2.8,1.2
			c1.1,0.3,2.5,0.7,4,1c1.7,0.4,3.3,0.8,4.6,1.2c1.4,0.4,2.5,1,3.5,1.7c1,0.7,1.7,1.5,2.2,2.5c0.5,1,0.8,2.2,0.8,3.7
			c0,1.5-0.3,2.8-0.9,3.9c-0.6,1.1-1.4,2-2.4,2.7c-1,0.7-2.3,1.3-3.7,1.6c-1.4,0.3-3,0.5-4.6,0.5c-5.1,0-9.4-1.6-12.9-4.7l1.5-2.6
			c1.2,1.2,2.8,2.3,4.8,3.2c2,0.9,4.2,1.3,6.7,1.3c2.6,0,4.6-0.5,6-1.4c1.5-0.9,2.2-2.3,2.2-4.2c0-1-0.2-1.8-0.6-2.5
			c-0.4-0.7-1-1.3-1.8-1.8c-0.8-0.5-1.8-0.9-3.1-1.3c-1.2-0.4-2.6-0.7-4.2-1.1c-1.7-0.4-3.2-0.8-4.5-1.2c-1.3-0.4-2.3-1-3.2-1.6
			c-0.9-0.6-1.5-1.4-2-2.3c-0.4-0.9-0.7-2-0.7-3.3c0-1.5,0.3-2.8,0.8-4c0.6-1.2,1.3-2.1,2.4-2.9c1-0.8,2.2-1.4,3.6-1.8
			c1.4-0.4,3-0.6,4.6-0.6c2.1,0,4,0.3,5.7,1c1.7,0.7,3.2,1.6,4.6,2.7L590.3,173L590.3,173z M537.9,199.4c-2.2,0-4.3-0.5-6.1-1.4
			c-1.9-0.9-3.5-2.1-4.8-3.7c-1.3-1.5-2.4-3.3-3.1-5.2c-0.7-2-1.1-4-1.1-6c0-2.1,0.4-4.2,1.2-6.2c0.8-2,1.8-3.7,3.2-5.2
			c1.4-1.5,3-2.7,4.8-3.6c1.8-0.9,3.8-1.3,6-1.3c2.2,0,4.3,0.5,6.1,1.4c1.9,0.9,3.4,2.2,4.8,3.7c1.3,1.5,2.3,3.3,3.1,5.2
			c0.7,1.9,1.1,3.9,1.1,6c0,2.1-0.4,4.2-1.2,6.2c-0.8,2-1.8,3.7-3.2,5.2c-1.3,1.5-2.9,2.7-4.8,3.6C542,199,540,199.4,537.9,199.4
			L537.9,199.4z M526,183.1c0,1.8,0.3,3.4,0.9,5.1c0.6,1.6,1.4,3.1,2.4,4.3c1.1,1.3,2.3,2.3,3.8,3c1.5,0.7,3.1,1.1,4.9,1.1
			c1.8,0,3.5-0.4,4.9-1.2c1.5-0.8,2.7-1.8,3.8-3.1c1-1.3,1.8-2.7,2.4-4.3c0.6-1.6,0.8-3.2,0.8-4.9c0-1.8-0.3-3.4-0.9-5.1
			c-0.6-1.6-1.4-3-2.5-4.3c-1.1-1.2-2.3-2.2-3.8-3c-1.5-0.7-3.1-1.1-4.8-1.1c-1.8,0-3.5,0.4-4.9,1.2c-1.5,0.8-2.7,1.8-3.8,3.1
			c-1,1.3-1.8,2.7-2.4,4.3C526.2,179.8,526,181.4,526,183.1L526,183.1z M480.5,172.9v26.3h-3.1V167h2.4l21.3,26.8V167h3.1v32.2h-2.7
			L480.5,172.9L480.5,172.9z M455.6,194.5c-3,3.3-6.4,4.9-10.3,4.9c-2.2,0-4.2-0.5-6-1.4c-1.8-0.9-3.4-2.2-4.8-3.7
			c-1.3-1.5-2.4-3.3-3.2-5.2c-0.8-2-1.1-4-1.1-6c0-2.2,0.4-4.2,1.1-6.2c0.7-2,1.8-3.7,3.1-5.2c1.3-1.5,2.9-2.7,4.7-3.6
			c1.8-0.9,3.8-1.3,6-1.3c1.6,0,3,0.2,4.3,0.5c1.3,0.3,2.4,0.8,3.4,1.5c1,0.6,1.9,1.4,2.7,2.2c0.8,0.9,1.4,1.8,1.9,2.8l-2.5,1.6
			c-1.1-2-2.4-3.5-4.1-4.4c-1.7-0.9-3.6-1.4-5.8-1.4c-1.8,0-3.4,0.4-4.8,1.1c-1.4,0.8-2.7,1.8-3.7,3c-1,1.3-1.8,2.7-2.3,4.3
			c-0.5,1.6-0.8,3.3-0.8,5c0,1.8,0.3,3.5,0.9,5.2c0.6,1.6,1.5,3.1,2.6,4.3c1.1,1.2,2.4,2.2,3.8,2.9c1.5,0.7,3.1,1.1,4.8,1.1
			c1.8,0,3.6-0.4,5.3-1.3c1.7-0.9,3.3-2.2,4.8-4.1v-5.4h-7.1v-2.4h9.8v15.8h-2.7V194.5L455.6,194.5z M385.7,199.2l13.5-32.2h2.6
			l13.5,32.2h-3.4l-4.2-10.1h-14.5l-4.1,10.1H385.7L385.7,199.2z M400.5,170.7l-6.6,15.9H407L400.5,170.7L400.5,170.7z M365.5,167
			h3.1v32.2h-3.1V167L365.5,167z M320.6,199.2V167h10.9c2.6,0,4.8,0.4,6.8,1.3c1.9,0.8,3.5,2,4.8,3.4c1.3,1.5,2.2,3.2,2.9,5.1
			c0.6,2,1,4,1,6.2c0,2.4-0.4,4.7-1.1,6.6c-0.7,2-1.8,3.7-3.1,5.1c-1.3,1.4-2.9,2.5-4.9,3.3c-1.9,0.8-4,1.2-6.4,1.2H320.6
			L320.6,199.2z M343.7,183c0-1.9-0.3-3.7-0.8-5.3c-0.5-1.6-1.3-3-2.4-4.2c-1-1.2-2.3-2.1-3.8-2.7c-1.5-0.7-3.3-1-5.2-1l-7.8,0v26.6
			h7.8c2,0,3.8-0.3,5.3-1c1.5-0.7,2.8-1.6,3.8-2.8c1-1.2,1.8-2.6,2.3-4.2C343.5,186.7,343.7,184.9,343.7,183L343.7,183z M704,145.9
			c-5.4,0-10.3-1.1-14.8-3.3c-4.5-2.2-8.3-5.2-11.5-8.9c-3.2-3.7-5.7-7.9-7.4-12.6c-1.7-4.7-2.6-9.6-2.6-14.5
			c0-5.2,0.9-10.1,2.8-14.9c1.9-4.7,4.4-8.9,7.7-12.6c3.3-3.6,7.1-6.5,11.6-8.7c4.4-2.1,9.3-3.2,14.4-3.2c5.4,0,10.3,1.1,14.8,3.4
			c4.5,2.3,8.3,5.3,11.5,9c3.2,3.7,5.6,7.9,7.4,12.6c1.8,4.7,2.6,9.5,2.6,14.4c0,5.2-0.9,10.1-2.8,14.9c-1.9,4.7-4.4,8.9-7.7,12.5
			c-3.2,3.6-7.1,6.5-11.5,8.6C714,144.8,709.2,145.9,704,145.9L704,145.9z M675.3,106.5c0,4.2,0.7,8.3,2.1,12.2
			c1.4,3.9,3.4,7.4,5.9,10.4c2.6,3,5.6,5.4,9.1,7.2c3.5,1.8,7.4,2.7,11.7,2.7c4.4,0,8.3-0.9,11.9-2.8c3.6-1.9,6.6-4.4,9.1-7.4
			c2.5-3.1,4.4-6.5,5.7-10.4c1.3-3.9,2-7.8,2-11.8c0-4.2-0.7-8.3-2.1-12.2c-1.4-3.9-3.4-7.3-6-10.3c-2.6-3-5.6-5.4-9.1-7.2
			c-3.5-1.8-7.4-2.7-11.6-2.7c-4.4,0-8.4,0.9-11.9,2.8c-3.6,1.9-6.6,4.3-9.1,7.4c-2.5,3.1-4.4,6.5-5.7,10.4
			C676,98.6,675.3,102.5,675.3,106.5L675.3,106.5z M600.8,145.4V67.7h32.7c3.4,0,6.4,0.7,9.3,2.1c2.8,1.4,5.3,3.3,7.3,5.6
			c2,2.3,3.6,4.9,4.8,7.8c1.1,2.9,1.7,5.9,1.7,8.9c0,2.8-0.4,5.6-1.3,8.1c-0.8,2.6-2,4.9-3.6,7c-1.5,2.1-3.4,3.8-5.5,5.2
			c-2.1,1.4-4.5,2.4-7.1,2.9l19.1,30h-8.6l-18.4-28.7h-23v28.7H600.8L600.8,145.4z M608.4,109.9h25.5c2.3,0,4.3-0.5,6.2-1.5
			c1.9-1,3.4-2.3,4.8-4c1.3-1.7,2.3-3.6,3.1-5.7c0.7-2.1,1.1-4.3,1.1-6.7c0-2.3-0.4-4.6-1.3-6.7c-0.8-2.2-2-4-3.4-5.6
			c-1.4-1.6-3.1-2.9-5-3.8c-1.9-0.9-4-1.4-6.1-1.4l-24.8,0V109.9L608.4,109.9z M588.9,74.5h-27.7v70.9h-7.7V74.5h-27.7v-6.8h63V74.5
			L588.9,74.5z M506.4,67.8h7.5v77.5h-7.5V67.8L506.4,67.8z M431.9,67.7l27.8,68.1l27.6-68.1h8.1l-32.4,77.6h-6.7l-32.4-77.6H431.9
			L431.9,67.7z M355.4,81.9v63.4h-7.5V67.7h5.9l51.4,64.6V67.8h7.5v77.5h-6.6L355.4,81.9L355.4,81.9z M320.7,67.8h7.5v77.5h-7.5
			V67.8L320.7,67.8z"/>
	</g>
	<g>
		<g>
			<path class="st2" d="M133.6,267C60,267,0,207.1,0,133.5C0,59.9,60,0,133.6,0c73.7,0,133.6,59.9,133.6,133.5
				C267.3,207.1,207.3,267,133.6,267z M133.6,4C62.2,4,4,62.1,4,133.5C4,204.9,62.2,263,133.6,263s129.6-58.1,129.6-129.5
				C263.3,62.1,205.1,4,133.6,4z"/>
		</g>
	</g>
	<g>
		<path class="st1" d="M170.2,68c1.2-0.5,2-1.7,2-3V43.1c0,1.3-0.8,2.5-2,3l-30.9,13.2v21.9L170.2,68L170.2,68z"/>
	</g>
	<g>
		<path class="st2" d="M102.4,103.1c-1.2-0.5-2-1.7-2-3c0-1.3,0.8-2.5,2-3l-5.1,2.2c-1.2,0.5-2,1.7-2,3v17.6c0,1.3,0.8,2.5,2,3
			l67.7,29c1.2,0.5,2,1.7,2,3c0,1.3-0.8,2.5-2,3h0l5.1-2.2c1.2-0.5,2-1.7,2-3v-17.6c0-1.3-0.8-2.5-2-3L102.4,103.1L102.4,103.1z
			 M102.4,168.8c-1.2-0.5-2-1.7-2-3c0-1.3,0.8-2.5,2-3l-5.1,2.2c-1.2,0.5-2,1.7-2,3v17.6c0,1.3,0.8,2.5,2,3l67.7,29
			c1.2,0.5,2,1.7,2,3c0,1.3-0.8,2.5-2,3h0l5.1-2.2c1.2-0.5,2-1.7,2-3v-17.6c0-1.3-0.8-2.5-2-3L102.4,168.8L102.4,168.8z"/>
	</g>
	<g>
		<path class="st3" d="M133.8,83.6L102.4,97c-1.2,0.5-2,1.7-2,3c0,1.3,0.8,2.5,2,3L121,111l12.8-5.5V83.6L133.8,83.6z M165.1,157.9
			c1.2-0.5,2-1.7,2-3c0-1.3-0.8-2.5-2-3l-18.5-7.9l-44.1,18.9c-1.2,0.5-2,1.7-2,3c0,1.3,0.8,2.5,2,3l18.5,7.9L165.1,157.9
			L165.1,157.9z"/>
	</g>
</g>
</svg>
