<svg width="21" height="21" viewBox="0 0 21 21" fill="none" xmlns="http://www.w3.org/2000/svg">
<path d="M11.7295 17.3695H10.1713C10.0028 17.3695 9.86615 17.5072 9.86615 17.6771C9.86615 17.847 10.0028 17.9847 10.1713 17.9847H11.7295C11.8981 17.9847 12.0347 17.847 12.0347 17.6771C12.0347 17.5072 11.898 17.3695 11.7295 17.3695Z" fill="#333333"/>
<path d="M20.1392 19.06L19.8399 18.6012C19.7473 18.4592 19.5581 18.4198 19.4173 18.5131C19.2765 18.6065 19.2374 18.7973 19.33 18.9392L19.6293 19.398C19.9059 19.8221 19.6046 20.3847 19.1014 20.3847H13.2291C12.7256 20.3847 12.4248 19.8219 12.7013 19.398L14.1485 17.1793C14.2536 17.2212 14.3912 17.3362 14.7137 17.3362C15.1324 17.3362 15.1991 17.1556 15.4394 17.1556C15.6827 17.1556 15.7416 17.3362 16.1652 17.3362C16.5839 17.3362 16.6506 17.1556 16.8909 17.1556C17.1343 17.1556 17.1931 17.3362 17.6168 17.3362C17.9397 17.3362 18.0775 17.221 18.1822 17.1795L18.5394 17.7271C18.6319 17.869 18.8211 17.9085 18.962 17.8151C19.1028 17.7218 19.1419 17.5311 19.0493 17.3891L17.7184 15.3486C17.6678 15.2711 17.6411 15.1811 17.6411 15.0883V14.3135C17.9394 14.2897 18.175 14.0379 18.175 13.7312V13.0127C18.175 12.6904 17.9149 12.4281 17.5951 12.4281H14.7354C14.4867 12.4281 14.2746 12.5872 14.1924 12.8095C13.5621 12.5138 12.5995 12.3026 11.913 12.174C11.8846 12.1231 11.8516 12.0743 11.8137 12.0286C11.7941 12.0051 11.7737 11.9824 11.7538 11.9592C12.4796 11.0837 12.8766 9.98591 12.877 8.83714C12.8771 8.29315 12.8778 5.02093 12.8779 4.47587C12.8779 2.00792 10.8862 0 8.43804 0H7.31758C6.7737 0 6.30363 0.307658 6.06749 0.756656C4.41313 1.33001 3.20104 2.9124 3.20267 4.80506C3.20304 6.23438 3.20332 7.40726 3.20369 8.83731C3.20373 9.0072 3.34031 9.14484 3.50882 9.14484C3.67734 9.1448 3.814 9.00703 3.81396 8.83714L3.81359 7.39405C3.91242 7.43035 4.01905 7.4502 4.1302 7.4502H4.41862C4.52806 8.10284 4.82665 8.71631 5.29908 9.25296V9.25477C5.29908 9.5064 5.40335 9.7488 5.58517 9.91992C5.71874 10.0456 5.85683 10.1607 5.99699 10.2655V10.6059C5.67423 10.8257 5.27243 11.0293 4.75374 11.5137C4.4375 11.119 4.19005 10.6664 4.03146 10.1888C3.97796 10.0277 3.80509 9.94083 3.64524 9.99473C3.48543 10.0487 3.39926 10.223 3.45276 10.3841C3.64223 10.9547 3.94228 11.494 4.32691 11.9593C4.27431 12.0206 4.22675 12.0684 4.16763 12.1741C3.18156 12.3588 2.43092 12.5648 1.93574 12.787C0.75983 13.3149 2.38515e-09 14.4944 2.38515e-09 15.7921V19.8304C-4.06825e-05 20.4753 0.520441 21 1.16017 21H19.1015C20.0913 21 20.6828 19.8934 20.1392 19.06ZM17.8435 16.6603C17.4654 16.8538 17.4042 16.5404 16.8909 16.5404C16.4722 16.5404 16.4055 16.721 16.1651 16.721C15.9219 16.721 15.8629 16.5404 15.4394 16.5404C14.9301 16.5404 14.8603 16.8518 14.495 16.6642C14.4924 16.6629 14.4897 16.6615 14.4871 16.6601L15.122 15.6867C15.2383 15.5085 15.2997 15.3015 15.2997 15.0883V14.3158H17.0308V15.0883C17.0308 15.3016 17.0922 15.5085 17.2084 15.6867L17.8435 16.6603ZM17.5647 13.0434V13.7006H14.7658C14.7658 13.5096 14.7658 13.3386 14.7658 13.0434H17.5647ZM14.1555 13.4838V13.7313C14.1555 14.038 14.3912 14.2898 14.6895 14.3135V15.0883C14.6895 15.1811 14.6627 15.2711 14.6122 15.3487C14.2898 15.8429 12.5449 18.518 12.1914 19.06C11.9347 19.4536 11.9075 19.9512 12.1605 20.3848H8.34544V16.5321L9.67709 16.3032C9.94834 16.2634 10.1695 16.0661 10.2415 15.7991L10.4309 15.0966C10.4414 15.0577 10.479 15.0335 10.5183 15.0402L10.9041 15.1062C11.2712 15.1691 11.6259 14.92 11.6948 14.5511L12.018 12.8206C12.6478 12.9455 13.6103 13.162 14.1555 13.4838ZM6.3282 12.2871C6.50555 12.1145 6.60726 11.8732 6.60726 11.6248V10.6542C7.15028 10.9453 7.67214 11.0886 8.03379 11.0964C8.03595 11.0964 8.03815 11.0965 8.0403 11.0965C8.04246 11.0965 8.04465 11.0965 8.04681 11.0964C8.40846 11.0886 8.93032 10.9453 9.47334 10.6542V11.6247C9.47334 11.8731 9.57506 12.1145 9.7524 12.287C9.79134 12.3249 9.79585 12.3845 9.76302 12.4257C9.73015 12.4669 9.83967 12.276 8.0403 15.6259C6.24195 12.2778 6.35046 12.4669 6.31762 12.4257C6.28475 12.3845 6.28931 12.3249 6.3282 12.2871ZM10.2578 12.7861C10.4689 12.4968 10.4362 12.0973 10.1762 11.8444C10.1182 11.788 10.0837 11.7059 10.0837 11.6248V11.3361C10.1636 11.3955 10.7612 11.7193 11.3456 12.4235C11.3718 12.4551 11.3915 12.4907 11.4047 12.5283C11.4071 12.537 11.4098 12.5455 11.4129 12.5539C11.4259 12.6026 11.4281 12.6543 11.4186 12.7053L11.0952 14.4373C11.0875 14.4787 11.0478 14.5069 11.0063 14.4996L10.6205 14.4336C10.2701 14.3738 9.93532 14.5893 9.84203 14.9352L9.65264 15.6378C9.64243 15.6756 9.61562 15.6897 9.5788 15.696L8.60696 15.8631L10.2578 12.7861ZM11.3272 11.514C10.8111 11.0319 10.4093 10.8276 10.0837 10.6059V10.2654C10.2238 10.1606 10.3619 10.0455 10.4954 9.91988C10.6772 9.7488 10.7815 9.50636 10.7815 9.25472V9.25292C11.2541 8.71619 11.5527 8.1026 11.6621 7.45016H11.9504C12.0616 7.45016 12.1681 7.43031 12.267 7.39401L12.2667 8.8371C12.2664 9.81861 11.9348 10.7577 11.3272 11.514ZM12.2675 5.45459L12.2672 6.52436C12.2623 6.69642 12.1223 6.83493 11.9505 6.83493H11.7102L11.7137 5.45459H12.2675ZM7.31758 0.615234H8.43804C10.5497 0.615234 12.2677 2.34716 12.2677 4.47595L12.2676 4.83935C11.6717 4.83935 10.1893 4.83935 9.60451 4.83935C7.89917 4.83935 6.51177 3.44068 6.51177 1.72147V1.42755C6.51177 0.983104 6.86923 0.615234 7.31758 0.615234ZM5.9015 1.48858V1.72147C5.9015 2.21669 5.99788 2.6896 6.17238 3.12244V3.28535C6.17238 3.77225 5.77944 4.16838 5.29647 4.16838C4.86753 4.16838 4.51451 4.45758 4.40157 4.83935H4.12976C4.01856 4.83935 3.91189 4.85924 3.81298 4.89558L3.81294 4.80469C3.81168 3.32936 4.66859 2.07543 5.9015 1.48858ZM3.81339 6.52386L3.81319 5.76905C3.81583 5.59523 3.95668 5.45463 4.12971 5.45463H4.36418L4.37037 6.83497H4.1302C3.95819 6.83493 3.81807 6.69613 3.81339 6.52386ZM4.98088 6.88099L4.97295 5.11129C4.97214 4.93037 5.1171 4.78365 5.29647 4.78365C5.88169 4.78365 6.38882 4.44076 6.63106 3.94386C7.30651 4.85994 8.38791 5.45459 9.60455 5.45459H11.1033L11.0998 6.88238C11.0998 7.38921 10.9656 7.82332 10.7815 8.18065V7.76389C10.7815 7.36891 10.4628 7.04755 10.071 7.04755H6.00968C5.61789 7.04755 5.29912 7.36887 5.29912 7.76389V8.18053C5.11502 7.82299 4.98088 7.3886 4.98088 6.88099ZM5.90939 7.76389C5.90939 7.70815 5.95439 7.66279 6.00968 7.66279H10.071C10.1263 7.66279 10.1713 7.70815 10.1713 7.76389V9.25472C10.1713 9.33647 10.1376 9.41497 10.079 9.47014C9.39897 10.1101 8.52335 10.4677 8.04034 10.4812C7.55733 10.4677 6.68171 10.1101 6.00167 9.47014C5.94304 9.41497 5.90943 9.33647 5.90943 9.25472L5.90939 7.76389ZM5.99699 11.3361V11.6248C5.99699 11.7047 5.96151 11.7888 5.90443 11.8444C5.64449 12.0973 5.61178 12.4968 5.82281 12.7861L7.47372 15.863L6.50189 15.696C6.4649 15.6896 6.43821 15.6754 6.42804 15.6377L6.23866 14.9352C6.14541 14.5893 5.81077 14.3737 5.46019 14.4336L5.07438 14.4996C5.0332 14.5068 4.99329 14.4787 4.98556 14.4373L4.66216 12.7053C4.64251 12.6002 4.67428 12.4968 4.73511 12.4234C5.31417 11.7256 5.92782 11.3875 5.99699 11.3361ZM0.610232 19.8304V15.7921C0.610232 14.7371 1.22795 13.7781 2.18396 13.349C2.59403 13.1649 3.23892 12.9839 4.06263 12.8206L4.38579 14.5512C4.45467 14.92 4.80944 15.1692 5.17646 15.1063L5.56227 15.0403C5.60181 15.0335 5.63929 15.0577 5.64974 15.0966L5.83913 15.7992C5.91114 16.0661 6.13235 16.2634 6.40351 16.3033L7.73517 16.5322V20.3848H3.00608V18.9539C3.00608 18.784 2.86946 18.6463 2.70094 18.6463C2.53243 18.6463 2.39581 18.784 2.39581 18.9539V20.3848H1.16017C0.856945 20.3848 0.610232 20.1361 0.610232 19.8304Z" fill="#333333"/>
</svg>
