<svg width="100" height="88" viewBox="0 0 100 88" fill="none" xmlns="http://www.w3.org/2000/svg">
<path d="M31.9334 3.53381C39.9333 -2.86628 48.9334 0.867144 52.4334 3.53381C57.4338 7.34368 57.0337 12.1337 63.4337 16.5337C69.8337 20.9337 69.9338 26.5339 67.9337 35.0337C65.4338 44.0339 59.8337 52.4337 65.4337 58.0337C71.0337 63.6337 71.4338 68.5339 67.9337 76.0339C60.4338 88.5339 48.6334 90.7337 33.4337 83.5337C18.234 76.3337 10.2435 70.7483 5.43337 63.5337C-1.56711 53.0339 -0.473024 41.3871 1.43337 35.0337C2.93359 30.0339 5.43382 25.5339 13.9337 23.5339C22.2574 21.5754 25.4338 8.03394 31.9334 3.53381Z" fill="#E9F1FB"/>
<g clip-path="url(#clip0)">
<path d="M98.2546 37.4368C97.5272 35.5308 96.0335 33.8291 94.2155 32.6021C88.967 29.2756 80.9684 29.0387 75.5606 32.046C72.6111 33.547 70.6726 36.5172 70.0693 39.5761C68.9751 44.6016 69.2577 50.5811 73.1365 54.3479C77.6594 58.3056 84.2421 59.1799 90.0957 57.5542C90.3738 57.5009 91.2552 57.2793 91.863 56.9574L92.0342 56.8842C93.8522 56.1301 95.586 54.9022 96.8804 53.2394C99.8679 48.8794 100.073 42.3466 98.2546 37.4368ZM88.7242 48.722C88.5177 49.6751 87.8755 50.6624 86.8627 51.0205C85.2503 51.7285 83.0691 51.5323 81.5753 50.704C80.3226 49.8297 80.1613 48.3658 80.0001 46.9806C79.8778 44.2499 79.6803 41.3583 80.4467 38.8618C81.0472 37.3156 82.704 36.9178 84.2023 36.8012C85.7757 36.8012 87.3075 37.0408 88.2795 38.3075C88.8846 39.2163 88.8474 40.4053 88.967 41.4758C88.9244 43.7318 89.1273 46.4227 88.7242 48.722ZM40.8714 51.1814C39.538 51.1001 38.0442 51.2167 36.7534 51.0585L36.7933 37.1538L36.8748 37.0381L40.8714 36.9992C40.913 34.7423 40.9529 32.3218 40.8297 30.2647L25.6088 30.2223L23.1024 30.2657C23.0625 32.3634 23.0625 34.8165 23.1024 36.9576C24.4765 37.0001 25.7664 36.9576 27.0998 37.0815V50.5476L27.0609 51.101L23.0625 51.1824C22.9792 53.3601 22.9792 55.5401 23.0625 57.7179H40.8704L40.8714 51.1814ZM85.6924 60.6854C83.9985 63.1041 81.858 65.4406 79.5209 67.258C79.4357 67.3819 79.1939 67.3349 79.1169 67.2209C78.1042 66.5889 77.0144 66.0717 76.0434 65.4406C77.3369 63.8971 78.5897 62.3527 79.5589 60.6429H78.3025C77.2989 62.114 76.2463 63.6575 74.9147 64.9604C73.1365 64.2488 71.5223 63.6159 69.7052 63.1367L69.5032 62.9857C69.7858 62.1855 70.3094 61.4341 70.4697 60.6411H69.38L68.2903 62.7813C65.9106 62.2669 63.2846 61.9866 60.8615 61.8301C60.7392 61.4748 60.8995 60.9594 60.7392 60.6411H59.6893C59.606 61.1176 59.8107 61.4766 59.5679 61.8717C57.0642 61.9866 54.642 62.2669 52.3022 62.747L51.2079 60.6411C50.8084 60.6411 50.3591 60.5652 50.0801 60.6836L51.0874 63.021L50.967 63.1367C49.1571 63.6593 47.3777 64.2818 45.637 65.0011L45.4766 64.9198C44.3434 63.6919 43.2528 62.3509 42.3633 61.0037C42.1631 60.3265 41.3551 60.7225 40.9103 60.6429C41.8759 62.388 43.1722 63.9306 44.4621 65.5174C43.3724 66.1531 42.2863 66.862 41.1503 67.3819C38.6803 65.5041 36.5271 63.244 34.7723 60.6872C34.2868 60.6095 33.967 60.6447 33.4788 60.6872C36.3865 65.2028 40.9103 69.1622 45.6352 71.4996C45.6352 71.4996 45.6352 71.4643 45.6787 71.4643C45.7131 71.4643 45.7937 71.5375 45.7131 71.5791C48.9053 73.1244 52.2994 74.2329 55.8902 74.7104C68.2885 76.3325 80.1215 71.0674 86.9823 60.6872C86.5535 60.6432 86.1213 60.6425 85.6924 60.6854ZM68.8573 64.2497L68.976 64.1702C70.717 64.5662 72.3693 65.1214 73.9047 65.8719C72.6111 67.334 70.9553 68.6043 69.4226 69.6731C68.495 70.2256 67.5629 70.8259 66.5927 71.2979L64.8598 70.5456L64.9785 70.2717C66.4351 68.3322 67.7277 66.3493 68.8573 64.2497ZM60.8995 63.0607C63.2031 63.1041 65.5057 63.341 67.6426 63.8537L67.6852 63.974C66.5565 66.1106 65.1397 68.1749 63.608 70.1116C62.9177 70.193 62.2746 69.919 61.5889 69.8765L60.8986 69.7952C60.8198 67.4578 60.7772 65.3981 60.8995 63.0607ZM53.1093 63.7732C55.209 63.3772 57.3885 63.0607 59.6485 63.0607L59.6902 69.7617C58.8405 69.9534 57.912 69.9534 57.104 70.1568C55.4482 68.211 54.0767 66.1106 52.9073 63.9306L53.1093 63.7732ZM46.6044 65.9144C48.1833 65.1594 49.8365 64.6015 51.5304 64.1693L51.6943 64.2109C52.862 66.39 54.3177 68.4479 55.7706 70.5077C55.2099 70.8268 54.5197 71.0176 53.9562 71.3395C51.2254 69.993 48.7406 68.1982 46.6053 66.0301V65.9144H46.6044ZM51.8157 72.6868C48.4234 71.8124 45.271 70.3078 42.3642 68.2517V68.1287C43.3334 67.5401 44.3063 66.9045 45.3525 66.4641C47.6561 68.7282 50.0367 70.4317 52.621 72.052C52.4199 72.2898 52.0974 72.5285 51.8157 72.6868ZM66.7956 73.1985C62.5164 74.1154 57.749 74.1507 53.4707 73.1226C53.3892 72.9255 53.6727 72.883 53.7932 72.7672C57.5488 70.3485 63.4014 70.3485 67.0801 72.9598C67.1996 73.1985 66.8772 73.1226 66.7956 73.1985ZM70.6735 72.0936L68.7758 72.6859C68.4515 72.5276 68.1707 72.2898 67.8854 72.0511L67.9669 71.93C70.5522 70.4308 72.8928 68.6034 75.1149 66.4252C76.2055 66.8602 77.2563 67.4578 78.2283 68.1278C75.9646 69.919 73.3385 71.1017 70.6735 72.0936ZM34.6935 27.2131C35.6923 25.8333 36.7849 24.5237 37.9636 23.2934C39.0098 22.3033 39.9827 21.353 41.115 20.6369C42.1658 21.3096 43.3352 21.8702 44.3443 22.5013C43.0934 24.0385 41.8007 25.5901 40.8723 27.2493C41.1531 27.3731 41.6803 27.3343 42.0852 27.2493C43.0934 25.7863 44.1804 24.3215 45.4776 23.0131C47.2095 23.6488 48.908 24.3197 50.687 24.7971L50.8438 24.9544L49.8383 27.2493C50.284 27.3343 50.5666 27.2927 51.0077 27.2493C51.3701 26.5802 51.6509 25.8297 52.0549 25.1524C54.4001 25.6696 56.864 25.9454 59.3677 26.0223C59.6884 26.3035 59.4474 26.8948 59.5688 27.2493H60.6586C60.7772 26.8605 60.6178 26.4192 60.7772 26.0666C63.1215 25.9436 65.5836 25.7058 67.8527 25.1506L68.0493 25.1922L69.1399 27.2475C69.5041 27.2475 69.9878 27.3325 70.2704 27.1661L69.2586 24.8749L69.3429 24.7953C71.1971 24.3197 72.9363 23.6072 74.7127 22.8956C75.9682 24.2021 77.1358 25.7465 78.1893 27.2466C78.6314 27.2466 79.0761 27.29 79.3995 27.1652C78.9008 26.2809 78.319 25.4459 77.6621 24.6714C77.1288 23.9129 76.5337 23.1994 75.883 22.5384V22.3332L78.7102 20.712L79.1178 20.5537C81.5764 22.4113 83.7279 24.6422 85.494 27.1652C85.9786 27.1652 86.3835 27.3315 86.7885 27.1317C81.3715 19.0582 72.449 13.8636 62.8027 13.1158L62.7601 13.1927L62.6777 13.1158C61.5888 12.9992 60.2509 12.9531 59.0815 13.0697C58.6385 13.0354 58.1149 13.0697 57.5887 13.1158C47.8989 13.8636 38.9754 18.8177 33.4 27.2511C33.804 27.2131 34.2886 27.374 34.6935 27.2131ZM51.4543 23.7329L51.2931 23.7672C49.6354 23.3359 48.0184 22.816 46.4839 22.1451L46.5618 21.9073C48.783 19.8087 51.1246 18.0645 53.7089 16.7208C54.3177 16.9586 54.9228 17.1549 55.5279 17.4361L55.4092 17.7453C53.872 19.6513 52.6636 21.7066 51.4543 23.7329ZM59.4873 24.7989C58.3595 24.9571 57.3495 24.7636 56.2145 24.6759C55.1293 24.5168 53.7533 24.402 52.6636 24.0403C53.8348 21.872 55.2099 19.7689 56.864 17.833L59.4493 18.1847C59.5688 20.2409 59.4873 22.6189 59.4873 24.7989ZM60.7383 24.8414C60.6586 22.7355 60.7002 20.4018 60.7383 18.2227C61.549 18.107 62.4331 17.984 63.2429 17.8674C64.8173 19.8448 66.3554 21.872 67.4062 24.0403C65.2227 24.5676 62.9847 24.8365 60.7383 24.8414ZM73.6239 22.0646C72.0459 22.7346 70.429 23.3694 68.6952 23.7329C67.4442 21.6333 66.0719 19.5347 64.5328 17.5066C65.099 17.1964 65.7892 16.9586 66.3934 16.6431C69.0231 17.9487 71.564 19.8087 73.7018 21.9407L73.6239 22.0646ZM68.4515 15.2922C71.8439 16.1657 75.0343 17.6684 77.942 19.7282L77.8614 19.8864L75.0777 21.429H74.8721C72.7352 19.2978 70.2324 17.4361 67.6852 15.9667C67.7658 15.6892 68.1716 15.4893 68.4515 15.2922ZM66.8382 14.8944V14.9785C63.3226 17.5066 57.6303 17.7453 53.9173 15.408C53.7089 15.2497 53.3104 15.1729 53.2669 14.8953C57.5497 13.9097 62.5943 13.8301 66.8382 14.8944ZM42.2038 19.8087C44.7502 17.9487 47.5755 16.5626 50.5648 15.6114C50.687 15.4875 50.765 15.3709 50.9244 15.3709V15.4523C51.2469 15.53 51.4905 15.1711 51.7722 15.4061C52.0159 15.6114 52.3013 15.7678 52.5005 15.9649C49.9986 17.5066 47.5338 19.3322 45.2719 21.5456C44.1813 21.1568 43.1758 20.5591 42.2029 19.8864L42.2038 19.8087ZM59.529 51.4907C55.7335 52.5224 51.6119 51.7357 48.8672 48.8794C48.5456 48.4833 48.3418 48.0113 48.0175 47.6171L42.568 47.6551C42.4819 50.8623 42.4439 54.5469 42.568 57.717L48.6226 57.6781L48.7033 55.7757C49.3926 56.0921 50.0801 56.4873 50.765 56.8426C54.9644 58.5877 60.3705 58.9837 64.531 56.8426C67.562 55.1834 69.178 51.9762 68.7323 48.5231C68.2903 45.1604 65.0582 42.1088 61.7899 41.2796L52.015 38.4649L51.2922 38.1068C50.9688 37.8319 50.7659 37.4775 50.8447 37.0381C51.6119 35.7342 53.391 36.1302 54.7235 36.1655C57.5497 36.5625 60.4566 37.5128 62.1133 40.0888C63.8879 40.0888 65.9469 40.1232 67.8835 40.0472C67.966 36.8003 67.8518 33.9502 67.8038 30.6617C65.9867 30.6201 63.7647 30.6201 61.9503 30.7033C61.8688 31.1744 62.0282 31.8453 61.8262 32.3227L59.9701 31.3317C55.5261 29.4709 49.3065 29.2765 45.2701 32.1681C42.6441 34.066 41.8388 37.4757 42.5254 40.4848C43.0481 43.3321 45.7937 45.4335 48.4197 46.4209C52.0132 47.6867 55.767 48.6036 59.4076 49.8297C59.7681 49.9906 60.2518 50.3496 60.1739 50.7845C60.1757 51.1362 59.8098 51.3397 59.529 51.4907Z" fill="url(#paint0_linear)"/>
</g>
<defs>
<linearGradient id="paint0_linear" x1="61.2184" y1="13.0019" x2="61.4481" y2="75.1281" gradientUnits="userSpaceOnUse">
<stop stop-color="#014982"/>
<stop offset="1" stop-color="#00A9CB"/>
</linearGradient>
<clipPath id="clip0">
<rect width="76.4186" height="62" fill="white" transform="translate(23 13)"/>
</clipPath>
</defs>
</svg>
