<svg width="88" height="88" viewBox="0 0 88 88" fill="none" xmlns="http://www.w3.org/2000/svg">
<path d="M31.9334 3.53381C39.9333 -2.86628 48.9334 0.867144 52.4334 3.53381C57.4338 7.34368 57.0337 12.1337 63.4337 16.5337C69.8337 20.9337 69.9338 26.5339 67.9337 35.0337C65.4338 44.0339 59.8337 52.4337 65.4337 58.0337C71.0337 63.6337 71.4338 68.5339 67.9337 76.0339C60.4338 88.5339 48.6334 90.7337 33.4337 83.5337C18.234 76.3337 10.2435 70.7483 5.43337 63.5337C-1.56711 53.0339 -0.473024 41.3871 1.43337 35.0337C2.93359 30.0339 5.43382 25.5339 13.9337 23.5339C22.2574 21.5754 25.4338 8.03394 31.9334 3.53381Z" fill="#E9F1FB"/>
<mask id="path-2-outside-1" maskUnits="userSpaceOnUse" x="22.1211" y="9.02832" width="66" height="63" fill="black">
<rect fill="white" x="22.1211" y="9.02832" width="66" height="63"/>
<path d="M39.3527 20.7542C39.2652 20.7542 39.1792 20.7317 39.1028 20.6891C39.0263 20.6465 38.9621 20.585 38.9161 20.5106C38.8701 20.4362 38.8439 20.3512 38.84 20.2638C38.836 20.1764 38.8545 20.0894 38.8936 20.0111C39.1226 19.5541 39.3768 19.0966 39.65 18.6519C39.7251 18.5446 39.8384 18.47 39.9667 18.4435C40.0949 18.417 40.2285 18.4404 40.34 18.5091C40.4515 18.5778 40.5326 18.6865 40.5666 18.813C40.6006 18.9395 40.585 19.0742 40.523 19.1895C40.2662 19.6091 40.0259 20.0399 39.8102 20.4702C39.7677 20.5553 39.7025 20.6269 39.6217 20.677C39.5409 20.7271 39.4478 20.7539 39.3527 20.7542Z"/>
<path d="M54.9974 45.9728C51.6999 45.9716 48.4661 45.0635 45.6499 43.348C42.8337 41.6324 40.5435 39.1755 39.0297 36.2459C37.8509 33.9763 37.1766 31.4787 37.0532 28.9242C37.0498 28.8568 37.0598 28.7894 37.0824 28.7259C37.1051 28.6624 37.14 28.6039 37.1853 28.5539C37.2305 28.5039 37.2852 28.4632 37.3462 28.4344C37.4071 28.4055 37.4732 28.3889 37.5406 28.3855C37.6762 28.3803 37.8084 28.4284 37.909 28.5195C38.0096 28.6105 38.0705 28.7374 38.0787 28.8728C38.2021 31.2872 38.8411 33.6471 39.953 35.7938C41.0648 37.9405 42.6235 39.8241 44.5243 41.3178C47.7028 43.8198 51.6718 45.1014 55.7133 44.9309L55.9998 44.9155C59.5617 44.7042 62.966 43.3739 65.7275 41.1143C68.489 38.8547 70.4667 35.7811 71.3789 32.3315C72.2911 28.882 72.0912 25.2325 70.8076 21.9032C69.524 18.574 67.2222 15.7348 64.2304 13.7904C61.2831 11.8637 57.8049 10.9117 54.2873 11.0688C54.0141 11.0791 53.7434 11.0991 53.4774 11.1202C49.3857 11.4882 45.5674 13.3316 42.7342 16.3066C42.6881 16.3571 42.6324 16.3978 42.5703 16.4265C42.5083 16.4551 42.4411 16.4711 42.3728 16.4734C42.3045 16.4757 42.2364 16.4644 42.1725 16.4401C42.1086 16.4158 42.0503 16.379 42.0008 16.3318C41.9513 16.2846 41.9118 16.2281 41.8845 16.1654C41.8572 16.1027 41.8426 16.0353 41.8417 15.9669C41.8408 15.8986 41.8536 15.8307 41.8793 15.7674C41.9049 15.704 41.943 15.6465 41.9912 15.598C44.9973 12.4408 49.0492 10.485 53.3912 10.0952C53.6772 10.0736 53.9607 10.0526 54.2446 10.0438C56.9344 9.93204 59.6149 10.4256 62.0884 11.4881C64.5619 12.5506 66.7653 14.1549 68.5359 16.1827C70.3066 18.2104 71.5994 20.6099 72.3189 23.204C73.0385 25.7981 73.1663 28.5207 72.6931 31.1708C71.9922 35.1484 69.9671 38.7722 66.9466 41.4536C63.9262 44.135 60.0879 45.7164 56.0553 45.941L55.76 45.9569C55.5074 45.9677 55.2516 45.9728 54.9974 45.9728Z"/>
<path d="M37.7772 25.6328C37.7499 25.6328 37.7226 25.6306 37.6956 25.6261C37.5612 25.6045 37.4409 25.5305 37.361 25.4202C37.2812 25.31 37.2484 25.1726 37.2699 25.0381C37.354 24.5118 37.4657 23.9902 37.6047 23.4755C37.6209 23.4089 37.6503 23.3462 37.6911 23.2912C37.7319 23.2361 37.7833 23.1898 37.8423 23.1549C37.9013 23.12 37.9667 23.0973 38.0346 23.088C38.1025 23.0788 38.1716 23.0833 38.2377 23.1012C38.3039 23.1191 38.3658 23.15 38.4198 23.1922C38.4738 23.2344 38.5189 23.287 38.5522 23.3469C38.5856 23.4067 38.6066 23.4727 38.6141 23.5408C38.6216 23.609 38.6154 23.6779 38.5958 23.7436C38.4664 24.2234 38.3622 24.7097 38.2836 25.2004C38.2643 25.3209 38.2028 25.4306 38.11 25.5098C38.0172 25.589 37.8992 25.6326 37.7772 25.6328Z"/>
<path d="M53.8764 32.6798C52.8401 32.6798 51.8978 31.7257 51.1368 29.8966C51.0055 29.5643 50.9505 29.2068 50.9757 28.8504C51.001 28.494 51.1058 28.1479 51.2827 27.8374C51.4601 27.5705 51.5258 27.2447 51.4655 26.93C51.4053 26.6152 51.2241 26.3367 50.9607 26.1541C50.5923 25.82 50.3355 25.3808 50.2248 24.896C50.2094 24.8308 50.1925 24.7769 50.176 24.7229C50.0679 24.4372 49.8627 24.1986 49.5964 24.0489C49.33 23.8993 49.0195 23.8481 48.7192 23.9044C48.2173 23.9956 47.706 24.0235 47.1971 23.9876C46.7656 23.9442 46.3543 23.7833 46.0079 23.5223C45.6614 23.2614 45.3932 22.9104 45.2324 22.5077C44.7531 21.2853 44.6916 19.9388 45.0573 18.6779C45.2542 17.9791 45.6039 17.3329 46.0812 16.7859C46.5584 16.2389 47.1513 15.8049 47.817 15.5151C48.5055 15.2257 49.2581 15.1226 49.9991 15.216C50.7401 15.3095 51.4435 15.5963 52.0385 16.0477C52.2391 16.1994 52.468 16.3094 52.7118 16.3712C53.3693 16.5553 54.0691 16.5177 54.7032 16.2644C55.0192 16.1198 55.2848 15.884 55.4658 15.5874C55.6468 15.2907 55.7349 14.9467 55.7189 14.5995C55.7065 14.3019 55.6033 14.0152 55.4231 13.7779C55.2614 13.5896 55.0632 13.436 54.8404 13.3266C54.6176 13.2171 54.3749 13.1541 54.127 13.1412C53.7966 13.1363 53.4722 13.0522 53.1811 12.8959C52.8899 12.7396 52.6406 12.5157 52.454 12.243L52.3939 12.1321V12.0048C52.4018 11.3767 52.6289 10.7712 53.0358 10.2927L53.8471 10.9223C53.6284 11.1781 53.4837 11.4889 53.4286 11.8209C53.6571 12.0032 53.9377 12.1077 54.2297 12.1193C54.6193 12.1423 54.9997 12.2468 55.3464 12.4259C55.6931 12.605 55.9984 12.8548 56.2427 13.1591C56.5478 13.5601 56.723 14.0448 56.7449 14.5482C56.7702 15.1022 56.6291 15.6511 56.3397 16.1241C56.0503 16.5972 55.6259 16.9728 55.1212 17.2025C54.284 17.5491 53.3557 17.6087 52.4812 17.372C52.1017 17.2795 51.745 17.1109 51.4326 16.8765C50.9818 16.5268 50.4457 16.304 49.8799 16.2312C49.3141 16.1583 48.7391 16.238 48.2144 16.4621C47.6902 16.6919 47.2236 17.0354 46.8484 17.4678C46.4733 17.9001 46.199 18.4104 46.0453 18.9618C45.7365 20.0057 45.787 21.123 46.1886 22.1348C46.2787 22.3611 46.429 22.5583 46.6233 22.705C46.8176 22.8518 47.0484 22.9425 47.2906 22.9672C47.7107 22.9952 48.1326 22.9709 48.5467 22.8948C49.0893 22.7988 49.6485 22.8977 50.1253 23.174C50.6021 23.4504 50.9659 23.8864 51.1522 24.4051C51.1815 24.4996 51.2036 24.5771 51.2231 24.6547C51.2858 24.9331 51.4303 25.1865 51.638 25.3823C52.0734 25.7219 52.3693 26.2091 52.47 26.752C52.5706 27.2948 52.469 27.8558 52.1844 28.3288C52.0801 28.5041 52.017 28.7007 51.9997 28.9038C51.9825 29.107 52.0115 29.3114 52.0848 29.5017C52.6758 30.9221 53.3881 31.718 53.9694 31.6467C54.1902 31.5778 55.8432 31.0217 55.8991 29.7087C55.8775 29.2026 56.0444 28.7065 56.3677 28.3165C56.6909 27.9264 57.1474 27.6703 57.6487 27.5976C57.8105 27.5323 57.9475 27.4175 58.04 27.2695C58.0707 27.1941 58.0707 27.1097 58.04 27.0343C57.7404 26.5101 57.6457 25.8936 57.7741 25.3037C57.9025 24.7138 58.245 24.1924 58.7353 23.8402L60.1803 22.4912C60.247 22.4328 60.2956 22.3565 60.3205 22.2714C60.3167 21.9303 60.18 21.604 59.9395 21.362H59.4008C59.0701 21.3625 58.7482 21.2551 58.4842 21.056C58.2201 20.8569 58.0283 20.5771 57.9378 20.259C57.8635 19.9917 57.7364 19.742 57.5639 19.5247C57.3701 19.2976 57.2467 19.0189 57.2088 18.7228C57.1708 18.4267 57.22 18.1259 57.3503 17.8573C57.4736 17.6003 57.6677 17.3838 57.9097 17.2333C58.1518 17.0827 58.4318 17.0044 58.7168 17.0074C59.8979 16.974 61.3357 16.6628 61.537 16.2695L61.5945 16.1586L61.6972 16.0857C61.7152 16.0728 63.513 14.7777 64.0219 13.2033L64.9976 13.5196C64.4481 15.2173 62.7895 16.5494 62.3787 16.8575C61.6772 17.8999 59.2544 18.0206 58.7604 18.0344H58.7075C58.618 18.0321 58.5298 18.0557 58.4535 18.1026C58.3772 18.1495 58.3161 18.2175 58.2777 18.2984C58.2338 18.3894 58.2173 18.4913 58.2302 18.5916C58.243 18.6918 58.2847 18.7862 58.3501 18.8632C58.6138 19.1891 58.8088 19.5651 58.9232 19.9683C58.9521 20.073 59.0144 20.1654 59.1006 20.2314C59.1868 20.2974 59.2922 20.3334 59.4008 20.334H59.9862C60.1725 20.3495 60.3524 20.4088 60.5115 20.5069C60.6706 20.6051 60.8043 20.7393 60.9018 20.8988C61.246 21.3682 61.3934 21.9533 61.3126 22.5297C61.2391 22.8039 61.0881 23.051 60.8777 23.2415L59.4162 24.6059C58.3019 25.5487 58.9068 26.4838 58.9335 26.5233L58.9848 26.626C59.0559 26.7973 59.0912 26.9814 59.0885 27.1668C59.0859 27.3523 59.0454 27.5352 58.9694 27.7044C58.7503 28.1129 58.388 28.4262 57.9522 28.5841L57.8495 28.6092C57.5824 28.6382 57.337 28.7695 57.1646 28.9755C56.9923 29.1815 56.9064 29.4463 56.9251 29.7143C56.8327 31.907 54.3227 32.6177 54.2158 32.647L54.1645 32.6578C54.0692 32.6731 53.9729 32.6805 53.8764 32.6798Z"/>
<path d="M56.5406 45.4592H55.5136C55.5136 42.8347 57.7155 41.1693 58.0945 40.9023C58.9675 40.0258 61.249 40.454 61.9371 40.6086L62.0265 40.6358C62.1083 40.6538 62.1936 40.6485 62.2727 40.6206C62.3517 40.5926 62.4213 40.5431 62.4737 40.4776C62.5394 40.399 62.5808 40.303 62.593 40.2013C62.6052 40.0996 62.5877 39.9965 62.5425 39.9046C62.3669 39.5243 62.2728 39.1115 62.2663 38.6927C62.2634 38.5842 62.2251 38.4796 62.1574 38.3948C62.0896 38.31 61.9961 38.2496 61.8909 38.2228L61.326 38.0795C61.149 38.0187 60.9888 37.917 60.8586 37.7825C60.7284 37.648 60.6318 37.4846 60.5768 37.3057C60.3586 36.7644 60.3614 36.1591 60.5845 35.6198C60.7212 35.371 60.9289 35.1686 61.1812 35.0385L62.9323 34.0813C64.2464 33.4451 63.891 32.3903 63.8751 32.3456L63.8494 32.2342C63.8227 32.0503 63.834 31.8629 63.8826 31.6835C63.9312 31.5041 64.016 31.3366 64.1319 31.1913C64.445 30.8493 64.8735 30.6351 65.335 30.5899L65.3895 30.5853L65.4439 30.5915C65.7093 30.6296 65.9793 30.5639 66.1975 30.408C66.4157 30.252 66.5653 30.018 66.6152 29.7545C67.2443 27.649 69.8534 27.5854 69.9643 27.5838C71.5285 27.7112 72.5093 29.7021 72.6952 31.0085L71.6779 31.1533C71.5388 30.1735 70.8019 28.711 69.9561 28.6119C69.7266 28.6227 67.9868 28.7495 67.6089 30.0112C67.5032 30.5065 67.2177 30.945 66.8074 31.2419C66.3972 31.5388 65.8914 31.673 65.3879 31.6185C65.2143 31.6417 65.0524 31.7193 64.9258 31.8403C64.876 31.9063 64.8539 31.989 64.8641 32.0709C65.0259 32.6529 64.9657 33.2743 64.6953 33.8144C64.4249 34.3546 63.9635 34.7751 63.4006 34.9943L61.6665 35.9423C61.5901 35.9798 61.5264 36.0392 61.4837 36.1128C61.4405 36.2776 61.4305 36.4493 61.4541 36.618C61.4777 36.7867 61.5345 36.949 61.6213 37.0956L62.143 37.2281C62.4636 37.3093 62.749 37.4929 62.9559 37.751C63.1627 38.0091 63.2798 38.3276 63.2892 38.6583C63.2922 38.9341 63.3518 39.2064 63.4643 39.4583C63.5964 39.7275 63.6473 40.0293 63.6108 40.3269C63.5743 40.6245 63.4521 40.9051 63.2589 41.1344C63.0784 41.3556 62.8374 41.5193 62.5654 41.6057C62.2934 41.6921 62.002 41.6973 61.7271 41.6207L61.6644 41.6012C60.5347 41.3552 59.0994 41.3085 58.8113 41.6346L58.7086 41.7224C58.6938 41.7363 56.5406 43.2065 56.5406 45.4592Z"/>
<path d="M44.2054 42.2351C44.1363 42.2351 44.068 42.2209 44.0046 42.1935C43.8795 42.1401 43.7806 42.0393 43.7298 41.913C43.6789 41.7868 43.6803 41.6456 43.7335 41.5203L43.8362 41.2785C44.1254 40.6132 44.6669 40.09 45.3417 39.8237C46.0164 39.5573 46.7693 39.5697 47.4349 39.8581C47.6247 39.9374 47.838 39.9398 48.0296 39.8649C48.2212 39.79 48.3762 39.6435 48.4619 39.4565C48.5045 39.3575 48.5267 39.251 48.5271 39.1433C48.5273 38.9912 48.4828 38.8425 48.3992 38.7155C48.3155 38.5885 48.1965 38.4889 48.0568 38.429C47.7908 38.312 47.5647 38.1201 47.4061 37.8767C47.2475 37.6333 47.1633 37.3489 47.1638 37.0584C47.1634 36.8529 47.2061 36.6497 47.2891 36.4617L48.0224 34.7671C48.0825 34.6328 48.1152 34.4879 48.1186 34.3408C48.1221 34.1938 48.0961 34.0475 48.0424 33.9106C47.9613 33.703 47.8204 33.5242 47.6377 33.3968C47.4549 33.2693 47.2385 33.199 47.0157 33.1946C46.793 33.1902 46.5739 33.2519 46.3863 33.3721C46.1986 33.4922 46.0509 33.6653 45.9616 33.8695C45.826 34.1713 45.578 34.4083 45.2704 34.5301C44.9627 34.6519 44.6197 34.6489 44.3143 34.5216L42.9997 33.9496C42.9029 33.9071 42.7986 33.8841 42.6929 33.882C42.5872 33.8799 42.4821 33.8987 42.3837 33.9373C42.2853 33.9759 42.1955 34.0336 42.1194 34.107C42.0433 34.1804 41.9824 34.268 41.9403 34.365C41.6849 34.9515 41.2911 35.4673 40.7926 35.8681C40.4518 36.146 40.0632 36.3597 39.6459 36.4987C39.5816 36.5207 39.5136 36.5297 39.4457 36.5252C39.3779 36.5207 39.3117 36.5028 39.2508 36.4725C39.1899 36.4423 39.1357 36.4002 39.0912 36.3488C39.0468 36.2974 39.0129 36.2376 38.9917 36.1731C38.9705 36.1085 38.9623 36.0403 38.9677 35.9726C38.973 35.9048 38.9917 35.8388 39.0228 35.7783C39.0538 35.7178 39.0966 35.6641 39.1485 35.6203C39.2005 35.5765 39.2606 35.5434 39.3255 35.523C39.6247 35.4219 39.9031 35.2674 40.1471 35.067C40.5168 34.7714 40.809 34.3904 40.9985 33.9568C41.0946 33.736 41.2334 33.5363 41.4068 33.3692C41.5801 33.2021 41.7848 33.0709 42.009 32.983C42.2332 32.8951 42.4725 32.8522 42.7132 32.8569C42.954 32.8616 43.1915 32.9138 43.412 33.0104L44.7205 33.5799C44.7768 33.603 44.8399 33.6031 44.8963 33.5802C44.9527 33.5572 44.9978 33.513 45.0219 33.4571C45.1328 33.1952 45.2945 32.9579 45.4978 32.7589C45.701 32.5599 45.9417 32.4032 46.2059 32.2978C46.47 32.1925 46.7525 32.1405 47.0369 32.1451C47.3213 32.1496 47.602 32.2104 47.8627 32.3241C48.1234 32.4379 48.3589 32.6021 48.5557 32.8075C48.7526 33.0128 48.9067 33.2551 49.0092 33.5204C49.1117 33.7857 49.1606 34.0688 49.1531 34.3531C49.1455 34.6374 49.0816 34.9174 48.9652 35.1769L48.2324 36.8715C48.2061 36.9303 48.1925 36.994 48.1923 37.0584C48.1926 37.1488 48.2189 37.2373 48.2681 37.3132C48.3173 37.3892 48.3872 37.4494 48.4696 37.4867C48.7928 37.6264 49.068 37.8578 49.2612 38.1522C49.4544 38.4466 49.5572 38.7911 49.5567 39.1433C49.5569 39.4431 49.4825 39.7384 49.3401 40.0023C49.1978 40.2662 48.992 40.4906 48.7413 40.6552C48.4906 40.8197 48.2028 40.9193 47.904 40.9449C47.6053 40.9705 47.3048 40.9214 47.0297 40.8019C46.6145 40.6212 46.1445 40.6127 45.723 40.7781C45.3014 40.9434 44.9627 41.2693 44.7811 41.6841L44.6784 41.9224C44.6389 42.0152 44.5731 42.0943 44.489 42.15C44.4049 42.2056 44.3062 42.2352 44.2054 42.2351Z"/>
<path d="M29.5312 60.8983H24.5742V67.9999H23.1211V50.9374H28.6641C30.4844 50.9374 31.9062 51.3788 32.9297 52.2616C33.9531 53.1444 34.4648 54.3788 34.4648 55.9647C34.4648 57.0585 34.1445 58.0233 33.5039 58.8593C32.8633 59.6952 32.0039 60.2733 30.9258 60.5936L35.1914 67.8475V67.9999H33.6562L29.5312 60.8983ZM24.5742 59.6679H28.9922C30.2031 59.6679 31.1758 59.3241 31.9102 58.6366C32.6445 57.9491 33.0117 57.0585 33.0117 55.9647C33.0117 54.7616 32.6289 53.828 31.8633 53.1639C31.0977 52.4999 30.0234 52.1679 28.6406 52.1679H24.5742V59.6679Z"/>
<path d="M40.1484 67.9999H38.707V50.9374H40.1484V67.9999Z"/>
<path d="M57.3516 60.3944C57.3516 62.0194 57.0625 63.4374 56.4844 64.6483C55.9141 65.8514 55.0977 66.7616 54.0352 67.3788L57.1406 70.0858L56.1445 70.9764L52.6641 67.9647C52.0234 68.1444 51.3711 68.2343 50.707 68.2343C49.4102 68.2343 48.2539 67.9139 47.2383 67.2733C46.2305 66.6327 45.4492 65.7264 44.8945 64.5546C44.3398 63.3749 44.0586 62.0155 44.0508 60.4764V58.5663C44.0508 57.0116 44.3242 55.6366 44.8711 54.4413C45.4258 53.2382 46.207 52.3163 47.2148 51.6757C48.2227 51.0272 49.3789 50.703 50.6836 50.703C52.0117 50.703 53.1797 51.0233 54.1875 51.6639C55.1953 52.3046 55.9727 53.2225 56.5195 54.4179C57.0742 55.6132 57.3516 56.9921 57.3516 58.5546V60.3944ZM55.9102 58.5429C55.9102 56.4882 55.4453 54.8788 54.5156 53.7147C53.5859 52.5507 52.3086 51.9686 50.6836 51.9686C49.1055 51.9686 47.8438 52.5546 46.8984 53.7264C45.9609 54.8905 45.4922 56.5194 45.4922 58.6132V60.3944C45.4922 62.4179 45.957 64.0233 46.8867 65.2108C47.8242 66.3905 49.0977 66.9804 50.707 66.9804C52.332 66.9804 53.6055 66.3983 54.5273 65.2343C55.4492 64.0702 55.9102 62.4452 55.9102 60.3593V58.5429Z"/>
<path d="M70.2422 63.2186H62.4961L60.7383 67.9999H59.2266L65.6836 50.9374H67.0547L73.5117 67.9999H72.0117L70.2422 63.2186ZM62.9414 61.9882H69.7852L66.3633 52.6952L62.9414 61.9882Z"/>
<path d="M85.6875 63.8046C85.6875 62.8593 85.3555 62.1132 84.6914 61.5663C84.0273 61.0116 82.8125 60.4882 81.0469 59.996C79.2812 59.496 77.9922 58.953 77.1797 58.3671C76.0234 57.5389 75.4453 56.453 75.4453 55.1093C75.4453 53.8046 75.9805 52.746 77.0508 51.9335C78.1289 51.1132 79.5039 50.703 81.1758 50.703C82.3086 50.703 83.3203 50.9218 84.2109 51.3593C85.1094 51.7968 85.8047 52.4061 86.2969 53.1874C86.7891 53.9686 87.0352 54.8397 87.0352 55.8007H85.582C85.582 54.6366 85.1836 53.703 84.3867 52.9999C83.5898 52.2889 82.5195 51.9335 81.1758 51.9335C79.8711 51.9335 78.832 52.2264 78.0586 52.8124C77.2852 53.3905 76.8984 54.1483 76.8984 55.0858C76.8984 55.953 77.2461 56.66 77.9414 57.2069C78.6367 57.7538 79.75 58.2382 81.2812 58.66C82.8125 59.0741 83.9727 59.5077 84.7617 59.9608C85.5508 60.4061 86.1445 60.9413 86.543 61.5663C86.9414 62.1913 87.1406 62.9296 87.1406 63.7811C87.1406 65.1249 86.6016 66.203 85.5234 67.0155C84.4531 67.828 83.0391 68.2343 81.2812 68.2343C80.0781 68.2343 78.9727 68.0194 77.9648 67.5897C76.9648 67.16 76.2031 66.5585 75.6797 65.785C75.1641 65.0116 74.9062 64.1249 74.9062 63.1249H76.3477C76.3477 64.328 76.7969 65.2772 77.6953 65.9725C78.5938 66.6679 79.7891 67.0155 81.2812 67.0155C82.6094 67.0155 83.6758 66.7225 84.4805 66.1366C85.2852 65.5507 85.6875 64.7733 85.6875 63.8046Z"/>
</mask>
<path d="M39.3527 20.7542C39.2652 20.7542 39.1792 20.7317 39.1028 20.6891C39.0263 20.6465 38.9621 20.585 38.9161 20.5106C38.8701 20.4362 38.8439 20.3512 38.84 20.2638C38.836 20.1764 38.8545 20.0894 38.8936 20.0111C39.1226 19.5541 39.3768 19.0966 39.65 18.6519C39.7251 18.5446 39.8384 18.47 39.9667 18.4435C40.0949 18.417 40.2285 18.4404 40.34 18.5091C40.4515 18.5778 40.5326 18.6865 40.5666 18.813C40.6006 18.9395 40.585 19.0742 40.523 19.1895C40.2662 19.6091 40.0259 20.0399 39.8102 20.4702C39.7677 20.5553 39.7025 20.6269 39.6217 20.677C39.5409 20.7271 39.4478 20.7539 39.3527 20.7542Z" fill="url(#paint0_linear)"/>
<path d="M54.9974 45.9728C51.6999 45.9716 48.4661 45.0635 45.6499 43.348C42.8337 41.6324 40.5435 39.1755 39.0297 36.2459C37.8509 33.9763 37.1766 31.4787 37.0532 28.9242C37.0498 28.8568 37.0598 28.7894 37.0824 28.7259C37.1051 28.6624 37.14 28.6039 37.1853 28.5539C37.2305 28.5039 37.2852 28.4632 37.3462 28.4344C37.4071 28.4055 37.4732 28.3889 37.5406 28.3855C37.6762 28.3803 37.8084 28.4284 37.909 28.5195C38.0096 28.6105 38.0705 28.7374 38.0787 28.8728C38.2021 31.2872 38.8411 33.6471 39.953 35.7938C41.0648 37.9405 42.6235 39.8241 44.5243 41.3178C47.7028 43.8198 51.6718 45.1014 55.7133 44.9309L55.9998 44.9155C59.5617 44.7042 62.966 43.3739 65.7275 41.1143C68.489 38.8547 70.4667 35.7811 71.3789 32.3315C72.2911 28.882 72.0912 25.2325 70.8076 21.9032C69.524 18.574 67.2222 15.7348 64.2304 13.7904C61.2831 11.8637 57.8049 10.9117 54.2873 11.0688C54.0141 11.0791 53.7434 11.0991 53.4774 11.1202C49.3857 11.4882 45.5674 13.3316 42.7342 16.3066C42.6881 16.3571 42.6324 16.3978 42.5703 16.4265C42.5083 16.4551 42.4411 16.4711 42.3728 16.4734C42.3045 16.4757 42.2364 16.4644 42.1725 16.4401C42.1086 16.4158 42.0503 16.379 42.0008 16.3318C41.9513 16.2846 41.9118 16.2281 41.8845 16.1654C41.8572 16.1027 41.8426 16.0353 41.8417 15.9669C41.8408 15.8986 41.8536 15.8307 41.8793 15.7674C41.9049 15.704 41.943 15.6465 41.9912 15.598C44.9973 12.4408 49.0492 10.485 53.3912 10.0952C53.6772 10.0736 53.9607 10.0526 54.2446 10.0438C56.9344 9.93204 59.6149 10.4256 62.0884 11.4881C64.5619 12.5506 66.7653 14.1549 68.5359 16.1827C70.3066 18.2104 71.5994 20.6099 72.3189 23.204C73.0385 25.7981 73.1663 28.5207 72.6931 31.1708C71.9922 35.1484 69.9671 38.7722 66.9466 41.4536C63.9262 44.135 60.0879 45.7164 56.0553 45.941L55.76 45.9569C55.5074 45.9677 55.2516 45.9728 54.9974 45.9728Z" fill="url(#paint1_linear)"/>
<path d="M37.7772 25.6328C37.7499 25.6328 37.7226 25.6306 37.6956 25.6261C37.5612 25.6045 37.4409 25.5305 37.361 25.4202C37.2812 25.31 37.2484 25.1726 37.2699 25.0381C37.354 24.5118 37.4657 23.9902 37.6047 23.4755C37.6209 23.4089 37.6503 23.3462 37.6911 23.2912C37.7319 23.2361 37.7833 23.1898 37.8423 23.1549C37.9013 23.12 37.9667 23.0973 38.0346 23.088C38.1025 23.0788 38.1716 23.0833 38.2377 23.1012C38.3039 23.1191 38.3658 23.15 38.4198 23.1922C38.4738 23.2344 38.5189 23.287 38.5522 23.3469C38.5856 23.4067 38.6066 23.4727 38.6141 23.5408C38.6216 23.609 38.6154 23.6779 38.5958 23.7436C38.4664 24.2234 38.3622 24.7097 38.2836 25.2004C38.2643 25.3209 38.2028 25.4306 38.11 25.5098C38.0172 25.589 37.8992 25.6326 37.7772 25.6328Z" fill="url(#paint2_linear)"/>
<path d="M53.8764 32.6798C52.8401 32.6798 51.8978 31.7257 51.1368 29.8966C51.0055 29.5643 50.9505 29.2068 50.9757 28.8504C51.001 28.494 51.1058 28.1479 51.2827 27.8374C51.4601 27.5705 51.5258 27.2447 51.4655 26.93C51.4053 26.6152 51.2241 26.3367 50.9607 26.1541C50.5923 25.82 50.3355 25.3808 50.2248 24.896C50.2094 24.8308 50.1925 24.7769 50.176 24.7229C50.0679 24.4372 49.8627 24.1986 49.5964 24.0489C49.33 23.8993 49.0195 23.8481 48.7192 23.9044C48.2173 23.9956 47.706 24.0235 47.1971 23.9876C46.7656 23.9442 46.3543 23.7833 46.0079 23.5223C45.6614 23.2614 45.3932 22.9104 45.2324 22.5077C44.7531 21.2853 44.6916 19.9388 45.0573 18.6779C45.2542 17.9791 45.6039 17.3329 46.0812 16.7859C46.5584 16.2389 47.1513 15.8049 47.817 15.5151C48.5055 15.2257 49.2581 15.1226 49.9991 15.216C50.7401 15.3095 51.4435 15.5963 52.0385 16.0477C52.2391 16.1994 52.468 16.3094 52.7118 16.3712C53.3693 16.5553 54.0691 16.5177 54.7032 16.2644C55.0192 16.1198 55.2848 15.884 55.4658 15.5874C55.6468 15.2907 55.7349 14.9467 55.7189 14.5995C55.7065 14.3019 55.6033 14.0152 55.4231 13.7779C55.2614 13.5896 55.0632 13.436 54.8404 13.3266C54.6176 13.2171 54.3749 13.1541 54.127 13.1412C53.7966 13.1363 53.4722 13.0522 53.1811 12.8959C52.8899 12.7396 52.6406 12.5157 52.454 12.243L52.3939 12.1321V12.0048C52.4018 11.3767 52.6289 10.7712 53.0358 10.2927L53.8471 10.9223C53.6284 11.1781 53.4837 11.4889 53.4286 11.8209C53.6571 12.0032 53.9377 12.1077 54.2297 12.1193C54.6193 12.1423 54.9997 12.2468 55.3464 12.4259C55.6931 12.605 55.9984 12.8548 56.2427 13.1591C56.5478 13.5601 56.723 14.0448 56.7449 14.5482C56.7702 15.1022 56.6291 15.6511 56.3397 16.1241C56.0503 16.5972 55.6259 16.9728 55.1212 17.2025C54.284 17.5491 53.3557 17.6087 52.4812 17.372C52.1017 17.2795 51.745 17.1109 51.4326 16.8765C50.9818 16.5268 50.4457 16.304 49.8799 16.2312C49.3141 16.1583 48.7391 16.238 48.2144 16.4621C47.6902 16.6919 47.2236 17.0354 46.8484 17.4678C46.4733 17.9001 46.199 18.4104 46.0453 18.9618C45.7365 20.0057 45.787 21.123 46.1886 22.1348C46.2787 22.3611 46.429 22.5583 46.6233 22.705C46.8176 22.8518 47.0484 22.9425 47.2906 22.9672C47.7107 22.9952 48.1326 22.9709 48.5467 22.8948C49.0893 22.7988 49.6485 22.8977 50.1253 23.174C50.6021 23.4504 50.9659 23.8864 51.1522 24.4051C51.1815 24.4996 51.2036 24.5771 51.2231 24.6547C51.2858 24.9331 51.4303 25.1865 51.638 25.3823C52.0734 25.7219 52.3693 26.2091 52.47 26.752C52.5706 27.2948 52.469 27.8558 52.1844 28.3288C52.0801 28.5041 52.017 28.7007 51.9997 28.9038C51.9825 29.107 52.0115 29.3114 52.0848 29.5017C52.6758 30.9221 53.3881 31.718 53.9694 31.6467C54.1902 31.5778 55.8432 31.0217 55.8991 29.7087C55.8775 29.2026 56.0444 28.7065 56.3677 28.3165C56.6909 27.9264 57.1474 27.6703 57.6487 27.5976C57.8105 27.5323 57.9475 27.4175 58.04 27.2695C58.0707 27.1941 58.0707 27.1097 58.04 27.0343C57.7404 26.5101 57.6457 25.8936 57.7741 25.3037C57.9025 24.7138 58.245 24.1924 58.7353 23.8402L60.1803 22.4912C60.247 22.4328 60.2956 22.3565 60.3205 22.2714C60.3167 21.9303 60.18 21.604 59.9395 21.362H59.4008C59.0701 21.3625 58.7482 21.2551 58.4842 21.056C58.2201 20.8569 58.0283 20.5771 57.9378 20.259C57.8635 19.9917 57.7364 19.742 57.5639 19.5247C57.3701 19.2976 57.2467 19.0189 57.2088 18.7228C57.1708 18.4267 57.22 18.1259 57.3503 17.8573C57.4736 17.6003 57.6677 17.3838 57.9097 17.2333C58.1518 17.0827 58.4318 17.0044 58.7168 17.0074C59.8979 16.974 61.3357 16.6628 61.537 16.2695L61.5945 16.1586L61.6972 16.0857C61.7152 16.0728 63.513 14.7777 64.0219 13.2033L64.9976 13.5196C64.4481 15.2173 62.7895 16.5494 62.3787 16.8575C61.6772 17.8999 59.2544 18.0206 58.7604 18.0344H58.7075C58.618 18.0321 58.5298 18.0557 58.4535 18.1026C58.3772 18.1495 58.3161 18.2175 58.2777 18.2984C58.2338 18.3894 58.2173 18.4913 58.2302 18.5916C58.243 18.6918 58.2847 18.7862 58.3501 18.8632C58.6138 19.1891 58.8088 19.5651 58.9232 19.9683C58.9521 20.073 59.0144 20.1654 59.1006 20.2314C59.1868 20.2974 59.2922 20.3334 59.4008 20.334H59.9862C60.1725 20.3495 60.3524 20.4088 60.5115 20.5069C60.6706 20.6051 60.8043 20.7393 60.9018 20.8988C61.246 21.3682 61.3934 21.9533 61.3126 22.5297C61.2391 22.8039 61.0881 23.051 60.8777 23.2415L59.4162 24.6059C58.3019 25.5487 58.9068 26.4838 58.9335 26.5233L58.9848 26.626C59.0559 26.7973 59.0912 26.9814 59.0885 27.1668C59.0859 27.3523 59.0454 27.5352 58.9694 27.7044C58.7503 28.1129 58.388 28.4262 57.9522 28.5841L57.8495 28.6092C57.5824 28.6382 57.337 28.7695 57.1646 28.9755C56.9923 29.1815 56.9064 29.4463 56.9251 29.7143C56.8327 31.907 54.3227 32.6177 54.2158 32.647L54.1645 32.6578C54.0692 32.6731 53.9729 32.6805 53.8764 32.6798Z" fill="url(#paint3_linear)"/>
<path d="M56.5406 45.4592H55.5136C55.5136 42.8347 57.7155 41.1693 58.0945 40.9023C58.9675 40.0258 61.249 40.454 61.9371 40.6086L62.0265 40.6358C62.1083 40.6538 62.1936 40.6485 62.2727 40.6206C62.3517 40.5926 62.4213 40.5431 62.4737 40.4776C62.5394 40.399 62.5808 40.303 62.593 40.2013C62.6052 40.0996 62.5877 39.9965 62.5425 39.9046C62.3669 39.5243 62.2728 39.1115 62.2663 38.6927C62.2634 38.5842 62.2251 38.4796 62.1574 38.3948C62.0896 38.31 61.9961 38.2496 61.8909 38.2228L61.326 38.0795C61.149 38.0187 60.9888 37.917 60.8586 37.7825C60.7284 37.648 60.6318 37.4846 60.5768 37.3057C60.3586 36.7644 60.3614 36.1591 60.5845 35.6198C60.7212 35.371 60.9289 35.1686 61.1812 35.0385L62.9323 34.0813C64.2464 33.4451 63.891 32.3903 63.8751 32.3456L63.8494 32.2342C63.8227 32.0503 63.834 31.8629 63.8826 31.6835C63.9312 31.5041 64.016 31.3366 64.1319 31.1913C64.445 30.8493 64.8735 30.6351 65.335 30.5899L65.3895 30.5853L65.4439 30.5915C65.7093 30.6296 65.9793 30.5639 66.1975 30.408C66.4157 30.252 66.5653 30.018 66.6152 29.7545C67.2443 27.649 69.8534 27.5854 69.9643 27.5838C71.5285 27.7112 72.5093 29.7021 72.6952 31.0085L71.6779 31.1533C71.5388 30.1735 70.8019 28.711 69.9561 28.6119C69.7266 28.6227 67.9868 28.7495 67.6089 30.0112C67.5032 30.5065 67.2177 30.945 66.8074 31.2419C66.3972 31.5388 65.8914 31.673 65.3879 31.6185C65.2143 31.6417 65.0524 31.7193 64.9258 31.8403C64.876 31.9063 64.8539 31.989 64.8641 32.0709C65.0259 32.6529 64.9657 33.2743 64.6953 33.8144C64.4249 34.3546 63.9635 34.7751 63.4006 34.9943L61.6665 35.9423C61.5901 35.9798 61.5264 36.0392 61.4837 36.1128C61.4405 36.2776 61.4305 36.4493 61.4541 36.618C61.4777 36.7867 61.5345 36.949 61.6213 37.0956L62.143 37.2281C62.4636 37.3093 62.749 37.4929 62.9559 37.751C63.1627 38.0091 63.2798 38.3276 63.2892 38.6583C63.2922 38.9341 63.3518 39.2064 63.4643 39.4583C63.5964 39.7275 63.6473 40.0293 63.6108 40.3269C63.5743 40.6245 63.4521 40.9051 63.2589 41.1344C63.0784 41.3556 62.8374 41.5193 62.5654 41.6057C62.2934 41.6921 62.002 41.6973 61.7271 41.6207L61.6644 41.6012C60.5347 41.3552 59.0994 41.3085 58.8113 41.6346L58.7086 41.7224C58.6938 41.7363 56.5406 43.2065 56.5406 45.4592Z" fill="url(#paint4_linear)"/>
<path d="M44.2054 42.2351C44.1363 42.2351 44.068 42.2209 44.0046 42.1935C43.8795 42.1401 43.7806 42.0393 43.7298 41.913C43.6789 41.7868 43.6803 41.6456 43.7335 41.5203L43.8362 41.2785C44.1254 40.6132 44.6669 40.09 45.3417 39.8237C46.0164 39.5573 46.7693 39.5697 47.4349 39.8581C47.6247 39.9374 47.838 39.9398 48.0296 39.8649C48.2212 39.79 48.3762 39.6435 48.4619 39.4565C48.5045 39.3575 48.5267 39.251 48.5271 39.1433C48.5273 38.9912 48.4828 38.8425 48.3992 38.7155C48.3155 38.5885 48.1965 38.4889 48.0568 38.429C47.7908 38.312 47.5647 38.1201 47.4061 37.8767C47.2475 37.6333 47.1633 37.3489 47.1638 37.0584C47.1634 36.8529 47.2061 36.6497 47.2891 36.4617L48.0224 34.7671C48.0825 34.6328 48.1152 34.4879 48.1186 34.3408C48.1221 34.1938 48.0961 34.0475 48.0424 33.9106C47.9613 33.703 47.8204 33.5242 47.6377 33.3968C47.4549 33.2693 47.2385 33.199 47.0157 33.1946C46.793 33.1902 46.5739 33.2519 46.3863 33.3721C46.1986 33.4922 46.0509 33.6653 45.9616 33.8695C45.826 34.1713 45.578 34.4083 45.2704 34.5301C44.9627 34.6519 44.6197 34.6489 44.3143 34.5216L42.9997 33.9496C42.9029 33.9071 42.7986 33.8841 42.6929 33.882C42.5872 33.8799 42.4821 33.8987 42.3837 33.9373C42.2853 33.9759 42.1955 34.0336 42.1194 34.107C42.0433 34.1804 41.9824 34.268 41.9403 34.365C41.6849 34.9515 41.2911 35.4673 40.7926 35.8681C40.4518 36.146 40.0632 36.3597 39.6459 36.4987C39.5816 36.5207 39.5136 36.5297 39.4457 36.5252C39.3779 36.5207 39.3117 36.5028 39.2508 36.4725C39.1899 36.4423 39.1357 36.4002 39.0912 36.3488C39.0468 36.2974 39.0129 36.2376 38.9917 36.1731C38.9705 36.1085 38.9623 36.0403 38.9677 35.9726C38.973 35.9048 38.9917 35.8388 39.0228 35.7783C39.0538 35.7178 39.0966 35.6641 39.1485 35.6203C39.2005 35.5765 39.2606 35.5434 39.3255 35.523C39.6247 35.4219 39.9031 35.2674 40.1471 35.067C40.5168 34.7714 40.809 34.3904 40.9985 33.9568C41.0946 33.736 41.2334 33.5363 41.4068 33.3692C41.5801 33.2021 41.7848 33.0709 42.009 32.983C42.2332 32.8951 42.4725 32.8522 42.7132 32.8569C42.954 32.8616 43.1915 32.9138 43.412 33.0104L44.7205 33.5799C44.7768 33.603 44.8399 33.6031 44.8963 33.5802C44.9527 33.5572 44.9978 33.513 45.0219 33.4571C45.1328 33.1952 45.2945 32.9579 45.4978 32.7589C45.701 32.5599 45.9417 32.4032 46.2059 32.2978C46.47 32.1925 46.7525 32.1405 47.0369 32.1451C47.3213 32.1496 47.602 32.2104 47.8627 32.3241C48.1234 32.4379 48.3589 32.6021 48.5557 32.8075C48.7526 33.0128 48.9067 33.2551 49.0092 33.5204C49.1117 33.7857 49.1606 34.0688 49.1531 34.3531C49.1455 34.6374 49.0816 34.9174 48.9652 35.1769L48.2324 36.8715C48.2061 36.9303 48.1925 36.994 48.1923 37.0584C48.1926 37.1488 48.2189 37.2373 48.2681 37.3132C48.3173 37.3892 48.3872 37.4494 48.4696 37.4867C48.7928 37.6264 49.068 37.8578 49.2612 38.1522C49.4544 38.4466 49.5572 38.7911 49.5567 39.1433C49.5569 39.4431 49.4825 39.7384 49.3401 40.0023C49.1978 40.2662 48.992 40.4906 48.7413 40.6552C48.4906 40.8197 48.2028 40.9193 47.904 40.9449C47.6053 40.9705 47.3048 40.9214 47.0297 40.8019C46.6145 40.6212 46.1445 40.6127 45.723 40.7781C45.3014 40.9434 44.9627 41.2693 44.7811 41.6841L44.6784 41.9224C44.6389 42.0152 44.5731 42.0943 44.489 42.15C44.4049 42.2056 44.3062 42.2352 44.2054 42.2351Z" fill="url(#paint5_linear)"/>
<path d="M29.5312 60.8983H24.5742V67.9999H23.1211V50.9374H28.6641C30.4844 50.9374 31.9062 51.3788 32.9297 52.2616C33.9531 53.1444 34.4648 54.3788 34.4648 55.9647C34.4648 57.0585 34.1445 58.0233 33.5039 58.8593C32.8633 59.6952 32.0039 60.2733 30.9258 60.5936L35.1914 67.8475V67.9999H33.6562L29.5312 60.8983ZM24.5742 59.6679H28.9922C30.2031 59.6679 31.1758 59.3241 31.9102 58.6366C32.6445 57.9491 33.0117 57.0585 33.0117 55.9647C33.0117 54.7616 32.6289 53.828 31.8633 53.1639C31.0977 52.4999 30.0234 52.1679 28.6406 52.1679H24.5742V59.6679Z" fill="url(#paint6_linear)"/>
<path d="M40.1484 67.9999H38.707V50.9374H40.1484V67.9999Z" fill="url(#paint7_linear)"/>
<path d="M57.3516 60.3944C57.3516 62.0194 57.0625 63.4374 56.4844 64.6483C55.9141 65.8514 55.0977 66.7616 54.0352 67.3788L57.1406 70.0858L56.1445 70.9764L52.6641 67.9647C52.0234 68.1444 51.3711 68.2343 50.707 68.2343C49.4102 68.2343 48.2539 67.9139 47.2383 67.2733C46.2305 66.6327 45.4492 65.7264 44.8945 64.5546C44.3398 63.3749 44.0586 62.0155 44.0508 60.4764V58.5663C44.0508 57.0116 44.3242 55.6366 44.8711 54.4413C45.4258 53.2382 46.207 52.3163 47.2148 51.6757C48.2227 51.0272 49.3789 50.703 50.6836 50.703C52.0117 50.703 53.1797 51.0233 54.1875 51.6639C55.1953 52.3046 55.9727 53.2225 56.5195 54.4179C57.0742 55.6132 57.3516 56.9921 57.3516 58.5546V60.3944ZM55.9102 58.5429C55.9102 56.4882 55.4453 54.8788 54.5156 53.7147C53.5859 52.5507 52.3086 51.9686 50.6836 51.9686C49.1055 51.9686 47.8438 52.5546 46.8984 53.7264C45.9609 54.8905 45.4922 56.5194 45.4922 58.6132V60.3944C45.4922 62.4179 45.957 64.0233 46.8867 65.2108C47.8242 66.3905 49.0977 66.9804 50.707 66.9804C52.332 66.9804 53.6055 66.3983 54.5273 65.2343C55.4492 64.0702 55.9102 62.4452 55.9102 60.3593V58.5429Z" fill="url(#paint8_linear)"/>
<path d="M70.2422 63.2186H62.4961L60.7383 67.9999H59.2266L65.6836 50.9374H67.0547L73.5117 67.9999H72.0117L70.2422 63.2186ZM62.9414 61.9882H69.7852L66.3633 52.6952L62.9414 61.9882Z" fill="url(#paint9_linear)"/>
<path d="M85.6875 63.8046C85.6875 62.8593 85.3555 62.1132 84.6914 61.5663C84.0273 61.0116 82.8125 60.4882 81.0469 59.996C79.2812 59.496 77.9922 58.953 77.1797 58.3671C76.0234 57.5389 75.4453 56.453 75.4453 55.1093C75.4453 53.8046 75.9805 52.746 77.0508 51.9335C78.1289 51.1132 79.5039 50.703 81.1758 50.703C82.3086 50.703 83.3203 50.9218 84.2109 51.3593C85.1094 51.7968 85.8047 52.4061 86.2969 53.1874C86.7891 53.9686 87.0352 54.8397 87.0352 55.8007H85.582C85.582 54.6366 85.1836 53.703 84.3867 52.9999C83.5898 52.2889 82.5195 51.9335 81.1758 51.9335C79.8711 51.9335 78.832 52.2264 78.0586 52.8124C77.2852 53.3905 76.8984 54.1483 76.8984 55.0858C76.8984 55.953 77.2461 56.66 77.9414 57.2069C78.6367 57.7538 79.75 58.2382 81.2812 58.66C82.8125 59.0741 83.9727 59.5077 84.7617 59.9608C85.5508 60.4061 86.1445 60.9413 86.543 61.5663C86.9414 62.1913 87.1406 62.9296 87.1406 63.7811C87.1406 65.1249 86.6016 66.203 85.5234 67.0155C84.4531 67.828 83.0391 68.2343 81.2812 68.2343C80.0781 68.2343 78.9727 68.0194 77.9648 67.5897C76.9648 67.16 76.2031 66.5585 75.6797 65.785C75.1641 65.0116 74.9062 64.1249 74.9062 63.1249H76.3477C76.3477 64.328 76.7969 65.2772 77.6953 65.9725C78.5938 66.6679 79.7891 67.0155 81.2812 67.0155C82.6094 67.0155 83.6758 66.7225 84.4805 66.1366C85.2852 65.5507 85.6875 64.7733 85.6875 63.8046Z" fill="url(#paint10_linear)"/>
<path d="M39.3527 20.7542C39.2652 20.7542 39.1792 20.7317 39.1028 20.6891C39.0263 20.6465 38.9621 20.585 38.9161 20.5106C38.8701 20.4362 38.8439 20.3512 38.84 20.2638C38.836 20.1764 38.8545 20.0894 38.8936 20.0111C39.1226 19.5541 39.3768 19.0966 39.65 18.6519C39.7251 18.5446 39.8384 18.47 39.9667 18.4435C40.0949 18.417 40.2285 18.4404 40.34 18.5091C40.4515 18.5778 40.5326 18.6865 40.5666 18.813C40.6006 18.9395 40.585 19.0742 40.523 19.1895C40.2662 19.6091 40.0259 20.0399 39.8102 20.4702C39.7677 20.5553 39.7025 20.6269 39.6217 20.677C39.5409 20.7271 39.4478 20.7539 39.3527 20.7542Z" stroke="url(#paint11_linear)" stroke-width="0.6" mask="url(#path-2-outside-1)"/>
<path d="M54.9974 45.9728C51.6999 45.9716 48.4661 45.0635 45.6499 43.348C42.8337 41.6324 40.5435 39.1755 39.0297 36.2459C37.8509 33.9763 37.1766 31.4787 37.0532 28.9242C37.0498 28.8568 37.0598 28.7894 37.0824 28.7259C37.1051 28.6624 37.14 28.6039 37.1853 28.5539C37.2305 28.5039 37.2852 28.4632 37.3462 28.4344C37.4071 28.4055 37.4732 28.3889 37.5406 28.3855C37.6762 28.3803 37.8084 28.4284 37.909 28.5195C38.0096 28.6105 38.0705 28.7374 38.0787 28.8728C38.2021 31.2872 38.8411 33.6471 39.953 35.7938C41.0648 37.9405 42.6235 39.8241 44.5243 41.3178C47.7028 43.8198 51.6718 45.1014 55.7133 44.9309L55.9998 44.9155C59.5617 44.7042 62.966 43.3739 65.7275 41.1143C68.489 38.8547 70.4667 35.7811 71.3789 32.3315C72.2911 28.882 72.0912 25.2325 70.8076 21.9032C69.524 18.574 67.2222 15.7348 64.2304 13.7904C61.2831 11.8637 57.8049 10.9117 54.2873 11.0688C54.0141 11.0791 53.7434 11.0991 53.4774 11.1202C49.3857 11.4882 45.5674 13.3316 42.7342 16.3066C42.6881 16.3571 42.6324 16.3978 42.5703 16.4265C42.5083 16.4551 42.4411 16.4711 42.3728 16.4734C42.3045 16.4757 42.2364 16.4644 42.1725 16.4401C42.1086 16.4158 42.0503 16.379 42.0008 16.3318C41.9513 16.2846 41.9118 16.2281 41.8845 16.1654C41.8572 16.1027 41.8426 16.0353 41.8417 15.9669C41.8408 15.8986 41.8536 15.8307 41.8793 15.7674C41.9049 15.704 41.943 15.6465 41.9912 15.598C44.9973 12.4408 49.0492 10.485 53.3912 10.0952C53.6772 10.0736 53.9607 10.0526 54.2446 10.0438C56.9344 9.93204 59.6149 10.4256 62.0884 11.4881C64.5619 12.5506 66.7653 14.1549 68.5359 16.1827C70.3066 18.2104 71.5994 20.6099 72.3189 23.204C73.0385 25.7981 73.1663 28.5207 72.6931 31.1708C71.9922 35.1484 69.9671 38.7722 66.9466 41.4536C63.9262 44.135 60.0879 45.7164 56.0553 45.941L55.76 45.9569C55.5074 45.9677 55.2516 45.9728 54.9974 45.9728Z" stroke="url(#paint12_linear)" stroke-width="0.6" mask="url(#path-2-outside-1)"/>
<path d="M37.7772 25.6328C37.7499 25.6328 37.7226 25.6306 37.6956 25.6261C37.5612 25.6045 37.4409 25.5305 37.361 25.4202C37.2812 25.31 37.2484 25.1726 37.2699 25.0381C37.354 24.5118 37.4657 23.9902 37.6047 23.4755C37.6209 23.4089 37.6503 23.3462 37.6911 23.2912C37.7319 23.2361 37.7833 23.1898 37.8423 23.1549C37.9013 23.12 37.9667 23.0973 38.0346 23.088C38.1025 23.0788 38.1716 23.0833 38.2377 23.1012C38.3039 23.1191 38.3658 23.15 38.4198 23.1922C38.4738 23.2344 38.5189 23.287 38.5522 23.3469C38.5856 23.4067 38.6066 23.4727 38.6141 23.5408C38.6216 23.609 38.6154 23.6779 38.5958 23.7436C38.4664 24.2234 38.3622 24.7097 38.2836 25.2004C38.2643 25.3209 38.2028 25.4306 38.11 25.5098C38.0172 25.589 37.8992 25.6326 37.7772 25.6328Z" stroke="url(#paint13_linear)" stroke-width="0.6" mask="url(#path-2-outside-1)"/>
<path d="M53.8764 32.6798C52.8401 32.6798 51.8978 31.7257 51.1368 29.8966C51.0055 29.5643 50.9505 29.2068 50.9757 28.8504C51.001 28.494 51.1058 28.1479 51.2827 27.8374C51.4601 27.5705 51.5258 27.2447 51.4655 26.93C51.4053 26.6152 51.2241 26.3367 50.9607 26.1541C50.5923 25.82 50.3355 25.3808 50.2248 24.896C50.2094 24.8308 50.1925 24.7769 50.176 24.7229C50.0679 24.4372 49.8627 24.1986 49.5964 24.0489C49.33 23.8993 49.0195 23.8481 48.7192 23.9044C48.2173 23.9956 47.706 24.0235 47.1971 23.9876C46.7656 23.9442 46.3543 23.7833 46.0079 23.5223C45.6614 23.2614 45.3932 22.9104 45.2324 22.5077C44.7531 21.2853 44.6916 19.9388 45.0573 18.6779C45.2542 17.9791 45.6039 17.3329 46.0812 16.7859C46.5584 16.2389 47.1513 15.8049 47.817 15.5151C48.5055 15.2257 49.2581 15.1226 49.9991 15.216C50.7401 15.3095 51.4435 15.5963 52.0385 16.0477C52.2391 16.1994 52.468 16.3094 52.7118 16.3712C53.3693 16.5553 54.0691 16.5177 54.7032 16.2644C55.0192 16.1198 55.2848 15.884 55.4658 15.5874C55.6468 15.2907 55.7349 14.9467 55.7189 14.5995C55.7065 14.3019 55.6033 14.0152 55.4231 13.7779C55.2614 13.5896 55.0632 13.436 54.8404 13.3266C54.6176 13.2171 54.3749 13.1541 54.127 13.1412C53.7966 13.1363 53.4722 13.0522 53.1811 12.8959C52.8899 12.7396 52.6406 12.5157 52.454 12.243L52.3939 12.1321V12.0048C52.4018 11.3767 52.6289 10.7712 53.0358 10.2927L53.8471 10.9223C53.6284 11.1781 53.4837 11.4889 53.4286 11.8209C53.6571 12.0032 53.9377 12.1077 54.2297 12.1193C54.6193 12.1423 54.9997 12.2468 55.3464 12.4259C55.6931 12.605 55.9984 12.8548 56.2427 13.1591C56.5478 13.5601 56.723 14.0448 56.7449 14.5482C56.7702 15.1022 56.6291 15.6511 56.3397 16.1241C56.0503 16.5972 55.6259 16.9728 55.1212 17.2025C54.284 17.5491 53.3557 17.6087 52.4812 17.372C52.1017 17.2795 51.745 17.1109 51.4326 16.8765C50.9818 16.5268 50.4457 16.304 49.8799 16.2312C49.3141 16.1583 48.7391 16.238 48.2144 16.4621C47.6902 16.6919 47.2236 17.0354 46.8484 17.4678C46.4733 17.9001 46.199 18.4104 46.0453 18.9618C45.7365 20.0057 45.787 21.123 46.1886 22.1348C46.2787 22.3611 46.429 22.5583 46.6233 22.705C46.8176 22.8518 47.0484 22.9425 47.2906 22.9672C47.7107 22.9952 48.1326 22.9709 48.5467 22.8948C49.0893 22.7988 49.6485 22.8977 50.1253 23.174C50.6021 23.4504 50.9659 23.8864 51.1522 24.4051C51.1815 24.4996 51.2036 24.5771 51.2231 24.6547C51.2858 24.9331 51.4303 25.1865 51.638 25.3823C52.0734 25.7219 52.3693 26.2091 52.47 26.752C52.5706 27.2948 52.469 27.8558 52.1844 28.3288C52.0801 28.5041 52.017 28.7007 51.9997 28.9038C51.9825 29.107 52.0115 29.3114 52.0848 29.5017C52.6758 30.9221 53.3881 31.718 53.9694 31.6467C54.1902 31.5778 55.8432 31.0217 55.8991 29.7087C55.8775 29.2026 56.0444 28.7065 56.3677 28.3165C56.6909 27.9264 57.1474 27.6703 57.6487 27.5976C57.8105 27.5323 57.9475 27.4175 58.04 27.2695C58.0707 27.1941 58.0707 27.1097 58.04 27.0343C57.7404 26.5101 57.6457 25.8936 57.7741 25.3037C57.9025 24.7138 58.245 24.1924 58.7353 23.8402L60.1803 22.4912C60.247 22.4328 60.2956 22.3565 60.3205 22.2714C60.3167 21.9303 60.18 21.604 59.9395 21.362H59.4008C59.0701 21.3625 58.7482 21.2551 58.4842 21.056C58.2201 20.8569 58.0283 20.5771 57.9378 20.259C57.8635 19.9917 57.7364 19.742 57.5639 19.5247C57.3701 19.2976 57.2467 19.0189 57.2088 18.7228C57.1708 18.4267 57.22 18.1259 57.3503 17.8573C57.4736 17.6003 57.6677 17.3838 57.9097 17.2333C58.1518 17.0827 58.4318 17.0044 58.7168 17.0074C59.8979 16.974 61.3357 16.6628 61.537 16.2695L61.5945 16.1586L61.6972 16.0857C61.7152 16.0728 63.513 14.7777 64.0219 13.2033L64.9976 13.5196C64.4481 15.2173 62.7895 16.5494 62.3787 16.8575C61.6772 17.8999 59.2544 18.0206 58.7604 18.0344H58.7075C58.618 18.0321 58.5298 18.0557 58.4535 18.1026C58.3772 18.1495 58.3161 18.2175 58.2777 18.2984C58.2338 18.3894 58.2173 18.4913 58.2302 18.5916C58.243 18.6918 58.2847 18.7862 58.3501 18.8632C58.6138 19.1891 58.8088 19.5651 58.9232 19.9683C58.9521 20.073 59.0144 20.1654 59.1006 20.2314C59.1868 20.2974 59.2922 20.3334 59.4008 20.334H59.9862C60.1725 20.3495 60.3524 20.4088 60.5115 20.5069C60.6706 20.6051 60.8043 20.7393 60.9018 20.8988C61.246 21.3682 61.3934 21.9533 61.3126 22.5297C61.2391 22.8039 61.0881 23.051 60.8777 23.2415L59.4162 24.6059C58.3019 25.5487 58.9068 26.4838 58.9335 26.5233L58.9848 26.626C59.0559 26.7973 59.0912 26.9814 59.0885 27.1668C59.0859 27.3523 59.0454 27.5352 58.9694 27.7044C58.7503 28.1129 58.388 28.4262 57.9522 28.5841L57.8495 28.6092C57.5824 28.6382 57.337 28.7695 57.1646 28.9755C56.9923 29.1815 56.9064 29.4463 56.9251 29.7143C56.8327 31.907 54.3227 32.6177 54.2158 32.647L54.1645 32.6578C54.0692 32.6731 53.9729 32.6805 53.8764 32.6798Z" stroke="url(#paint14_linear)" stroke-width="0.6" mask="url(#path-2-outside-1)"/>
<path d="M56.5406 45.4592H55.5136C55.5136 42.8347 57.7155 41.1693 58.0945 40.9023C58.9675 40.0258 61.249 40.454 61.9371 40.6086L62.0265 40.6358C62.1083 40.6538 62.1936 40.6485 62.2727 40.6206C62.3517 40.5926 62.4213 40.5431 62.4737 40.4776C62.5394 40.399 62.5808 40.303 62.593 40.2013C62.6052 40.0996 62.5877 39.9965 62.5425 39.9046C62.3669 39.5243 62.2728 39.1115 62.2663 38.6927C62.2634 38.5842 62.2251 38.4796 62.1574 38.3948C62.0896 38.31 61.9961 38.2496 61.8909 38.2228L61.326 38.0795C61.149 38.0187 60.9888 37.917 60.8586 37.7825C60.7284 37.648 60.6318 37.4846 60.5768 37.3057C60.3586 36.7644 60.3614 36.1591 60.5845 35.6198C60.7212 35.371 60.9289 35.1686 61.1812 35.0385L62.9323 34.0813C64.2464 33.4451 63.891 32.3903 63.8751 32.3456L63.8494 32.2342C63.8227 32.0503 63.834 31.8629 63.8826 31.6835C63.9312 31.5041 64.016 31.3366 64.1319 31.1913C64.445 30.8493 64.8735 30.6351 65.335 30.5899L65.3895 30.5853L65.4439 30.5915C65.7093 30.6296 65.9793 30.5639 66.1975 30.408C66.4157 30.252 66.5653 30.018 66.6152 29.7545C67.2443 27.649 69.8534 27.5854 69.9643 27.5838C71.5285 27.7112 72.5093 29.7021 72.6952 31.0085L71.6779 31.1533C71.5388 30.1735 70.8019 28.711 69.9561 28.6119C69.7266 28.6227 67.9868 28.7495 67.6089 30.0112C67.5032 30.5065 67.2177 30.945 66.8074 31.2419C66.3972 31.5388 65.8914 31.673 65.3879 31.6185C65.2143 31.6417 65.0524 31.7193 64.9258 31.8403C64.876 31.9063 64.8539 31.989 64.8641 32.0709C65.0259 32.6529 64.9657 33.2743 64.6953 33.8144C64.4249 34.3546 63.9635 34.7751 63.4006 34.9943L61.6665 35.9423C61.5901 35.9798 61.5264 36.0392 61.4837 36.1128C61.4405 36.2776 61.4305 36.4493 61.4541 36.618C61.4777 36.7867 61.5345 36.949 61.6213 37.0956L62.143 37.2281C62.4636 37.3093 62.749 37.4929 62.9559 37.751C63.1627 38.0091 63.2798 38.3276 63.2892 38.6583C63.2922 38.9341 63.3518 39.2064 63.4643 39.4583C63.5964 39.7275 63.6473 40.0293 63.6108 40.3269C63.5743 40.6245 63.4521 40.9051 63.2589 41.1344C63.0784 41.3556 62.8374 41.5193 62.5654 41.6057C62.2934 41.6921 62.002 41.6973 61.7271 41.6207L61.6644 41.6012C60.5347 41.3552 59.0994 41.3085 58.8113 41.6346L58.7086 41.7224C58.6938 41.7363 56.5406 43.2065 56.5406 45.4592Z" stroke="url(#paint15_linear)" stroke-width="0.6" mask="url(#path-2-outside-1)"/>
<path d="M44.2054 42.2351C44.1363 42.2351 44.068 42.2209 44.0046 42.1935C43.8795 42.1401 43.7806 42.0393 43.7298 41.913C43.6789 41.7868 43.6803 41.6456 43.7335 41.5203L43.8362 41.2785C44.1254 40.6132 44.6669 40.09 45.3417 39.8237C46.0164 39.5573 46.7693 39.5697 47.4349 39.8581C47.6247 39.9374 47.838 39.9398 48.0296 39.8649C48.2212 39.79 48.3762 39.6435 48.4619 39.4565C48.5045 39.3575 48.5267 39.251 48.5271 39.1433C48.5273 38.9912 48.4828 38.8425 48.3992 38.7155C48.3155 38.5885 48.1965 38.4889 48.0568 38.429C47.7908 38.312 47.5647 38.1201 47.4061 37.8767C47.2475 37.6333 47.1633 37.3489 47.1638 37.0584C47.1634 36.8529 47.2061 36.6497 47.2891 36.4617L48.0224 34.7671C48.0825 34.6328 48.1152 34.4879 48.1186 34.3408C48.1221 34.1938 48.0961 34.0475 48.0424 33.9106C47.9613 33.703 47.8204 33.5242 47.6377 33.3968C47.4549 33.2693 47.2385 33.199 47.0157 33.1946C46.793 33.1902 46.5739 33.2519 46.3863 33.3721C46.1986 33.4922 46.0509 33.6653 45.9616 33.8695C45.826 34.1713 45.578 34.4083 45.2704 34.5301C44.9627 34.6519 44.6197 34.6489 44.3143 34.5216L42.9997 33.9496C42.9029 33.9071 42.7986 33.8841 42.6929 33.882C42.5872 33.8799 42.4821 33.8987 42.3837 33.9373C42.2853 33.9759 42.1955 34.0336 42.1194 34.107C42.0433 34.1804 41.9824 34.268 41.9403 34.365C41.6849 34.9515 41.2911 35.4673 40.7926 35.8681C40.4518 36.146 40.0632 36.3597 39.6459 36.4987C39.5816 36.5207 39.5136 36.5297 39.4457 36.5252C39.3779 36.5207 39.3117 36.5028 39.2508 36.4725C39.1899 36.4423 39.1357 36.4002 39.0912 36.3488C39.0468 36.2974 39.0129 36.2376 38.9917 36.1731C38.9705 36.1085 38.9623 36.0403 38.9677 35.9726C38.973 35.9048 38.9917 35.8388 39.0228 35.7783C39.0538 35.7178 39.0966 35.6641 39.1485 35.6203C39.2005 35.5765 39.2606 35.5434 39.3255 35.523C39.6247 35.4219 39.9031 35.2674 40.1471 35.067C40.5168 34.7714 40.809 34.3904 40.9985 33.9568C41.0946 33.736 41.2334 33.5363 41.4068 33.3692C41.5801 33.2021 41.7848 33.0709 42.009 32.983C42.2332 32.8951 42.4725 32.8522 42.7132 32.8569C42.954 32.8616 43.1915 32.9138 43.412 33.0104L44.7205 33.5799C44.7768 33.603 44.8399 33.6031 44.8963 33.5802C44.9527 33.5572 44.9978 33.513 45.0219 33.4571C45.1328 33.1952 45.2945 32.9579 45.4978 32.7589C45.701 32.5599 45.9417 32.4032 46.2059 32.2978C46.47 32.1925 46.7525 32.1405 47.0369 32.1451C47.3213 32.1496 47.602 32.2104 47.8627 32.3241C48.1234 32.4379 48.3589 32.6021 48.5557 32.8075C48.7526 33.0128 48.9067 33.2551 49.0092 33.5204C49.1117 33.7857 49.1606 34.0688 49.1531 34.3531C49.1455 34.6374 49.0816 34.9174 48.9652 35.1769L48.2324 36.8715C48.2061 36.9303 48.1925 36.994 48.1923 37.0584C48.1926 37.1488 48.2189 37.2373 48.2681 37.3132C48.3173 37.3892 48.3872 37.4494 48.4696 37.4867C48.7928 37.6264 49.068 37.8578 49.2612 38.1522C49.4544 38.4466 49.5572 38.7911 49.5567 39.1433C49.5569 39.4431 49.4825 39.7384 49.3401 40.0023C49.1978 40.2662 48.992 40.4906 48.7413 40.6552C48.4906 40.8197 48.2028 40.9193 47.904 40.9449C47.6053 40.9705 47.3048 40.9214 47.0297 40.8019C46.6145 40.6212 46.1445 40.6127 45.723 40.7781C45.3014 40.9434 44.9627 41.2693 44.7811 41.6841L44.6784 41.9224C44.6389 42.0152 44.5731 42.0943 44.489 42.15C44.4049 42.2056 44.3062 42.2352 44.2054 42.2351Z" stroke="url(#paint16_linear)" stroke-width="0.6" mask="url(#path-2-outside-1)"/>
<path d="M29.5312 60.8983H24.5742V67.9999H23.1211V50.9374H28.6641C30.4844 50.9374 31.9062 51.3788 32.9297 52.2616C33.9531 53.1444 34.4648 54.3788 34.4648 55.9647C34.4648 57.0585 34.1445 58.0233 33.5039 58.8593C32.8633 59.6952 32.0039 60.2733 30.9258 60.5936L35.1914 67.8475V67.9999H33.6562L29.5312 60.8983ZM24.5742 59.6679H28.9922C30.2031 59.6679 31.1758 59.3241 31.9102 58.6366C32.6445 57.9491 33.0117 57.0585 33.0117 55.9647C33.0117 54.7616 32.6289 53.828 31.8633 53.1639C31.0977 52.4999 30.0234 52.1679 28.6406 52.1679H24.5742V59.6679Z" stroke="url(#paint17_linear)" stroke-width="0.6" mask="url(#path-2-outside-1)"/>
<path d="M40.1484 67.9999H38.707V50.9374H40.1484V67.9999Z" stroke="url(#paint18_linear)" stroke-width="0.6" mask="url(#path-2-outside-1)"/>
<path d="M57.3516 60.3944C57.3516 62.0194 57.0625 63.4374 56.4844 64.6483C55.9141 65.8514 55.0977 66.7616 54.0352 67.3788L57.1406 70.0858L56.1445 70.9764L52.6641 67.9647C52.0234 68.1444 51.3711 68.2343 50.707 68.2343C49.4102 68.2343 48.2539 67.9139 47.2383 67.2733C46.2305 66.6327 45.4492 65.7264 44.8945 64.5546C44.3398 63.3749 44.0586 62.0155 44.0508 60.4764V58.5663C44.0508 57.0116 44.3242 55.6366 44.8711 54.4413C45.4258 53.2382 46.207 52.3163 47.2148 51.6757C48.2227 51.0272 49.3789 50.703 50.6836 50.703C52.0117 50.703 53.1797 51.0233 54.1875 51.6639C55.1953 52.3046 55.9727 53.2225 56.5195 54.4179C57.0742 55.6132 57.3516 56.9921 57.3516 58.5546V60.3944ZM55.9102 58.5429C55.9102 56.4882 55.4453 54.8788 54.5156 53.7147C53.5859 52.5507 52.3086 51.9686 50.6836 51.9686C49.1055 51.9686 47.8438 52.5546 46.8984 53.7264C45.9609 54.8905 45.4922 56.5194 45.4922 58.6132V60.3944C45.4922 62.4179 45.957 64.0233 46.8867 65.2108C47.8242 66.3905 49.0977 66.9804 50.707 66.9804C52.332 66.9804 53.6055 66.3983 54.5273 65.2343C55.4492 64.0702 55.9102 62.4452 55.9102 60.3593V58.5429Z" stroke="url(#paint19_linear)" stroke-width="0.6" mask="url(#path-2-outside-1)"/>
<path d="M70.2422 63.2186H62.4961L60.7383 67.9999H59.2266L65.6836 50.9374H67.0547L73.5117 67.9999H72.0117L70.2422 63.2186ZM62.9414 61.9882H69.7852L66.3633 52.6952L62.9414 61.9882Z" stroke="url(#paint20_linear)" stroke-width="0.6" mask="url(#path-2-outside-1)"/>
<path d="M85.6875 63.8046C85.6875 62.8593 85.3555 62.1132 84.6914 61.5663C84.0273 61.0116 82.8125 60.4882 81.0469 59.996C79.2812 59.496 77.9922 58.953 77.1797 58.3671C76.0234 57.5389 75.4453 56.453 75.4453 55.1093C75.4453 53.8046 75.9805 52.746 77.0508 51.9335C78.1289 51.1132 79.5039 50.703 81.1758 50.703C82.3086 50.703 83.3203 50.9218 84.2109 51.3593C85.1094 51.7968 85.8047 52.4061 86.2969 53.1874C86.7891 53.9686 87.0352 54.8397 87.0352 55.8007H85.582C85.582 54.6366 85.1836 53.703 84.3867 52.9999C83.5898 52.2889 82.5195 51.9335 81.1758 51.9335C79.8711 51.9335 78.832 52.2264 78.0586 52.8124C77.2852 53.3905 76.8984 54.1483 76.8984 55.0858C76.8984 55.953 77.2461 56.66 77.9414 57.2069C78.6367 57.7538 79.75 58.2382 81.2812 58.66C82.8125 59.0741 83.9727 59.5077 84.7617 59.9608C85.5508 60.4061 86.1445 60.9413 86.543 61.5663C86.9414 62.1913 87.1406 62.9296 87.1406 63.7811C87.1406 65.1249 86.6016 66.203 85.5234 67.0155C84.4531 67.828 83.0391 68.2343 81.2812 68.2343C80.0781 68.2343 78.9727 68.0194 77.9648 67.5897C76.9648 67.16 76.2031 66.5585 75.6797 65.785C75.1641 65.0116 74.9062 64.1249 74.9062 63.1249H76.3477C76.3477 64.328 76.7969 65.2772 77.6953 65.9725C78.5938 66.6679 79.7891 67.0155 81.2812 67.0155C82.6094 67.0155 83.6758 66.7225 84.4805 66.1366C85.2852 65.5507 85.6875 64.7733 85.6875 63.8046Z" stroke="url(#paint21_linear)" stroke-width="0.6" mask="url(#path-2-outside-1)"/>
<defs>
<linearGradient id="paint0_linear" x1="55.1385" y1="10.0283" x2="55.4035" y2="71.1022" gradientUnits="userSpaceOnUse">
<stop stop-color="#014982"/>
<stop offset="1" stop-color="#00A9CB"/>
</linearGradient>
<linearGradient id="paint1_linear" x1="55.1385" y1="10.0283" x2="55.4035" y2="71.1022" gradientUnits="userSpaceOnUse">
<stop stop-color="#014982"/>
<stop offset="1" stop-color="#00A9CB"/>
</linearGradient>
<linearGradient id="paint2_linear" x1="55.1385" y1="10.0283" x2="55.4035" y2="71.1022" gradientUnits="userSpaceOnUse">
<stop stop-color="#014982"/>
<stop offset="1" stop-color="#00A9CB"/>
</linearGradient>
<linearGradient id="paint3_linear" x1="55.1385" y1="10.0283" x2="55.4035" y2="71.1022" gradientUnits="userSpaceOnUse">
<stop stop-color="#014982"/>
<stop offset="1" stop-color="#00A9CB"/>
</linearGradient>
<linearGradient id="paint4_linear" x1="55.1385" y1="10.0283" x2="55.4035" y2="71.1022" gradientUnits="userSpaceOnUse">
<stop stop-color="#014982"/>
<stop offset="1" stop-color="#00A9CB"/>
</linearGradient>
<linearGradient id="paint5_linear" x1="55.1385" y1="10.0283" x2="55.4035" y2="71.1022" gradientUnits="userSpaceOnUse">
<stop stop-color="#014982"/>
<stop offset="1" stop-color="#00A9CB"/>
</linearGradient>
<linearGradient id="paint6_linear" x1="55.1385" y1="10.0283" x2="55.4035" y2="71.1022" gradientUnits="userSpaceOnUse">
<stop stop-color="#014982"/>
<stop offset="1" stop-color="#00A9CB"/>
</linearGradient>
<linearGradient id="paint7_linear" x1="55.1385" y1="10.0283" x2="55.4035" y2="71.1022" gradientUnits="userSpaceOnUse">
<stop stop-color="#014982"/>
<stop offset="1" stop-color="#00A9CB"/>
</linearGradient>
<linearGradient id="paint8_linear" x1="55.1385" y1="10.0283" x2="55.4035" y2="71.1022" gradientUnits="userSpaceOnUse">
<stop stop-color="#014982"/>
<stop offset="1" stop-color="#00A9CB"/>
</linearGradient>
<linearGradient id="paint9_linear" x1="55.1385" y1="10.0283" x2="55.4035" y2="71.1022" gradientUnits="userSpaceOnUse">
<stop stop-color="#014982"/>
<stop offset="1" stop-color="#00A9CB"/>
</linearGradient>
<linearGradient id="paint10_linear" x1="55.1385" y1="10.0283" x2="55.4035" y2="71.1022" gradientUnits="userSpaceOnUse">
<stop stop-color="#014982"/>
<stop offset="1" stop-color="#00A9CB"/>
</linearGradient>
<linearGradient id="paint11_linear" x1="55.1385" y1="10.0283" x2="55.4035" y2="71.1022" gradientUnits="userSpaceOnUse">
<stop stop-color="#014982"/>
<stop offset="1" stop-color="#00A9CB"/>
</linearGradient>
<linearGradient id="paint12_linear" x1="55.1385" y1="10.0283" x2="55.4035" y2="71.1022" gradientUnits="userSpaceOnUse">
<stop stop-color="#014982"/>
<stop offset="1" stop-color="#00A9CB"/>
</linearGradient>
<linearGradient id="paint13_linear" x1="55.1385" y1="10.0283" x2="55.4035" y2="71.1022" gradientUnits="userSpaceOnUse">
<stop stop-color="#014982"/>
<stop offset="1" stop-color="#00A9CB"/>
</linearGradient>
<linearGradient id="paint14_linear" x1="55.1385" y1="10.0283" x2="55.4035" y2="71.1022" gradientUnits="userSpaceOnUse">
<stop stop-color="#014982"/>
<stop offset="1" stop-color="#00A9CB"/>
</linearGradient>
<linearGradient id="paint15_linear" x1="55.1385" y1="10.0283" x2="55.4035" y2="71.1022" gradientUnits="userSpaceOnUse">
<stop stop-color="#014982"/>
<stop offset="1" stop-color="#00A9CB"/>
</linearGradient>
<linearGradient id="paint16_linear" x1="55.1385" y1="10.0283" x2="55.4035" y2="71.1022" gradientUnits="userSpaceOnUse">
<stop stop-color="#014982"/>
<stop offset="1" stop-color="#00A9CB"/>
</linearGradient>
<linearGradient id="paint17_linear" x1="55.1385" y1="10.0283" x2="55.4035" y2="71.1022" gradientUnits="userSpaceOnUse">
<stop stop-color="#014982"/>
<stop offset="1" stop-color="#00A9CB"/>
</linearGradient>
<linearGradient id="paint18_linear" x1="55.1385" y1="10.0283" x2="55.4035" y2="71.1022" gradientUnits="userSpaceOnUse">
<stop stop-color="#014982"/>
<stop offset="1" stop-color="#00A9CB"/>
</linearGradient>
<linearGradient id="paint19_linear" x1="55.1385" y1="10.0283" x2="55.4035" y2="71.1022" gradientUnits="userSpaceOnUse">
<stop stop-color="#014982"/>
<stop offset="1" stop-color="#00A9CB"/>
</linearGradient>
<linearGradient id="paint20_linear" x1="55.1385" y1="10.0283" x2="55.4035" y2="71.1022" gradientUnits="userSpaceOnUse">
<stop stop-color="#014982"/>
<stop offset="1" stop-color="#00A9CB"/>
</linearGradient>
<linearGradient id="paint21_linear" x1="55.1385" y1="10.0283" x2="55.4035" y2="71.1022" gradientUnits="userSpaceOnUse">
<stop stop-color="#014982"/>
<stop offset="1" stop-color="#00A9CB"/>
</linearGradient>
</defs>
</svg>
