<svg width="17" height="19" viewBox="0 0 17 19" fill="none" xmlns="http://www.w3.org/2000/svg">
<g clip-path="url(#clip0)">
<path d="M14.4468 15.9482L11.4116 12.7284L14.4468 15.9482ZM13.0936 8.42533C13.0936 10.0405 12.4877 11.5895 11.4091 12.7316C10.3306 13.8737 8.86776 14.5153 7.34246 14.5153C5.81716 14.5153 4.35433 13.8737 3.27578 12.7316C2.19723 11.5895 1.59131 10.0405 1.59131 8.42533C1.59131 6.81018 2.19723 5.26118 3.27578 4.11909C4.35433 2.97701 5.81716 2.33539 7.34246 2.33539C8.86776 2.33539 10.3306 2.97701 11.4091 4.11909C12.4877 5.26118 13.0936 6.81018 13.0936 8.42533V8.42533Z" stroke="#9E9E9E" stroke-width="2" stroke-linecap="round"/>
</g>
<defs>
<clipPath id="clip0">
<rect width="16.2385" height="17.1951" fill="white" transform="translate(0.238281 0.902466)"/>
</clipPath>
</defs>
</svg>
