<svg width="72" height="88" viewBox="0 0 72 88" fill="none" xmlns="http://www.w3.org/2000/svg">
<path d="M31.9334 3.53381C39.9333 -2.86628 48.9334 0.867144 52.4334 3.53381C57.4338 7.34368 57.0337 12.1337 63.4337 16.5337C69.8337 20.9337 69.9338 26.5339 67.9337 35.0337C65.4338 44.0339 59.8337 52.4337 65.4337 58.0337C71.0337 63.6337 71.4338 68.5339 67.9337 76.0339C60.4338 88.5339 48.6334 90.7337 33.4337 83.5337C18.234 76.3337 10.2435 70.7483 5.43337 63.5337C-1.56711 53.0339 -0.473024 41.3871 1.43337 35.0337C2.93359 30.0339 5.43382 25.5339 13.9337 23.5339C22.2574 21.5754 25.4338 8.03394 31.9334 3.53381Z" fill="#E9F1FB"/>
<path d="M12.6097 69.2724L13.4922 67.9177C13.7653 67.4986 14.3235 67.3824 14.7386 67.6578C15.1538 67.9335 15.269 68.4967 14.9961 68.9158L14.1135 70.2703C13.2978 71.5224 14.1861 73.1835 15.6701 73.1835H32.9875C34.4722 73.1835 35.3594 71.5217 34.544 70.2703L30.2763 63.7199C29.9662 63.8436 29.5606 64.1831 28.6095 64.1831C27.3747 64.1831 27.178 63.65 26.4693 63.65C25.7517 63.65 25.5781 64.1831 24.329 64.1831C23.0942 64.1831 22.8975 63.65 22.1888 63.65C21.4711 63.65 21.2976 64.1831 20.0483 64.1831C19.0961 64.1831 18.6897 63.843 18.3808 63.7205L17.3275 65.3372C17.0547 65.7562 16.4968 65.8727 16.0812 65.5971C15.6659 65.3215 15.5507 64.7584 15.8237 64.3393L19.7487 58.315C19.8977 58.0861 19.9765 57.8204 19.9765 57.5464V55.2588C19.0968 55.1887 18.402 54.4453 18.402 53.5398V51.4186C18.402 50.4669 19.1692 49.6926 20.1121 49.6926H28.5453C29.279 49.6926 29.9044 50.1622 30.1467 50.8186C32.0055 49.9455 34.8441 49.3219 36.8686 48.9423C36.9525 48.792 37.0498 48.6481 37.1616 48.513C37.2192 48.4435 37.2794 48.3767 37.3381 48.3082C35.1978 45.7234 34.0269 42.4822 34.026 39.0906C34.0256 37.4846 34.0235 27.8237 34.0231 26.2145C34.0231 18.9281 39.8967 13 47.1163 13H50.4205C52.0244 13 53.4107 13.9083 54.107 15.2339C58.9857 16.9267 62.5602 21.5985 62.5554 27.1864C62.5543 31.4062 62.5534 34.869 62.5524 39.0911C62.5522 39.5927 62.1495 39.9991 61.6525 39.9991H61.6523C61.1553 39.9989 60.7525 39.5922 60.7527 39.0906L60.7537 34.8301C60.4623 34.9372 60.1479 34.9958 59.8201 34.9958H58.9695C58.6468 36.9227 57.7663 38.7339 56.3731 40.3183V40.3236C56.3731 41.0665 56.0656 41.7822 55.5294 42.2874C55.1355 42.6584 54.7283 42.9982 54.3149 43.3076V44.3127C55.2667 44.9615 56.4516 45.5626 57.9813 46.993C58.9139 45.8274 59.6436 44.4912 60.1113 43.0811C60.269 42.6056 60.7788 42.3491 61.2502 42.5082C61.7215 42.6675 61.9756 43.1821 61.8178 43.6578C61.2591 45.3423 60.3743 46.9346 59.24 48.3083C59.3951 48.4893 59.5354 48.6304 59.7097 48.9427C62.6176 49.4878 64.8312 50.096 66.2915 50.7522C69.7593 52.3105 72 55.7931 72 59.6244V71.5469C72.0001 73.451 70.4652 75 68.5787 75H15.67C12.751 75 11.0068 71.7329 12.6097 69.2724ZM19.3796 62.1876C20.4947 62.7589 20.675 61.8336 22.1889 61.8336C23.4238 61.8336 23.6204 62.3667 24.3291 62.3667C25.0466 62.3667 25.2205 61.8336 26.4694 61.8336C27.9712 61.8336 28.1772 62.7531 29.2543 62.1992C29.262 62.1952 29.27 62.1912 29.2778 62.1871L27.4053 59.313C27.0625 58.7869 26.8813 58.176 26.8813 57.5464V55.2657H21.7765V57.5464C21.7765 58.1762 21.5952 58.7871 21.2525 59.313L19.3796 62.1876ZM20.2018 51.5091V53.4493H28.4558C28.4558 52.8856 28.4558 52.3805 28.4558 51.5091H20.2018ZM30.2555 52.8094V53.5399C30.2555 54.4454 29.5606 55.1888 28.6809 55.2589V57.5465C28.6809 57.8204 28.7597 58.0862 28.9089 58.3152C29.8595 59.7743 35.0052 67.6723 36.0477 69.2725C36.8047 70.4344 36.8848 71.9036 36.1387 73.1836H47.3894V61.8091L43.4623 61.1333C42.6624 61.0157 42.0102 60.4333 41.7979 59.6449L41.2395 57.5709C41.2084 57.4561 41.0977 57.3846 40.9815 57.4044L39.8438 57.5992C38.7612 57.7851 37.7153 57.0494 37.5121 55.9604L36.5591 50.8512C34.7017 51.22 31.8632 51.8592 30.2555 52.8094ZM53.3382 49.2762C52.8152 48.7667 52.5153 48.0541 52.5153 47.3208V44.4553C50.9139 45.3147 49.3749 45.7378 48.3084 45.7608C48.3021 45.7609 48.2956 45.7611 48.2892 45.7611C48.2829 45.7611 48.2764 45.7611 48.27 45.7608C47.2035 45.7378 45.6646 45.3147 44.0632 44.4553V47.3206C44.0632 48.054 43.7632 48.7666 43.2403 49.2759C43.1254 49.3877 43.1121 49.5638 43.2089 49.6855C43.3059 49.8072 42.9829 49.2435 48.2892 59.1336C53.5925 49.2487 53.2726 49.807 53.3694 49.6855C53.4663 49.5639 53.4529 49.3878 53.3382 49.2762ZM41.7498 50.7495C41.1273 49.8955 41.2238 48.7159 41.9904 47.9691C42.1614 47.8026 42.2634 47.5603 42.2634 47.3208V46.4684C42.0275 46.6438 40.2654 47.5998 38.5419 49.6788C38.4646 49.7721 38.4067 49.8772 38.3675 49.9884C38.3606 50.014 38.3527 50.0392 38.3435 50.0639C38.3053 50.2077 38.2985 50.3602 38.3266 50.511L39.2803 55.6244C39.3031 55.7467 39.4201 55.8298 39.5424 55.8085L40.6803 55.6136C41.7135 55.4369 42.7008 56.0732 42.9759 57.0945L43.5344 59.1687C43.5646 59.2802 43.6436 59.3219 43.7522 59.3406L46.6182 59.8339L41.7498 50.7495ZM38.5961 46.9938C40.118 45.5703 41.303 44.9673 42.2634 44.3125V43.3075C41.8501 42.9979 41.4428 42.6583 41.0491 42.2873C40.5129 41.7822 40.2054 41.0664 40.2054 40.3235V40.3181C38.8118 38.7335 37.9312 36.9219 37.6087 34.9957H36.7583C36.4306 34.9957 36.1162 34.9371 35.8247 34.8299L35.8257 39.0905C35.8264 41.9883 36.8043 44.7607 38.5961 46.9938ZM35.8234 29.104L35.8241 32.2624C35.8386 32.7704 36.2516 33.1793 36.7581 33.1793H37.4667L37.4565 29.104H35.8234ZM50.4205 14.8164H47.1163C40.889 14.8164 35.8228 19.9297 35.8228 26.2147L35.823 27.2876C37.5804 27.2876 41.9519 27.2876 43.6764 27.2876C48.7054 27.2876 52.7968 23.1582 52.7968 18.0824V17.2147C52.7968 15.9025 51.7427 14.8164 50.4205 14.8164ZM54.5965 17.3949V18.0824C54.5965 19.5445 54.3123 20.9407 53.7977 22.2186V22.6996C53.7977 24.1371 54.9565 25.3066 56.3807 25.3066C57.6457 25.3066 58.6867 26.1605 59.0198 27.2876H59.8214C60.1493 27.2876 60.4639 27.3463 60.7555 27.4536L60.7557 27.1853C60.7594 22.8295 58.2324 19.1275 54.5965 17.3949ZM60.7543 32.2609L60.7549 30.0324C60.7471 29.5192 60.3318 29.1041 59.8215 29.1041H59.1301L59.1118 33.1794H59.8201C60.3273 33.1793 60.7405 32.7695 60.7543 32.2609ZM57.3114 33.3153L57.3348 28.0905C57.3372 27.5563 56.9097 27.1232 56.3807 27.1232C54.655 27.1232 53.1594 26.1108 52.4451 24.6438C50.4532 27.3484 47.2641 29.104 43.6763 29.104H39.2563L39.2669 33.3194C39.2669 34.8158 39.6626 36.0974 40.2054 37.1524V35.922C40.2054 34.7558 41.1454 33.8071 42.3008 33.8071H54.2775C55.4329 33.8071 56.3729 34.7557 56.3729 35.922V37.152C56.9158 36.0965 57.3114 34.8139 57.3114 33.3153ZM54.5733 35.922C54.5733 35.7574 54.4406 35.6235 54.2775 35.6235H42.3008C42.1378 35.6235 42.0051 35.7574 42.0051 35.922V40.3235C42.0051 40.5648 42.1042 40.7966 42.2771 40.9595C44.2825 42.849 46.8647 43.9047 48.2891 43.9444C49.7135 43.9047 52.2957 42.8489 54.3011 40.9595C54.474 40.7966 54.5731 40.5648 54.5731 40.3235V35.922H54.5733ZM54.3149 46.4684V47.3208C54.3149 47.5566 54.4196 47.8051 54.5879 47.9691C55.3544 48.7158 55.4509 49.8953 54.8286 50.7494L49.9601 59.8337L52.826 59.3405C52.9351 59.3218 53.0138 59.2799 53.0438 59.1686L53.6023 57.0944C53.8773 56.0732 54.8641 55.4367 55.8979 55.6136L57.0357 55.8085C57.1571 55.8295 57.2748 55.7467 57.2976 55.6244L58.2513 50.511C58.3093 50.2005 58.2156 49.8952 58.0362 49.6787C56.3286 47.6184 54.5189 46.6201 54.3149 46.4684ZM70.2004 71.5468V59.6242C70.2004 56.5095 68.3788 53.6783 65.5595 52.4114C64.3502 51.8679 62.4485 51.3333 60.0194 50.8514L59.0664 55.9605C58.8632 57.0497 57.817 57.7852 56.7347 57.5994L55.5969 57.4046C55.4803 57.3847 55.3698 57.4562 55.339 57.5709L54.7805 59.6452C54.5681 60.4334 53.9158 61.0159 53.1161 61.1334L49.1891 61.8093V73.1836H63.1351V68.9591C63.1351 68.4576 63.538 68.0509 64.0349 68.0509C64.5319 68.0509 64.9348 68.4576 64.9348 68.9591V73.1836H68.5787C69.4729 73.1836 70.2004 72.4494 70.2004 71.5468Z" fill="url(#paint0_linear)"/>
<defs>
<linearGradient id="paint0_linear" x1="41.9929" y1="13" x2="41.7003" y2="75.1277" gradientUnits="userSpaceOnUse">
<stop stop-color="#014982"/>
<stop offset="1" stop-color="#00A9CB"/>
</linearGradient>
</defs>
</svg>
