<svg width="74" height="88" viewBox="0 0 74 88" fill="none" xmlns="http://www.w3.org/2000/svg">
<path d="M31.9334 3.53381C39.9333 -2.86628 48.9334 0.867144 52.4334 3.53381C57.4338 7.34368 57.0337 12.1337 63.4337 16.5337C69.8337 20.9337 69.9338 26.5339 67.9337 35.0337C65.4338 44.0339 59.8337 52.4337 65.4337 58.0337C71.0337 63.6337 71.4338 68.5339 67.9337 76.0339C60.4338 88.5339 48.6334 90.7337 33.4337 83.5337C18.234 76.3337 10.2435 70.7483 5.43337 63.5337C-1.56711 53.0339 -0.473024 41.3871 1.43337 35.0337C2.93359 30.0339 5.43382 25.5339 13.9337 23.5339C22.2574 21.5754 25.4338 8.03394 31.9334 3.53381Z" fill="#E9F1FB"/>
<path d="M32.8927 37.7808C33.1691 37.504 33.6002 37.4621 33.9174 37.6811C37.0696 39.8557 41.3054 39.8557 44.4577 37.6811C44.9275 37.357 45.0455 36.7135 44.7214 36.2437C44.3975 35.7739 43.7538 35.6558 43.2841 35.9799C40.8339 37.6702 37.5413 37.6703 35.0909 35.9798C33.9525 35.1947 32.4134 35.3373 31.4313 36.3194L24.1537 43.5968C23.2584 44.492 23.0488 45.8406 23.6319 46.9526C26.6762 52.7587 32.6367 56.3654 39.1874 56.3654C45.7381 56.3654 51.6985 52.7587 54.743 46.9526C55.326 45.8406 55.1164 44.4919 54.2211 43.5968L49.1121 38.4878C48.7083 38.0844 48.0542 38.0844 47.6507 38.4878C47.2472 38.8915 47.2472 39.5457 47.6507 39.9492L52.7597 45.0582C53.0082 45.3065 53.071 45.6909 52.9128 45.9929C50.2264 51.1161 44.9672 54.2987 39.1875 54.2987C33.4079 54.2987 28.1487 51.1161 25.4623 45.9929C25.3039 45.6909 25.3668 45.3065 25.6154 45.0582L32.8927 37.7808Z" fill="url(#paint0_linear)"/>
<path d="M65.6667 18.2312H62.9229C62.7013 16.5925 61.2943 15.325 59.5958 15.325H52.329C51.8922 13.9771 50.6248 13 49.1333 13H48.2938C44.8394 13 42.0292 15.8103 42.0292 19.2646C42.0292 22.7189 44.8394 25.5292 48.2938 25.5292H49.1333C50.6721 25.5292 51.9723 24.4891 52.3681 23.075H57.2126C57.7832 23.075 58.2459 22.6123 58.2459 22.0417C58.2459 21.471 57.7832 21.0083 57.2126 21.0083H51.4583C50.8877 21.0083 50.425 21.471 50.425 22.0417V22.1708C50.425 22.8831 49.8456 23.4625 49.1333 23.4625H48.2938C45.979 23.4625 44.0958 21.5794 44.0958 19.2646C44.0958 16.9498 45.979 15.0667 48.2938 15.0667H49.1333C49.8456 15.0667 50.425 15.6461 50.425 16.3583C50.425 16.929 50.8877 17.3917 51.4583 17.3917H59.5958C60.3081 17.3917 60.8875 17.9711 60.8875 18.6833V19.2646C60.8875 19.8352 61.3502 20.2979 61.9208 20.2979H65.6667C68.8005 20.2979 71.35 22.8474 71.35 25.9812V67.25C71.35 70.3838 68.8005 72.9333 65.6667 72.9333H65.4209C62.64 72.9333 60.321 70.9253 59.8334 68.2833H61.275C62.9843 68.2833 64.375 66.8926 64.375 65.1833V31.0833C64.375 29.3741 62.9843 27.9833 61.275 27.9833H17.1C15.3907 27.9833 14 29.3741 14 31.0833V65.1833C14 66.8926 15.3907 68.2833 17.1 68.2833H31.0955L30.1325 70.7871C29.352 72.8163 30.8526 75 33.0259 75H45.3491C45.9198 75 46.3825 74.5373 46.3825 73.9667C46.3825 73.396 45.9198 72.9333 45.3491 72.9333H33.0259C32.3005 72.9333 31.8003 72.2075 32.0614 71.529L33.3098 68.2833H54.0338C54.6045 68.2833 55.0671 67.8207 55.0671 67.25C55.0671 66.6793 54.6045 66.2167 54.0338 66.2167H17.1C16.5302 66.2167 16.0667 65.7531 16.0667 65.1833V62.0833H57.2375C57.8082 62.0833 58.2708 61.6207 58.2708 61.05C58.2708 60.4793 57.8082 60.0167 57.2375 60.0167H16.0667V31.0833C16.0667 30.5136 16.5302 30.05 17.1 30.05H61.275C61.8448 30.05 62.3083 30.5136 62.3083 31.0833V65.1833C62.3083 65.7531 61.8448 66.2167 61.275 66.2167H58.7042C58.1335 66.2167 57.6709 66.6793 57.6709 67.25C57.6709 71.5233 61.1475 75 65.4209 75H65.6667C69.94 75 73.4167 71.5233 73.4167 67.25V25.9812C73.4167 21.7079 69.94 18.2312 65.6667 18.2312Z" fill="url(#paint1_linear)"/>
<defs>
<linearGradient id="paint0_linear" x1="39.1912" y1="35.4746" x2="39.2539" y2="56.4087" gradientUnits="userSpaceOnUse">
<stop stop-color="#014982"/>
<stop offset="1" stop-color="#00A9CB"/>
</linearGradient>
<linearGradient id="paint1_linear" x1="43.7154" y1="13" x2="44.0109" y2="75.1277" gradientUnits="userSpaceOnUse">
<stop stop-color="#014982"/>
<stop offset="1" stop-color="#00A9CB"/>
</linearGradient>
</defs>
</svg>
