<svg width="73" height="88" viewBox="0 0 73 88" fill="none" xmlns="http://www.w3.org/2000/svg">
<path d="M31.9334 3.53381C39.9333 -2.86628 48.9334 0.867144 52.4334 3.53381C57.4338 7.34368 57.0337 12.1337 63.4337 16.5337C69.8337 20.9337 69.9338 26.5339 67.9337 35.0337C65.4338 44.0339 59.8337 52.4337 65.4337 58.0337C71.0337 63.6337 71.4338 68.5339 67.9337 76.0339C60.4338 88.5339 48.6334 90.7337 33.4337 83.5337C18.234 76.3337 10.2435 70.7483 5.43337 63.5337C-1.56711 53.0339 -0.473024 41.3871 1.43337 35.0337C2.93359 30.0339 5.43382 25.5339 13.9337 23.5339C22.2574 21.5754 25.4338 8.03394 31.9334 3.53381Z" fill="#E9F1FB"/>
<path d="M38.8949 68.4816L34.692 72.6846C34.0257 73.3507 32.9417 73.3511 32.2755 72.6846C31.6081 72.0175 31.6073 70.9359 32.2755 70.2682L38.85 63.6934C41.6209 60.9226 42.8218 56.9734 42.0621 53.1289C40.2239 43.8261 40.4079 44.7569 38.5853 35.5331C37.6584 30.8417 38.9482 26.1042 42.1239 22.5358C42.4574 22.1611 42.424 21.5871 42.0493 21.2536C41.6744 20.92 41.1004 20.9534 40.767 21.3282C39.0375 23.2717 37.7616 25.6229 37.0777 28.1275C36.3918 30.6391 36.2969 33.3218 36.8034 35.8854L37.522 39.5217L33.8859 38.8034C28.3254 37.7044 22.6134 39.441 18.6056 43.4488L12.0307 50.0236C10.6564 51.398 10.6564 53.6345 12.0307 55.009C13.4086 56.3867 15.6384 56.3869 17.0163 55.009L17.8947 54.1306L31.8693 68.1052L30.9909 68.9836C29.6133 70.3609 29.6128 72.5911 30.9909 73.9692C32.3657 75.3437 34.6017 75.3435 35.9763 73.9692L40.1794 69.7661C40.5341 69.4113 40.5341 68.8364 40.1794 68.4816C39.8247 68.127 39.2497 68.127 38.8949 68.4816ZM37.3523 62.6221L23.3777 48.6476C23.5155 48.5328 24.6882 47.155 26.8317 46.2736L39.7261 59.1682C38.8607 61.2733 37.4388 62.5184 37.3523 62.6221ZM40.2801 53.481C40.5252 54.7216 40.528 55.9751 40.3083 57.1812L28.8187 45.6915C30.0248 45.4719 31.2782 45.4747 32.5188 45.7198L38.9996 47.0003L40.2801 53.481ZM15.7317 53.7246C15.0641 54.3924 13.9831 54.3924 13.3153 53.7246C12.6491 53.0583 12.6491 51.9741 13.3153 51.308L19.8901 44.7333C23.4684 41.1549 28.5692 39.6045 33.5335 40.5853L37.9024 41.4484L38.6187 45.0736L32.8707 43.9379C29.0266 43.1778 25.077 44.3793 22.3064 47.1499L15.7317 53.7246ZM19.1793 52.846L22.0931 49.9321L36.0678 63.9066L33.1539 66.8206L19.1793 52.846Z" fill="url(#paint0_linear)"/>
<path d="M71.9692 32.9907C70.5913 31.613 68.3616 31.6128 66.9836 32.9907L66.1052 33.8691L52.1306 19.8945L53.009 19.0161C54.3868 17.6385 54.3871 15.4086 53.009 14.0305C51.6346 12.6564 49.3982 12.6566 48.0236 14.0305L43.8191 18.2352C43.4644 18.59 43.4644 19.1649 43.8191 19.5197C44.1739 19.8743 44.7488 19.8743 45.1036 19.5197L49.308 15.3151C49.9744 14.6491 51.0584 14.649 51.7246 15.3151C52.3924 15.9827 52.3927 17.0637 51.7246 17.7315L45.1499 24.3063C42.3791 27.0772 41.1784 31.0264 41.938 34.8708C42.0825 35.602 45.1822 51.2896 45.4148 52.4666C46.3376 57.136 45.0615 61.8577 41.914 65.4211C41.582 65.7971 41.6176 66.371 41.9935 66.7031C42.3705 67.0364 42.9445 66.9984 43.2755 66.6237C44.9904 64.6823 46.2543 62.3373 46.9307 59.8423C47.6093 57.3397 47.7013 54.6674 47.1967 52.1145L46.4783 48.4781L50.1145 49.1967C55.5784 50.2763 61.3178 48.6277 65.3946 44.5511L71.9693 37.9763C73.3435 36.6017 73.3435 34.3652 71.9692 32.9907ZM64.8206 35.1537L61.9066 38.0676L47.9322 24.0931L50.846 21.1792L64.8206 35.1537ZM46.6476 25.3777L60.622 39.3521C60.4842 39.4669 59.3115 40.8446 57.168 41.7259L44.2738 28.8316C45.1394 26.7264 46.5612 25.4813 46.6476 25.3777ZM43.7199 34.5187C43.4748 33.2781 43.472 32.0247 43.6917 30.8186L55.181 42.308C53.9749 42.5277 52.7215 42.5249 51.4811 42.2798L45.0003 40.9994L43.7199 34.5187ZM70.6846 36.6917L64.1099 43.2664C60.5317 46.8447 55.4317 48.3954 50.4667 47.4147L46.0975 46.5513L45.3812 42.9261L51.1289 44.0618C54.974 44.8219 58.9226 43.6206 61.6934 40.8499L68.2682 34.2752C68.9358 33.6073 70.0168 33.6073 70.6846 34.2752C71.3508 34.9414 71.3508 36.0256 70.6846 36.6917Z" fill="url(#paint1_linear)"/>
<defs>
<linearGradient id="paint0_linear" x1="26.6806" y1="21.0237" x2="27.1049" y2="75.1091" gradientUnits="userSpaceOnUse">
<stop stop-color="#014982"/>
<stop offset="1" stop-color="#00A9CB"/>
</linearGradient>
<linearGradient id="paint1_linear" x1="57.3469" y1="13" x2="57.7711" y2="67.0397" gradientUnits="userSpaceOnUse">
<stop stop-color="#014982"/>
<stop offset="1" stop-color="#00A9CB"/>
</linearGradient>
</defs>
</svg>
