<svg width="71" height="88" viewBox="0 0 71 88" fill="none" xmlns="http://www.w3.org/2000/svg">
<path d="M31.9334 3.53381C39.9333 -2.86628 48.9334 0.867144 52.4334 3.53381C57.4338 7.34368 57.0337 12.1337 63.4337 16.5337C69.8337 20.9337 69.9338 26.5339 67.9337 35.0337C65.4338 44.0339 59.8337 52.4337 65.4337 58.0337C71.0337 63.6337 71.4338 68.5339 67.9337 76.0339C60.4338 88.5339 48.6334 90.7337 33.4337 83.5337C18.234 76.3337 10.2435 70.7483 5.43337 63.5337C-1.56711 53.0339 -0.473024 41.3871 1.43337 35.0337C2.93359 30.0339 5.43382 25.5339 13.9337 23.5339C22.2574 21.5754 25.4338 8.03394 31.9334 3.53381Z" fill="#E9F1FB"/>
<path d="M64.507 50.9846C64.5084 50.9874 64.5098 50.9903 64.5108 50.9926C64.7165 51.4534 65.1531 51.7235 65.6162 51.7235C65.7818 51.7235 65.9506 51.6889 66.1134 51.6166C66.733 51.3413 67.0008 50.635 66.7236 50.0088C66.4468 49.3825 65.7439 49.1058 65.1233 49.3787C64.5027 49.6521 64.2322 50.3574 64.507 50.9846Z" fill="url(#paint0_linear)"/>
<path d="M67.8479 54.5138C67.7439 53.8535 67.1238 53.4022 66.4629 53.5072C65.8026 53.6113 65.3518 54.2314 65.4564 54.8922C65.7279 56.6126 65.8026 58.3661 65.6777 60.1035C65.3882 64.1313 63.3524 67.8071 60.0918 70.1892L59.273 70.7871C57.669 71.9588 55.7717 72.578 53.7855 72.578C53.0665 72.578 52.347 72.4943 51.6479 72.3292L48.4389 71.5714C42.2367 70.1069 36.5793 66.6652 32.509 61.8806C30.6997 59.7534 29.8837 58.2062 29.257 56.6126C29.3071 56.4508 29.3251 56.2763 29.3014 56.097C29.2948 56.045 28.6988 50.8148 36.0746 47.4573C41.1331 45.1546 43.4996 41.2167 44.3232 39.519C49.8689 40.2844 51.7775 41.8453 51.9194 41.9678C52.2122 42.2781 52.6162 42.3784 53.0343 42.2838C53.1351 42.2611 53.2349 42.2394 53.3342 42.2185C57.2144 41.404 61.2167 43.4706 62.8524 47.1304C63.1253 47.7411 63.8415 48.0149 64.4521 47.742C65.0628 47.4691 65.3362 46.7529 65.0637 46.1423C64.1371 44.0699 62.579 42.325 60.6391 41.1656C60.64 41.1613 60.6419 41.1576 60.6434 41.1533C60.8874 40.3733 61.0109 39.5597 61.0109 38.7357C61.0109 38.5706 61.0043 38.4069 60.9948 38.2442H61.8349C62.5033 38.2442 63.0458 37.7021 63.0458 37.0333C63.0458 36.3644 62.5033 35.8223 61.8349 35.8223H60.466C60.1547 35.0192 59.72 34.277 59.1831 33.6209L59.7314 33.0727C60.2044 32.5996 60.2044 31.8329 59.7314 31.3599C59.2584 30.8873 58.4921 30.8873 58.019 31.3599L57.3852 31.9937C56.4032 31.3419 55.2713 30.8987 54.0527 30.7274C55.6572 29.4441 57.765 28.8363 60.3335 28.9238C60.6613 28.9361 60.9801 28.8122 61.2167 28.5842C61.4527 28.3562 61.5856 28.0421 61.5856 27.7138V23.1009C61.5856 22.4708 61.1027 21.9463 60.4745 21.8942C60.2782 21.8781 58.0105 21.7055 55.0622 22.0603C53.7439 19.5092 51.8882 17.6143 49.7539 16.5623L50.611 15.2828C50.9833 14.727 50.8343 13.9749 50.2785 13.6031C49.7232 13.2308 48.9711 13.3794 48.5988 13.9352L47.3718 15.7672C46.8486 15.6707 46.3155 15.6191 45.7758 15.6191C45.4646 15.6191 45.1547 15.6366 44.8477 15.6693V14.2109C44.8477 13.5421 44.3057 13 43.6368 13C42.968 13 42.4259 13.5421 42.4259 14.2109V16.2818C41.2897 16.7444 40.2136 17.4431 39.2306 18.3683C38.4951 19.0604 37.8333 19.8607 37.2529 20.7486C36.7988 19.8527 35.8689 19.2363 34.7975 19.2363H31.5104C29.993 19.2363 28.7584 20.4709 28.7584 21.9884V34.3669C28.1491 34.8404 27.5616 35.3952 26.9997 36.0361C24.3451 39.064 23.8167 43.0317 23.8409 45.8267C23.8683 48.9884 24.6327 52.2116 25.8408 54.2782C26.0234 54.7673 26.1875 55.2389 26.3469 55.6963C27.161 58.0302 27.9297 60.235 30.6642 63.4496C35.0666 68.625 41.1814 72.3462 47.8827 73.9285L51.0912 74.6863C51.9729 74.8944 52.8792 74.9999 53.7855 74.9999C56.2887 74.9999 58.6803 74.2194 60.7011 72.7431L61.5199 72.1452C65.357 69.3421 67.7529 65.0168 68.0934 60.2771C68.2316 58.3557 68.1488 56.4168 67.8479 54.5138ZM53.0708 39.8019C52.5826 39.4622 51.7506 38.9783 50.4502 38.493C50.5505 37.3275 50.8887 35.1313 52.0259 33.1398C52.3205 33.0935 52.6214 33.0689 52.9218 33.0689C56.0465 33.0689 58.589 35.6114 58.589 38.7362C58.589 39.2172 58.528 39.6921 58.4098 40.1524C56.6908 39.5952 54.8498 39.4698 53.0708 39.8019ZM59.1637 24.2683V26.5085C56.1638 26.6386 53.689 27.6405 51.7941 29.4938C49.1329 32.0978 48.3301 35.715 48.0894 37.7702C46.9309 37.4812 45.5554 37.2206 43.9277 37.0262C43.5597 36.6851 43.1931 36.3635 42.8279 36.0598C42.8298 36.0305 42.8322 36.0016 42.8322 35.9718C42.8322 32.7193 43.8833 30.1007 45.9556 28.1892C49.8968 24.554 56.5413 24.2428 59.1637 24.2683ZM45.7758 18.041C46.3827 18.041 46.9806 18.1304 47.5624 18.3002C47.5629 18.3002 47.5638 18.3007 47.5643 18.3007C49.4942 18.8645 51.2425 20.3295 52.5268 22.4817C49.7118 23.0886 46.666 24.2423 44.3208 26.4021C42.0877 28.4583 40.8029 31.13 40.4879 34.3593C39.4969 33.7444 38.5164 33.2718 37.5495 32.944V25.9419C37.5703 25.8931 37.5897 25.8435 37.6048 25.7914C38.9402 21.1558 42.2239 18.041 45.7758 18.041ZM31.1803 21.9884C31.1803 21.8062 31.3283 21.6582 31.5104 21.6582H34.7975C34.9796 21.6582 35.1276 21.8062 35.1276 21.9884V32.4227C34.7218 32.3873 34.3192 32.3778 33.9191 32.3958C32.9716 32.4379 32.0577 32.6318 31.1803 32.9733V21.9884ZM28.8208 37.6331C30.3861 35.8474 32.1377 34.8995 34.0269 34.8153C36.436 34.7074 39.2079 36.0168 42.0669 38.607C41.3275 40.0578 39.2704 43.3415 35.0713 45.253C30.4371 47.3622 28.459 50.224 27.6151 52.2527C27.6009 52.2873 27.5877 52.3209 27.5735 52.3549C26.0428 48.9638 25.2197 41.7403 28.8208 37.6331Z" fill="url(#paint1_linear)"/>
<path d="M39.197 61.6999C38.6824 61.2728 37.9189 61.3442 37.4918 61.8589C37.0651 62.3735 37.1361 63.137 37.6507 63.5636C40.9264 66.2816 44.8496 68.2352 48.9957 69.2144C49.0893 69.2366 49.183 69.247 49.2752 69.247C49.8239 69.247 50.3211 68.8714 50.4526 68.3142C50.6063 67.6633 50.2033 67.011 49.5524 66.8573C45.7678 65.9638 42.187 64.18 39.197 61.6999Z" fill="url(#paint2_linear)"/>
<path d="M34.48 58.6083C33.9744 59.0463 33.9171 59.8074 34.3547 60.3126C34.5945 60.6002 34.9389 60.7483 35.2861 60.7483C35.5595 60.7483 35.8343 60.6565 36.0604 60.4678C36.5741 60.0397 36.6436 59.2762 36.2156 58.7625L36.191 58.7336C35.7529 58.228 34.9852 58.1703 34.48 58.6083Z" fill="url(#paint3_linear)"/>
<defs>
<linearGradient id="paint0_linear" x1="46.0045" y1="13" x2="46.4006" y2="75.1265" gradientUnits="userSpaceOnUse">
<stop stop-color="#014982"/>
<stop offset="1" stop-color="#00A9CB"/>
</linearGradient>
<linearGradient id="paint1_linear" x1="46.0045" y1="13" x2="46.4006" y2="75.1265" gradientUnits="userSpaceOnUse">
<stop stop-color="#014982"/>
<stop offset="1" stop-color="#00A9CB"/>
</linearGradient>
<linearGradient id="paint2_linear" x1="46.0045" y1="13" x2="46.4006" y2="75.1265" gradientUnits="userSpaceOnUse">
<stop stop-color="#014982"/>
<stop offset="1" stop-color="#00A9CB"/>
</linearGradient>
<linearGradient id="paint3_linear" x1="46.0045" y1="13" x2="46.4006" y2="75.1265" gradientUnits="userSpaceOnUse">
<stop stop-color="#014982"/>
<stop offset="1" stop-color="#00A9CB"/>
</linearGradient>
</defs>
</svg>
