<svg width="77" height="88" viewBox="0 0 77 88" fill="none" xmlns="http://www.w3.org/2000/svg">
<path d="M31.9334 3.53381C39.9333 -2.86628 48.9334 0.867144 52.4334 3.53381C57.4338 7.34368 57.0337 12.1337 63.4337 16.5337C69.8337 20.9337 69.9338 26.5339 67.9337 35.0337C65.4338 44.0339 59.8337 52.4337 65.4337 58.0337C71.0337 63.6337 71.4338 68.5339 67.9337 76.0339C60.4338 88.5339 48.6334 90.7337 33.4337 83.5337C18.234 76.3337 10.2435 70.7483 5.43337 63.5337C-1.56711 53.0339 -0.473024 41.3871 1.43337 35.0337C2.93359 30.0339 5.43382 25.5339 13.9337 23.5339C22.2574 21.5754 25.4338 8.03394 31.9334 3.53381Z" fill="#E9F1FB"/>
<path d="M35.8927 37.7808C36.1691 37.504 36.6002 37.4621 36.9174 37.6811C40.0696 39.8557 44.3054 39.8557 47.4577 37.6811C47.9275 37.357 48.0455 36.7135 47.7214 36.2437C47.3975 35.7739 46.7538 35.6558 46.2841 35.9799C43.8339 37.6702 40.5413 37.6703 38.0909 35.9798C36.9525 35.1947 35.4134 35.3373 34.4313 36.3194L27.1537 43.5968C26.2584 44.492 26.0488 45.8406 26.6319 46.9526C29.6762 52.7587 35.6367 56.3654 42.1874 56.3654C48.7381 56.3654 54.6985 52.7587 57.743 46.9526C58.326 45.8406 58.1164 44.4919 57.2211 43.5968L52.1121 38.4878C51.7083 38.0844 51.0542 38.0844 50.6507 38.4878C50.2472 38.8915 50.2472 39.5457 50.6507 39.9492L55.7597 45.0582C56.0082 45.3065 56.071 45.6909 55.9128 45.9929C53.2264 51.1161 47.9672 54.2987 42.1875 54.2987C36.4079 54.2987 31.1487 51.1161 28.4623 45.9929C28.3039 45.6909 28.3668 45.3065 28.6154 45.0582L35.8927 37.7808Z" fill="url(#paint0_linear)"/>
<path d="M68.6667 18.2312H65.9229C65.7013 16.5925 64.2943 15.325 62.5958 15.325H55.329C54.8922 13.9771 53.6248 13 52.1333 13H51.2938C47.8394 13 45.0292 15.8103 45.0292 19.2646C45.0292 22.7189 47.8394 25.5292 51.2938 25.5292H52.1333C53.6721 25.5292 54.9723 24.4891 55.3681 23.075H60.2126C60.7832 23.075 61.2459 22.6123 61.2459 22.0417C61.2459 21.471 60.7832 21.0083 60.2126 21.0083H54.4583C53.8877 21.0083 53.425 21.471 53.425 22.0417V22.1708C53.425 22.8831 52.8456 23.4625 52.1333 23.4625H51.2938C48.979 23.4625 47.0958 21.5794 47.0958 19.2646C47.0958 16.9498 48.979 15.0667 51.2938 15.0667H52.1333C52.8456 15.0667 53.425 15.6461 53.425 16.3583C53.425 16.929 53.8877 17.3917 54.4583 17.3917H62.5958C63.3081 17.3917 63.8875 17.9711 63.8875 18.6833V19.2646C63.8875 19.8352 64.3502 20.2979 64.9208 20.2979H68.6667C71.8005 20.2979 74.35 22.8474 74.35 25.9812V67.25C74.35 70.3838 71.8005 72.9333 68.6667 72.9333H68.4209C65.64 72.9333 63.321 70.9253 62.8334 68.2833H64.275C65.9843 68.2833 67.375 66.8926 67.375 65.1833V31.0833C67.375 29.3741 65.9843 27.9833 64.275 27.9833H20.1C18.3907 27.9833 17 29.3741 17 31.0833V65.1833C17 66.8926 18.3907 68.2833 20.1 68.2833H34.0955L33.1325 70.7871C32.352 72.8163 33.8526 75 36.0259 75H48.3491C48.9198 75 49.3825 74.5373 49.3825 73.9667C49.3825 73.396 48.9198 72.9333 48.3491 72.9333H36.0259C35.3005 72.9333 34.8003 72.2075 35.0614 71.529L36.3098 68.2833H57.0338C57.6045 68.2833 58.0671 67.8207 58.0671 67.25C58.0671 66.6793 57.6045 66.2167 57.0338 66.2167H20.1C19.5302 66.2167 19.0667 65.7531 19.0667 65.1833V62.0833H60.2375C60.8082 62.0833 61.2708 61.6207 61.2708 61.05C61.2708 60.4793 60.8082 60.0167 60.2375 60.0167H19.0667V31.0833C19.0667 30.5136 19.5302 30.05 20.1 30.05H64.275C64.8448 30.05 65.3083 30.5136 65.3083 31.0833V65.1833C65.3083 65.7531 64.8448 66.2167 64.275 66.2167H61.7042C61.1335 66.2167 60.6709 66.6793 60.6709 67.25C60.6709 71.5233 64.1475 75 68.4209 75H68.6667C72.94 75 76.4167 71.5233 76.4167 67.25V25.9812C76.4167 21.7079 72.94 18.2312 68.6667 18.2312Z" fill="url(#paint1_linear)"/>
<defs>
<linearGradient id="paint0_linear" x1="42.1912" y1="35.4746" x2="42.2539" y2="56.4087" gradientUnits="userSpaceOnUse">
<stop stop-color="#014982"/>
<stop offset="1" stop-color="#00A9CB"/>
</linearGradient>
<linearGradient id="paint1_linear" x1="46.7154" y1="13" x2="47.0109" y2="75.1277" gradientUnits="userSpaceOnUse">
<stop stop-color="#014982"/>
<stop offset="1" stop-color="#00A9CB"/>
</linearGradient>
</defs>
</svg>
