<svg width="80" height="88" viewBox="0 0 80 88" fill="none" xmlns="http://www.w3.org/2000/svg">
<path d="M31.9334 3.53381C39.9333 -2.86628 48.9334 0.867144 52.4334 3.53381C57.4338 7.34368 57.0337 12.1337 63.4337 16.5337C69.8337 20.9337 69.9338 26.5339 67.9337 35.0337C65.4338 44.0339 59.8337 52.4337 65.4337 58.0337C71.0337 63.6337 71.4338 68.5339 67.9337 76.0339C60.4338 88.5339 48.6334 90.7337 33.4337 83.5337C18.234 76.3337 10.2435 70.7483 5.43337 63.5337C-1.56711 53.0339 -0.473024 41.3871 1.43337 35.0337C2.93359 30.0339 5.43382 25.5339 13.9337 23.5339C22.2574 21.5754 25.4338 8.03394 31.9334 3.53381Z" fill="#E9F1FB"/>
<g clip-path="url(#clip0)">
<path d="M67.8371 75C67.6793 75 67.5197 74.959 67.3743 74.8726C62.9619 72.253 60.9242 68.0518 60.4242 66.8837C57.464 65.0446 55.6122 62.5056 54.5995 60.7551C53.9006 61.5132 53.2336 62.2091 52.5771 62.8656C50.0534 65.3894 46.5556 66.5484 44.0659 67.0763C42.6341 67.3798 41.3996 67.5077 40.6161 67.5615C40.1211 67.5955 39.7647 67.6097 39.4996 67.6074L32.373 74.734C32.0183 75.0887 31.4432 75.0887 31.0887 74.734C30.734 74.3793 30.734 73.8042 31.0887 73.4496L38.5014 66.0369C38.7167 65.8216 39.0185 65.7334 39.305 65.7853C40.3595 65.8591 47.397 65.4773 51.2928 61.5813C51.9125 60.9614 52.5428 60.3047 53.2027 59.5905C51.4446 59.7489 48.6842 59.4745 46.381 57.1714L41.6441 52.4343C41.0326 53.5035 40.325 54.4423 39.5328 55.2346C39.178 55.5892 38.603 55.5894 38.2483 55.2346C37.8937 54.8799 37.8937 54.3049 38.2483 53.9502C39.0305 53.1681 39.7215 52.2096 40.3064 51.0967L39.7211 50.5116C38.5606 49.3511 38.0637 48.1863 38.2437 47.0493C38.3884 46.1359 38.9656 45.3185 39.9638 44.6099C38.928 43.3978 39.1036 41.7914 40.4449 40.45C40.9539 39.941 41.5012 39.5999 42.0505 39.4291C41.982 39.1574 41.9596 38.8777 41.9831 38.595C41.7274 37.0378 41.3148 35.4935 40.7539 33.9924C38.3921 35.0686 35.9066 34.6467 35.7733 34.6231C35.2794 34.5348 34.9508 34.063 35.0389 33.5693C35.1271 33.0765 35.5972 32.7481 36.0903 32.8345C36.1231 32.8402 39.4006 33.3797 41.4076 31.3727L45.9664 26.8139C47.4832 25.2969 47.2757 23.6205 46.4408 22.7047C45.909 22.1213 45.0085 21.7736 44.0763 22.5477C40.8535 25.2239 38.1496 26.4272 36.8249 26.9064C36.2639 27.1092 35.7863 27.4666 35.4438 27.94L31.8613 32.8876C31.567 33.2938 30.9993 33.3847 30.593 33.0905C30.1868 32.7964 30.0959 32.2286 30.3901 31.8223L33.9726 26.8747C34.5296 26.1052 35.3023 25.5254 36.2073 25.1982C37.4207 24.7594 39.9057 23.6499 42.916 21.1502C44.4463 19.8798 46.4477 20.0157 47.7833 21.481C48.3729 22.1277 48.7683 22.975 48.8756 23.9048L52.1512 20.6292C52.5061 20.2745 53.0811 20.2745 53.4357 20.6292C53.7902 20.9839 53.7904 21.5589 53.4357 21.9135L42.6921 32.657C42.5706 32.7785 42.4464 32.893 42.3198 33.001C42.7265 34.044 43.0664 35.1082 43.3365 36.1843C44.2829 35.3407 45.3399 35.0567 46.2884 35.3476C46.4683 34.8137 46.808 34.2895 47.2883 33.8091C47.9144 33.1829 48.6152 32.7959 49.3148 32.6899C49.9128 32.5994 50.8022 32.6675 51.6418 33.5072L53.8538 35.7193C54.1847 35.1346 54.6541 34.6263 55.2244 34.2549C55.9611 33.7751 56.7363 33.6098 57.3514 33.8015C57.589 33.8756 57.8353 33.98 58.0882 34.1105L69.1113 23.0873C71.222 20.9767 71.8146 19.0492 70.6969 17.9315C70.2107 17.4453 69.587 17.2718 68.844 17.4171C67.8666 17.6076 66.7246 18.3338 65.5414 19.5171L63.238 21.8204L53.3607 31.6978C53.0059 32.0524 52.4308 32.0526 52.0764 31.6978C51.7216 31.3431 51.7216 30.7681 52.0763 30.4135L61.9631 20.5266C64.0662 18.4197 64.6554 16.4963 63.5393 15.3802C63.0531 14.894 62.4297 14.7204 61.6863 14.8657C60.7089 15.0562 59.5669 15.7824 58.3836 16.9658L55.9789 19.3706C55.6241 19.7254 55.049 19.7254 54.6946 19.3707C54.3398 19.0161 54.3398 18.441 54.6945 18.0863L57.0992 15.6814C58.5598 14.2208 59.9862 13.3466 61.3389 13.083C62.6731 12.823 63.9106 13.1828 64.8239 14.0959C65.2021 14.4742 65.9373 15.3949 65.924 16.8098C66.8033 16.1904 67.664 15.7966 68.4967 15.6343C69.8303 15.3743 71.0683 15.734 71.9816 16.6473C72.5856 17.2513 74.1 19.2387 72.0219 22.4135C73.4904 22.3692 74.44 23.1256 74.8263 23.5119C75.5463 24.232 77.5599 26.9172 73.2404 31.2364L71.7992 32.6777C72.7421 32.718 73.5993 33.091 74.2778 33.7694C75.191 34.6826 75.5508 35.9203 75.2907 37.2543C75.0269 38.6069 74.1527 40.0333 72.6922 41.4938L68.0919 46.0943C67.7371 46.4489 67.1621 46.4488 66.8074 46.0943C66.4527 45.7396 66.4527 45.1645 66.8074 44.8099L71.4077 40.2095C72.5911 39.0261 73.3174 37.8841 73.5079 36.9068C73.6527 36.1634 73.4797 35.54 72.9935 35.0538C72.507 34.5675 71.8835 34.3944 71.1403 34.5394C70.1631 34.7299 69.0209 35.4561 67.8377 36.6395C67.8359 36.6412 67.8343 36.6429 67.8325 36.6446L64.092 40.385C65.1899 42.565 65.2459 45.2953 64.294 49.1697C65.7842 49.9164 69.2216 51.9421 71.6043 55.7048C72.7776 56.1934 76.998 58.1901 79.6603 62.5765C79.9205 63.0053 79.7839 63.5639 79.3551 63.8241C78.9265 64.0842 78.3678 63.9477 78.1075 63.5189C75.3994 59.0573 70.7269 57.3092 70.6801 57.2921C70.4863 57.2212 70.3211 57.0861 70.2141 56.9098C67.4833 52.4108 62.932 50.5362 62.8863 50.5178C62.4604 50.3462 62.2299 49.8837 62.3488 49.4402C63.8085 43.9966 62.9965 41.8352 62.0097 40.4388C60.0643 37.6859 57.9324 35.8941 56.8236 35.5398C56.7261 35.532 56.4157 35.6092 56.0528 35.894C55.852 36.0515 55.4209 36.4504 55.2267 37.0924L55.2292 37.0949L56.997 38.8625C57.65 39.5156 59.6788 40.8521 60.4055 41.3121C60.8293 41.5803 60.9555 42.1413 60.6872 42.5652C60.4189 42.989 59.858 43.1152 59.434 42.847C59.1492 42.6668 56.6257 41.0602 55.7124 40.1469L53.6047 38.0391C53.6013 38.0357 53.5977 38.0322 53.5944 38.0288L50.3574 34.7918C50.0288 34.463 49.7599 34.4601 49.5869 34.4861C49.278 34.5329 48.9178 34.7487 48.5728 35.0938C48.2278 35.4388 48.012 35.7989 47.9652 36.108C47.939 36.2813 47.942 36.5497 48.2708 36.8785L51.9922 40.5999C52.3469 40.9546 52.3469 41.5297 51.9922 41.8842C51.6374 42.2388 51.0624 42.2389 50.7077 41.8842L46.9865 38.1628L46.1923 37.3688C45.4507 36.6272 44.6656 37.4125 44.4075 37.6706C43.3643 38.714 43.9223 39.272 44.1056 39.4553L44.7867 40.1363C44.7907 40.1402 44.7946 40.1443 44.7988 40.1483C44.8008 40.1505 44.8029 40.1526 44.8049 40.1546L48.6213 43.9708C48.976 44.3255 48.976 44.9006 48.6213 45.2552C48.2666 45.6099 47.6915 45.6099 47.3369 45.2552L43.5078 41.426C42.7682 40.6959 41.9868 41.4772 41.7297 41.7346C40.6865 42.7779 41.2445 43.3359 41.4278 43.5193L42.0464 44.1378C42.0567 44.1476 42.0667 44.1577 42.0767 44.1681L45.9326 48.024C46.2873 48.3787 46.2873 48.9538 45.9326 49.3084C45.5779 49.6631 45.0028 49.6631 44.6482 49.3084L41.2643 45.9246C40.6756 46.2943 40.1262 46.7794 40.0383 47.3338C39.9336 47.9944 40.5067 48.7281 41.0059 49.2274L47.6657 55.8874C50.4168 58.6384 53.9 57.6611 54.1293 57.5919C54.3302 57.5114 54.5547 57.5049 54.7624 57.5764C55.0191 57.6648 55.2229 57.8634 55.3177 58.1178C55.3348 58.1631 57.1285 62.8183 61.6163 65.4828C61.7945 65.5886 61.9311 65.7522 62.0036 65.9464C62.0206 65.9917 63.8143 70.6469 68.3021 73.3113C68.7334 73.5673 68.8754 74.1246 68.6194 74.556C68.4491 74.8413 68.1471 75 67.8371 75ZM39.617 65.9038C39.6174 65.904 39.6179 65.9044 39.6184 65.9048C39.6179 65.9044 39.6174 65.904 39.617 65.9038ZM39.6153 65.9028C39.6158 65.9031 39.6161 65.9033 39.6166 65.9037C39.6161 65.9033 39.6156 65.9031 39.6153 65.9028ZM39.6136 65.9017C39.6139 65.9019 39.6143 65.9022 39.6147 65.9024C39.6144 65.9022 39.6139 65.902 39.6136 65.9017ZM39.6125 65.901C39.6125 65.901 39.6126 65.9011 39.6127 65.9011C39.6126 65.9011 39.6125 65.9011 39.6125 65.901ZM53.9923 57.6599C53.9919 57.6601 53.9915 57.6605 53.991 57.6607C53.9914 57.6605 53.9919 57.6601 53.9923 57.6599ZM53.9939 57.6589C53.9937 57.659 53.9934 57.6591 53.9933 57.6592C53.9934 57.6591 53.9937 57.659 53.9939 57.6589ZM59.6226 35.1445C60.8422 36.1345 62.0817 37.4968 63.0815 38.8258L71.9558 29.9515C74.0665 27.8409 74.6593 25.9135 73.5415 24.7957C72.4238 23.6779 70.4965 24.2708 68.3859 26.3813C68.3838 26.3834 68.3819 26.3853 68.3798 26.3873L59.6226 35.1445ZM56.8295 35.5398H56.8297C56.8296 35.5398 56.8296 35.5398 56.8295 35.5398ZM19.1162 62.3853C18.8838 62.3853 18.6513 62.2966 18.474 62.1192C18.1193 61.7645 18.1193 61.1894 18.474 60.8349L25.5199 53.7889C23.687 46.4143 25.0092 39.2532 27.2386 36.1743L28.4403 34.5147C28.7345 34.1086 29.3023 34.0176 29.7086 34.3118C30.1148 34.6059 30.2057 35.1737 29.9115 35.5801L28.7098 37.2397C26.9668 39.6468 25.41 46.385 27.406 53.8291C27.4901 54.1425 27.4005 54.4771 27.171 54.7066L19.7584 62.1192C19.5811 62.2966 19.3486 62.3853 19.1162 62.3853Z" fill="url(#paint0_linear)"/>
</g>
<defs>
<linearGradient id="paint0_linear" x1="49.0074" y1="13.0005" x2="49.2925" y2="75.1278" gradientUnits="userSpaceOnUse">
<stop stop-color="#014982"/>
<stop offset="1" stop-color="#00A9CB"/>
</linearGradient>
<clipPath id="clip0">
<rect width="62" height="62" fill="white" transform="translate(18 13)"/>
</clipPath>
</defs>
</svg>
