<svg width="75" height="88" viewBox="0 0 75 88" fill="none" xmlns="http://www.w3.org/2000/svg">
<path d="M31.9334 3.53381C39.9333 -2.86628 48.9334 0.867144 52.4334 3.53381C57.4338 7.34368 57.0337 12.1337 63.4337 16.5337C69.8337 20.9337 69.9338 26.5339 67.9337 35.0337C65.4338 44.0339 59.8337 52.4337 65.4337 58.0337C71.0337 63.6337 71.4338 68.5339 67.9337 76.0339C60.4338 88.5339 48.6334 90.7337 33.4337 83.5337C18.234 76.3337 10.2435 70.7483 5.43337 63.5337C-1.56711 53.0339 -0.473024 41.3871 1.43337 35.0337C2.93359 30.0339 5.43382 25.5339 13.9337 23.5339C22.2574 21.5754 25.4338 8.03394 31.9334 3.53381Z" fill="#E9F1FB"/>
<path d="M74.7102 36.2907C74.5991 35.9834 74.4491 35.6815 74.2522 35.3686C74.2478 35.3617 74.2435 35.3549 74.2389 35.348L74.0932 35.1288C74.0895 35.1232 74.0855 35.1174 74.0816 35.1118C74.032 35.0405 73.981 34.9714 73.9281 34.9038C73.818 34.7633 73.7013 34.6316 73.5813 34.5124L73.2642 34.1976L73.5553 33.8584C73.7504 33.6309 73.9133 33.3589 74.0828 32.9761C74.0856 32.9698 74.0883 32.9636 74.0911 32.9572C74.1648 32.781 74.2344 32.609 74.2746 32.4462C74.3231 32.2555 74.3613 32.0617 74.3904 31.86C74.5094 31.0753 74.4058 30.2128 74.0876 29.3569C74.0093 29.1526 73.9082 28.9561 73.8113 28.7722C73.8079 28.7658 73.8046 28.7595 73.801 28.7532L73.7725 28.7018C73.6769 28.5294 73.5866 28.3667 73.4881 28.2392L73.4785 28.2265C73.3518 28.0568 73.2157 27.8914 73.0774 27.7386C72.9252 27.5687 72.7965 27.4452 72.6663 27.3431C72.2828 27.0375 72.0091 26.8605 71.7301 26.7363C71.4 26.5854 71.0662 26.4763 70.7382 26.4119L70.3047 26.3266L70.3535 25.8874C70.3904 25.5545 70.3867 25.2006 70.3433 24.8438C70.309 24.5394 70.2272 24.227 70.0695 23.7993C70.067 23.7925 70.0646 23.7859 70.0619 23.7792C69.7822 23.0685 69.312 22.4034 68.71 21.8629C68.3861 21.5658 68.0191 21.3401 67.7354 21.1767C67.7287 21.1729 67.7219 21.1689 67.7151 21.1653C67.4212 21.0049 67.0903 20.874 66.6746 20.7531C66.3837 20.6683 66.053 20.6202 65.6338 20.6016C65.6283 20.6013 65.6228 20.6012 65.6173 20.6011C65.5641 20.5996 65.5115 20.5988 65.459 20.5988C65.3751 20.5988 65.251 20.601 65.1249 20.6126C64.9543 20.6304 64.785 20.6573 64.6218 20.6926L64.157 20.7934L64.0516 20.3296C63.7464 18.9868 62.7031 17.7644 61.3295 17.1395C60.6566 16.8331 59.951 16.6777 59.2324 16.6777C58.4987 16.6777 57.7849 16.8451 57.1679 17.1619L56.7422 17.3804L56.522 16.9555C55.8758 15.7095 54.6299 14.792 53.1921 14.5014C52.8442 14.4299 52.4904 14.3937 52.1404 14.3937C51.0312 14.3937 49.9763 14.7545 49.1699 15.4094L48.7912 15.717L48.4895 15.3336C48.2863 15.0755 48.0472 14.8385 47.7835 14.6329C47.5215 14.426 47.2322 14.2414 46.9237 14.0846C46.9126 14.079 46.9015 14.0734 46.89 14.0682C46.1946 13.7474 45.4879 13.5828 44.7896 13.579C44.7616 13.5785 44.6692 13.5768 44.6362 13.5768C43.9804 13.5768 43.3112 13.7189 42.6471 13.999C42.6356 14.0038 42.6242 14.0089 42.6129 14.0141C42.3 14.1605 42.003 14.3368 41.7342 14.5349C41.463 14.7327 41.2185 14.9598 41.0075 15.2103L40.6931 15.5833L40.3247 15.2632C39.4932 14.54 38.387 14.1418 37.21 14.1418C36.9212 14.1418 36.6285 14.1664 36.3404 14.2149C34.8949 14.4574 33.6193 15.3273 32.9282 16.5418L32.6921 16.9564L32.2759 16.7233C31.6086 16.3495 30.8292 16.1519 30.0219 16.1519C29.3803 16.1519 28.7471 16.2755 28.14 16.519C28.1341 16.5213 28.1281 16.5239 28.1222 16.5263C27.7505 16.684 27.4151 16.8638 27.1254 17.061C27.1182 17.066 27.111 17.071 27.1039 17.0762C26.8083 17.2892 26.5358 17.5268 26.2943 17.7823C26.2865 17.7904 26.2791 17.7985 26.2718 17.8069C25.7818 18.3617 25.4456 18.9572 25.2729 19.5769L25.1458 20.0332L24.6879 19.9126C24.3361 19.8199 24.002 19.7692 23.6946 19.7623C23.69 19.7622 23.6857 19.7622 23.6812 19.7622L23.6084 19.7616C23.2902 19.7616 22.9627 19.7929 22.6352 19.8548C22.6275 19.8562 22.6202 19.8577 22.6126 19.8594C22.2827 19.9297 21.9407 20.0443 21.5593 20.2131C21.2562 20.3503 20.9276 20.5522 20.5544 20.8302C20.5478 20.8352 20.5411 20.8403 20.5346 20.8455C20.26 21.0612 19.9883 21.3301 19.7036 21.6678C19.6965 21.6763 19.6895 21.685 19.6824 21.6937C19.4687 21.9655 19.271 22.2815 19.0945 22.6334C19.0892 22.6439 19.0841 22.6547 19.0791 22.6654C18.7707 23.3401 18.6261 24.0434 18.6609 24.6994L18.6855 25.1607L18.2256 25.2031C18.0651 25.2179 17.9004 25.2424 17.7361 25.2761C17.7246 25.2785 17.7131 25.2811 17.7017 25.2839C17.5581 25.3187 17.401 25.3675 17.2287 25.431C16.836 25.5788 16.5192 25.7427 16.266 25.928L16.2528 25.9382C15.8792 26.2008 15.5998 26.4503 15.3806 26.7145L15.3667 26.731C15.2364 26.8812 15.1101 27.0408 14.9911 27.2049C14.9804 27.2199 14.9698 27.2352 14.9598 27.2508C14.8571 27.4111 14.7544 27.5906 14.6482 27.7956C14.2682 28.5215 14.0682 29.3818 14.085 30.2233C14.0936 30.563 14.1532 30.9387 14.262 31.3404C14.2643 31.349 14.2669 31.3576 14.2693 31.3661C14.3613 31.6721 14.5079 31.989 14.7052 32.3082L14.9331 32.6768L14.5897 32.9412C13.6844 33.6384 12.742 35.1895 13.0648 37.2662C13.0676 37.2833 13.0705 37.3004 13.0742 37.3174C13.1229 37.5486 13.1825 37.7805 13.2543 38.0166L13.2763 38.0864C13.3144 38.2081 13.332 38.2631 13.3611 38.3317C13.4112 38.4471 13.4637 38.5604 13.5153 38.665C13.6146 38.8627 13.7218 39.0715 13.8448 39.257C13.852 39.268 13.8595 39.2788 13.8672 39.2895C13.9981 39.471 14.1396 39.6486 14.2829 39.8105L14.3206 39.8523C14.3834 39.9222 14.4316 39.975 14.48 40.0213C14.4893 40.0302 14.4987 40.0388 14.5083 40.0473C14.5875 40.1174 14.6676 40.1843 14.7475 40.2478C14.9014 40.3701 15.0597 40.4823 15.218 40.5815C15.2367 40.5933 15.256 40.6045 15.2754 40.6149C15.6025 40.7905 15.9409 40.9172 16.2807 40.9919L16.6616 41.0757L16.6579 41.4659C16.6544 41.8301 16.7015 42.2019 16.7941 42.5409C16.7975 42.5537 16.8012 42.5661 16.8052 42.5787C16.8622 42.7581 16.9319 42.9409 17.0121 43.1211C17.0501 43.2066 17.0905 43.2923 17.1339 43.3779C17.1422 43.3944 17.151 43.4106 17.1603 43.4265C17.2057 43.5051 17.254 43.5817 17.3045 43.6597C17.4182 43.834 17.5442 44.0079 17.6792 44.1765C17.6875 44.1871 17.6963 44.1974 17.705 44.2074C17.8206 44.3403 17.9565 44.4782 18.1501 44.6581C18.2346 44.7358 18.3216 44.8124 18.4072 44.8841C18.4789 44.9427 18.5434 44.987 18.5954 45.0226L18.6669 45.0722C18.8472 45.1951 19.0369 45.3125 19.2306 45.4211C19.245 45.4293 19.2596 45.4369 19.2743 45.4443C20.0124 45.8103 20.7786 46.004 21.4897 46.004C21.531 46.004 21.5718 46.0035 21.6233 46.0017C21.8086 45.9973 21.9926 45.9842 22.1707 45.9621C22.1777 45.9613 22.1847 45.9603 22.1918 45.9593C22.3752 45.9325 22.5596 45.8854 22.692 45.8496C23.0613 45.7458 23.3669 45.6211 23.626 45.4679L24.0388 45.2241L24.2834 45.6365C24.9816 46.814 26.3259 47.6712 27.7896 47.8735C28.0275 47.907 28.2683 47.9238 28.5052 47.9238C29.6943 47.9238 30.8267 47.5023 31.6939 46.7368L32.0621 46.4121L32.3788 46.787C33.2609 47.8305 34.5801 48.456 35.9987 48.5032C36.0654 48.5053 36.1316 48.5037 36.1981 48.5033C35.8339 49.2048 35.6344 49.9927 35.6344 50.8128C35.6344 53.2466 37.3794 55.2797 39.6839 55.7289C39.9205 60.1895 42.5939 64.2646 46.6328 66.2337L50.2125 67.9793L50.2409 67.993C51.4715 68.5861 52.2362 69.778 52.2362 71.1036C52.2362 72.9338 53.7253 74.4229 55.5555 74.4229H56.7487C58.5789 74.4229 60.068 72.9338 60.068 71.1036C60.068 68.4633 59.113 65.9389 57.4707 63.9478C57.7691 63.9687 58.0686 63.9804 58.3684 63.9804C58.545 63.9804 58.7219 63.9768 58.8986 63.9694C65.7359 63.6858 71.0884 58.0971 71.0841 51.2461C71.0838 50.7055 70.6455 50.2678 70.1052 50.2678C70.105 50.2678 70.1048 50.2678 70.1045 50.2678C69.5639 50.268 69.1259 50.7068 69.1262 51.2474C69.1299 57.0443 64.6017 61.7734 58.8174 62.0133C57.0273 62.0876 55.238 61.7165 53.6452 60.9398L50.0654 59.1942C48.826 58.5898 47.9372 57.4471 47.6229 56.133C47.6313 56.1324 47.6396 56.1326 47.6479 56.1319C48.4157 56.0705 49.1029 55.8765 49.6871 55.5572C50.3037 55.2235 50.8203 54.7927 51.223 54.2766L51.5215 53.8938L51.9012 54.1964C52.4084 54.6009 53.0221 54.91 53.676 55.0907C53.6873 55.0939 53.6986 55.0968 53.7099 55.0994C54.1195 55.1969 54.5351 55.2463 54.9452 55.2463C55.2431 55.2463 55.5479 55.2197 55.8268 55.1693C55.8311 55.1686 55.8354 55.1677 55.8397 55.1668C56.6176 55.0154 57.299 54.7317 57.8562 54.3295C58.1455 54.1253 58.4055 53.9008 58.6285 53.6623C58.6341 53.6562 58.6397 53.6503 58.645 53.6441C58.8707 53.3906 59.0674 53.1179 59.2296 52.8335L59.465 52.4207L59.8803 52.6518C60.2038 52.8318 60.5129 52.9638 60.8032 53.0453C61.136 53.1371 61.4875 53.195 61.8409 53.2175L61.8574 53.2187C62.1717 53.2445 62.526 53.2216 62.9508 53.1468C63.3805 53.0717 63.7344 52.9668 64.064 52.8164L64.09 52.8051C65.5393 52.1865 66.6474 50.9064 66.9137 49.5421L67.001 49.0945L67.4526 49.1585C67.6086 49.1805 67.7748 49.202 67.9547 49.202C67.9548 49.202 67.955 49.202 67.9553 49.202C68.129 49.2002 68.3084 49.1879 68.4887 49.1648C68.6702 49.1416 68.8557 49.1076 69.0418 49.063C69.2138 49.0216 69.397 48.9479 69.5585 48.883C69.562 48.8815 69.5674 48.8793 69.5709 48.8779C69.7525 48.8023 69.9359 48.7153 70.1158 48.6191C70.1225 48.6156 70.1291 48.612 70.1357 48.6083C70.2955 48.518 70.4529 48.4037 70.6275 48.2744C70.6332 48.27 70.6389 48.2659 70.6445 48.2614C70.7976 48.1427 70.9711 48.0082 71.1193 47.8615C71.1246 47.8562 71.13 47.8509 71.1353 47.8454C71.292 47.6832 71.443 47.5122 71.5844 47.3364C71.6476 47.2577 71.7095 47.1787 71.7685 47.0984C71.7816 47.0805 71.794 47.0622 71.8059 47.0436C71.8599 46.9585 71.912 46.8729 71.9627 46.786C72.0699 46.6019 72.1693 46.4125 72.2586 46.2231C72.2666 46.2062 72.2739 46.1891 72.281 46.1717C72.4402 45.7758 72.5506 45.3928 72.6091 45.0336C72.6117 45.0183 72.6138 45.0029 72.6155 44.9873C72.6517 44.6693 72.6864 44.2557 72.6325 43.8742C72.575 43.4708 72.4884 43.1382 72.368 42.8572L72.1939 42.4505L72.5849 42.2434C72.8835 42.0854 73.1677 41.888 73.4297 41.6568C73.4396 41.6481 73.4494 41.639 73.4588 41.6299C73.7347 41.3658 73.9698 41.0883 74.1632 40.7961C74.5991 40.1231 74.8828 39.3297 74.9618 38.5688L74.9635 38.5538C75.0559 37.787 74.9714 37.0272 74.7102 36.2907ZM49.2067 60.9548L52.7866 62.7003C52.7879 62.7009 52.7894 62.7017 52.7907 62.7023C56.0217 64.2594 58.1096 67.5573 58.1096 71.1041C58.1096 71.8548 57.499 72.4654 56.7483 72.4654H55.5552C54.8045 72.4654 54.1938 71.8548 54.1938 71.1041C54.1938 69.0197 53.0047 67.1521 51.0865 66.2277L47.4906 64.4745C44.1173 62.8299 41.8749 59.4409 41.6437 55.7209C41.7206 55.7054 41.7975 55.6895 41.8735 55.6705C42.3977 55.5381 42.7153 55.0058 42.583 54.4817C42.4505 53.9575 41.9183 53.6401 41.3942 53.7722C41.1507 53.8339 40.8981 53.8649 40.6437 53.8649C38.9611 53.8649 37.5923 52.496 37.5923 50.8134C37.5923 50.2372 37.7531 49.6867 38.0446 49.2134C38.7951 50.9295 40.4004 52.1737 42.2712 52.4395L42.5748 52.4827L42.6635 52.7761C42.9063 53.5792 43.366 54.3055 43.9929 54.8762C44.4632 55.3047 45.0124 55.6356 45.5836 55.838C45.8415 58.022 47.206 59.9793 49.2067 60.9548ZM73.0185 38.3295L73.0151 38.3608C72.9667 38.8271 72.7909 39.3145 72.5256 39.7243C72.4223 39.8801 72.2822 40.0453 72.1195 40.2029C71.9774 40.3264 71.8259 40.4311 71.669 40.5142L70.6859 41.0347C70.6578 41.0321 70.6295 41.0303 70.6008 41.0303H68.9015C67.7674 41.0303 66.8451 40.1079 66.8451 38.9739C66.8451 36.7604 65.0442 34.9595 62.8307 34.9595H62.6881C60.4746 34.9595 58.6737 36.7603 58.6737 38.9739C58.6737 39.9791 57.8559 40.7968 56.8507 40.7968C55.7167 40.7968 54.7943 39.8745 54.7943 38.7404V37.8842C54.7943 37.3435 54.356 36.9052 53.8154 36.9052C53.2747 36.9052 52.8365 37.3436 52.8365 37.8842V38.7404C52.8365 40.9539 54.6373 42.7548 56.8509 42.7548C58.9356 42.7548 60.6316 41.0588 60.6316 38.974C60.6316 37.84 61.554 36.9176 62.6881 36.9176H62.8307C63.9647 36.9176 64.8871 37.84 64.8871 38.974C64.8871 41.1875 66.6879 42.9884 68.9015 42.9884H70.2937L70.5682 43.6294C70.6192 43.7487 70.6617 43.9245 70.6939 44.1506C70.7104 44.2677 70.7034 44.4667 70.6727 44.7423C70.6376 44.9463 70.571 45.1728 70.4747 45.4162C70.4128 45.5458 70.3442 45.6754 70.2708 45.8016C70.2387 45.8566 70.2057 45.9112 70.1716 45.9656C70.1348 46.0146 70.0967 46.0629 70.0583 46.1107C69.9571 46.2366 69.8486 46.3597 69.7361 46.4767C69.6714 46.5388 69.5522 46.6316 69.4532 46.7082C69.3727 46.7681 69.2472 46.8606 69.1796 46.9003C69.0595 46.9641 68.9385 47.0214 68.8275 47.0677C68.7567 47.0961 68.6247 47.1493 68.5846 47.1603C68.4685 47.188 68.3524 47.2093 68.2406 47.2236C68.1354 47.2371 68.0325 47.2442 67.943 47.2453C67.898 47.2453 67.769 47.2269 67.7268 47.2208L66.355 47.0264C65.8389 46.953 65.3566 47.2969 65.2568 47.8081L64.9915 49.1678C64.8479 49.9031 64.175 50.6421 63.3165 51.0067C63.3124 51.0085 63.3081 51.0103 63.3039 51.0122L63.2668 51.0286C63.2628 51.0304 63.2585 51.0323 63.2547 51.0341C63.0799 51.1142 62.8761 51.1728 62.6119 51.219C62.4106 51.2543 62.2478 51.2717 62.1142 51.2717C62.082 51.2717 62.0499 51.2707 62.0068 51.2672L61.9717 51.2646C61.7446 51.2502 61.5263 51.2144 61.3271 51.1595C61.2318 51.1328 61.0684 51.0732 60.8317 50.9416L59.5699 50.2395C59.1008 49.9784 58.5094 50.1438 58.2434 50.6099L57.5281 51.8638C57.4354 52.0264 57.3216 52.1846 57.1896 52.334C57.0589 52.4724 56.9028 52.6059 56.7178 52.7364C56.3854 52.9762 55.9659 53.147 55.4712 53.2441C55.0777 53.3143 54.618 53.3013 54.1791 53.1992C53.7843 53.0879 53.4186 52.9039 53.1205 52.6662L52.4635 52.1423C52.4668 52.11 52.4685 52.0772 52.4685 52.044V51.9013C52.4685 49.6879 50.6676 47.887 48.4541 47.887C47.4489 47.887 46.6312 47.0692 46.6312 46.064C46.6312 44.93 47.5536 44.0076 48.6876 44.0076H49.5437C50.0844 44.0076 50.5226 43.5693 50.5226 43.0287C50.5226 42.4881 50.0843 42.0498 49.5437 42.0498H48.6876C46.4741 42.0498 44.6732 43.8506 44.6732 46.0642C44.6732 48.1489 46.3693 49.8449 48.454 49.8449C49.588 49.8449 50.5104 50.7673 50.5104 51.9013V52.0055L49.6778 53.0729C49.4422 53.3748 49.1314 53.6314 48.7502 53.8377C48.4059 54.0259 47.9821 54.1413 47.4919 54.1806C47.2472 54.1997 46.9895 54.1817 46.7215 54.1274C46.7175 54.1264 46.7134 54.1256 46.7093 54.1246C46.564 54.0946 46.4159 54.0546 46.2649 54.003C45.9275 53.8885 45.5974 53.6897 45.3103 53.4282C44.9447 53.0952 44.6771 52.6737 44.5366 52.2089L44.2671 51.3174C44.1568 50.9527 43.8449 50.6852 43.4677 50.6316L42.5457 50.5005C41.2313 50.3136 40.1188 49.3733 39.7115 48.1048L39.3028 46.8318C39.1705 46.4194 38.7882 46.1519 38.3713 46.1519C38.2995 46.1519 38.2267 46.1599 38.1539 46.1764L36.8496 46.4726C36.5942 46.5307 36.3252 46.5551 36.062 46.5465C35.1962 46.5176 34.3983 46.1446 33.873 45.523L32.9108 44.3842C32.7409 44.1831 32.4971 44.059 32.2345 44.0397C31.9717 44.0209 31.7127 44.1079 31.5153 44.282L30.3974 45.2687C29.7834 45.8106 28.9381 46.0575 28.0585 45.9342C27.1827 45.8132 26.3615 45.3043 25.9661 44.6377L25.2232 43.3847C24.9478 42.9202 24.3483 42.7667 23.8833 43.0412L22.6291 43.7819C22.5196 43.8466 22.3622 43.908 22.1705 43.9618C22.0613 43.9914 21.9762 44.0109 21.9174 44.0202C21.8077 44.0334 21.6929 44.0414 21.5681 44.0442C21.5343 44.0453 21.5115 44.0458 21.4887 44.0458C21.0841 44.0458 20.627 43.9265 20.1651 43.7008C20.0288 43.6235 19.8959 43.541 19.7765 43.4596L19.7006 43.4071C19.6822 43.3944 19.6634 43.3825 19.6557 43.3768C19.6 43.33 19.5358 43.2736 19.4779 43.2204C19.3492 43.1008 19.2604 43.0122 19.1932 42.9366C19.1028 42.8225 19.0188 42.7062 18.9448 42.5926C18.9183 42.552 18.8922 42.5109 18.8671 42.4689C18.8436 42.4215 18.8213 42.3738 18.7998 42.3255C18.7516 42.2173 18.7102 42.11 18.6763 42.0059C18.6339 41.8436 18.6123 41.6639 18.614 41.4848L18.6255 40.2996C18.6301 39.8364 18.3092 39.4334 17.8568 39.334L16.699 39.0795C16.5449 39.0457 16.3865 38.987 16.2281 38.9049C16.1403 38.8483 16.0514 38.7844 15.9632 38.7143C15.9181 38.6785 15.8733 38.6412 15.8289 38.6026C15.8128 38.5854 15.7936 38.5637 15.7738 38.5417L15.7412 38.5057C15.6511 38.4039 15.5565 38.2853 15.4667 38.1621C15.4052 38.0662 15.333 37.9244 15.2669 37.7929C15.2345 37.7272 15.1997 37.652 15.1694 37.5834C15.1621 37.561 15.1529 37.5312 15.1432 37.4999L15.1233 37.4368C15.0736 37.2737 15.0305 37.1069 14.9945 36.9404C14.8013 35.6372 15.3978 34.7893 15.7832 34.4925L16.8266 33.6891C17.2241 33.3829 17.3259 32.8256 17.0621 32.3987L16.3698 31.2789C16.2669 31.1123 16.19 30.9517 16.147 30.8138C16.0823 30.5721 16.046 30.3512 16.0415 30.1789C16.0315 29.6739 16.1556 29.1361 16.3838 28.6999C16.4587 28.5557 16.5272 28.4344 16.5928 28.33C16.6736 28.2198 16.7589 28.1126 16.8519 28.0054L16.8792 27.973C16.9919 27.8373 17.1505 27.6995 17.3872 27.5328L17.4156 27.5124C17.5276 27.4304 17.6965 27.3466 17.9119 27.2656C18.0004 27.233 18.0789 27.2078 18.1455 27.1908C18.2338 27.1734 18.3209 27.1606 18.4046 27.1529L19.8024 27.0239C20.3262 26.9756 20.718 26.5222 20.69 25.9969L20.6153 24.5956C20.5974 24.2587 20.6791 23.8787 20.8518 23.4957C20.9643 23.2737 21.0851 23.0791 21.2109 22.9169C21.4004 22.6935 21.5716 22.5218 21.734 22.3928C21.9847 22.2067 22.1971 22.0737 22.3581 22.0007C22.599 21.8941 22.8178 21.8189 23.0089 21.7772C23.213 21.7393 23.414 21.7201 23.5985 21.72L23.6548 21.7205C23.7613 21.7234 23.9386 21.7408 24.188 21.8065L25.5521 22.1657C26.3417 22.9685 26.3385 24.2637 25.5407 25.0615C24.7825 25.8197 24.3649 26.8277 24.3649 27.9C24.3649 28.9723 24.7824 29.9804 25.5407 30.7386L25.6416 30.8394C26.3997 31.5976 27.4078 32.0152 28.4801 32.0152C29.5524 32.0152 30.5605 31.5977 31.3187 30.8394C32.0295 30.1287 33.1859 30.1287 33.8966 30.8394C34.6985 31.6412 34.6985 32.9459 33.8966 33.7477L33.2913 34.3531C32.909 34.7354 32.9091 35.3552 33.2913 35.7375C33.4825 35.9286 33.733 36.0242 33.9834 36.0242C34.2339 36.0242 34.4845 35.9286 34.6757 35.7374L35.281 35.1321C36.8461 33.5669 36.8461 31.0202 35.281 29.455C33.8068 27.9808 31.4083 27.9808 29.9341 29.455C29.5456 29.8434 29.0293 30.0573 28.4799 30.0573C27.9306 30.0573 27.4142 29.8433 27.0258 29.455L26.9249 29.3541C26.5364 28.9656 26.3226 28.4493 26.3226 27.8999C26.3226 27.3506 26.5366 26.8343 26.9249 26.4458C28.4776 24.893 28.4891 22.3752 26.9615 20.8071L27.1576 20.103C27.2491 19.7751 27.4405 19.4432 27.7269 19.1161C27.8783 18.9575 28.0496 18.8085 28.2363 18.673C28.4159 18.5521 28.6312 18.4378 28.8763 18.3331C29.2481 18.1853 29.633 18.1102 30.0207 18.1102C30.4935 18.1102 30.9422 18.2215 31.3178 18.4319L32.5823 19.1401C33.0516 19.4032 33.6452 19.2378 33.9114 18.7703L34.6285 17.5108C35.0318 16.8024 35.7925 16.2923 36.6635 16.1462C36.8448 16.1157 37.0282 16.1003 37.2087 16.1003C37.9135 16.1003 38.5634 16.3279 39.0387 16.7411L39.8113 17.4129C39.8112 17.4194 39.8103 17.4257 39.8103 17.432V20.4639C39.8103 22.6774 41.6111 24.4783 43.8247 24.4783C44.9588 24.4783 45.8811 25.4006 45.8811 26.5347V26.6773C45.8811 27.8114 44.9585 28.7337 43.8247 28.7337C41.74 28.7337 40.0439 30.4298 40.0439 32.5145C40.0439 34.728 41.8447 36.5289 44.0583 36.5289H44.9144C45.4551 36.5289 45.8934 36.0905 45.8934 35.55C45.8934 35.0093 45.455 34.571 44.9144 34.571H44.0583C42.9243 34.571 42.0019 33.6484 42.0019 32.5146C42.0019 31.5094 42.8196 30.6917 43.8248 30.6917C46.0383 30.6917 47.8392 28.8908 47.8392 26.6773V26.5347C47.8392 24.3212 46.0383 22.5203 43.8248 22.5203C42.6908 22.5203 41.7684 21.5979 41.7684 20.4639V17.4324C41.7684 17.4047 41.7666 17.3775 41.7643 17.3503L42.5035 16.4728C42.6132 16.3425 42.742 16.2231 42.8906 16.1147C43.0549 15.9935 43.2345 15.8864 43.4245 15.7963C43.8403 15.6233 44.2475 15.5354 44.6348 15.5354C44.6657 15.5354 44.756 15.5373 44.757 15.5373C44.7625 15.5374 44.7678 15.5374 44.7732 15.5374C45.1861 15.539 45.6159 15.6403 46.0514 15.8387C46.2387 15.9354 46.4131 16.0469 46.5738 16.1738C46.7197 16.2876 46.8427 16.4091 46.9499 16.5454L47.8666 17.7099C48.0288 17.916 48.2668 18.0483 48.5274 18.0773C48.7879 18.1062 49.0493 18.0294 49.253 17.8641L50.4032 16.9297C51.0129 16.4343 51.9064 16.237 52.8 16.4203C53.6656 16.5952 54.4067 17.1324 54.7825 17.857L55.4514 19.1474C55.6995 19.626 56.2877 19.814 56.7677 19.5677L58.0608 18.9038C58.4024 18.7284 58.8069 18.6357 59.231 18.6357C59.6679 18.6357 60.1005 18.7318 60.5172 18.9216C61.3337 19.2932 61.9713 20.0161 62.1412 20.7636L62.2588 21.2809C61.5729 21.5843 60.9825 22.0839 60.5498 22.7409C59.9568 23.6418 59.736 24.7177 59.9283 25.7705C60.0158 26.2495 59.9115 26.7339 59.6347 27.1345C59.3579 27.535 58.9415 27.8037 58.4625 27.8913C57.9222 27.99 57.3756 27.8723 56.9239 27.5599C56.472 27.2476 56.1687 26.778 56.0701 26.2376L55.9163 25.3953C55.8191 24.8633 55.3091 24.5116 54.7774 24.6081C54.2455 24.7052 53.893 25.215 53.9902 25.747L54.1439 26.5893C54.3365 27.644 54.9283 28.5608 55.8103 29.1704C56.4889 29.6395 57.2766 29.8836 58.0843 29.8836C58.3265 29.8836 58.5705 29.8617 58.8138 29.8172C59.8072 29.6358 60.6706 29.0784 61.2449 28.2475C61.8191 27.4167 62.0355 26.4121 61.8541 25.4187C61.7542 24.8721 61.8748 24.2883 62.1848 23.8173C62.4949 23.3463 62.9556 23.034 63.4818 22.9377C63.4951 22.9353 63.508 22.9314 63.5209 22.9284C63.5548 22.9246 63.589 22.9193 63.6231 22.9119L65.0351 22.6057C65.1285 22.5855 65.2261 22.5701 65.3142 22.5607C65.3193 22.5604 65.3662 22.5561 65.4576 22.5561C65.4896 22.5561 65.5215 22.5566 65.5537 22.5576C65.8049 22.5691 65.9921 22.5936 66.1259 22.6327C66.3978 22.7118 66.602 22.7902 66.7673 22.879C66.9481 22.9834 67.204 23.1391 67.3928 23.3124C67.7745 23.6551 68.0653 24.0609 68.2347 24.4865C68.3311 24.749 68.3809 24.9272 68.3972 25.0711C68.4238 25.2895 68.4267 25.4856 68.4061 25.6712L68.2581 27.0052C68.2019 27.5111 68.5428 27.9756 69.0422 28.0739L70.3596 28.3329C70.5373 28.3678 70.7241 28.4297 70.9231 28.5206C71.0453 28.5751 71.206 28.6841 71.4504 28.8787C71.4925 28.9119 71.5457 28.9645 71.6212 29.0489C71.7232 29.1616 71.8171 29.2755 71.9131 29.4042L71.9259 29.4208C71.9511 29.457 72.0159 29.5738 72.059 29.6516L72.0825 29.6939C72.1475 29.8174 72.2186 29.9554 72.2541 30.0478C72.4506 30.5767 72.5212 31.1158 72.4521 31.5729C72.4318 31.7125 72.4068 31.8405 72.3749 31.9664C72.3622 32.0119 72.3112 32.1346 72.2875 32.1916C72.2026 32.3819 72.1309 32.51 72.0681 32.5832L71.1841 33.6131C70.8499 34.0024 70.873 34.5838 71.2371 34.9453L72.2006 35.9021C72.2632 35.9642 72.3253 36.0345 72.3841 36.1097C72.4125 36.146 72.4404 36.1835 72.4676 36.2223L72.6 36.4215C72.7183 36.6106 72.8059 36.7856 72.8656 36.951C73.0242 37.3945 73.0756 37.8553 73.0185 38.3295Z" fill="url(#paint0_linear)"/>
<defs>
<linearGradient id="paint0_linear" x1="44.0072" y1="13.5768" x2="44.2799" y2="74.5484" gradientUnits="userSpaceOnUse">
<stop stop-color="#014982"/>
<stop offset="1" stop-color="#00A9CB"/>
</linearGradient>
</defs>
</svg>
