<svg width="76" height="88" viewBox="0 0 76 88" fill="none" xmlns="http://www.w3.org/2000/svg">
<path d="M31.9334 3.53381C39.9333 -2.86628 48.9334 0.867144 52.4334 3.53381C57.4338 7.34368 57.0337 12.1337 63.4337 16.5337C69.8337 20.9337 69.9338 26.5339 67.9337 35.0337C65.4338 44.0339 59.8337 52.4337 65.4337 58.0337C71.0337 63.6337 71.4338 68.5339 67.9337 76.0339C60.4338 88.5339 48.6334 90.7337 33.4337 83.5337C18.234 76.3337 10.2435 70.7483 5.43337 63.5337C-1.56711 53.0339 -0.473024 41.3871 1.43337 35.0337C2.93359 30.0339 5.43382 25.5339 13.9337 23.5339C22.2574 21.5754 25.4338 8.03394 31.9334 3.53381Z" fill="#E9F1FB"/>
<path d="M71.309 26.224L71.128 25.977C68.863 22.86 65.21 21 61.355 21C58.961 21 56.644 21.702 54.653 23.029L52.219 24.652C51.878 24.88 51.48 25 51.07 25C49.929 25 49 24.071 49 22.93V16C49 13.938 45.631 13 42.5 13C39.369 13 36 13.939 36 16V24.838C36 27.043 36.353 29.223 37.052 31.317C37.681 33.206 38 35.173 38 37.162V37.414C38 41.843 35.849 46.022 32.245 48.596C31.876 48.86 31.439 49 30.983 49H29.313C28.733 49 28.188 48.774 27.778 48.364C26.254 46.84 24.227 46 22.071 46C17.621 46 14 49.621 14 54.071V72C14 73.71 16.149 75 19 75C21.851 75 24 73.71 24 72V65.403C24 64.774 24.255 64.159 24.715 63.699C25.363 63.051 26.354 62.831 27.219 63.143L29.431 63.947C35 65.973 40.829 67 46.755 67C50.353 67 53.892 66.377 57.271 65.147L57.77 64.965C61.592 63.575 65.05 61.477 68.047 58.73C73.102 54.098 76 47.508 76 40.65C76 35.433 74.378 30.444 71.309 26.224ZM42.5 15C45.07 15 46.582 15.647 46.946 16C46.582 16.353 45.07 17 42.5 17C39.93 17 38.418 16.353 38.054 16C38.418 15.647 39.93 15 42.5 15ZM19 73C17.064 73 16 72.249 16 72C16 71.751 17.064 71 19 71C20.935 71 22 71.751 22 72C22 72.249 20.935 73 19 73ZM66.695 57.256C63.892 59.825 60.66 61.787 57.087 63.086L56.588 63.268C53.427 64.417 50.119 65 46.755 65C41.063 65 35.464 64.014 30.114 62.068L27.902 61.263C26.311 60.687 24.498 61.086 23.285 62.3C22.469 63.117 22 64.248 22 65.403V69.579C21.174 69.217 20.149 69 19 69C17.851 69 16.826 69.217 16 69.579V54.071C16 50.724 18.724 48 22.071 48C23.692 48 25.217 48.632 26.364 49.778C27.152 50.566 28.199 51 29.313 51H30.983C31.859 51 32.697 50.731 33.408 50.223C37.536 47.275 40 42.487 40 37.414V37.162C40 34.957 39.646 32.777 38.948 30.683C38.319 28.794 38 26.827 38 24.838V18.239C39.243 18.753 40.901 19 42.5 19C44.099 19 45.757 18.753 47 18.239V22.929C47 25.173 48.826 26.999 51.07 26.999C51.877 26.999 52.657 26.763 53.328 26.315L55.763 24.692C57.424 23.586 59.358 23 61.355 23C64.571 23 67.62 24.553 69.51 27.153L69.691 27.4C72.51 31.276 74 35.858 74 40.65C74 46.948 71.338 53.001 66.695 57.256Z" fill="url(#paint0_linear)"/>
<path d="M69.724 43.828C69.022 47.841 66.987 51.563 63.993 54.307C61.582 56.518 58.799 58.206 55.723 59.326L55.221 59.509C53.795 60.027 52.32 60.415 50.835 60.663L51.165 62.636C52.769 62.368 54.363 61.948 55.903 61.389L56.405 61.206C59.73 59.996 62.737 58.171 65.343 55.782C68.66 52.741 70.915 48.618 71.693 44.172L69.724 43.828Z" fill="url(#paint1_linear)"/>
<path d="M46.99 60.999L47.01 62.999C47.702 62.992 48.401 62.958 49.087 62.898L48.913 60.906C48.278 60.961 47.631 60.992 46.99 60.999Z" fill="url(#paint2_linear)"/>
<defs>
<linearGradient id="paint0_linear" x1="45.0074" y1="13" x2="45.2905" y2="75.1278" gradientUnits="userSpaceOnUse">
<stop stop-color="#014982"/>
<stop offset="1" stop-color="#00A9CB"/>
</linearGradient>
<linearGradient id="paint1_linear" x1="61.2664" y1="43.828" x2="61.3439" y2="62.6749" gradientUnits="userSpaceOnUse">
<stop stop-color="#014982"/>
<stop offset="1" stop-color="#00A9CB"/>
</linearGradient>
<linearGradient id="paint2_linear" x1="48.0387" y1="60.906" x2="48.0483" y2="63.0033" gradientUnits="userSpaceOnUse">
<stop stop-color="#014982"/>
<stop offset="1" stop-color="#00A9CB"/>
</linearGradient>
</defs>
</svg>
