<svg width="78" height="88" viewBox="0 0 78 88" fill="none" xmlns="http://www.w3.org/2000/svg">
<path d="M31.9334 3.53381C39.9333 -2.86628 48.9334 0.867144 52.4334 3.53381C57.4338 7.34368 57.0337 12.1337 63.4337 16.5337C69.8337 20.9337 69.9338 26.5339 67.9337 35.0337C65.4338 44.0339 59.8337 52.4337 65.4337 58.0337C71.0337 63.6337 71.4338 68.5339 67.9337 76.0339C60.4338 88.5339 48.6334 90.7337 33.4337 83.5337C18.234 76.3337 10.2435 70.7483 5.43337 63.5337C-1.56711 53.0339 -0.473024 41.3871 1.43337 35.0337C2.93359 30.0339 5.43382 25.5339 13.9337 23.5339C22.2574 21.5754 25.4338 8.03394 31.9334 3.53381Z" fill="#E9F1FB"/>
<path d="M44.1953 34.8053C44.1953 33.1147 42.8201 31.7401 41.1301 31.7401C39.44 31.7401 38.0649 33.1147 38.0649 34.8053C38.0649 36.495 39.44 37.8705 41.1301 37.8705C42.8201 37.8705 44.1953 36.495 44.1953 34.8053ZM39.7678 34.8053C39.7678 34.054 40.3788 33.443 41.1301 33.443C41.8817 33.443 42.4924 34.054 42.4924 34.8053C42.4924 35.5559 41.8817 36.1676 41.1301 36.1676C40.3788 36.1676 39.7678 35.5559 39.7678 34.8053Z" fill="url(#paint0_linear)"/>
<path d="M52.4182 42.1229C52.4182 43.8133 53.7932 45.1881 55.4834 45.1881C57.1729 45.1881 58.5486 43.8133 58.5486 42.1229C58.5486 40.4328 57.1729 39.0577 55.4834 39.0577C53.7932 39.0577 52.4182 40.4328 52.4182 42.1229ZM55.4834 40.7606C56.2343 40.7606 56.8457 41.3714 56.8457 42.1229C56.8457 42.8738 56.2343 43.4852 55.4834 43.4852C54.7319 43.4852 54.1211 42.8738 54.1211 42.1229C54.1211 41.3714 54.7319 40.7606 55.4834 40.7606Z" fill="url(#paint1_linear)"/>
<path d="M36.7871 50.5367C36.7871 52.9318 38.7354 54.8801 41.1301 54.8801C43.5248 54.8801 45.4732 52.9318 45.4732 50.5367C45.4732 48.142 43.5248 46.1941 41.1301 46.1941C38.7354 46.1941 36.7871 48.142 36.7871 50.5367ZM41.1301 47.897C42.586 47.897 43.7703 49.0813 43.7703 50.5367C43.7703 51.9927 42.586 53.1773 41.1301 53.1773C39.6741 53.1773 38.49 51.9927 38.49 50.5367C38.49 49.081 39.6741 47.897 41.1301 47.897Z" fill="url(#paint2_linear)"/>
<path d="M72.8606 40.7981C71.4722 40.7981 70.3433 41.7433 69.968 43.0118H66.2375C65.7564 41.422 64.8246 40.6632 64.6302 39.8077C64.3746 38.6836 65.231 36.8599 64.5092 35.3643C63.7838 33.8597 61.8025 33.3719 61.1089 32.5033C60.8859 32.224 60.7293 31.8035 60.5771 31.3535L67.1382 24.7926C67.6877 25.123 68.2871 25.3566 68.9447 25.3566C69.8999 25.3566 70.7972 24.9847 71.4726 24.3092C72.8663 22.9158 72.8663 20.6476 71.4726 19.2537C70.0758 17.8571 67.8144 17.8569 66.4174 19.2537C65.2367 20.4341 65.1182 22.2133 65.9369 23.5856L59.8983 29.6242C59.374 28.6157 58.7103 28.0601 57.2025 27.8421C56.7368 27.7749 56.3054 28.0976 56.2378 28.5628C56.1705 29.0282 56.4932 29.4599 56.9593 29.5275C58.1677 29.7024 58.3477 30.0366 58.8425 31.5521C59.4648 33.4582 59.8188 33.896 61.5274 34.9168C63.1748 35.9017 63.2473 36.0882 62.9998 37.9466C62.7307 39.9664 62.8733 40.5109 63.9454 42.135C65.0069 43.7454 65.0069 43.9818 63.9454 45.5914C62.8697 47.2225 62.7321 47.7679 62.9998 49.7805C63.2477 51.642 63.1714 51.8271 61.5264 52.8102C59.819 53.8304 59.4648 54.2681 58.8425 56.1751C58.251 57.9865 58.0909 58.1064 56.2091 58.281C54.2063 58.4663 53.7014 58.7165 52.3366 60.1435C51.007 61.5335 50.8065 61.563 49.0623 60.9118C48.3611 60.6505 47.6368 60.3805 46.8635 60.3805C45.3434 60.3805 43.8065 61.5074 42.8835 61.2978C42.387 61.1852 41.9034 60.6791 41.3909 60.1435C40.0297 58.7203 39.528 58.4672 37.5181 58.2806C35.6356 58.1064 35.4755 57.9858 34.8845 56.1744C34.2615 54.2679 33.908 53.8304 32.1999 52.8098C30.5526 51.825 30.4798 51.6393 30.727 49.7802C30.9949 47.7699 30.8578 47.223 29.7816 45.5914C28.7201 43.9818 28.7201 43.7448 29.7816 42.1347C30.8576 40.5041 30.9952 39.958 30.727 37.9459C30.4798 36.087 30.5526 35.9008 32.2003 34.9163C32.83 34.5401 33.4811 34.1512 33.9491 33.5649C34.4193 32.9757 34.6559 32.2519 34.8845 31.5515C35.1127 30.8533 35.328 30.1937 35.7162 29.8838C36.0999 29.5768 36.7886 29.5132 37.5181 29.4456C39.5232 29.2596 40.027 29.0092 41.3909 27.5831C42.7178 26.1956 42.9165 26.1619 44.665 26.8145C46.5688 27.5249 47.1578 27.5249 49.0623 26.8145C51.2086 26.0137 51.0594 26.3679 52.834 28.0896C53.171 28.4166 53.7102 28.4091 54.0374 28.0712C54.3653 27.7338 54.3573 27.1946 54.0192 26.8669C53.8705 26.7232 53.7238 26.5688 53.567 26.4056C51.7201 24.4756 50.8153 24.3433 48.4667 25.2195C48.207 25.316 47.9572 25.4052 47.7149 25.4801V20.7588C48.983 20.3831 49.9285 19.2546 49.9285 17.866C49.9285 16.1758 48.5532 14.8008 46.8633 14.8008C45.1731 14.8008 43.7981 16.1758 43.7981 17.866C43.7981 19.2546 44.7433 20.3831 46.0118 20.7588V25.4801C45.77 25.4052 45.5203 25.316 45.2598 25.2195C42.9119 24.3433 42.0067 24.4754 40.1598 26.4058C39.7423 26.8424 39.3479 27.2547 38.9562 27.4441C38.5503 27.6398 37.9724 27.6932 37.3605 27.7499C35.6477 27.9089 34.6041 28.1312 33.8285 29.6242L29.0661 24.8619C29.9589 23.4087 29.8431 21.5074 28.5857 20.2495C27.1149 18.7783 24.7208 18.7783 23.2495 20.2495C20.203 23.2966 23.9191 28.4879 27.8619 26.0661L33.1494 31.3535C32.7471 32.543 32.5954 32.6965 31.3262 33.4546C29.0695 34.8033 28.7015 35.6368 29.0391 38.1711C29.1206 38.7832 29.1976 39.362 29.0961 39.8077C28.9017 40.6632 27.9699 41.4218 27.489 43.0118H23.7588C23.3831 41.7433 22.2546 40.7981 20.866 40.7981C19.1758 40.7981 17.8008 42.1731 17.8008 43.8633C17.8008 45.5532 19.1758 46.9285 20.866 46.9285C22.2546 46.9285 23.3831 45.983 23.7588 44.7147H27.489C27.9699 46.3048 28.9017 47.0629 29.0966 47.9186C29.352 49.0425 28.4956 50.8671 29.2171 52.362C29.943 53.8671 31.924 54.3544 32.6181 55.2231C32.8409 55.5026 32.9973 55.9233 33.1494 56.3731L29.9237 59.5986C28.7617 58.9674 27.2945 59.0968 26.3131 60.0788C24.3809 62.0115 25.7682 65.3096 28.4806 65.3096C30.7552 65.3096 32.2753 62.9156 31.128 60.8029L33.8288 58.1021C35.0923 60.534 37.6273 59.6415 38.9562 60.2827C39.9609 60.7674 40.8589 62.5843 42.5064 62.9585C43.7341 63.2378 44.9143 62.5872 46.0118 62.2467V66.968C44.7433 67.3433 43.7981 68.4722 43.7981 69.8606C43.7981 71.5505 45.1731 72.9258 46.8633 72.9258C48.5532 72.9258 49.9285 71.5505 49.9285 69.8606C49.9285 68.4722 48.983 67.3433 47.7147 66.968V62.2467C48.8284 62.5916 49.9945 63.2375 51.2206 62.9585C52.8638 62.585 53.7736 60.7638 54.7703 60.2827C56.1156 59.6333 58.6272 60.5474 59.8983 58.1021L60.7922 58.9969C61.125 59.3291 61.664 59.3291 61.9969 58.9969C62.3293 58.664 62.3293 58.1248 61.9969 57.7922L60.5771 56.3726C60.9797 55.182 61.1323 55.0296 62.4004 54.2717C64.6566 52.9233 65.0253 52.0896 64.6875 49.5554C64.4756 47.9645 64.5192 47.8135 65.3663 46.5291C65.7221 45.9901 66.0377 45.3745 66.2371 44.7147H69.9673C70.3433 45.983 71.4722 46.9285 72.8606 46.9285C74.5505 46.9285 75.9258 45.5532 75.9258 43.8633C75.9258 42.1731 74.5505 40.7981 72.8606 40.7981ZM68.9447 19.9097C70.6085 19.9097 71.4397 21.9343 70.2688 23.1054C69.5368 23.8367 68.353 23.8369 67.6209 23.1054C66.4494 21.9338 67.2815 19.9097 68.9447 19.9097ZM45.501 17.866C45.501 17.1147 46.112 16.5037 46.8633 16.5037C47.6148 16.5037 48.2256 17.1147 48.2256 17.866C48.2256 18.6175 47.6148 19.2283 46.8633 19.2283C46.112 19.2283 45.501 18.6175 45.501 17.866ZM24.4541 24.3816C23.6467 23.5745 23.6467 22.261 24.4541 21.4534C25.261 20.6467 26.5745 20.6467 27.3816 21.4534C28.189 22.261 28.189 23.5745 27.3816 24.3816C26.5745 25.189 25.261 25.1886 24.4541 24.3816ZM20.866 45.2256C20.1147 45.2256 19.5037 44.6148 19.5037 43.8633C19.5037 43.112 20.1147 42.501 20.866 42.501C21.6175 42.501 22.2283 43.112 22.2283 43.8633C22.2283 44.6148 21.6175 45.2256 20.866 45.2256ZM29.4439 63.2094C28.9122 63.7409 28.048 63.7409 27.517 63.2094C26.658 62.3504 27.2747 60.8846 28.4801 60.8846C29.6851 60.8846 30.3036 62.3498 29.4439 63.2094ZM48.2256 69.8606C48.2256 70.6121 47.6148 71.2229 46.8633 71.2229C46.112 71.2229 45.501 70.6121 45.501 69.8606C45.501 69.1093 46.112 68.4983 46.8633 68.4983C47.6148 68.4983 48.2256 69.1093 48.2256 69.8606ZM72.8606 45.2256C72.1093 45.2256 71.4983 44.6148 71.4983 43.8633C71.4983 43.112 72.1093 42.501 72.8606 42.501C73.6121 42.501 74.2229 43.112 74.2229 43.8633C74.2229 44.6148 73.6121 45.2256 72.8606 45.2256Z" fill="url(#paint3_linear)"/>
<path d="M65.9054 61.7011L64.452 60.2473C64.1187 59.9151 63.5799 59.9151 63.2473 60.2473C62.9146 60.5799 62.9146 61.1192 63.2473 61.452L64.7011 62.9054C63.8356 64.329 63.9518 66.1851 65.1813 67.4143C66.6274 68.8604 68.9683 68.8609 70.4144 67.4143C71.8604 65.9683 71.8604 63.6276 70.4144 62.1813C69.1851 60.9518 67.3292 60.8356 65.9054 61.7011ZM69.2103 66.2103C68.4297 66.9909 67.1666 66.9909 66.3856 66.2103C65.607 65.4315 65.607 64.1644 66.3856 63.3856C67.1644 62.607 68.4313 62.607 69.2103 63.3856C69.9909 64.1662 69.9911 65.4297 69.2103 66.2103Z" fill="url(#paint4_linear)"/>
<defs>
<linearGradient id="paint0_linear" x1="41.1309" y1="31.7401" x2="41.1589" y2="37.8831" gradientUnits="userSpaceOnUse">
<stop stop-color="#014982"/>
<stop offset="1" stop-color="#00A9CB"/>
</linearGradient>
<linearGradient id="paint1_linear" x1="55.4841" y1="39.0577" x2="55.5121" y2="45.2007" gradientUnits="userSpaceOnUse">
<stop stop-color="#014982"/>
<stop offset="1" stop-color="#00A9CB"/>
</linearGradient>
<linearGradient id="paint2_linear" x1="41.1312" y1="46.1941" x2="41.1708" y2="54.8981" gradientUnits="userSpaceOnUse">
<stop stop-color="#014982"/>
<stop offset="1" stop-color="#00A9CB"/>
</linearGradient>
<linearGradient id="paint3_linear" x1="46.8702" y1="14.8007" x2="47.1356" y2="73.0456" gradientUnits="userSpaceOnUse">
<stop stop-color="#014982"/>
<stop offset="1" stop-color="#00A9CB"/>
</linearGradient>
<linearGradient id="paint4_linear" x1="67.2494" y1="59.9982" x2="67.2882" y2="68.5166" gradientUnits="userSpaceOnUse">
<stop stop-color="#014982"/>
<stop offset="1" stop-color="#00A9CB"/>
</linearGradient>
</defs>
</svg>
