<svg width="71" height="88" viewBox="0 0 71 88" fill="none" xmlns="http://www.w3.org/2000/svg">
<path d="M31.9334 3.53381C39.9333 -2.86628 48.9334 0.867144 52.4334 3.53381C57.4338 7.34368 57.0337 12.1337 63.4337 16.5337C69.8337 20.9337 69.9338 26.5339 67.9337 35.0337C65.4338 44.0339 59.8337 52.4337 65.4337 58.0337C71.0337 63.6337 71.4338 68.5339 67.9337 76.0339C60.4338 88.5339 48.6334 90.7337 33.4337 83.5337C18.234 76.3337 10.2435 70.7483 5.43337 63.5337C-1.56711 53.0339 -0.473024 41.3871 1.43337 35.0337C2.93359 30.0339 5.43382 25.5339 13.9337 23.5339C22.2574 21.5754 25.4338 8.03394 31.9334 3.53381Z" fill="#E9F1FB"/>
<path d="M70.5496 41.5594C70.1776 36.8986 68.5086 32.4501 65.723 28.695L64.0967 26.5027C63.0611 25.1067 61.5097 24.2233 59.8402 24.0791C59.393 24.0406 58.9512 24.0545 58.5208 24.1152C58.8733 23.318 59.2832 22.5463 59.75 21.8092C60.4056 20.7736 60.7522 19.5784 60.7522 18.3528V15.6796C60.7522 14.2021 59.5501 13 58.0726 13H57.8947C56.8225 13 55.856 13.6366 55.4325 14.6222L54.9838 15.6675C54.2084 17.4724 52.4383 18.6386 50.4739 18.6386C48.6338 18.6386 47.0699 19.893 46.6706 21.6892L46.317 23.2796C46.2115 23.754 45.7986 24.0852 45.3127 24.0852C44.8269 24.0852 44.414 23.754 44.3085 23.2798L43.9549 21.6892C43.5555 19.893 41.9916 18.6386 40.1516 18.6386C39.8791 18.6361 39.7131 18.6483 39.2095 18.5789C38.7139 18.5013 38.2491 18.8393 38.1711 19.3347C38.0929 19.8302 38.4313 20.2952 38.9269 20.3732C39.1612 20.4106 39.6586 20.4603 40.1516 20.455C41.1338 20.455 41.9686 21.1247 42.1819 22.0834L42.5354 23.6739C42.827 24.9855 43.9692 25.9016 45.3129 25.9016C46.6565 25.9016 47.7985 24.9855 48.0903 23.6739L48.4439 22.0835C48.6571 21.1247 49.4918 20.455 50.4741 20.455C53.1654 20.455 55.5907 18.8572 56.6529 16.3842L57.1017 15.339C57.2382 15.0215 57.5495 14.8164 57.895 14.8164H58.0729C58.5489 14.8164 58.936 15.2037 58.936 15.6796V18.3527C58.936 19.2338 58.6868 20.0931 58.2156 20.8374C57.4027 22.121 56.7441 23.4987 56.251 24.9355C55.1109 25.6183 54.0671 26.9202 53.6744 28.3422H48.4202C47.9185 28.3422 47.512 28.7488 47.512 29.2504C47.512 29.752 47.9185 30.1586 48.4202 30.1586H53.1443L50.9811 37.5721C50.8335 38.0777 50.3627 38.4308 49.8359 38.4308C49.1782 38.4308 48.6431 37.8957 48.6431 37.2379V35.3764C48.6431 33.5402 47.1491 32.0464 45.313 32.0464C43.4768 32.0464 41.9829 33.5402 41.9829 35.3764V37.2379C41.9829 37.8957 41.4478 38.4308 40.79 38.4308C40.2632 38.4308 39.7924 38.0777 39.6449 37.5721L37.4816 30.1586H44.1818C44.6835 30.1586 45.09 29.752 45.09 29.2504C45.09 28.7488 44.6835 28.3422 44.1818 28.3422H36.9516C36.5937 26.9953 35.5671 25.6584 34.3751 24.9358C33.882 23.4988 33.2232 22.1208 32.4104 20.8374C31.939 20.0931 31.6899 19.2338 31.6899 18.3527V15.6796C31.6899 15.2035 32.0771 14.8164 32.5531 14.8164C32.8987 14.8164 33.21 15.0215 33.3462 15.3389L33.7953 16.3843C34.04 16.9541 34.3616 17.4864 34.7513 17.9667C35.0672 18.3562 35.6393 18.4157 36.0288 18.0997C36.4184 17.7837 36.4779 17.2118 36.1619 16.8223C35.8777 16.472 35.643 16.0834 35.4644 15.6676L35.0154 14.6222C34.5918 13.6367 33.6252 13 32.5528 13C31.0754 13 29.8733 14.2021 29.8733 15.6796V18.3527C29.8733 19.5784 30.2198 20.7736 30.8756 21.8092C31.3423 22.5462 31.7524 23.3179 32.105 24.1153C31.6745 24.0545 31.2324 24.0405 30.7852 24.0791C29.1157 24.2233 27.5643 25.1067 26.5288 26.5027L24.9025 28.695C22.6364 31.7498 21.0792 35.341 20.3993 39.0806C19.7265 42.7809 19.9065 46.6484 20.92 50.265C21.0554 50.7479 21.5575 51.0302 22.0395 50.8945C22.5225 50.7591 22.8043 50.2579 22.6689 49.7748C20.756 42.9484 22.1365 35.4727 26.3613 29.7772L27.9876 27.5849C28.7134 26.6065 29.7902 25.9883 30.9417 25.8889C32.8642 25.723 34.651 26.9437 35.1905 28.7924L37.9012 38.0812C38.2733 39.3567 39.4614 40.2474 40.7899 40.2474C42.4491 40.2474 43.7992 38.8975 43.7992 37.2381V35.3767C43.7992 34.542 44.4782 33.863 45.3129 33.863C46.1476 33.863 46.8265 34.542 46.8265 35.3767V37.2381C46.8265 38.8975 48.1764 40.2474 49.8358 40.2474C51.1645 40.2474 52.3524 39.3567 52.7246 38.0812L55.4352 28.7924C55.9744 26.9438 57.7614 25.7226 59.684 25.8889C60.8355 25.9884 61.9121 26.6066 62.6381 27.5849L64.2644 29.7772C69.4904 36.8222 70.2554 46.4046 66.2128 54.1894C65.4072 55.741 63.8206 56.7049 62.0722 56.7049C60.3193 56.7049 58.7308 55.7374 57.9266 54.1797C56.4901 51.3975 53.6523 49.6691 50.5212 49.6691H40.105C36.9737 49.6691 34.1361 51.3975 32.6996 54.1797C31.8953 55.7373 30.3068 56.7049 28.554 56.7049C26.5913 56.6973 24.8819 55.4762 24.1095 53.5828C23.8916 53.1312 23.3489 52.9417 22.8967 53.1598C22.445 53.3779 22.2556 53.9208 22.4737 54.3725C23.4146 56.7221 25.9031 58.5844 28.554 58.5213C30.9893 58.5213 33.1963 57.1771 34.3135 55.0131C34.7827 54.1048 35.4431 53.3407 36.2311 52.758V54.7168C36.2311 55.7822 37.0223 56.6641 38.0475 56.8117V58.6766C37.0223 58.8243 36.2311 59.7061 36.2311 60.7715V63.7988C36.2311 64.8642 37.0223 65.7461 38.0475 65.8937V67.7586C37.0223 67.9063 36.2311 68.7881 36.2311 69.8535V72.8809C36.2311 74.0493 37.1818 75 38.3502 75H52.276C53.4444 75 54.3951 74.0493 54.3951 72.8809V69.8535C54.3951 68.7881 53.6039 67.9062 52.5787 67.7586V65.8937C53.6039 65.746 54.3951 64.8642 54.3951 63.7988V60.7715C54.3951 59.7061 53.6039 58.8242 52.5787 58.6766V56.8117C53.6039 56.664 54.3951 55.7822 54.3951 54.7168V52.758C55.1831 53.3407 55.8435 54.1048 56.3126 55.0131C57.4301 57.1771 59.6369 58.5213 62.0722 58.5213C64.5014 58.5213 66.7056 57.1821 67.8249 55.0264C69.9793 50.8769 70.9215 46.22 70.5496 41.5594ZM39.8635 58.6523V56.8359H50.7619V58.6523H39.8635ZM52.5784 72.8809C52.5784 73.0477 52.4426 73.1836 52.2756 73.1836H38.3498C38.1829 73.1836 38.0471 73.0477 38.0471 72.8809V69.8535C38.0471 69.6866 38.1829 69.5508 38.3498 69.5508H52.2756C52.4426 69.5508 52.5784 69.6866 52.5784 69.8535V72.8809ZM52.5784 63.7988C52.5784 63.9657 52.4426 64.1016 52.2756 64.1016H47.7629C47.2613 64.1016 46.8547 64.5082 46.8547 65.0098C46.8547 65.5113 47.2613 65.918 47.7629 65.918H50.7619V67.7344H39.8635V65.918H43.4036C43.9053 65.918 44.3118 65.5113 44.3118 65.0098C44.3118 64.5082 43.9053 64.1016 43.4036 64.1016H38.3498C38.1829 64.1016 38.0471 63.9657 38.0471 63.7988V60.7715C38.0471 60.6046 38.1829 60.4688 38.3498 60.4688H52.2756C52.4426 60.4688 52.5784 60.6046 52.5784 60.7715V63.7988ZM52.5784 54.7168C52.5784 54.8837 52.4426 55.0195 52.2756 55.0195H38.3498C38.1829 55.0195 38.0471 54.8837 38.0471 54.7168V51.8166C38.6993 51.6007 39.3921 51.4855 40.1046 51.4855H50.5209C51.2334 51.4855 51.9261 51.6007 52.5784 51.8166V54.7168Z" fill="url(#paint0_linear)"/>
<path d="M25.872 51.951C25.872 53.4534 27.0943 54.6756 28.5966 54.6756C30.0989 54.6756 31.3212 53.4534 31.3212 51.951C31.3212 50.4486 30.0989 49.2264 28.5966 49.2264C27.0943 49.2264 25.872 50.4486 25.872 51.951ZM28.5966 51.0428C29.0974 51.0428 29.5048 51.4502 29.5048 51.951C29.5048 52.4519 29.0974 52.8592 28.5966 52.8592C28.0957 52.8592 27.6884 52.4519 27.6884 51.951C27.6884 51.4502 28.0957 51.0428 28.5966 51.0428Z" fill="url(#paint1_linear)"/>
<path d="M59.576 28.4633C58.0737 28.4633 56.8514 29.6855 56.8514 31.1879C56.8514 32.6903 58.0737 33.9125 59.576 33.9125C61.0783 33.9125 62.3006 32.6903 62.3006 31.1879C62.3006 29.6855 61.0783 28.4633 59.576 28.4633ZM59.576 32.0961C59.0752 32.0961 58.6678 31.6888 58.6678 31.1879C58.6678 30.6871 59.0752 30.2797 59.576 30.2797C60.0768 30.2797 60.4842 30.6871 60.4842 31.1879C60.4842 31.6888 60.0768 32.0961 59.576 32.0961Z" fill="url(#paint2_linear)"/>
<path d="M65.9334 45.8164C65.9334 44.314 64.7111 43.0918 63.2088 43.0918C61.7065 43.0918 60.4842 44.314 60.4842 45.8164C60.4842 47.3188 61.7065 48.541 63.2088 48.541C64.7111 48.541 65.9334 47.3188 65.9334 45.8164ZM62.3006 45.8164C62.3006 45.3156 62.708 44.9082 63.2088 44.9082C63.7097 44.9082 64.117 45.3156 64.117 45.8164C64.117 46.3172 63.7097 46.7246 63.2088 46.7246C62.708 46.7246 62.3006 46.3172 62.3006 45.8164Z" fill="url(#paint3_linear)"/>
<path d="M59.8452 50.0199C59.3436 50.0199 58.9376 50.4266 58.9376 50.9281C58.9376 51.4297 59.3449 51.8363 59.8464 51.8363C60.3481 51.8363 60.7546 51.4297 60.7546 50.9281C60.7546 50.4266 60.3481 50.0199 59.8464 50.0199H59.8452Z" fill="url(#paint4_linear)"/>
<path d="M62.146 52.3207C61.6444 52.3207 61.2384 52.7273 61.2384 53.2289C61.2384 53.7305 61.6456 54.1371 62.1472 54.1371C62.6489 54.1371 63.0554 53.7305 63.0554 53.2289C63.0554 52.7273 62.6489 52.3207 62.1472 52.3207H62.146Z" fill="url(#paint5_linear)"/>
<path d="M48.0373 44.4055C48.0373 42.9031 46.815 41.6809 45.3127 41.6809C43.8104 41.6809 42.5881 42.9031 42.5881 44.4055C42.5881 45.908 43.8104 47.1302 45.3127 47.1302C46.815 47.1302 48.0373 45.9078 48.0373 44.4055ZM44.4045 44.4055C44.4045 43.9047 44.8119 43.4973 45.3127 43.4973C45.8136 43.4973 46.2209 43.9047 46.2209 44.4055C46.2209 44.9064 45.8136 45.3137 45.3127 45.3137C44.8119 45.3137 44.4045 44.9063 44.4045 44.4055Z" fill="url(#paint6_linear)"/>
<path d="M30.0936 30.127C28.5913 30.127 27.3689 31.3492 27.3689 32.8516C27.3689 34.354 28.5913 35.5762 30.0936 35.5762C31.5958 35.5762 32.8182 34.354 32.8182 32.8516C32.8182 31.3492 31.596 30.127 30.0936 30.127ZM30.0936 33.7598C29.5927 33.7598 29.1854 33.3525 29.1854 32.8516C29.1854 32.3508 29.5927 31.9434 30.0936 31.9434C30.5944 31.9434 31.0018 32.3508 31.0018 32.8516C31.0018 33.3525 30.5944 33.7598 30.0936 33.7598Z" fill="url(#paint7_linear)"/>
<path d="M30.806 42.0625C30.806 43.8988 32.2999 45.3926 34.136 45.3926C35.9722 45.3926 37.4661 43.8988 37.4661 42.0625C37.4661 40.2262 35.9722 38.7324 34.136 38.7324C32.2999 38.7324 30.806 40.2262 30.806 42.0625ZM34.136 40.5488C34.9707 40.5488 35.6497 41.2278 35.6497 42.0625C35.6497 42.8972 34.9707 43.5762 34.136 43.5762C33.3013 43.5762 32.6224 42.8972 32.6224 42.0625C32.6224 41.2278 33.3015 40.5488 34.136 40.5488Z" fill="url(#paint8_linear)"/>
<path d="M54.6975 39.1562C54.6975 40.9925 56.1915 42.4863 58.0276 42.4863C59.8637 42.4863 61.3577 40.9925 61.3577 39.1562C61.3577 37.32 59.8637 35.8262 58.0276 35.8262C56.1915 35.8262 54.6975 37.32 54.6975 39.1562ZM58.0276 37.6426C58.8623 37.6426 59.5413 38.3216 59.5413 39.1562C59.5413 39.9909 58.8623 40.6699 58.0276 40.6699C57.1929 40.6699 56.5139 39.9909 56.5139 39.1562C56.5139 38.3216 57.1929 37.6426 58.0276 37.6426Z" fill="url(#paint9_linear)"/>
<path d="M28.0463 45.7261C28.548 45.7261 28.9545 45.3194 28.9545 44.8179C28.9545 44.3163 28.548 43.9097 28.0463 43.9097H28.0451C27.5435 43.9097 27.1375 44.3163 27.1375 44.8179C27.1375 45.3194 27.5448 45.7261 28.0463 45.7261Z" fill="url(#paint10_linear)"/>
<path d="M25.7108 43.9472C25.7108 43.4456 25.3043 43.039 24.8026 43.039H24.8014C24.2998 43.039 23.8938 43.4456 23.8938 43.9472C23.8938 44.4488 24.301 44.8554 24.8026 44.8554C25.3043 44.8554 25.7108 44.4489 25.7108 43.9472Z" fill="url(#paint11_linear)"/>
<path d="M26.2108 47.2012C26.2108 46.6997 25.8043 46.293 25.3026 46.293H25.3014C24.7998 46.293 24.3938 46.6997 24.3938 47.2012C24.3938 47.7028 24.801 48.1094 25.3026 48.1094C25.8042 48.1094 26.2108 47.7028 26.2108 47.2012Z" fill="url(#paint12_linear)"/>
<path d="M54.6497 43.4581C54.1481 43.4581 53.7421 43.8647 53.7421 44.3663C53.7421 44.8679 54.1493 45.2745 54.6509 45.2745C55.1526 45.2745 55.5591 44.8679 55.5591 44.3663C55.5591 43.8647 55.1526 43.4581 54.6509 43.4581H54.6497Z" fill="url(#paint13_linear)"/>
<path d="M51.2371 44.7006H51.2359C50.7343 44.7006 50.3283 45.1073 50.3283 45.6089C50.3283 46.1104 50.7356 46.5171 51.2371 46.5171C51.7388 46.5171 52.1453 46.1104 52.1453 45.6089C52.1453 45.1073 51.7387 44.7006 51.2371 44.7006Z" fill="url(#paint14_linear)"/>
<path d="M51.9324 41.483H51.9312C51.4297 41.483 51.0236 41.8896 51.0236 42.3912C51.0236 42.8927 51.4309 43.2994 51.9324 43.2994C52.4341 43.2994 52.8406 42.8927 52.8406 42.3912C52.8406 41.8896 52.4341 41.483 51.9324 41.483Z" fill="url(#paint15_linear)"/>
<defs>
<linearGradient id="paint0_linear" x1="45.3204" y1="13" x2="45.6672" y2="75.1272" gradientUnits="userSpaceOnUse">
<stop stop-color="#014982"/>
<stop offset="1" stop-color="#00A9CB"/>
</linearGradient>
<linearGradient id="paint1_linear" x1="45.3204" y1="13" x2="45.6672" y2="75.1272" gradientUnits="userSpaceOnUse">
<stop stop-color="#014982"/>
<stop offset="1" stop-color="#00A9CB"/>
</linearGradient>
<linearGradient id="paint2_linear" x1="45.3204" y1="13" x2="45.6672" y2="75.1272" gradientUnits="userSpaceOnUse">
<stop stop-color="#014982"/>
<stop offset="1" stop-color="#00A9CB"/>
</linearGradient>
<linearGradient id="paint3_linear" x1="45.3204" y1="13" x2="45.6672" y2="75.1272" gradientUnits="userSpaceOnUse">
<stop stop-color="#014982"/>
<stop offset="1" stop-color="#00A9CB"/>
</linearGradient>
<linearGradient id="paint4_linear" x1="45.3204" y1="13" x2="45.6672" y2="75.1272" gradientUnits="userSpaceOnUse">
<stop stop-color="#014982"/>
<stop offset="1" stop-color="#00A9CB"/>
</linearGradient>
<linearGradient id="paint5_linear" x1="45.3204" y1="13" x2="45.6672" y2="75.1272" gradientUnits="userSpaceOnUse">
<stop stop-color="#014982"/>
<stop offset="1" stop-color="#00A9CB"/>
</linearGradient>
<linearGradient id="paint6_linear" x1="45.3204" y1="13" x2="45.6672" y2="75.1272" gradientUnits="userSpaceOnUse">
<stop stop-color="#014982"/>
<stop offset="1" stop-color="#00A9CB"/>
</linearGradient>
<linearGradient id="paint7_linear" x1="45.3204" y1="13" x2="45.6672" y2="75.1272" gradientUnits="userSpaceOnUse">
<stop stop-color="#014982"/>
<stop offset="1" stop-color="#00A9CB"/>
</linearGradient>
<linearGradient id="paint8_linear" x1="45.3204" y1="13" x2="45.6672" y2="75.1272" gradientUnits="userSpaceOnUse">
<stop stop-color="#014982"/>
<stop offset="1" stop-color="#00A9CB"/>
</linearGradient>
<linearGradient id="paint9_linear" x1="45.3204" y1="13" x2="45.6672" y2="75.1272" gradientUnits="userSpaceOnUse">
<stop stop-color="#014982"/>
<stop offset="1" stop-color="#00A9CB"/>
</linearGradient>
<linearGradient id="paint10_linear" x1="45.3204" y1="13" x2="45.6672" y2="75.1272" gradientUnits="userSpaceOnUse">
<stop stop-color="#014982"/>
<stop offset="1" stop-color="#00A9CB"/>
</linearGradient>
<linearGradient id="paint11_linear" x1="45.3204" y1="13" x2="45.6672" y2="75.1272" gradientUnits="userSpaceOnUse">
<stop stop-color="#014982"/>
<stop offset="1" stop-color="#00A9CB"/>
</linearGradient>
<linearGradient id="paint12_linear" x1="45.3204" y1="13" x2="45.6672" y2="75.1272" gradientUnits="userSpaceOnUse">
<stop stop-color="#014982"/>
<stop offset="1" stop-color="#00A9CB"/>
</linearGradient>
<linearGradient id="paint13_linear" x1="45.3204" y1="13" x2="45.6672" y2="75.1272" gradientUnits="userSpaceOnUse">
<stop stop-color="#014982"/>
<stop offset="1" stop-color="#00A9CB"/>
</linearGradient>
<linearGradient id="paint14_linear" x1="45.3204" y1="13" x2="45.6672" y2="75.1272" gradientUnits="userSpaceOnUse">
<stop stop-color="#014982"/>
<stop offset="1" stop-color="#00A9CB"/>
</linearGradient>
<linearGradient id="paint15_linear" x1="45.3204" y1="13" x2="45.6672" y2="75.1272" gradientUnits="userSpaceOnUse">
<stop stop-color="#014982"/>
<stop offset="1" stop-color="#00A9CB"/>
</linearGradient>
</defs>
</svg>
