<svg width="77" height="88" viewBox="0 0 77 88" fill="none" xmlns="http://www.w3.org/2000/svg">
<path d="M31.9334 3.53381C39.9333 -2.86628 48.9334 0.867144 52.4334 3.53381C57.4338 7.34368 57.0337 12.1337 63.4337 16.5337C69.8337 20.9337 69.9338 26.5339 67.9337 35.0337C65.4338 44.0339 59.8337 52.4337 65.4337 58.0337C71.0337 63.6337 71.4338 68.5339 67.9337 76.0339C60.4338 88.5339 48.6334 90.7337 33.4337 83.5337C18.234 76.3337 10.2435 70.7483 5.43337 63.5337C-1.56711 53.0339 -0.473024 41.3871 1.43337 35.0337C2.93359 30.0339 5.43382 25.5339 13.9337 23.5339C22.2574 21.5754 25.4338 8.03394 31.9334 3.53381Z" fill="#E9F1FB"/>
<g clip-path="url(#clip0)">
<path d="M42.4277 67.7344C31.5775 67.7344 22.75 58.907 22.75 48.0566C22.75 45.4065 23.268 42.835 24.2898 40.4132C24.4849 39.951 25.0175 39.7346 25.4797 39.9294C25.9418 40.1244 26.1584 40.6572 25.9635 41.1192C25.0365 43.3163 24.5664 45.6504 24.5664 48.0566C24.5664 57.9054 32.5789 65.918 42.4277 65.918C52.2767 65.918 60.2891 57.9054 60.2891 48.0566C60.2891 38.2078 52.2765 30.1953 42.4277 30.1953C36.7131 30.1953 31.2991 32.9635 27.9452 37.6004C27.6511 38.0068 27.0835 38.098 26.6769 37.8041C26.2706 37.5101 26.1794 36.9424 26.4733 36.5359C30.1678 31.4283 36.1321 28.3789 42.4277 28.3789C53.2781 28.3789 62.1055 37.2063 62.1055 48.0566C62.1055 58.907 53.2781 67.7344 42.4277 67.7344Z" fill="url(#paint0_linear)"/>
<path d="M42.4297 75C41.2094 75 40.0527 74.5237 39.1628 73.6526C38.4058 72.9114 37.9126 71.9345 37.7575 70.8982C34.8294 70.3045 32.0881 69.1696 29.5903 67.517C28.769 68.1497 27.7681 68.4924 26.7144 68.4924C25.491 68.4924 24.3308 68.0261 23.4477 67.1795C22.5402 66.3095 22.0331 65.1261 22.0196 63.847C22.0085 62.7873 22.3507 61.7474 22.9743 60.9047C21.3203 58.4076 20.1839 55.667 19.5886 52.7395C18.5606 52.606 17.6109 52.141 16.8666 51.3968C16.0015 50.5316 15.511 49.3813 15.4852 48.1579C15.4587 46.9009 15.9369 45.7055 16.8317 44.7915C17.573 44.0346 18.5497 43.5415 19.5859 43.3863C20.1797 40.4581 21.3146 37.7169 22.9671 35.2193C22.3344 34.398 21.9917 33.397 21.9917 32.3434C21.9917 31.12 22.4579 29.9599 23.3046 29.0766C24.1746 28.1692 25.3581 27.662 26.6372 27.6486C27.6961 27.6319 28.7368 27.9797 29.5795 28.6033C32.0766 26.9493 34.8171 25.8128 37.7446 25.2175C37.878 24.1895 38.343 23.2399 39.0872 22.4956C39.9523 21.6306 41.1024 21.14 42.326 21.1141C43.5843 21.0866 44.7786 21.5658 45.6925 22.4607C46.4493 23.2018 46.9425 24.1786 47.0977 25.2148C49.8733 25.7784 52.4953 26.8353 54.9011 28.3613C54.9396 28.3857 55.0492 28.4507 55.2957 28.573C55.3079 28.5639 55.3199 28.5549 55.3322 28.5457C55.4514 28.4574 55.4933 28.3064 55.4364 28.1698C55.3615 27.9901 55.2895 27.8033 55.2232 27.6153C54.8083 26.4447 54.5976 25.214 54.5976 23.959C54.5976 21.0317 55.7375 18.2797 57.8073 16.2098C59.8773 14.14 62.6293 13 65.5566 13C68.4839 13 71.2359 14.14 73.3057 16.21C73.522 16.4261 73.7325 16.655 73.9311 16.8899C74.2549 17.2729 74.2067 17.8461 73.8235 18.1697C73.4404 18.4934 72.8674 18.4453 72.5437 18.0622C72.3779 17.866 72.2022 17.6749 72.0215 17.4944C70.2946 15.7675 67.9987 14.8164 65.5566 14.8164C63.1145 14.8164 60.8186 15.7675 59.0918 17.4943C57.3651 19.2209 56.414 21.5169 56.414 23.959C56.414 25.0067 56.5896 26.0332 56.9359 27.0098C56.9914 27.167 57.0508 27.3218 57.1132 27.4712C57.4914 28.379 57.2033 29.4213 56.4132 30.006C56.3712 30.0372 56.3299 30.0695 56.2892 30.1033C55.8426 30.473 55.2116 30.5481 54.6817 30.2944C54.3419 30.1317 54.0958 30.0014 53.9293 29.8961C51.5246 28.3707 48.8868 27.3541 46.0887 26.874C45.6528 26.7992 45.3342 26.4212 45.3342 25.9788V25.9182C45.3342 25.1134 45.0018 24.3263 44.4221 23.7588C43.86 23.2083 43.1265 22.9181 42.3647 22.9303C41.6119 22.9463 40.9041 23.248 40.372 23.7803C39.8234 24.3286 39.5214 25.0586 39.5214 25.8359V25.9788C39.5214 26.4211 39.2028 26.7991 38.7669 26.874C35.6043 27.4167 32.6675 28.6334 30.0382 30.4904C29.6766 30.7457 29.1837 30.7033 28.8712 30.3899L28.828 30.3466C28.2597 29.7783 27.472 29.4582 26.6566 29.4652C25.8699 29.4735 25.1453 29.782 24.616 30.3341C24.0952 30.8773 23.8083 31.5912 23.8083 32.3438C23.8083 33.1202 24.1108 33.8503 24.6601 34.3997L24.7617 34.5013C25.0743 34.8139 25.1164 35.3063 24.8613 35.6674C23.0045 38.2967 21.7877 41.2334 21.245 44.3961C21.1702 44.832 20.7922 45.1506 20.3499 45.1506H20.2892C19.4844 45.1506 18.6973 45.483 18.1299 46.0627C17.5795 46.6248 17.2852 47.3554 17.3015 48.1199C17.3173 48.8728 17.6191 49.5805 18.1513 50.1127C18.6996 50.6609 19.4297 50.9629 20.207 50.9629H20.3499C20.7922 50.9629 21.1702 51.2815 21.245 51.7174C21.7877 54.88 23.0045 57.8168 24.8613 60.4462C25.1164 60.8073 25.0742 61.2997 24.7617 61.6124L24.7183 61.6557C24.1492 62.2249 23.8277 63.0166 23.8362 63.8279C23.8444 64.6145 24.1531 65.339 24.705 65.8683C25.2482 66.3891 25.962 66.676 26.7147 66.676C27.4911 66.676 28.2212 66.3735 28.7706 65.8244L28.8722 65.7226C29.1849 65.4102 29.6772 65.3678 30.0383 65.6231C32.6677 67.48 35.6044 68.6967 38.767 69.2394C39.203 69.3142 39.5216 69.6922 39.5216 70.1346V70.1952C39.5216 71 39.8541 71.7871 40.4338 72.3547C40.9958 72.905 41.7289 73.1982 42.4909 73.1831C43.2437 73.1671 43.9514 72.8654 44.4836 72.3332C45.0321 71.7848 45.3341 71.0546 45.3341 70.2773V70.1345C45.3341 69.6922 45.6527 69.3142 46.0886 69.2393C49.2512 68.6966 52.188 67.4798 54.8173 65.623C55.1778 65.3682 55.6695 65.4096 55.9824 65.7217L56.0258 65.7649C56.5959 66.3351 57.3915 66.6598 58.1988 66.6482C58.9854 66.6399 59.7101 66.3314 60.2394 65.7793C60.7602 65.2361 61.0471 64.5222 61.0471 63.7695C61.0471 62.9931 60.7446 62.2631 60.1954 61.7138L60.0941 61.6125C59.781 61.2998 59.7388 60.8073 59.994 60.446C61.851 57.8166 63.0678 54.8798 63.6105 51.7172C63.6852 51.2811 64.0633 50.9626 64.5056 50.9626H64.5663C65.3711 50.9626 66.1582 50.6302 66.7256 50.0506C67.276 49.4885 67.5703 48.7579 67.5542 47.9934C67.5382 47.2406 67.2364 46.5328 66.7042 46.0006C66.1558 45.4523 65.4256 45.1503 64.6484 45.1503H64.5055C64.0633 45.1503 63.6853 44.8317 63.6104 44.3959C63.0927 41.3803 61.9593 38.5648 60.2417 36.0277C60.1875 35.9462 60.1443 35.8625 60.105 35.7649C59.8956 35.2455 59.9944 34.6529 60.3622 34.218C60.4787 34.0802 60.5822 33.9318 60.6702 33.7764C61.1551 32.921 62.148 32.5042 63.0856 32.7631C63.8908 32.9887 64.7185 33.1017 65.5565 33.1017C67.9986 33.1017 70.2945 32.1506 72.0212 30.4239C73.7482 28.697 74.6992 26.4011 74.6992 23.959C74.6992 23.111 74.5833 22.2714 74.3548 21.464C74.2182 20.9814 74.4988 20.4794 74.9814 20.3428C75.4641 20.2059 75.9661 20.4869 76.1026 20.9694C76.3767 21.9379 76.5156 22.9437 76.5156 23.959C76.5156 26.8863 75.3756 29.6383 73.3057 31.7083C71.2359 33.7781 68.4839 34.918 65.5566 34.918C64.5528 34.918 63.5602 34.7823 62.6063 34.515C62.4692 34.4773 62.3242 34.542 62.2506 34.6717C62.143 34.8618 62.021 35.0456 61.8869 35.2201C63.5357 37.7106 64.6718 40.4511 65.2666 43.3737C66.2944 43.5071 67.2442 43.9721 67.9885 44.7164C68.8537 45.5817 69.3442 46.732 69.37 47.9553C69.3965 49.2122 68.9183 50.4077 68.0234 51.3217C67.2823 52.0785 66.3056 52.5716 65.2692 52.7269C64.6755 55.6549 63.5406 58.3961 61.8879 60.894C62.5209 61.7153 62.8635 62.7163 62.8635 63.7698C62.8635 64.9933 62.3971 66.1534 61.5506 67.0366C60.6804 67.9441 59.4969 68.4514 58.2178 68.4647C58.2012 68.4648 58.1845 68.4649 58.1679 68.4649C57.1256 68.4649 56.1052 68.1237 55.2757 67.5099C52.7785 69.164 50.0383 70.3004 47.1106 70.8958C46.9772 71.9236 46.5122 72.8734 45.7678 73.6177C44.9027 74.4828 43.7525 74.9732 42.529 74.999C42.496 74.9996 42.4628 75 42.4297 75Z" fill="url(#paint1_linear)"/>
<path d="M50.541 58.8945C47.0356 58.8945 44.1836 56.0425 44.1836 52.5371C44.1836 49.0317 47.0356 46.1797 50.541 46.1797C54.0464 46.1797 56.8984 49.0317 56.8984 52.5371C56.8984 56.0425 54.0464 58.8945 50.541 58.8945ZM50.541 47.9961C48.037 47.9961 46 50.0331 46 52.5371C46 55.0411 48.037 57.0781 50.541 57.0781C53.045 57.0781 55.082 55.0411 55.082 52.5371C55.082 50.0331 53.045 47.9961 50.541 47.9961Z" fill="url(#paint2_linear)"/>
<path d="M38.3711 43.8789C36.368 43.8789 34.7383 42.2492 34.7383 40.2461C34.7383 38.243 36.368 36.6133 38.3711 36.6133C40.3742 36.6133 42.0039 38.243 42.0039 40.2461C42.0039 42.2492 40.3742 43.8789 38.3711 43.8789ZM38.3711 38.4297C37.3695 38.4297 36.5547 39.2445 36.5547 40.2461C36.5547 41.2477 37.3695 42.0625 38.3711 42.0625C39.3727 42.0625 40.1875 41.2477 40.1875 40.2461C40.1875 39.2445 39.3727 38.4297 38.3711 38.4297Z" fill="url(#paint3_linear)"/>
<path d="M38.7344 50.6602C38.0667 50.6602 37.5234 50.1169 37.5234 49.4492C37.5234 48.7815 38.0667 48.2383 38.7344 48.2383C39.4021 48.2383 39.9453 48.7815 39.9453 49.4492C39.9453 50.1169 39.4021 50.6602 38.7344 50.6602Z" fill="url(#paint4_linear)"/>
<path d="M49.6328 40.9727C48.9651 40.9727 48.4219 40.4294 48.4219 39.7617C48.4219 39.094 48.9651 38.5508 49.6328 38.5508C50.3005 38.5508 50.8438 39.094 50.8438 39.7617C50.8438 40.4294 50.3005 40.9727 49.6328 40.9727Z" fill="url(#paint5_linear)"/>
<path d="M49.6328 53.082C48.9651 53.082 48.4219 52.5388 48.4219 51.8711C48.4219 51.2034 48.9651 50.6602 49.6328 50.6602C50.3005 50.6602 50.8438 51.2034 50.8438 51.8711C50.8438 52.5388 50.3005 53.082 49.6328 53.082Z" fill="url(#paint6_linear)"/>
<path d="M29.7129 50.7812C28.2105 50.7812 26.9883 49.5589 26.9883 48.0566C26.9883 46.5544 28.2105 45.332 29.7129 45.332C31.2153 45.332 32.4375 46.5544 32.4375 48.0566C32.4375 49.5589 31.2153 50.7812 29.7129 50.7812ZM29.7129 47.1484C29.212 47.1484 28.8047 47.5558 28.8047 48.0566C28.8047 48.5575 29.212 48.9648 29.7129 48.9648C30.2137 48.9648 30.6211 48.5575 30.6211 48.0566C30.6211 47.5558 30.2137 47.1484 29.7129 47.1484Z" fill="url(#paint7_linear)"/>
<path d="M37.0996 62.2852C34.9296 62.2852 33.1641 60.5197 33.1641 58.3496C33.1641 56.1795 34.9296 54.4141 37.0996 54.4141C39.2696 54.4141 41.0352 56.1795 41.0352 58.3496C41.0352 60.5197 39.2697 62.2852 37.0996 62.2852ZM37.0996 56.2305C35.9312 56.2305 34.9805 57.1812 34.9805 58.3496C34.9805 59.518 35.9312 60.4688 37.0996 60.4688C38.268 60.4688 39.2188 59.518 39.2188 58.3496C39.2188 57.1812 38.2682 56.2305 37.0996 56.2305Z" fill="url(#paint8_linear)"/>
<path d="M63.6797 23.3535C62.1774 23.3535 60.9551 22.1312 60.9551 20.6289C60.9551 19.1266 62.1774 17.9043 63.6797 17.9043C65.182 17.9043 66.4043 19.1266 66.4043 20.6289C66.4043 22.1312 65.182 23.3535 63.6797 23.3535ZM63.6797 19.7207C63.1788 19.7207 62.7715 20.1281 62.7715 20.6289C62.7715 21.1298 63.1788 21.5371 63.6797 21.5371C64.1805 21.5371 64.5879 21.1298 64.5879 20.6289C64.5879 20.1281 64.1805 19.7207 63.6797 19.7207Z" fill="url(#paint9_linear)"/>
<path d="M66.1016 30.6191C64.5993 30.6191 63.377 29.3968 63.377 27.8945C63.377 26.3922 64.5993 25.1699 66.1016 25.1699C67.6039 25.1699 68.8262 26.3922 68.8262 27.8945C68.8262 29.3968 67.6039 30.6191 66.1016 30.6191ZM66.1016 26.9863C65.6007 26.9863 65.1934 27.3937 65.1934 27.8945C65.1934 28.3954 65.6007 28.8027 66.1016 28.8027C66.6024 28.8027 67.0098 28.3954 67.0098 27.8945C67.0098 27.3937 66.6024 26.9863 66.1016 26.9863Z" fill="url(#paint10_linear)"/>
</g>
<defs>
<linearGradient id="paint0_linear" x1="42.4324" y1="28.3789" x2="42.6121" y2="67.8155" gradientUnits="userSpaceOnUse">
<stop stop-color="#014982"/>
<stop offset="1" stop-color="#00A9CB"/>
</linearGradient>
<linearGradient id="paint1_linear" x1="46.0071" y1="13" x2="46.2948" y2="75.1278" gradientUnits="userSpaceOnUse">
<stop stop-color="#014982"/>
<stop offset="1" stop-color="#00A9CB"/>
</linearGradient>
<linearGradient id="paint2_linear" x1="50.5425" y1="46.1797" x2="50.6006" y2="58.9207" gradientUnits="userSpaceOnUse">
<stop stop-color="#014982"/>
<stop offset="1" stop-color="#00A9CB"/>
</linearGradient>
<linearGradient id="paint3_linear" x1="38.372" y1="36.6133" x2="38.4051" y2="43.8939" gradientUnits="userSpaceOnUse">
<stop stop-color="#014982"/>
<stop offset="1" stop-color="#00A9CB"/>
</linearGradient>
<linearGradient id="paint4_linear" x1="38.7347" y1="48.2383" x2="38.7457" y2="50.6651" gradientUnits="userSpaceOnUse">
<stop stop-color="#014982"/>
<stop offset="1" stop-color="#00A9CB"/>
</linearGradient>
<linearGradient id="paint5_linear" x1="49.6331" y1="38.5508" x2="49.6442" y2="40.9776" gradientUnits="userSpaceOnUse">
<stop stop-color="#014982"/>
<stop offset="1" stop-color="#00A9CB"/>
</linearGradient>
<linearGradient id="paint6_linear" x1="49.6331" y1="50.6602" x2="49.6442" y2="53.087" gradientUnits="userSpaceOnUse">
<stop stop-color="#014982"/>
<stop offset="1" stop-color="#00A9CB"/>
</linearGradient>
<linearGradient id="paint7_linear" x1="29.7135" y1="45.332" x2="29.7384" y2="50.7925" gradientUnits="userSpaceOnUse">
<stop stop-color="#014982"/>
<stop offset="1" stop-color="#00A9CB"/>
</linearGradient>
<linearGradient id="paint8_linear" x1="37.1005" y1="54.4141" x2="37.1365" y2="62.3014" gradientUnits="userSpaceOnUse">
<stop stop-color="#014982"/>
<stop offset="1" stop-color="#00A9CB"/>
</linearGradient>
<linearGradient id="paint9_linear" x1="63.6803" y1="17.9043" x2="63.7052" y2="23.3648" gradientUnits="userSpaceOnUse">
<stop stop-color="#014982"/>
<stop offset="1" stop-color="#00A9CB"/>
</linearGradient>
<linearGradient id="paint10_linear" x1="66.1022" y1="25.1699" x2="66.1271" y2="30.6304" gradientUnits="userSpaceOnUse">
<stop stop-color="#014982"/>
<stop offset="1" stop-color="#00A9CB"/>
</linearGradient>
<clipPath id="clip0">
<rect width="62" height="62" fill="white" transform="translate(15 13)"/>
</clipPath>
</defs>
</svg>
