<svg width="79" height="88" viewBox="0 0 79 88" fill="none" xmlns="http://www.w3.org/2000/svg">
<path d="M31.9334 3.53381C39.9333 -2.86628 48.9334 0.867144 52.4334 3.53381C57.4338 7.34368 57.0337 12.1337 63.4337 16.5337C69.8337 20.9337 69.9338 26.5339 67.9337 35.0337C65.4338 44.0339 59.8337 52.4337 65.4337 58.0337C71.0337 63.6337 71.4338 68.5339 67.9337 76.0339C60.4338 88.5339 48.6334 90.7337 33.4337 83.5337C18.234 76.3337 10.2435 70.7483 5.43337 63.5337C-1.56711 53.0339 -0.473024 41.3871 1.43337 35.0337C2.93359 30.0339 5.43382 25.5339 13.9337 23.5339C22.2574 21.5754 25.4338 8.03394 31.9334 3.53381Z" fill="#E9F1FB"/>
<g clip-path="url(#clip0)">
<path d="M74.9297 39.9273C71.4786 34.3205 65.9343 30.875 62.9365 29.3204C61.3878 28.5173 59.4116 29.2442 58.7602 30.8832L57.9385 32.9503C57.3692 34.3821 57.9651 36.003 59.3245 36.7204C59.8989 37.0237 60.4639 37.3509 61.0172 37.6942L58.2978 39.9412C57.979 40.2046 57.7235 40.5257 57.5385 40.8956L54.9103 46.152H42.4884L41.745 44.0865C43.8341 43.1666 44.8882 40.7659 44.1037 38.5863L41.8048 32.1983C41.1798 30.4617 39.5204 29.295 37.6755 29.295C37.2713 29.295 36.8712 29.3518 36.482 29.4622L36.0077 28.1441C38.0968 27.2243 39.1509 24.8236 38.3664 22.644L36.324 16.969C35.699 15.2324 34.0395 14.0655 32.1947 14.0655C31.7464 14.0655 31.303 14.1345 30.8741 14.2701C30.5695 13.8579 30.1659 13.5248 29.689 13.3004C28.9308 12.9434 28.079 12.9032 27.2906 13.1871C27.2906 13.1871 22.7096 14.8357 22.7066 14.8367C21.1004 15.4147 20.2386 17.2435 20.8171 18.8508L23.5662 26.4898C23.7361 26.9617 24.2564 27.2067 24.7284 27.0368C25.2003 26.867 25.4453 26.3467 25.2755 25.8747C25.2755 25.8747 22.5287 18.2428 22.5262 18.2357C22.2819 17.557 22.6448 16.7893 23.3216 16.5457C23.3216 16.5457 27.8979 14.8987 27.9056 14.896C28.5836 14.652 29.3525 15.0158 29.5956 15.6914L40.9955 47.3674C41.1252 47.7279 41.4671 47.968 41.8501 47.968H65.8339C66.9721 47.968 67.8981 48.894 67.8981 50.0322V55.9239C67.8981 57.062 66.9721 57.988 65.8339 57.988H60.3577C59.8561 57.988 59.4495 58.3947 59.4495 58.8962C59.4495 59.3978 59.8561 59.8044 60.3577 59.8044H64.3379L63.8554 60.7324C63.297 61.8059 62.1983 62.4729 60.9882 62.4729H53.0018H45.9118C44.7016 62.4729 43.603 61.8059 43.0447 60.7324L42.5621 59.8044H56.7319C57.2335 59.8044 57.6401 59.3978 57.6401 58.8962C57.6401 58.3947 57.2335 57.988 56.7319 57.988H41.0662C38.534 57.988 36.2566 56.3872 35.3992 54.0046L26.6349 29.6528C26.4651 29.1808 25.9448 28.9359 25.4727 29.1057C25.0008 29.2756 24.756 29.7958 24.9258 30.2678L33.6899 54.62C34.7421 57.5437 37.4372 59.562 40.5038 59.7836L41.4331 61.5707C42.0255 62.7098 43.0079 63.5546 44.1691 63.9801L40.2912 68.3625H34.4252C32.3803 68.3625 30.4839 69.5519 29.5932 71.3926C28.7983 73.0353 30.0373 75 31.8552 75C31.8552 75 66.2157 75 66.247 75C68.0698 75 69.3034 73.034 68.5092 71.3926C67.6187 69.5519 65.722 68.3625 63.6772 68.3625H49.8067L53.4109 64.2895H60.9882C62.8785 64.2895 64.5944 63.2477 65.4666 61.5707L66.4073 59.762C68.276 59.484 69.7144 57.869 69.7144 55.9242V50.0325C69.7144 47.8928 67.9735 46.1521 65.8339 46.1521H61.5046L62.5352 44.0909L65.7315 41.4499C66.4751 42.2239 67.1889 43.0925 67.7994 44.049C68.604 45.31 70.2652 45.8051 71.6223 45.1688C71.6223 45.1688 73.6384 44.2234 73.6395 44.2229C75.2374 43.4735 75.8576 41.4345 74.9297 39.9273ZM35.3903 26.4293L31.6184 15.948C31.8076 15.9042 32.0004 15.882 32.1945 15.882C33.2758 15.882 34.2484 16.566 34.6148 17.5841L36.6572 23.2592C37.1022 24.4959 36.5379 25.8548 35.3903 26.4293ZM41.1277 42.3715L37.0992 31.1775C37.2886 31.1337 37.4814 31.1115 37.6755 31.1115C38.7567 31.1115 39.7294 31.7954 40.0957 32.8136L42.3946 39.2014C42.8397 40.4381 42.2754 41.7969 41.1277 42.3715ZM63.6771 70.179C65.0301 70.179 66.285 70.9659 66.8743 72.1842C67.0963 72.6436 66.7525 73.1838 66.2471 73.1838C66.2471 73.1838 31.9444 73.1838 31.8555 73.1838C31.3485 73.1838 31.0081 72.6389 31.2282 72.1838C31.8173 70.9659 33.0724 70.179 34.4252 70.179H63.6771ZM47.3812 68.3626H42.7166L46.3209 64.2896H50.9854L47.3812 68.3626ZM61.2302 42.8129C61.1326 42.8936 61.053 42.9937 60.9963 43.1068L59.4737 46.1521H56.9409L59.163 41.7081C59.2341 41.5659 59.3321 41.4426 59.4546 41.3414L62.5943 38.7471C63.2212 39.1974 63.8258 39.6799 64.4065 40.1883L61.2302 42.8129ZM73.5029 41.8351C73.4083 42.151 73.1865 42.4292 72.8682 42.5784C72.8682 42.5784 70.853 43.5233 70.8511 43.5242C70.3066 43.7795 69.6515 43.5752 69.3304 43.0721C68.4878 41.7517 67.4747 40.5915 66.4462 39.5987C65.3997 38.5886 64.2824 37.6497 63.0616 36.8556C63.0604 36.8547 63.0589 36.8543 63.0577 36.8534C62.1345 36.2234 61.1643 35.638 60.172 35.1143C59.6351 34.8308 59.4003 34.189 59.626 33.6213C59.626 33.6213 60.4461 31.5585 60.4478 31.5541C60.7036 30.9105 61.4845 30.6134 62.1001 30.9326C64.931 32.4009 70.1612 35.6453 73.3825 40.8793C73.5656 41.1766 73.5959 41.5241 73.5029 41.8351Z" fill="url(#paint0_linear)"/>
</g>
<defs>
<linearGradient id="paint0_linear" x1="48.0067" y1="13" x2="48.3274" y2="75.1275" gradientUnits="userSpaceOnUse">
<stop stop-color="#014982"/>
<stop offset="1" stop-color="#00A9CB"/>
</linearGradient>
<clipPath id="clip0">
<rect width="62" height="62" fill="white" transform="translate(17 13)"/>
</clipPath>
</defs>
</svg>
