<svg width="75" height="88" viewBox="0 0 75 88" fill="none" xmlns="http://www.w3.org/2000/svg">
<path d="M31.9334 3.53381C39.9333 -2.86628 48.9334 0.867144 52.4334 3.53381C57.4338 7.34368 57.0337 12.1337 63.4337 16.5337C69.8337 20.9337 69.9338 26.5339 67.9337 35.0337C65.4338 44.0339 59.8337 52.4337 65.4337 58.0337C71.0337 63.6337 71.4338 68.5339 67.9337 76.0339C60.4338 88.5339 48.6334 90.7337 33.4337 83.5337C18.234 76.3337 10.2435 70.7483 5.43337 63.5337C-1.56711 53.0339 -0.473024 41.3871 1.43337 35.0337C2.93359 30.0339 5.43382 25.5339 13.9337 23.5339C22.2574 21.5754 25.4338 8.03394 31.9334 3.53381Z" fill="#E9F1FB"/>
<path d="M72.6151 33.363C72.3943 32.9127 71.8505 32.7265 71.3996 32.9476C70.9493 33.1685 70.7634 33.7127 70.9843 34.163C72.802 37.8681 73.1836 41.6799 73.1836 44.2252C73.1836 47.6647 72.47 54.1486 67.6915 58.9271C66.1654 60.4532 64.1363 61.2937 61.9779 61.2937C59.8198 61.2937 57.7906 60.4532 56.2645 58.9271C54.7382 57.4009 53.8978 55.3719 53.8978 53.2135C53.8978 51.8375 54.2408 50.5148 54.8839 49.3407C54.9028 49.3119 54.9194 49.2817 54.9348 49.2509C55.2922 48.6177 55.7362 48.0283 56.2644 47.5C56.5803 47.1841 56.8428 46.8394 57.0521 46.4721C57.0554 46.4663 57.0589 46.4608 57.062 46.4549C57.1137 46.3633 57.1626 46.2706 57.2076 46.1763C58.1491 46.7487 58.7128 47.6239 58.9901 48.1657C59.1509 48.4797 59.4691 48.6601 59.7992 48.6601C59.9385 48.6601 60.0799 48.6279 60.2124 48.5601C60.659 48.3315 60.8354 47.7843 60.6069 47.3378C59.9087 45.9744 58.8708 44.936 57.6395 44.3483C57.6406 44.3073 57.6424 44.2665 57.6424 44.2252C57.6424 43.9981 57.6261 43.7748 57.5945 43.5559C58.8466 42.9726 59.898 41.9289 60.6068 40.5445C60.8354 40.0981 60.6587 39.5508 60.2123 39.3222C59.7656 39.0935 59.2186 39.2702 58.99 39.7167C58.6869 40.3089 58.0527 41.2797 56.9702 41.8389C56.9289 41.7721 56.8857 41.7061 56.8407 41.6409C56.83 41.6252 56.8192 41.6097 56.8076 41.5947C56.6481 41.3693 56.4677 41.1536 56.2644 40.9505C53.1139 37.8 53.1139 32.6738 56.2644 29.5233C57.7904 27.9972 59.8196 27.1567 61.9778 27.1567C64.1361 27.1567 66.1652 27.9972 67.6915 29.5234C68.0805 29.9124 68.4554 30.3267 68.8058 30.7548C69.1234 31.1431 69.6959 31.2001 70.0838 30.8824C70.4721 30.5646 70.5292 29.9924 70.2115 29.6043C69.823 29.1296 69.4073 28.6703 68.9759 28.239C65.1172 24.3802 58.8386 24.3803 54.9801 28.239C51.7242 31.4948 51.2156 36.4734 53.454 40.2675L52.2253 39.838C50.9207 39.3819 49.8253 38.4698 49.1408 37.2694L47.4446 34.2955C46.9628 33.4508 46.7083 32.4904 46.7083 31.5179V21.0824C46.7083 19.6042 45.5751 18.3929 44.1282 18.3248C43.3783 18.2897 42.6692 18.5545 42.1281 19.0707C41.5947 19.5797 41.2887 20.2943 41.2887 21.0315V31.518C41.2887 32.4904 41.0341 33.4509 40.5523 34.2956L38.8564 37.2693C38.1718 38.4697 37.0762 39.3819 35.7718 39.8378L34.549 40.2652C35.4413 38.7579 35.9184 37.0342 35.9184 35.2366C35.9184 32.5932 34.889 30.108 33.0198 28.2388C31.1506 26.3696 28.6654 25.34 26.0219 25.34C23.3785 25.34 20.8931 26.3694 19.0241 28.2388C13.7826 33.4804 13 40.5046 13 44.2252C13 47.4548 13.6066 53.6296 17.669 58.6984C17.9826 59.0898 18.5543 59.1529 18.9457 58.8391C19.3371 58.5255 19.4 57.9538 19.0864 57.5625C15.3711 52.9269 14.8164 47.2164 14.8164 44.2252C14.8164 40.7856 15.5299 34.3019 20.3085 29.5233C21.8346 27.9972 23.8637 27.1567 26.0221 27.1567C28.1803 27.1567 30.2095 27.9972 31.7356 29.5233C33.2618 31.0495 34.1023 33.0785 34.1023 35.2369C34.1023 37.3953 33.2619 39.4243 31.7356 40.9505C31.5327 41.1534 31.3526 41.3686 31.1932 41.5935C31.1817 41.6084 31.1711 41.6237 31.1605 41.6392C31.1151 41.705 31.0714 41.7715 31.0298 41.8389C29.9473 41.2797 29.3131 40.3089 29.0099 39.7166C28.7813 39.2702 28.234 39.0937 27.7876 39.3222C27.3411 39.5508 27.1646 40.0981 27.3932 40.5445C28.1021 41.9289 29.1535 42.9726 30.4055 43.5558C30.3739 43.7748 30.3577 43.9981 30.3577 44.2251C30.3577 44.2664 30.3596 44.3072 30.3606 44.3483C29.1292 44.936 28.0913 45.9743 27.3932 47.3378C27.1646 47.7843 27.3413 48.3315 27.7876 48.5601C27.9202 48.6279 28.0615 48.6601 28.2008 48.6601C28.5309 48.6601 28.8491 48.4796 29.0099 48.1657C29.2874 47.6239 29.8509 46.7487 30.7925 46.1763C30.8398 46.2754 30.8915 46.3729 30.9462 46.4691C30.953 46.4813 30.9599 46.4935 30.9672 46.5054C31.1733 46.8602 31.4293 47.1937 31.7355 47.4999C32.2635 48.0279 32.7072 48.617 33.0645 49.2499C33.0802 49.2812 33.0972 49.312 33.1165 49.3414C33.7592 50.5153 34.102 51.8379 34.102 53.2135C34.102 55.3717 33.2616 57.4009 31.7354 58.9271C29.1588 61.5036 25.1555 62.0372 22.0004 60.2245C21.5654 59.9746 21.0104 60.1246 20.7604 60.5595C20.5106 60.9945 20.6606 61.5496 21.0955 61.7995C22.6283 62.68 24.3241 63.1088 26.0096 63.1088C28.5746 63.1088 31.1155 62.1158 33.0197 60.2115C34.8889 58.3423 35.9183 55.8571 35.9183 53.2136C35.9183 52.2111 35.7695 51.2316 35.4837 50.2995L35.6117 50.3396C36.4131 50.5906 36.9516 51.3235 36.9516 52.1632V66.9685C36.9516 68.4627 38.1672 69.6782 39.6613 69.6782C41.1555 69.6782 42.3712 68.4627 42.3712 66.9685V52.1632C42.3712 48.9419 40.3058 46.1307 37.2317 45.1677L37.0822 45.1208L37.56 44.9538C40.0991 44.0662 42.2313 42.2906 43.5638 39.9542L43.9983 39.1924L44.4327 39.954C45.7653 42.2906 47.8975 44.0662 50.4367 44.9538L50.9159 45.1213L50.7678 45.1677C47.6937 46.1306 45.6285 48.9419 45.6285 52.1632V66.9685C45.6285 68.4627 46.844 69.6782 48.3382 69.6782C49.8324 69.6782 51.0479 68.4627 51.0479 66.9685V52.1632C51.0479 51.3235 51.5863 50.5905 52.3878 50.3396L52.5158 50.2995C52.23 51.2316 52.0812 52.2111 52.0812 53.2136C52.0812 55.8571 53.1106 58.3424 54.9797 60.2115C56.9093 62.1411 59.443 63.1058 61.9777 63.1055C64.5116 63.1053 67.0464 62.1406 68.9756 60.2115C74.2174 54.9701 75 47.9457 75 44.2252C75 41.4876 74.5862 37.381 72.6151 33.363ZM40.555 52.1632V66.9685C40.555 67.4611 40.1542 67.8618 39.6616 67.8618C39.169 67.8618 38.7683 67.4611 38.7683 66.9685V52.1632C38.7683 50.5252 37.718 49.0958 36.1548 48.6061L34.4884 48.0842C34.1373 47.5068 33.7234 46.9632 33.2522 46.4596L34.2102 46.1248L36.6888 46.9011C39.0014 47.6254 40.555 49.7402 40.555 52.1632ZM46.0106 39.0541L44.9447 37.1849C44.7511 36.8459 44.3885 36.6353 43.9982 36.6354C43.6079 36.6355 43.2453 36.8461 43.0522 37.185L41.986 39.0542C40.8707 41.0099 39.0859 42.4961 36.9606 43.239L32.2539 44.8842C32.2027 44.6725 32.1737 44.4533 32.1737 44.2251C32.1737 43.7467 32.2872 43.3041 32.5111 42.9018L36.3711 41.5525C38.0893 40.9519 39.5322 39.7504 40.4342 38.1692L42.1301 35.1955C42.7679 34.077 43.105 32.8054 43.105 31.518V21.0315C43.105 20.7848 43.2033 20.5552 43.3818 20.385C43.5602 20.2148 43.7955 20.1277 44.0426 20.1392C44.5108 20.1612 44.8916 20.5843 44.8916 21.0824V31.5177C44.8916 32.8052 45.2287 34.0769 45.8667 35.1953L47.5627 38.1692C48.4642 39.7503 49.9072 40.9519 51.6258 41.5525L55.4894 42.903C55.7128 43.3051 55.8259 43.7472 55.8259 44.2251C55.8259 44.4537 55.7968 44.6732 55.7455 44.8852L51.0362 43.2391C48.911 42.4962 47.1262 41.01 46.0106 39.0541ZM51.8449 48.6061C50.2819 49.0958 49.2316 50.5252 49.2316 52.1632V66.9685C49.2316 67.4611 48.8308 67.8618 48.3383 67.8618C47.8458 67.8618 47.445 67.4611 47.445 66.9685V52.1632C47.445 49.7402 48.9986 47.6254 51.311 46.9011L53.7882 46.1253L54.7469 46.4603C54.2761 46.9637 53.8625 47.5071 53.5114 48.0841L51.8449 48.6061Z" fill="url(#paint0_linear)"/>
<defs>
<linearGradient id="paint0_linear" x1="44.0074" y1="18.3217" x2="44.2016" y2="69.7845" gradientUnits="userSpaceOnUse">
<stop stop-color="#014982"/>
<stop offset="1" stop-color="#00A9CB"/>
</linearGradient>
</defs>
</svg>
